<svg xmlns="http://www.w3.org/2000/svg" xmlns:xlink="http://www.w3.org/1999/xlink" viewBox="0 0 375 520">
  <defs>
    <style>
      .cls-1 {
        clip-path: url(#clip-iPhone_X_2);
      }

      .cls-2 {
        opacity: 0.372;
      }

      .cls-2, .cls-3 {
        fill: url(#linear-gradient);
      }

      .cls-4 {
        opacity: 0.189;
      }

      .cls-5, .cls-58 {
        fill: none;
      }

      .cls-5 {
        stroke: #fff;
        stroke-width: 3px;
      }

      .cls-50, .cls-6 {
        fill: #fff;
      }

      .cls-6 {
        opacity: 0.775;
      }

      .cls-7 {
        opacity: 0.343;
        fill: url(#linear-gradient-3);
      }

      .cls-8 {
        fill: url(#linear-gradient-4);
      }

      .cls-9 {
        fill: #2a4671;
      }

      .cls-10 {
        fill: #568cdd;
      }

      .cls-11 {
        fill: url(#linear-gradient-5);
      }

      .cls-12 {
        fill: url(#linear-gradient-6);
      }

      .cls-13 {
        fill: url(#linear-gradient-7);
      }

      .cls-14 {
        fill: url(#linear-gradient-8);
      }

      .cls-15, .cls-19 {
        fill: #9ceadf;
      }

      .cls-15 {
        opacity: 0.736;
      }

      .cls-16 {
        fill: url(#linear-gradient-9);
      }

      .cls-17 {
        fill: #0043aa;
        opacity: 0.743;
      }

      .cls-18 {
        fill: url(#linear-gradient-10);
      }

      .cls-20 {
        fill: url(#linear-gradient-11);
      }

      .cls-21 {
        fill: url(#linear-gradient-12);
      }

      .cls-22 {
        fill: url(#linear-gradient-13);
      }

      .cls-23 {
        fill: url(#linear-gradient-14);
      }

      .cls-24 {
        fill: url(#linear-gradient-15);
      }

      .cls-25 {
        fill: url(#linear-gradient-16);
      }

      .cls-26 {
        fill: url(#linear-gradient-17);
      }

      .cls-27 {
        fill: url(#linear-gradient-18);
      }

      .cls-28 {
        fill: url(#linear-gradient-19);
      }

      .cls-29 {
        fill: url(#linear-gradient-23);
      }

      .cls-30 {
        fill: url(#linear-gradient-24);
      }

      .cls-31 {
        fill: url(#linear-gradient-25);
      }

      .cls-32 {
        fill: #6ec7ef;
      }

      .cls-33 {
        fill: #ecf5ff;
      }

      .cls-34 {
        fill: #ffc5d0;
      }

      .cls-35 {
        fill: #484848;
      }

      .cls-36 {
        fill: #1f62a2;
      }

      .cls-37 {
        fill: #f1f2f2;
      }

      .cls-38 {
        fill: #f0a5b4;
      }

      .cls-39 {
        fill: #f26d5c;
      }

      .cls-40 {
        fill: #3b3289;
      }

      .cls-41 {
        fill: #ffb2c2;
      }

      .cls-42 {
        opacity: 0.447;
      }

      .cls-43 {
        opacity: 0.123;
      }

      .cls-44 {
        fill: #81b6f0;
      }

      .cls-45 {
        fill: url(#linear-gradient-27);
      }

      .cls-46 {
        fill: #eaf4f4;
      }

      .cls-47 {
        fill: #e6e7e8;
      }

      .cls-48 {
        fill: url(#linear-gradient-28);
      }

      .cls-49 {
        fill: #3b4193;
      }

      .cls-51 {
        fill: #f7f7f7;
      }

      .cls-52 {
        fill: #484857;
      }

      .cls-53 {
        fill: url(#linear-gradient-30);
      }

      .cls-54 {
        fill: #5093e9;
      }

      .cls-55 {
        fill: url(#linear-gradient-32);
      }

      .cls-56 {
        fill: url(#linear-gradient-33);
      }

      .cls-57 {
        stroke: none;
      }
    </style>
    <linearGradient id="linear-gradient" x1="0.5" x2="0.5" y2="1" gradientUnits="objectBoundingBox">
      <stop offset="0" stop-color="#d6f2f2"/>
      <stop offset="1" stop-color="#568cdd"/>
    </linearGradient>
    <linearGradient id="linear-gradient-3" x1="0.5" x2="0.5" y2="1" gradientUnits="objectBoundingBox">
      <stop offset="0" stop-color="#6bb2a0"/>
      <stop offset="1" stop-color="#365950"/>
    </linearGradient>
    <linearGradient id="linear-gradient-4" x1="0.411" y1="0.827" x2="0.804" y2="0.609" gradientUnits="objectBoundingBox">
      <stop offset="0" stop-color="#62e6c5"/>
      <stop offset="1" stop-color="#568cdd"/>
    </linearGradient>
    <linearGradient id="linear-gradient-5" x1="0.765" y1="0.798" x2="-0.07" y2="-0.269" gradientUnits="objectBoundingBox">
      <stop offset="0" stop-color="#62e6c5"/>
      <stop offset="1" stop-color="#4188f2"/>
    </linearGradient>
    <linearGradient id="linear-gradient-6" x1="0.5" y1="-0.197" x2="0.5" y2="0.819" xlink:href="#linear-gradient-4"/>
    <linearGradient id="linear-gradient-7" y1="0.657" x2="1" y2="-0.114" gradientUnits="objectBoundingBox">
      <stop offset="0" stop-color="#fff"/>
      <stop offset="0.061" stop-color="#62e6c5"/>
      <stop offset="1" stop-color="#568cdd"/>
    </linearGradient>
    <linearGradient id="linear-gradient-8" x1="0.627" y1="1.168" x2="0.58" y2="-0.071" gradientUnits="objectBoundingBox">
      <stop offset="0" stop-color="#568cdd"/>
      <stop offset="1" stop-color="#62e6c5"/>
    </linearGradient>
    <linearGradient id="linear-gradient-9" x1="0.686" y1="1.481" x2="0.252" y2="-0.357" gradientUnits="objectBoundingBox">
      <stop offset="0" stop-color="#9ceadf"/>
      <stop offset="1" stop-color="#fff"/>
    </linearGradient>
    <linearGradient id="linear-gradient-10" x1="0.675" y1="0.14" x2="1.001" y2="1.25" gradientUnits="objectBoundingBox">
      <stop offset="0" stop-color="#62e6c5"/>
      <stop offset="1" stop-color="#d6f2f2" stop-opacity="0.11"/>
    </linearGradient>
    <linearGradient id="linear-gradient-11" x1="1.084" y1="-0.231" x2="-0.024" y2="1.118" xlink:href="#linear-gradient-8"/>
    <linearGradient id="linear-gradient-12" x1="0.5" y1="0" x2="0.5" y2="1.263" xlink:href="#linear-gradient-4"/>
    <linearGradient id="linear-gradient-13" x1="0.5" y1="0" x2="0.5" y2="1" xlink:href="#linear-gradient-4"/>
    <linearGradient id="linear-gradient-14" x1="0.5" y1="1.497" x2="0.5" y2="-0.33" xlink:href="#linear-gradient-8"/>
    <linearGradient id="linear-gradient-15" x1="1.22" y1="0.352" x2="-0.129" y2="0.44" xlink:href="#linear-gradient-4"/>
    <linearGradient id="linear-gradient-16" x1="-0.504" y1="-0.607" x2="0.47" y2="0.796" xlink:href="#linear-gradient-4"/>
    <linearGradient id="linear-gradient-17" x1="-0.061" y1="0.86" x2="1.006" y2="0.244" gradientUnits="objectBoundingBox">
      <stop offset="0" stop-color="#9ceadf"/>
      <stop offset="0.581" stop-color="#5790dc"/>
      <stop offset="1" stop-color="#5aabd4" stop-opacity="0"/>
    </linearGradient>
    <linearGradient id="linear-gradient-18" x1="0.009" y1="0.775" x2="1.006" y2="0.244" xlink:href="#linear-gradient-17"/>
    <linearGradient id="linear-gradient-19" x1="-0.163" y1="0.824" x2="1.006" y2="0.244" xlink:href="#linear-gradient-17"/>
    <linearGradient id="linear-gradient-23" x1="1.02" y1="0.278" x2="-0.185" y2="0.119" xlink:href="#linear-gradient-4"/>
    <linearGradient id="linear-gradient-24" x1="1.128" y1="-0.067" x2="0.034" y2="0.231" xlink:href="#linear-gradient-4"/>
    <linearGradient id="linear-gradient-25" x1="1.042" y1="-0.271" x2="-0.034" y2="0.199" xlink:href="#linear-gradient-4"/>
    <linearGradient id="linear-gradient-27" x1="0.3" y1="0.101" x2="0.5" y2="1" xlink:href="#linear-gradient-4"/>
    <linearGradient id="linear-gradient-28" x1="0.5" y1="0" x2="0" y2="0.882" xlink:href="#linear-gradient-4"/>
    <linearGradient id="linear-gradient-30" x1="1.503" y1="-0.147" x2="-0.337" y2="1.399" xlink:href="#linear-gradient-4"/>
    <linearGradient id="linear-gradient-32" x1="0.2" y1="0.061" x2="0.507" y2="0.521" xlink:href="#linear-gradient-4"/>
    <linearGradient id="linear-gradient-33" x1="0.143" y1="0.099" x2="0.424" y2="0.665" xlink:href="#linear-gradient-4"/>
    <clipPath id="clip-iPhone_X_2">
      <rect width="375" height="520"/>
    </clipPath>
  </defs>
  <g id="iPhone_X_2" data-name="iPhone X – 2" class="cls-1">
    <rect class="cls-50" width="375" height="520"/>
    <path id="Path_354" data-name="Path 354" class="cls-2" d="M0,0H375V437.9l-154.6,35.66s-21.462,4.655-31.568,4.59-31.02-4.59-31.02-4.59L0,437.9Z" transform="translate(0 13)"/>
    <path id="Path_353" data-name="Path 353" class="cls-3" d="M0,0H375V437.9l-154.6,35.66s-21.462,4.655-31.568,4.59-31.02-4.59-31.02-4.59L0,437.9Z"/>
    <g id="Group_120" data-name="Group 120" class="cls-4" transform="translate(8 -221)">
      <g id="Rectangle_57" data-name="Rectangle 57" class="cls-5" transform="matrix(0.883, -0.469, 0.469, 0.883, 82.476, 226.865)">
        <rect class="cls-57" width="20" height="20" rx="5"/>
        <rect class="cls-58" x="1.5" y="1.5" width="17" height="17" rx="3.5"/>
      </g>
      <g id="Rectangle_58" data-name="Rectangle 58" class="cls-5" transform="matrix(0.839, -0.545, 0.545, 0.839, 300.167, 212.06)">
        <rect class="cls-57" width="20" height="20" rx="5"/>
        <rect class="cls-58" x="1.5" y="1.5" width="17" height="17" rx="3.5"/>
      </g>
      <g id="Rectangle_59" data-name="Rectangle 59" class="cls-5" transform="matrix(0.883, 0.469, -0.469, 0.883, 5.865, 367.476)">
        <rect class="cls-57" width="20" height="20" rx="5"/>
        <rect class="cls-58" x="1.5" y="1.5" width="17" height="17" rx="3.5"/>
      </g>
      <g id="Rectangle_60" data-name="Rectangle 60" class="cls-5" transform="matrix(0.616, -0.788, 0.788, 0.616, 77.963, 641.724)">
        <rect class="cls-57" width="20" height="20" rx="5"/>
        <rect class="cls-58" x="1.5" y="1.5" width="17" height="17" rx="3.5"/>
      </g>
      <g id="Rectangle_61" data-name="Rectangle 61" class="cls-5" transform="matrix(0.616, -0.788, 0.788, 0.616, 327.963, 613.724)">
        <rect class="cls-57" width="20" height="20" rx="5"/>
        <rect class="cls-58" x="1.5" y="1.5" width="17" height="17" rx="3.5"/>
      </g>
      <g id="Rectangle_62" data-name="Rectangle 62" class="cls-5" transform="matrix(0.616, -0.788, 0.788, 0.616, -5.037, 554.724)">
        <rect class="cls-57" width="20" height="20" rx="5"/>
        <rect class="cls-58" x="1.5" y="1.5" width="17" height="17" rx="3.5"/>
      </g>
      <g id="Rectangle_63" data-name="Rectangle 63" class="cls-5" transform="matrix(0.616, -0.788, 0.788, 0.616, 225.963, 479.724)">
        <rect class="cls-57" width="20" height="20" rx="5"/>
        <rect class="cls-58" x="1.5" y="1.5" width="17" height="17" rx="3.5"/>
      </g>
      <g id="Rectangle_64" data-name="Rectangle 64" class="cls-5" transform="matrix(0.883, -0.469, 0.469, 0.883, 219.476, 326.865)">
        <rect class="cls-57" width="20" height="20" rx="5"/>
        <rect class="cls-58" x="1.5" y="1.5" width="17" height="17" rx="3.5"/>
      </g>
      <g id="Rectangle_65" data-name="Rectangle 65" class="cls-5" transform="matrix(0.883, -0.469, 0.469, 0.883, 347.476, 390.865)">
        <rect class="cls-57" width="20" height="20" rx="5"/>
        <rect class="cls-58" x="1.5" y="1.5" width="17" height="17" rx="3.5"/>
      </g>
      <g id="Rectangle_66" data-name="Rectangle 66" class="cls-5" transform="matrix(0.883, -0.469, 0.469, 0.883, 9.476, 72.865)">
        <rect class="cls-57" width="20" height="20" rx="5"/>
        <rect class="cls-58" x="1.5" y="1.5" width="17" height="17" rx="3.5"/>
      </g>
      <g id="Rectangle_67" data-name="Rectangle 67" class="cls-5" transform="matrix(0.883, -0.469, 0.469, 0.883, 201.476, 99.865)">
        <rect class="cls-57" width="20" height="20" rx="5"/>
        <rect class="cls-58" x="1.5" y="1.5" width="17" height="17" rx="3.5"/>
      </g>
      <g id="Rectangle_68" data-name="Rectangle 68" class="cls-5" transform="matrix(0.883, -0.469, 0.469, 0.883, 347.476, 58.865)">
        <rect class="cls-57" width="20" height="20" rx="5"/>
        <rect class="cls-58" x="1.5" y="1.5" width="17" height="17" rx="3.5"/>
      </g>
      <g id="Ellipse_42" data-name="Ellipse 42" class="cls-5" transform="translate(110 317)">
        <circle class="cls-57" cx="11" cy="11" r="11"/>
        <circle class="cls-58" cx="11" cy="11" r="9.5"/>
      </g>
      <g id="Ellipse_43" data-name="Ellipse 43" class="cls-5" transform="translate(331 288)">
        <circle class="cls-57" cx="11" cy="11" r="11"/>
        <circle class="cls-58" cx="11" cy="11" r="9.5"/>
      </g>
      <g id="Ellipse_44" data-name="Ellipse 44" class="cls-5" transform="translate(177 204)">
        <circle class="cls-57" cx="11" cy="11" r="11"/>
        <circle class="cls-58" cx="11" cy="11" r="9.5"/>
      </g>
      <g id="Ellipse_45" data-name="Ellipse 45" class="cls-5" transform="translate(66 118)">
        <circle class="cls-57" cx="11" cy="11" r="11"/>
        <circle class="cls-58" cx="11" cy="11" r="9.5"/>
      </g>
      <g id="Ellipse_46" data-name="Ellipse 46" class="cls-5" transform="translate(289 129)">
        <circle class="cls-57" cx="11" cy="11" r="11"/>
        <circle class="cls-58" cx="11" cy="11" r="9.5"/>
      </g>
      <g id="Ellipse_47" data-name="Ellipse 47" class="cls-5" transform="translate(-11 245)">
        <circle class="cls-57" cx="11" cy="11" r="11"/>
        <circle class="cls-58" cx="11" cy="11" r="9.5"/>
      </g>
      <g id="Ellipse_48" data-name="Ellipse 48" class="cls-5" transform="translate(24 464)">
        <circle class="cls-57" cx="11" cy="11" r="11"/>
        <circle class="cls-58" cx="11" cy="11" r="9.5"/>
      </g>
      <g id="Ellipse_49" data-name="Ellipse 49" class="cls-5" transform="translate(-5 643)">
        <circle class="cls-57" cx="11" cy="11" r="11"/>
        <circle class="cls-58" cx="11" cy="11" r="9.5"/>
      </g>
      <g id="Ellipse_50" data-name="Ellipse 50" class="cls-5" transform="translate(233 643)">
        <circle class="cls-57" cx="11" cy="11" r="11"/>
        <circle class="cls-58" cx="11" cy="11" r="9.5"/>
      </g>
      <g id="Ellipse_51" data-name="Ellipse 51" class="cls-5" transform="translate(331 513)">
        <circle class="cls-57" cx="11" cy="11" r="11"/>
        <circle class="cls-58" cx="11" cy="11" r="9.5"/>
      </g>
      <g id="Ellipse_52" data-name="Ellipse 52" class="cls-5" transform="translate(114 412)">
        <circle class="cls-57" cx="11" cy="11" r="11"/>
        <circle class="cls-58" cx="11" cy="11" r="9.5"/>
      </g>
      <g id="Ellipse_53" data-name="Ellipse 53" class="cls-5" transform="translate(166 567)">
        <circle class="cls-57" cx="11" cy="11" r="11"/>
        <circle class="cls-58" cx="11" cy="11" r="9.5"/>
      </g>
      <g id="Rectangle_69" data-name="Rectangle 69" class="cls-5" transform="matrix(0.616, -0.788, 0.788, 0.616, 103.963, 525.724)">
        <rect class="cls-57" width="20" height="20" rx="5"/>
        <rect class="cls-58" x="1.5" y="1.5" width="17" height="17" rx="3.5"/>
      </g>
      <g id="Ellipse_54" data-name="Ellipse 54" class="cls-5" transform="translate(267 395)">
        <circle class="cls-57" cx="11" cy="11" r="11"/>
        <circle class="cls-58" cx="11" cy="11" r="9.5"/>
      </g>
    </g>
    <g id="Group_119" data-name="Group 119" transform="translate(-4 -115)">
      <path id="Path_351" data-name="Path 351" class="cls-6" d="M-198.728,1.286l38.043,377.91c0,18.664,21.124,33.794,47.181,33.794l765.071,20.231c26.057,0,15.129-121.778,15.129-121.778Z" transform="translate(73.318 -7.61) rotate(5)"/>
      <path id="Path_350" data-name="Path 350" class="cls-6" d="M540.52-100.408,531,340.417c0,16.749-17.909,30.327-40,30.327L-157.625,388.9c-22.091,0-11.98-149.7-11.98-166.451C176.595,58.778,540.52-100.408,540.52-100.408Z" transform="matrix(0.993, -0.122, 0.122, 0.993, -13.36, 67.99)"/>
      <g id="Group_6" data-name="Group 6" transform="translate(-6999.437 -1498.18)">
        <path id="Path_310" data-name="Path 310" class="cls-7" d="M4875.393,371.339l91.093-51.763a7.758,7.758,0,0,1,2.7-.576,11.34,11.34,0,0,1,3.051.576l54.4,31.2a14.428,14.428,0,0,1,1.6,1.2,2.1,2.1,0,0,1,.512,1.048,1.615,1.615,0,0,1-.4,1.408,8.965,8.965,0,0,1-1.827,1.371L4886.7,436.152a13.666,13.666,0,0,1-3.484.407,5.808,5.808,0,0,1-2.531-.726l-2.838-1.442a11.946,11.946,0,0,0-1.869-.3,7.944,7.944,0,0,0-1.66.6l-3.568,1.877a8.94,8.94,0,0,1-2.552.429,10.391,10.391,0,0,1-3.493-1.155L4825.125,413.1a4.029,4.029,0,0,1-.767-2.189,3.78,3.78,0,0,1,.763-1.734l1.528-.8s2.544-1.223,2.531-1.594-1.428-1.116-1.428-1.116l-2.626-1.737s-1.316-1.131-1.1-2.227a3.883,3.883,0,0,1,1.452-1.963Z" transform="translate(2267.791 1484.06)"/>
        <path id="Path_311" data-name="Path 311" class="cls-8" d="M4985.024,376.1l-32.769,43.637,93.691,51.682,69.718-39.273-123.007-64.21Z" transform="translate(2172.75 1398.482)"/>
        <path id="Path_312" data-name="Path 312" class="cls-9" d="M0,.014,2.979,0,1,1.7Z" transform="matrix(0.875, 0.485, -0.485, 0.875, 7216.105, 1868.458)"/>
        <rect id="Rectangle_54" data-name="Rectangle 54" class="cls-10" width="33.428" height="1.744" transform="matrix(0.875, 0.485, -0.485, 0.875, 7187.785, 1852.698)"/>
        <path id="Path_313" data-name="Path 313" class="cls-11" d="M4985.024,376.1l-32.769,43.637,93.691,51.682-53.289-103.483h0Z" transform="translate(2172.75 1398.482)"/>
        <path id="Path_314" data-name="Path 314" class="cls-12" d="M1.227-4.182l51,28.167c1.284,0,4.145-5.018,4.145-3.733L54.065,63.307c0,1.284,9.674,36.241,8.389,36.241L3.232,66.1S0,64.592,0,63.307V-.641C0-1.925-.058-4.182,1.227-4.182Z" transform="translate(7151.093 1706.034)"/>
        <path id="Path_315" data-name="Path 315" class="cls-13" d="M54.923,81.088,80.957,96.214c1.284,0-3.993,2.483-3.993,3.768L62.03,110.76c0,1.284-6.774,39.481-8.059,39.481l-60.211-34.3c-.471-.234-.563-.082-.563-.082l.342-.219L49.872,81.528C52.49,80.081,53.638,81.088,54.923,81.088Z" transform="translate(7158.533 1586.203)"/>
        <path id="Path_316" data-name="Path 316" class="cls-14" d="M81.954.59c6.579,0,14.656,1.309,21.289,4.733,23.557,12.163,38.98,52.182,38.98,92.166,0,35.331-16.948,68.877-38.344,83.057-9.558,6.334-21.251,4.678-30.577,4.678-5.131,0-24.505.619-28.806-1.562C23.763,173.149,0,135.734,0,93.3,0,54.232,19.608,18.733,38.689,4.412c2.134-1.6,2.463-3.02,8.3-3.811C56.922-.745,77.431.59,81.954.59Z" transform="translate(7166.952 1702.791) rotate(-29)"/>
        <path id="Path_317" data-name="Path 317" class="cls-15" d="M87.423,3.348S86.777,4.74,85.287,7.2a72.073,72.073,0,0,1-5.476,7.807C76.259,19.452,71.676,25.293,63.4,30.781c-9.558,6.334-21.251,4.678-30.577,4.678-5.131,0-24.505.619-28.806-1.562C-16.72,23.383,49.642,0,49.642,0L72.77,2.264Z" transform="translate(7274.966 1814.153) rotate(-29)"/>
        <ellipse id="Ellipse_39" data-name="Ellipse 39" class="cls-16" cx="54.066" cy="92.58" rx="54.066" ry="92.58" transform="translate(7162.192 1705.184) rotate(-29)"/>
        <ellipse id="Ellipse_40" data-name="Ellipse 40" class="cls-17" cx="37.061" cy="61.623" rx="37.061" ry="61.623" transform="translate(7191.898 1724.705) rotate(-29)"/>
        <ellipse id="Ellipse_41" data-name="Ellipse 41" class="cls-10" cx="35.462" cy="61.042" rx="35.462" ry="61.042" transform="translate(7194.806 1724.124) rotate(-29)"/>
        <path id="Path_318" data-name="Path 318" class="cls-18" d="M24.579,0s8.628,4.575,15.4,18.01a85.872,85.872,0,0,1,6.913,21.8,100.276,100.276,0,0,1,1.518,18.3c0,11.676-1.557,21.715-5.46,31.522a54.431,54.431,0,0,1-8.658,16.735c-5.705,8.257-15.36,11.594-15.36,11.594S0,88.9,0,55.668,24.579,0,24.579,0Z" transform="translate(7216.346 1715.859) rotate(-29)"/>
        <path id="Path_319" data-name="Path 319" class="cls-19" d="M4873.667,369.94l88.033-50.379a7.45,7.45,0,0,1,2.608-.561,10.888,10.888,0,0,1,2.948.561l52.575,30.368a13.908,13.908,0,0,1,1.541,1.171,2.051,2.051,0,0,1,.5,1.02,1.58,1.58,0,0,1-.383,1.37,8.646,8.646,0,0,1-1.765,1.334l-135.13,78.2a13.115,13.115,0,0,1-3.367.4,5.593,5.593,0,0,1-2.447-.707l-2.743-1.4a11.476,11.476,0,0,0-1.806-.3,7.629,7.629,0,0,0-1.6.58l-3.448,1.826a8.593,8.593,0,0,1-2.466.417,10,10,0,0,1-3.376-1.124l-38.244-22.124a3.945,3.945,0,0,1-.742-2.13,3.7,3.7,0,0,1,.738-1.688l1.476-.777s2.458-1.19,2.446-1.552-1.38-1.086-1.38-1.086l-2.538-1.69s-1.272-1.1-1.06-2.167a3.778,3.778,0,0,1,1.4-1.911Z" transform="translate(2263.722 1433.192)"/>
        <path id="Path_320" data-name="Path 320" class="cls-20" d="M7.885,9.048,30.012,0l-1.47,11.826-3.97,32.251a24.8,24.8,0,0,0,.069,3.244,3.927,3.927,0,0,0,.982,2.314L1.937,59.682A2.406,2.406,0,0,1,0,57.78L5.052,12.5C5.052,11.7,7.106,9.048,7.885,9.048Z" transform="matrix(0.391, -0.921, 0.921, 0.391, 7076.547, 1870.916)"/>
        <path id="Path_321" data-name="Path 321" class="cls-21" d="M-.949-7.476A12.978,12.978,0,0,0,.559-8.1C1.565-8.586,2.9-9.364,3.727-9.77c1.467-.722,1.861-.326,1.861-.326v25.38l-6.6,3.323Z" transform="translate(7132.914 1874.247)"/>
        <path id="Path_322" data-name="Path 322" class="cls-22" d="M5022.915,516.995l.079,26.484,1.808-.109,15.96-9.262L5057,524.683a19.269,19.269,0,0,0,3.973-4.506c1.677-2.705,1.249-2.694,2.731-6.314s1.735-4.923,3.294-8.072a18.236,18.236,0,0,1,2.942-4.524,23.205,23.205,0,0,1,4.5-3.688c3.259-2.2,8.536-5.111,8.536-5.111l78.765-45.272a3.826,3.826,0,0,0,.8-1.525,5.3,5.3,0,0,0,.375-2.52c.094-2.185-.131-5.805,0-6.22s-1.174.89-1.174.89-132.983,77.642-135.964,78.712S5022.915,516.995,5022.915,516.995Z" transform="translate(2122.63 1349.308)"/>
        <path id="Path_323" data-name="Path 323" class="cls-23" d="M-5.452-20.008a5.353,5.353,0,0,1,2.5.743c.242.043,2.041,1.088,3.2,1.445a3.14,3.14,0,0,0,1.78.145S2.271,6.507,2.2,7.5a.969.969,0,0,0,.614.945,2.352,2.352,0,0,0,1.3-.077s-.808,1.2-3.158.3a68.12,68.12,0,0,1-6.4-3.151Z" transform="translate(7143.623 1884.108)"/>
        <path id="Path_324" data-name="Path 324" class="cls-24" d="M4.645,0,136.157.62c3.211,0,9.051,1.6,11.966,5.96l19.746,34.189c.875,3.265-2.662,5.306-6.147,5.507H28.012c-3.211,0-8.458-6.376-8.482-7.148L0,4.379C0,1.168,1.434,0,4.645,0Z" transform="translate(7102.741 1831.453) rotate(-30)"/>
        <path id="Path_325" data-name="Path 325" class="cls-25" d="M1.188,0,25.674,7.944a1.755,1.755,0,0,1,1.238,1.7l1.4,13.244c0,.8-.407,1.569-1.21,1.569L4.016,17.082c-.814-.233-1.47-.571-1.47-1.374L0,1.27C0,.467.386,0,1.188,0Z" transform="translate(7154.732 1710.445) rotate(11)"/>
        <path id="Path_326" data-name="Path 326" class="cls-26" d="M1.032,2.377,28.262,0,26.985,2.278,0,5Z" transform="translate(7143.848 1869.506) rotate(-22)"/>
        <path id="Path_327" data-name="Path 327" class="cls-27" d="M1.033,2.406,28.232,0,26.954,2.278,0,5.032Z" transform="translate(7143.877 1875.017) rotate(-22)"/>
        <path id="Path_328" data-name="Path 328" class="cls-28" d="M1.033,2.406,28.232,0,26.954,2.278,0,5.032Z" transform="translate(7143.877 1879.959) rotate(-22)"/>
        <path id="Path_329" data-name="Path 329" class="cls-26" d="M0,4.888,41.4,0,40.125,2.278.3,8.222Z" transform="translate(7204.915 1842.164) rotate(-22)"/>
        <path id="Path_330" data-name="Path 330" class="cls-26" d="M0,4.888,41.4,0,40.125,2.278.3,8.222Z" transform="translate(7207.822 1847.977) rotate(-22)"/>
        <path id="Path_331" data-name="Path 331" class="cls-26" d="M0,4.888,41.4,0,40.125,2.278.3,8.222Z" transform="translate(7210.729 1853.5) rotate(-22)"/>
        <path id="Path_332" data-name="Path 332" class="cls-29" d="M.649,5.2S38.392,21.945,67.521,20.634,125.136,0,125.136,0l-.884,3.441S96.329,21.34,67.482,23.477,0,7.312,0,7.312Z" transform="translate(7336.389 1753.802) rotate(-132)"/>
        <path id="Path_333" data-name="Path 333" class="cls-30" d="M8.419,9.169S37.481,21.945,66.61,20.634,124.224,0,124.224,0l-.884,3.441S95.417,21.34,66.571,23.477,0,8.244,0,8.244L.722,5.963Z" transform="translate(7328.221 1757.775) rotate(-132)"/>
        <path id="Path_334" data-name="Path 334" class="cls-31" d="M.777,7.538s35.83,14.407,64.959,13.1S123.351,0,123.351,0l-.884,3.441S94.544,21.34,65.7,23.477,0,10.036,0,10.036Z" transform="translate(7318.625 1762.649) rotate(-132)"/>
        <g id="Group_103" data-name="Group 103" transform="translate(7085.723 1708.872)">
          <g id="Group_84" data-name="Group 84" transform="translate(0 0)">
            <path id="Path_247" data-name="Path 247" class="cls-32" d="M4.8,38.308V72.384L57.432,41.906V7.9Z" transform="translate(-1.414 -2.309)"/>
            <path id="Path_248" data-name="Path 248" class="cls-10" d="M1.834,30.118,53.69.134a.961.961,0,0,1,1.058,0h0l1.975,1.129L55.242,6.483V40.842a3.412,3.412,0,0,1-1.764,3.034L3.528,72.8l-.564,1.552L.988,73.226h0A1.958,1.958,0,0,1,0,71.532V33.293A3.793,3.793,0,0,1,1.834,30.118Z" transform="translate(0 0.025)"/>
            <path id="Path_249" data-name="Path 249" class="cls-33" d="M2.8,34.966V73.2a1.9,1.9,0,0,0,2.893,1.623l50.656-29.35a3.558,3.558,0,0,0,1.764-3.034V2.653a1.018,1.018,0,0,0-1.552-.917L4.634,31.791A3.618,3.618,0,0,0,2.8,34.966Z" transform="translate(-0.825 -0.448)"/>
            <path id="Path_250" data-name="Path 250" class="cls-22" d="M4.8,38.308V72.384L57.432,41.906V7.9Z" transform="translate(-1.414 -2.309)"/>
          </g>
          <g id="Group_85" data-name="Group 85" transform="translate(8.322 33.663)">
            <path id="Path_251" data-name="Path 251" class="cls-33" d="M18.148,49.178a10.2,10.2,0,0,1,5.08-1.482c2.822-.212,3.175,3.739,2.893,5.009s0,1.482.141,1.764a15.372,15.372,0,0,1,1.2,1.482c.212.423-.564,1.2-.847,1.482s-.071.635,0,.988-.494,1.058-.494,1.058a.773.773,0,0,1,.071.776,2.526,2.526,0,0,1-.423.776A2.869,2.869,0,0,1,24,64.065c-.494.282-1.058.564-1.623.847a.069.069,0,0,0-.071.071c-1.834,1.058-1.9,4.868-1.9,5.009l-8.4,4.868c3.034-7.2,1.27-10.724,1.2-10.936-1.552-1.27-1.411-3.81-1.411-3.951a14.189,14.189,0,0,1,3.245-8.466A16.933,16.933,0,0,1,18.148,49.178Z" transform="translate(-11.795 -47.688)"/>
          </g>
          <g id="Group_86" data-name="Group 86" transform="translate(27.727 19.419)">
            <path id="Path_252" data-name="Path 252" class="cls-33" d="M39.3,33.991v1.27L50.447,28.77V27.5Z" transform="translate(-39.3 -27.5)"/>
            <path id="Path_253" data-name="Path 253" class="cls-33" d="M39.3,38.961,50.447,32.47V31.2L39.3,37.691Z" transform="translate(-39.3 -28.59)"/>
            <path id="Path_254" data-name="Path 254" class="cls-33" d="M47.2,37.6l-7.9,4.515v1.27l7.9-4.515Z" transform="translate(-39.3 -30.474)"/>
            <path id="Path_255" data-name="Path 255" class="cls-33" d="M39.3,49.961,50.447,43.47V42.2L39.3,48.691Z" transform="translate(-39.3 -31.829)"/>
            <path id="Path_256" data-name="Path 256" class="cls-33" d="M48.9,39.8l-9.6,5.574v1.27l9.6-5.574Z" transform="translate(-39.3 -31.122)"/>
            <path id="Path_257" data-name="Path 257" class="cls-33" d="M39.3,54.68l6.632-3.88V49.6L39.3,53.41Z" transform="translate(-39.3 -34.008)"/>
          </g>
          <g id="Group_87" data-name="Group 87" transform="translate(41.978 11.165)">
            <path id="Path_258" data-name="Path 258" class="cls-33" d="M59.5,22.291v1.27L70.718,17.07V15.8Z" transform="translate(-59.5 -15.8)"/>
            <path id="Path_259" data-name="Path 259" class="cls-33" d="M59.5,27.161,70.718,20.67V19.4L59.5,25.891Z" transform="translate(-59.5 -16.86)"/>
            <path id="Path_260" data-name="Path 260" class="cls-33" d="M67.4,25.8l-7.9,4.586v1.27l7.9-4.586Z" transform="translate(-59.5 -18.745)"/>
            <path id="Path_261" data-name="Path 261" class="cls-33" d="M59.5,38.161,70.718,31.67V30.4L59.5,36.891Z" transform="translate(-59.5 -20.099)"/>
            <path id="Path_262" data-name="Path 262" class="cls-33" d="M69.1,28.1l-9.6,5.574v1.2L69.1,29.3Z" transform="translate(-59.5 -19.422)"/>
            <path id="Path_263" data-name="Path 263" class="cls-33" d="M59.5,42.95l6.7-3.88V37.8l-6.7,3.88Z" transform="translate(-59.5 -22.279)"/>
          </g>
          <path id="Path_264" data-name="Path 264" class="cls-33" d="M65.991,49.694l-3.457,1.623-.988-1.623a.258.258,0,0,0-.353-.141.315.315,0,0,0-.282.212L59.077,55.55l-1.552-6.067a.362.362,0,0,0-.706,0l-1.058,5.432L48,59.289l.353.564,7.9-4.445c.071-.071.141-.141.141-.212l.776-4.092,1.482,5.715c.071.141.141.282.353.282a.388.388,0,0,0,.353-.212l1.975-6.209.706,1.27a.339.339,0,0,0,.423.141L66.2,50.4Z" transform="translate(-14.135 -14.471)"/>
        </g>
        <g id="Group_104" data-name="Group 104" transform="matrix(0.643, 0.766, -0.766, 0.643, 7186.522, 1705.883)">
          <path id="Path_290" data-name="Path 290" class="cls-34" d="M5.46,0S3.475,1.82,2.647,2.4A6.169,6.169,0,0,0,0,6.453c.083.91.745,2.4,1.406,2.647s1.324-1.9,1.9-2.73C4.55,4.633,5.377,4.633,5.377,4.633a2.477,2.477,0,0,0-.331.827,15.426,15.426,0,0,1-.827,1.655c0,.083-.083.083,0,.165,0,.083.083.083.165.083.745.083,1.655-.827,1.9-1.406a47.76,47.76,0,0,1,2.9-4.136Z" transform="matrix(0.891, -0.454, 0.454, 0.891, 65.763, 57.144)"/>
          <path id="Path_291" data-name="Path 291" class="cls-35" d="M6.617.559s1.216,4.323-.769,4.9S-.663,6.681.082,10.073c.827,3.226,4.881,1.82,5.708,1.406a61.207,61.207,0,0,1,5.557-3.112c1.655-.579.713-3.969.134-6.782C10.985-1.227,6.617.559,6.617.559Z" transform="translate(61.125 106.699)"/>
          <path id="Path_292" data-name="Path 292" class="cls-35" d="M8.051.168s1.4,2.382-.586,2.961S-1.521,6.595.3,9.407A4.423,4.423,0,0,0,6.007,10.9c.827-.414,4.113-2.363,5.767-3.025,1.655-.579,2.339-3.133,1.76-5.945C12.955-.8,8.051.168,8.051.168Z" transform="translate(71.423 108.78)"/>
          <path id="Path_293" data-name="Path 293" class="cls-36" d="M7.839,0S4.51,15.276,2.565,30.172.056,59.583.056,59.583s-.747.278,3.238.9c.6.094,1.9-.208,2.88-.045,0,0,1.282-12.587,4.247-26.321,1.438-6.661,2.568-13.985,4.034-18.884a25.831,25.831,0,0,1,3.312-7.461L19.586.662Z" transform="translate(67.371 52.509)"/>
          <path id="Path_294" data-name="Path 294" class="cls-36" d="M8.271,0,3.335,26.441S-.452,47.2.045,55.721c0,0,1.124,2.145,6-.5,0,0,4.141-17.183,4.389-19.5L13.56,17.884S17.289,3.226,16.213.993Z" transform="translate(78.769 55.736)"/>
          <path id="Path_295" data-name="Path 295" class="cls-37" d="M6.06,0S1.923.91,2.171,6.949L2.089,17.373S1.662,33.42,0,34.68a40.924,40.924,0,0,1,5.008,1.176L7.383,22.171Z" transform="translate(69.481 21.404)"/>
          <path id="Path_296" data-name="Path 296" class="cls-38" d="M9.844,0l.331,4.385A5.238,5.238,0,0,1,5.46,7.859,5.372,5.372,0,0,1,0,5.377V1.737Z" transform="translate(81.415 16.937)"/>
          <path id="Path_297" data-name="Path 297" class="cls-39" d="M16.908,1.123s6.1.274,9.079,3.418c0,0-4.942,12.549-5.77,32.072A27.368,27.368,0,0,1,.2,32.229s-.745-20.1.662-31.023c0,0,3.64-1.489,5.956-1.158Z" transform="translate(74.682 20.281)"/>
          <path id="Path_298" data-name="Path 298" class="cls-34" d="M14.722,14.129s-1.489,6.784-7.776,6.618c-7.2-.083-7.528-9.6-6.535-13.981C1.32,2.63,6.366-2.168,11.33,1.058,15.052,3.54,16.293,8.007,14.722,14.129Z" transform="translate(77.53 1.153)"/>
          <path id="Path_299" data-name="Path 299" class="cls-40" d="M10.19.226S16.477.64,17.8,8.5c0,0,.91,6.535-3.971,10.754,0,0,.165-2.73-.165-3.226s1.075-2.068.91-3.061-.248-2.9-1.406-1.985l-.414.414c-.414.414-.993.083-.993-.5a3.312,3.312,0,0,0-.331-2.234c-.827-1.241-5.46,2.482-10.258,1.572,0,0-1.324-.083-1.158-1.985C.014,8.168,1.834-1.594,10.19.226Z" transform="translate(76.519 0)"/>
          <path id="Path_300" data-name="Path 300" class="cls-41" d="M8.438,0,4.3.993,0,2.316.331,4.3l1.985.91,4.136-1.9L8.852.993Z" transform="translate(81.497 20.329)"/>
          <path id="Path_301" data-name="Path 301" class="cls-37" d="M7.694,0,8.769,1.572l-6.7,6.535L0,5.543Z" transform="translate(83.814 19.998)"/>
          <path id="Path_302" data-name="Path 302" class="cls-37" d="M3.64,5.212,1.158,7.363,0,0Z" transform="translate(80.174 20.329)"/>
          <path id="Path_303" data-name="Path 303" class="cls-40" d="M9.538.248s.827,6.618-1.241,8.19a9.149,9.149,0,0,1-7.445.414S-.886,10.837.6,12.161c1.406,1.241,7.528.993,8.934-.5s1.737-8.19.993-11L9.868,0Z" transform="translate(78.743 10.732)"/>
          <path id="Path_304" data-name="Path 304" class="cls-34" d="M.993,7.363A7.55,7.55,0,0,1,2.068,3.805,5.047,5.047,0,0,0,.827,4.881c-.579.662-.827,0-.827,0A9.626,9.626,0,0,1,2.151,1.9,22.43,22.43,0,0,0,3.888.331L4.219.5A2.34,2.34,0,0,0,4.467,0S7.445,2.482,7.28,3.392,5.212,5.543,4.8,6.453c-.579,1.241-.165,2.4-.579,3.309-.331.91-1.572.91-2.151.827C1.572,10.424.993,8.6.993,7.363Z" transform="translate(89.422 56.515)"/>
          <path id="Path_305" data-name="Path 305" class="cls-37" d="M10.821,9.6A19.317,19.317,0,0,0,8.009,0C2.8,1.489,2.632,7.115,2.466,7.445c-.248.331.745,9.514.745,9.514L0,32.93A8.589,8.589,0,0,0,4.368,36.6l4.8-14.59a5.571,5.571,0,0,0,1.655-3.971Z" transform="translate(92.186 24.492)"/>
          <g id="Group_100" data-name="Group 100" transform="matrix(0.643, -0.766, 0.766, 0.643, 0, 40.939)">
            <g id="Group_98" data-name="Group 98" class="cls-42" transform="translate(0 0)">
              <path id="Path_306" data-name="Path 306" class="cls-10" d="M12.4,6.386A3.666,3.666,0,0,1,14.076,9.3l-.037,12.844c0,1.083-.747,1.494-1.68.971L1.68,16.953A3.666,3.666,0,0,1,0,14.041L.037,1.2C.037.114.784-.3,1.718.226Z"/>
            </g>
            <g id="Group_99" data-name="Group 99" transform="translate(2.268 7.064)">
              <path id="Path_307" data-name="Path 307" class="cls-33" d="M1.12.17C.448-.2,0,.058,0,.767A2.468,2.468,0,0,0,1.12,2.709c.6.336,1.083.037,1.083-.672A2.454,2.454,0,0,0,1.12.17Z" transform="translate(3.706 6.322)"/>
              <path id="Path_308" data-name="Path 308" class="cls-33" d="M5.68,3.21A8.075,8.075,0,0,0,4.224,1.343l-.187-.187a7.006,7.006,0,0,0-.9-.672A3.1,3.1,0,0,0,1.088.036,1.656,1.656,0,0,0,.079.559C-.07.745,0,1.193.191,1.53a1.651,1.651,0,0,0,.485.523.548.548,0,0,0,.523.075c.149-.075.261-.224.411-.261a1.75,1.75,0,0,1,1.568.224A4.76,4.76,0,0,1,4.747,3.732l.261.485a.973.973,0,0,0,.411.448c.373.224.747.037.747-.373a1.837,1.837,0,0,0-.3-.821C5.792,3.4,5.755,3.284,5.68,3.21Z" transform="translate(1.76 3.02)"/>
              <path id="Path_309" data-name="Path 309" class="cls-33" d="M9.493,6.193a3.468,3.468,0,0,0-.149-.485A12.218,12.218,0,0,0,7.739,3.392,11.093,11.093,0,0,0,4.789.816,8.992,8.992,0,0,0,3.557.256,5.144,5.144,0,0,0,2.586.032,3.341,3.341,0,0,0,.308.517a.454.454,0,0,0-.3.373A1.225,1.225,0,0,0,.159,1.6a1.42,1.42,0,0,0,.448.485c.075.037.112.075.187.075.3.075.485-.187.672-.3A2.957,2.957,0,0,1,3,1.6a5.429,5.429,0,0,1,1.718.56c.037.037.075.037.112.075A9.89,9.89,0,0,1,8.037,5.483a4.234,4.234,0,0,0,.6.971c.075.075.149.112.224.187a.4.4,0,0,0,.448.037C9.493,6.678,9.531,6.454,9.493,6.193Z" transform="translate(0 0)"/>
            </g>
          </g>
        </g>
        <path id="Path_335" data-name="Path 335" class="cls-33" d="M3.962,6.8c-.027-.2-.161-1.245-.174-1.459a5.524,5.524,0,0,0-.147-.669,3.435,3.435,0,0,0-.134-.857,2.725,2.725,0,0,0-.054-.683,1.73,1.73,0,0,0-.7-.883.967.967,0,0,1-.348-.482V1.431c.013-.027.04-.161.08-.147s.107-.2.107-.268a.074.074,0,0,0-.04-.067C2.53.936,2.49.936,2.49.922A1.312,1.312,0,0,0,2.5.614a.946.946,0,0,0-.428-.683c-.027-.013-.442-.2-.428.187,0,.013,0,.2.013.321A.366.366,0,0,0,1.593.387C1.566.374,1.553.374,1.553.4A1.1,1.1,0,0,0,1.66.8c.027.027.054.2.08.241v.335c0,.013-.08.161-.361.054-.308-.094-.669-.174-.709.094a2.054,2.054,0,0,0-.054.616,3,3,0,0,0-.134.709,1.564,1.564,0,0,0-.147.5C.321,3.546.187,4.429.147,4.6S0,5,0,5.112a1.4,1.4,0,0,0,.094.482c.054.067.214.268.241.294.013,0,.027-.04-.027-.161s-.08-.134-.08-.2-.013-.147,0-.2.027-.12.054-.094a.663.663,0,0,1,.054.174c.013.054.04.134.08.147S.482,5.5.442,5.379a4.312,4.312,0,0,1-.054-.522C.361,4.79.549,4.5.642,4.376A2.737,2.737,0,0,0,.95,3.452c.013-.308.107-.428.134-.415a.625.625,0,0,1,.054.187,4.873,4.873,0,0,1,.054.79c-.013.268-.013.335-.013.4a5.588,5.588,0,0,1-.094.683A6.077,6.077,0,0,0,.95,6.37a10.024,10.024,0,0,0,.134,1.272,4.846,4.846,0,0,1,.027.776,3.891,3.891,0,0,0-.04,1.031,13.965,13.965,0,0,1,.12,1.486.283.283,0,0,1-.147.12.427.427,0,0,1-.214.027c-.067-.013-.228.013-.2.094a.137.137,0,0,0,.067.08c.013.013.04.013.08.027s.107.067.12.08a1.336,1.336,0,0,0,.241.12.226.226,0,0,1,.067.027,1.671,1.671,0,0,1,.161.107.417.417,0,0,0,.08.054c.08.054.187.08.161-.147a2.265,2.265,0,0,1-.054-.7c.027-.187.12-.75.187-1.017a3.42,3.42,0,0,0-.04-.9c0-.054.107-.616.12-.75s.134-1.044.147-1.285A2.1,2.1,0,0,1,2.061,6.3a3.547,3.547,0,0,1,.094.683c.013.268.134,1.312.134,1.459s.12.83.12.883a2.9,2.9,0,0,0-.04.857c.067.335.147,1,.174,1.218a1.721,1.721,0,0,1-.054.629.27.27,0,0,0,.161.321c.04.027.067.027.08.04a1.394,1.394,0,0,1,.161.067.134.134,0,0,1,.067.054,1.489,1.489,0,0,0,.241.161c.027.013.08.04.147.08a.293.293,0,0,0,.067.04.06.06,0,0,0,.067,0c.027-.054-.12-.254-.2-.321a1.836,1.836,0,0,1-.214-.268c-.094-.134-.134-.281-.147-.281a8.292,8.292,0,0,1,.12-1.352A4.467,4.467,0,0,0,3,9.5a4.127,4.127,0,0,1,.027-.736,9.879,9.879,0,0,0,.161-1.084,8.481,8.481,0,0,0-.134-1.419,5.926,5.926,0,0,1-.094-.8c0-.067,0-.134-.013-.428A3.879,3.879,0,0,1,3,4.3c.013-.027.04-.12.054-.12a1.169,1.169,0,0,1,.134.576A6.355,6.355,0,0,0,3.48,6.022a4.154,4.154,0,0,1,.241.763c-.027.04-.027.375-.067.455a.222.222,0,0,0,.027.214c.027.013.067-.027.08-.054s.027-.107.067-.12a.518.518,0,0,1,.04.161.576.576,0,0,1,0,.214c.013.08-.013.054-.08.107s-.054.107-.027.12A.75.75,0,0,0,4,7.869c.054-.013.094-.254.094-.375A3.291,3.291,0,0,0,3.962,6.8Z" transform="translate(7157.486 1715.936)"/>
        <g id="Group_106" data-name="Group 106" transform="translate(7163.635 1717.868) rotate(1)">
          <path id="Path_284" data-name="Path 284" class="cls-33" d="M2.761,1.6v.291L0,.32V0Z"/>
          <path id="Path_285" data-name="Path 285" class="cls-33" d="M2.761,1.889,0,.32V0L2.761,1.6Z" transform="translate(0 0.639)"/>
          <path id="Path_286" data-name="Path 286" class="cls-33" d="M0,0,1.948,1.134v.291L0,.32Z" transform="translate(0.814 1.744)"/>
          <path id="Path_287" data-name="Path 287" class="cls-33" d="M2.761,1.889,0,.291V0L2.761,1.57Z" transform="translate(0 2.558)"/>
          <path id="Path_288" data-name="Path 288" class="cls-33" d="M0,0,2.384,1.366v.32L0,.32Z" transform="translate(0.378 2.122)"/>
          <path id="Path_289" data-name="Path 289" class="cls-33" d="M1.657,1.279,0,.32V0L1.657.959Z" transform="translate(1.105 3.808)"/>
        </g>
        <g id="Group_107" data-name="Group 107" transform="translate(7163.635 1724.554) rotate(1)">
          <path id="Path_284-2" data-name="Path 284" class="cls-33" d="M2.761,1.6v.291L0,.32V0Z"/>
          <path id="Path_285-2" data-name="Path 285" class="cls-33" d="M2.761,1.889,0,.32V0L2.761,1.6Z" transform="translate(0 0.639)"/>
          <path id="Path_286-2" data-name="Path 286" class="cls-33" d="M0,0,1.948,1.134v.291L0,.32Z" transform="translate(0.814 1.744)"/>
          <path id="Path_287-2" data-name="Path 287" class="cls-33" d="M2.761,1.889,0,.291V0L2.761,1.57Z" transform="translate(0 2.558)"/>
          <path id="Path_288-2" data-name="Path 288" class="cls-33" d="M0,0,2.384,1.366v.32L0,.32Z" transform="translate(0.378 2.122)"/>
          <path id="Path_289-2" data-name="Path 289" class="cls-33" d="M1.657,1.279,0,.32V0L1.657.959Z" transform="translate(1.105 3.808)"/>
        </g>
        <g id="Group_108" data-name="Group 108" transform="translate(7168.577 1720.194) rotate(1)">
          <path id="Path_284-3" data-name="Path 284" class="cls-33" d="M2.761,1.6v.291L0,.32V0Z"/>
          <path id="Path_285-3" data-name="Path 285" class="cls-33" d="M2.761,1.889,0,.32V0L2.761,1.6Z" transform="translate(0 0.639)"/>
          <path id="Path_286-3" data-name="Path 286" class="cls-33" d="M0,0,1.948,1.134v.291L0,.32Z" transform="translate(0.814 1.744)"/>
          <path id="Path_287-3" data-name="Path 287" class="cls-33" d="M2.761,1.889,0,.291V0L2.761,1.57Z" transform="translate(0 2.558)"/>
          <path id="Path_288-3" data-name="Path 288" class="cls-33" d="M0,0,2.384,1.366v.32L0,.32Z" transform="translate(0.378 2.122)"/>
          <path id="Path_289-3" data-name="Path 289" class="cls-33" d="M1.657,1.279,0,.32V0L1.657.959Z" transform="translate(1.105 3.808)"/>
        </g>
        <g id="Group_109" data-name="Group 109" transform="translate(7168.287 1726.589) rotate(1)">
          <path id="Path_284-4" data-name="Path 284" class="cls-33" d="M2.761,1.6v.291L0,.32V0Z"/>
          <path id="Path_285-4" data-name="Path 285" class="cls-33" d="M2.761,1.889,0,.32V0L2.761,1.6Z" transform="translate(0 0.639)"/>
          <path id="Path_286-4" data-name="Path 286" class="cls-33" d="M0,0,1.948,1.134v.291L0,.32Z" transform="translate(0.814 1.744)"/>
          <path id="Path_287-4" data-name="Path 287" class="cls-33" d="M2.761,1.889,0,.291V0L2.761,1.57Z" transform="translate(0 2.558)"/>
          <path id="Path_288-4" data-name="Path 288" class="cls-33" d="M0,0,2.384,1.366v.32L0,.32Z" transform="translate(0.378 2.122)"/>
          <path id="Path_289-4" data-name="Path 289" class="cls-33" d="M1.657,1.279,0,.32V0L1.657.959Z" transform="translate(1.105 3.808)"/>
        </g>
        <g id="Group_110" data-name="Group 110" class="cls-43" transform="translate(7223.311 1816.396) rotate(21)">
          <path id="Path_284-5" data-name="Path 284" class="cls-44" d="M2.761,1.6v.291L0,.32V0Z"/>
          <path id="Path_285-5" data-name="Path 285" class="cls-44" d="M2.761,1.889,0,.32V0L2.761,1.6Z" transform="translate(0 0.639)"/>
          <path id="Path_286-5" data-name="Path 286" class="cls-44" d="M0,0,1.948,1.134v.291L0,.32Z" transform="translate(0.814 1.744)"/>
          <path id="Path_287-5" data-name="Path 287" class="cls-44" d="M2.761,1.889,0,.291V0L2.761,1.57Z" transform="translate(0 2.558)"/>
          <path id="Path_288-5" data-name="Path 288" class="cls-44" d="M0,0,2.384,1.366v.32L0,.32Z" transform="translate(0.378 2.122)"/>
          <path id="Path_289-5" data-name="Path 289" class="cls-44" d="M1.657,1.279,0,.32V0L1.657.959Z" transform="translate(1.105 3.808)"/>
        </g>
        <g id="Group_111" data-name="Group 111" transform="translate(7193.733 1720.244)">
          <g id="Group_98-2" data-name="Group 98" class="cls-42" transform="translate(0 0)">
            <path id="Path_306-2" data-name="Path 306" class="cls-10" d="M8.89,5.279a3.149,3.149,0,0,1,1.2,2.409l-.027,10.625c0,.9-.536,1.235-1.2.8L1.2,14.019A3.149,3.149,0,0,1,0,11.61L.027.985c0-.9.536-1.235,1.2-.8Z" transform="translate(0 0.004)"/>
          </g>
          <g id="Group_102" data-name="Group 102" class="cls-42" transform="translate(109.585 56.972)">
            <path id="Path_306-3" data-name="Path 306" class="cls-10" d="M8.89,5.279a3.149,3.149,0,0,1,1.2,2.409l-.027,10.625c0,.9-.536,1.235-1.2.8L1.2,14.019A3.149,3.149,0,0,1,0,11.61L.027.985c0-.9.536-1.235,1.2-.8Z" transform="translate(0 0.004)"/>
          </g>
        </g>
      </g>
      <g id="Group_112" data-name="Group 112" transform="translate(187.359 280.24)">
        <g id="Group_90" data-name="Group 90" transform="translate(1.258 0.023)">
          <g id="Group_89" data-name="Group 89" transform="translate(36.38 21.515)">
            <path id="Path_265" data-name="Path 265" class="cls-41" d="M41.636,27.081a5.9,5.9,0,0,0-.368,2.485,4.292,4.292,0,0,1-.368,2.3c-.092.184,1.012.736,1.012.736l1.749-.92,2.577-3.866a8.747,8.747,0,0,0,.552-1.657c0-.092-2.669-2.761-2.669-2.761Z" transform="translate(-40.894 -23.4)"/>
            <path id="Path_266" data-name="Path 266" class="cls-34" d="M44.669,32.752s2.485-2.117,2.853-3.313.368-4.97.736-5.246c0,0-1.288-.644-1.749,1.657-.184.46-.368,1.012-.552,1.473a5.868,5.868,0,0,1-.736,1.289,3.477,3.477,0,0,1-1.1.828c-1.2.828-1.565,2.117-2.117,3.313l1.933,1.012A9.907,9.907,0,0,0,44.669,32.752Z" transform="translate(-40.982 -23.457)"/>
          </g>
          <path id="Path_267" data-name="Path 267" class="cls-45" d="M43.18,19.646l-2.945-1.2.092-1.749-5.246-2.3L33.7,15.873l-1.933-.92a1.1,1.1,0,0,0-1.565.736L23.3,35.844l11.689,5.89,8.743-20.616A1.039,1.039,0,0,0,43.18,19.646Z" transform="translate(-3.113 -1.168)"/>
          <path id="Path_268" data-name="Path 268" class="cls-46" d="M31.258,17l10.584,4.418-6.9,18.131L25,35.407Z" transform="translate(-3.249 -1.375)"/>
          <path id="Path_269" data-name="Path 269" class="cls-47" d="M5.171,25.4s-8.559,3.681,0,15Z" transform="translate(-1.367 -2.044)"/>
          <path id="Path_270" data-name="Path 270" class="cls-35" d="M9.782,139.567a2.366,2.366,0,0,0,3.037,0,9.916,9.916,0,0,1,3.866-1.473,6.458,6.458,0,0,1,2.3.092c.552.092,1.657.46,1.933,1.1.644,1.565-.184,2.945-1.289,3.958A19.8,19.8,0,0,1,8.4,148.4a11.905,11.905,0,0,1-5.706-.552s-.276-6.9.46-7.823Z" transform="translate(-1.468 -11.014)"/>
          <path id="Path_271" data-name="Path 271" class="cls-48" d="M5.95,66.5s-2.3,8.743-2.025,15.646L1.9,133.594s3.866,3.5,11.412,2.209L16.35,67.052Z" transform="translate(-1.409 -5.317)"/>
          <path id="Path_272" data-name="Path 272" class="cls-49" d="M13.6,79.9l1.473,35.986,1.1-24.574Z" transform="translate(-2.341 -6.385)"/>
          <path id="Path_273" data-name="Path 273" class="cls-35" d="M26.582,144.167a2.366,2.366,0,0,0,3.037,0,9.916,9.916,0,0,1,3.866-1.473,6.458,6.458,0,0,1,2.3.092c.552.092,1.657.46,1.933,1.1.644,1.565-.184,2.945-1.289,3.958A19.8,19.8,0,0,1,25.2,153a10.9,10.9,0,0,1-5.706-.644s-.276-6.9.46-7.823Z" transform="translate(-2.806 -11.381)"/>
          <path id="Path_274" data-name="Path 274" class="cls-22" d="M14.782,65.7s-2.577,8.467-.644,16.567l4.234,56.786a16.492,16.492,0,0,0,11.5,0L27.115,70.394Z" transform="translate(-2.326 -5.254)"/>
          <path id="Path_275" data-name="Path 275" class="cls-50" d="M27.575,64.112c-.644-1.2-.644-10.492-.644-10.492h0c.276-11.6-.184-23.193-.184-23.193L20.212,26.1l-9.756-2.3-3.589.92a3.334,3.334,0,0,0-3.129,2.761A29.564,29.564,0,0,0,3.369,38.25c.46,2.393,1.012,6.811,1.473,11.044,0,.46.644,8.928.368,12.333a1.626,1.626,0,0,0,.736,1.381c6.443,5.982,20.248,3.958,20.248,3.958C27.851,66.965,28.219,65.308,27.575,64.112Z" transform="translate(-1.498 -1.917)"/>
          <path id="Path_276" data-name="Path 276" class="cls-51" d="M39.773,31l-5.89,11.781s-1.012-5.614-1.473-7.823C32.042,32.841,28.453,31,28.453,31c-5.43,2.761-3.773,7.087-3.773,7.087l4.418,15c.644,2.117,3.129,2.669,5.154,1.749l9.388-18.775C42.9,31.644,39.773,31,39.773,31Z" transform="translate(-3.204 -2.49)"/>
          <path id="Path_277" data-name="Path 277" class="cls-34" d="M12.162,1.175a19.843,19.843,0,0,1,7.731.184,8.982,8.982,0,0,1,6.719,7.087c.92,3.589,1.2,9.664-.92,12.977-1.289,2.117-4.142,1.749-6.258,1.2a24.462,24.462,0,0,1-7.823-3.313C8.757,17.189,7.284,12.5,7.1,9.09,7.1,6.237,8.665,1.727,12.162,1.175Z" transform="translate(-1.823 -0.092)"/>
          <path id="Path_278" data-name="Path 278" class="cls-41" d="M11.2,20a4.824,4.824,0,0,0,1.012.92c2.025,1.565,5.338,2.577,7.823,3.313.368.092.828.184,1.289.276l-.276,1.381a12.449,12.449,0,0,1-6.9,0c-1.381-.368-2.761-.92-2.761-2.393L11.2,20Z" transform="translate(-2.15 -1.614)"/>
          <path id="Path_279" data-name="Path 279" class="cls-52" d="M22.8,15.4s.92,4.6,2.485,5.43a2.43,2.43,0,0,0,2.485.184,4.07,4.07,0,0,1,0,2.209c-.276.828-1.565,2.669-2.3,2.761-.736,0-3.5-1.1-3.5-2.669s-.368-7.087-.368-7.087l.368-.644Z" transform="translate(-2.978 -1.248)"/>
          <path id="Path_280" data-name="Path 280" class="cls-52" d="M28.468,1.106S25.523,2.487,20.921.554c-2.3-.92-8.743-.736-10.584,1.289h0C8.128,3.315,7.207,6.721,7.3,9.113A17.558,17.558,0,0,0,9.14,15.924c2.3,5.8,6.443,5.43,6.443,5.43.552-.276,3.681-2.669,3.681-2.669-1.2-.736-2.117-4.694-.828-5.338,1.289-.736,2.117,1.749,2.117,1.749a1.844,1.844,0,0,0,1.2-2.577,4.3,4.3,0,0,1,0-3.037,8.874,8.874,0,0,0,4.786-1.657S29.572,5.8,28.468,1.106Z" transform="translate(-1.839 -0.023)"/>
          <path id="Path_281" data-name="Path 281" class="cls-33" d="M11.02,21.8l-.92,2.117s4.142,5.614,11.689,2.761l-.92-1.381C20.96,25.3,14.058,26.31,11.02,21.8Z" transform="translate(-2.062 -1.758)"/>
        </g>
        <path id="Path_282" data-name="Path 282" class="cls-50" d="M26.691,55.1,5.062,64.212S1.657,86.116,0,98.541c0,0,12.7,9.02,30.28,2.945Z" transform="translate(0 -4.386)"/>
      </g>
      <g id="Group_113" data-name="Group 113" transform="translate(-317.335 -187.235)">
        <g id="Group_115" data-name="Group 115" transform="translate(351.858 552.789)">
          <path id="Path_190" data-name="Path 190" class="cls-53" d="M0,0A68.627,68.627,0,0,0,11.8,1.187,68.283,68.283,0,0,0,23.575,0V28.261A45.7,45.7,0,0,1,11.8,30.083,45.921,45.921,0,0,1,0,28.261Z" transform="translate(0 2.319)"/>
          <ellipse id="Ellipse_31" data-name="Ellipse 31" class="cls-54" cx="11.788" cy="2.512" rx="11.788" ry="2.512"/>
        </g>
        <g id="Group_114" data-name="Group 114" transform="translate(335.39 490.924)">
          <path id="Path_338" data-name="Path 338" class="cls-22" d="M3767.39-417.062s2.915.446,3.815,1.9a18.627,18.627,0,0,1,2.884,3.731,30.961,30.961,0,0,1,2.317,7.452,4.843,4.843,0,0,0,2.191.748,8.693,8.693,0,0,0,2.689-.748c.288-.184-.535,2.624-.714,5.394a52.3,52.3,0,0,0,0,5.686s-.143,2.917.714,4.088,2.717-.205,4.509,1.149a9.622,9.622,0,0,1,2.656,4.268,55.057,55.057,0,0,1,5.068,11.256,119.423,119.423,0,0,1,2.344,14.31l-.693,2.558s-1.059-3.987-2.113-8.854-.743-7.208-2.1-10.613-1.332-1.981-3.071-2.928a8.518,8.518,0,0,0-3.884-.862l-4.124-1.055-2.87-1.069-1.733-1.119a3.588,3.588,0,0,1-1.933-2.238c-.453-1.32-.141-2.131,0-4.582s.428-3.882-.647-7.178-2.538-3.642-3.654-6.006-.81-3.594-.81-3.594a4.319,4.319,0,0,0,.81-2.883,27.637,27.637,0,0,0-.81-5.223Z" transform="translate(-3767.39 419.773)"/>
          <path id="Path_345" data-name="Path 345" class="cls-55" d="M17.721,0S14.977.42,14.13,1.792A17.54,17.54,0,0,0,11.415,5.3C9.948,8.15.607,5.827,1.647,17.717c0,0,.777,3.659-.029,4.762S2.082,26.4.4,27.679s2.555,29.2,2.555,29.2h0c-1.307,4.811.321,3.67.321,3.67l-.327,3.374L5.969,35.285l2.7-1.006L10.3,33.226a3.376,3.376,0,0,0,1.82-2.107c.427-1.243.133-2.006,0-4.314a14.419,14.419,0,0,1,.609-6.757c1.012-3.1,2.389-3.428,3.439-5.654a5.641,5.641,0,0,0,.762-3.383A4.065,4.065,0,0,1,16.17,8.3a26.011,26.011,0,0,1,.762-4.917Z" transform="translate(20.96 1.322) rotate(-4)"/>
          <path id="Path_339" data-name="Path 339" class="cls-56" d="M0,0S2.915.446,3.815,1.9A18.624,18.624,0,0,1,6.7,5.634a30.964,30.964,0,0,1,2.317,7.452,4.843,4.843,0,0,0,2.191.748,8.694,8.694,0,0,0,2.69-.748c.288-.184-.535,2.624-.714,5.394a52.384,52.384,0,0,0,0,5.686s-.143,2.917.714,4.088S16.613,28.05,18.4,29.4a9.623,9.623,0,0,1,2.656,4.268,51.613,51.613,0,0,1,3.79,9.588,63.9,63.9,0,0,1,1.764,10.856l.725,5.658s-.618-1.965-1.672-6.832,2.81,10.089,1.449,6.684-2.773-10.862-5.4-16.134-5.108-4.954-5.108-4.954l-4.123-1.055-2.87-1.069L7.881,35.3a3.587,3.587,0,0,1-1.933-2.238c-.453-1.32-.141-2.131,0-4.582S6.377,24.594,5.3,21.3s-2.538-3.642-3.653-6.006S.838,11.7.838,11.7a4.318,4.318,0,0,0,.81-2.883,27.63,27.63,0,0,0-.81-5.223Z" transform="translate(19.689 0) rotate(17)"/>
          <path id="Path_340" data-name="Path 340" class="cls-56" d="M3781.7-417.062s-1.5.23-1.965.98a9.574,9.574,0,0,0-1.485,1.922,15.956,15.956,0,0,0-1.194,3.839,2.494,2.494,0,0,1-1.128.385,4.476,4.476,0,0,1-1.385-.385c-.149-.095.275,1.351.367,2.778a27.017,27.017,0,0,1,0,2.929,4.42,4.42,0,0,1-.367,2.106c-.441.6-1.4-.106-2.323.592a4.954,4.954,0,0,0-1.368,2.2,26.6,26.6,0,0,0-1.952,4.939,32.9,32.9,0,0,0-.909,5.592l-.6,3.956s.545-2.054,1.088-4.561-1.447,5.2-.747,3.443,1.429-5.595,2.782-8.31,2.631-2.552,2.631-2.552l2.124-.543,1.479-.55.893-.576a1.848,1.848,0,0,0,1-1.153,5.92,5.92,0,0,0,0-2.36,7.9,7.9,0,0,1,.333-3.7c.554-1.7,1.307-1.876,1.882-3.094a3.086,3.086,0,0,0,.417-1.851,2.225,2.225,0,0,1-.417-1.485,14.24,14.24,0,0,1,.417-2.69Z" transform="matrix(1, 0, 0, 1, -3738.984, 450.57)"/>
          <path id="Path_341" data-name="Path 341" class="cls-56" d="M26.15,0s-2.744.42-3.591,1.792A17.54,17.54,0,0,0,19.844,5.3a29.149,29.149,0,0,0-2.181,7.015,4.56,4.56,0,0,1-2.062.7,8.184,8.184,0,0,1-2.532-.7c-.271-.173.5,2.47.672,5.077a49.307,49.307,0,0,1,0,5.353s.134,2.746-.672,3.848-2.558-.193-4.244,1.082a9.057,9.057,0,0,0-2.5,4.018,48.575,48.575,0,0,0-3.568,9.026A60.131,60.131,0,0,0,1.1,50.942L0,58.171s1-3.753,1.989-8.335-2.645,9.5-1.364,6.292S3.235,45.9,5.708,40.942s4.808-4.663,4.808-4.663l3.882-.993,2.7-1.006,1.631-1.054a3.376,3.376,0,0,0,1.82-2.107c.427-1.243.133-2.006,0-4.314a14.419,14.419,0,0,1,.609-6.757c1.012-3.1,2.389-3.428,3.439-5.654a5.64,5.64,0,0,0,.762-3.383A4.065,4.065,0,0,1,24.6,8.3a26.011,26.011,0,0,1,.762-4.917Z" transform="translate(32.668 6.584) rotate(5)"/>
          <path id="Path_342" data-name="Path 342" class="cls-55" d="M17.721,0S14.977.42,14.13,1.792A17.54,17.54,0,0,0,11.415,5.3C9.948,8.15.607,5.827,1.647,17.717c0,0,.777,3.659-.029,4.762S2.082,26.4.4,27.679s2.555,29.2,2.555,29.2h0c-1.307,4.811.321,3.67.321,3.67l.142,1.619L5.969,35.285l2.7-1.006L10.3,33.226a3.376,3.376,0,0,0,1.82-2.107c.427-1.243.133-2.006,0-4.314a14.419,14.419,0,0,1,.609-6.757c1.012-3.1,2.389-3.428,3.439-5.654a5.641,5.641,0,0,0,.762-3.383A4.065,4.065,0,0,1,16.17,8.3a26.011,26.011,0,0,1,.762-4.917Z" transform="translate(30.243 2.295) rotate(5)"/>
          <path id="Path_343" data-name="Path 343" class="cls-56" d="M3767.39-417.062s1.392.213,1.821.909a8.919,8.919,0,0,1,1.376,1.781,14.788,14.788,0,0,1,1.106,3.557,2.311,2.311,0,0,0,1.045.357,4.15,4.15,0,0,0,1.284-.357c.138-.088-.255,1.252-.341,2.574a25.064,25.064,0,0,0,0,2.714,4.1,4.1,0,0,0,.341,1.951c.409.559,1.3-.1,2.152.549a4.591,4.591,0,0,1,1.268,2.037,24.64,24.64,0,0,1,1.81,4.577,30.506,30.506,0,0,1,.842,5.182l.556,3.666s-.506-1.9-1.008-4.226,1.341,4.815.691,3.19-1.324-5.184-2.578-7.7-2.438-2.365-2.438-2.365l-1.968-.5-1.371-.51-.827-.534a1.712,1.712,0,0,1-.923-1.068,5.485,5.485,0,0,1,0-2.187,7.3,7.3,0,0,0-.309-3.426c-.513-1.573-1.211-1.738-1.744-2.867a2.856,2.856,0,0,1-.386-1.716,2.062,2.062,0,0,0,.386-1.376,13.2,13.2,0,0,0-.386-2.493Z" transform="matrix(1, 0, 0, 1, -3752.244, 451.738)"/>
          <path id="Path_344" data-name="Path 344" class="cls-56" d="M0,0S1.392.213,1.821.909A8.9,8.9,0,0,1,3.2,2.689,14.776,14.776,0,0,1,4.3,6.246,2.312,2.312,0,0,0,5.349,6.6a4.15,4.15,0,0,0,1.284-.357c.138-.088-.255,1.252-.341,2.574a25.012,25.012,0,0,0,0,2.714,4.1,4.1,0,0,0,.341,1.951c.409.559,1.3-.1,2.152.549a4.592,4.592,0,0,1,1.268,2.037,24.626,24.626,0,0,1,1.809,4.577,30.507,30.507,0,0,1,.842,5.182l.415,2.787a30.569,30.569,0,0,1-.868-3.347c-.5-2.323,1.341,4.815.692,3.19s-1.324-5.184-2.578-7.7S7.927,18.4,7.927,18.4l-1.968-.5-1.37-.51-.827-.534a1.712,1.712,0,0,1-.923-1.068,5.483,5.483,0,0,1,0-2.187,7.312,7.312,0,0,0-.309-3.426C2.017,8.592,1.319,8.427.787,7.3A2.86,2.86,0,0,1,.4,5.583,2.061,2.061,0,0,0,.787,4.207,13.192,13.192,0,0,0,.4,1.714Z" transform="matrix(0.985, -0.174, 0.174, 0.985, 10.367, 39.143)"/>
          <path id="Path_346" data-name="Path 346" class="cls-56" d="M10.337,0S9.237.168,8.9.718A7.027,7.027,0,0,0,7.81,2.125a11.673,11.673,0,0,0-.874,2.81,1.826,1.826,0,0,1-.826.282A3.279,3.279,0,0,1,5.1,4.935c-.109-.069.2.989.269,2.034a19.776,19.776,0,0,1,0,2.144A3.236,3.236,0,0,1,5.1,10.655c-.323.442-1.025-.077-1.7.433a3.627,3.627,0,0,0-1,1.61A19.453,19.453,0,0,0,.965,16.314,24.1,24.1,0,0,0,.3,20.408l.087,2.17a8.037,8.037,0,0,1,.27-2.613c.4-1.835-1.06,3.8-.547,2.521s1.046-4.1,2.037-6.084,1.926-1.868,1.926-1.868l1.555-.4,1.082-.4.654-.422a1.352,1.352,0,0,0,.729-.844,4.333,4.333,0,0,0,0-1.728,5.776,5.776,0,0,1,.244-2.707c.405-1.243.957-1.373,1.378-2.265a2.26,2.26,0,0,0,.305-1.355,1.628,1.628,0,0,1-.305-1.087,10.422,10.422,0,0,1,.305-1.97Z" transform="matrix(0.978, 0.208, -0.208, 0.978, 32.445, 42.635)"/>
          <path id="Path_347" data-name="Path 347" class="cls-10" d="M0,0H2.319l-.97,3.181L1.221,3.09Z" transform="translate(26.902 62.639)"/>
        </g>
      </g>
      <g id="Group_116" data-name="Group 116" transform="translate(-28.335 -187.235)">
        <g id="Group_115-2" data-name="Group 115" transform="translate(351.858 552.789)">
          <path id="Path_190-2" data-name="Path 190" class="cls-53" d="M0,0A68.627,68.627,0,0,0,11.8,1.187,68.283,68.283,0,0,0,23.575,0V28.261A45.7,45.7,0,0,1,11.8,30.083,45.921,45.921,0,0,1,0,28.261Z" transform="translate(0 2.319)"/>
          <ellipse id="Ellipse_31-2" data-name="Ellipse 31" class="cls-54" cx="11.788" cy="2.512" rx="11.788" ry="2.512"/>
        </g>
        <g id="Group_114-2" data-name="Group 114" transform="translate(335.39 490.924)">
          <path id="Path_338-2" data-name="Path 338" class="cls-22" d="M3767.39-417.062s2.915.446,3.815,1.9a18.627,18.627,0,0,1,2.884,3.731,30.961,30.961,0,0,1,2.317,7.452,4.843,4.843,0,0,0,2.191.748,8.693,8.693,0,0,0,2.689-.748c.288-.184-.535,2.624-.714,5.394a52.3,52.3,0,0,0,0,5.686s-.143,2.917.714,4.088,2.717-.205,4.509,1.149a9.622,9.622,0,0,1,2.656,4.268,55.057,55.057,0,0,1,5.068,11.256,119.423,119.423,0,0,1,2.344,14.31l-.693,2.558s-1.059-3.987-2.113-8.854-.743-7.208-2.1-10.613-1.332-1.981-3.071-2.928a8.518,8.518,0,0,0-3.884-.862l-4.124-1.055-2.87-1.069-1.733-1.119a3.588,3.588,0,0,1-1.933-2.238c-.453-1.32-.141-2.131,0-4.582s.428-3.882-.647-7.178-2.538-3.642-3.654-6.006-.81-3.594-.81-3.594a4.319,4.319,0,0,0,.81-2.883,27.637,27.637,0,0,0-.81-5.223Z" transform="translate(-3767.39 419.773)"/>
          <path id="Path_345-2" data-name="Path 345" class="cls-55" d="M17.721,0S14.977.42,14.13,1.792A17.54,17.54,0,0,0,11.415,5.3C9.948,8.15.607,5.827,1.647,17.717c0,0,.777,3.659-.029,4.762S2.082,26.4.4,27.679s2.555,29.2,2.555,29.2h0c-1.307,4.811.321,3.67.321,3.67l-.327,3.374L5.969,35.285l2.7-1.006L10.3,33.226a3.376,3.376,0,0,0,1.82-2.107c.427-1.243.133-2.006,0-4.314a14.419,14.419,0,0,1,.609-6.757c1.012-3.1,2.389-3.428,3.439-5.654a5.641,5.641,0,0,0,.762-3.383A4.065,4.065,0,0,1,16.17,8.3a26.011,26.011,0,0,1,.762-4.917Z" transform="translate(20.96 1.322) rotate(-4)"/>
          <path id="Path_339-2" data-name="Path 339" class="cls-56" d="M0,0S2.915.446,3.815,1.9A18.624,18.624,0,0,1,6.7,5.634a30.964,30.964,0,0,1,2.317,7.452,4.843,4.843,0,0,0,2.191.748,8.694,8.694,0,0,0,2.69-.748c.288-.184-.535,2.624-.714,5.394a52.384,52.384,0,0,0,0,5.686s-.143,2.917.714,4.088S16.613,28.05,18.4,29.4a9.623,9.623,0,0,1,2.656,4.268,51.613,51.613,0,0,1,3.79,9.588,63.9,63.9,0,0,1,1.764,10.856l.725,5.658s-.618-1.965-1.672-6.832,2.81,10.089,1.449,6.684-2.773-10.862-5.4-16.134-5.108-4.954-5.108-4.954l-4.123-1.055-2.87-1.069L7.881,35.3a3.587,3.587,0,0,1-1.933-2.238c-.453-1.32-.141-2.131,0-4.582S6.377,24.594,5.3,21.3s-2.538-3.642-3.653-6.006S.838,11.7.838,11.7a4.318,4.318,0,0,0,.81-2.883,27.63,27.63,0,0,0-.81-5.223Z" transform="translate(19.689 0) rotate(17)"/>
          <path id="Path_340-2" data-name="Path 340" class="cls-56" d="M3781.7-417.062s-1.5.23-1.965.98a9.574,9.574,0,0,0-1.485,1.922,15.956,15.956,0,0,0-1.194,3.839,2.494,2.494,0,0,1-1.128.385,4.476,4.476,0,0,1-1.385-.385c-.149-.095.275,1.351.367,2.778a27.017,27.017,0,0,1,0,2.929,4.42,4.42,0,0,1-.367,2.106c-.441.6-1.4-.106-2.323.592a4.954,4.954,0,0,0-1.368,2.2,26.6,26.6,0,0,0-1.952,4.939,32.9,32.9,0,0,0-.909,5.592l-.6,3.956s.545-2.054,1.088-4.561-1.447,5.2-.747,3.443,1.429-5.595,2.782-8.31,2.631-2.552,2.631-2.552l2.124-.543,1.479-.55.893-.576a1.848,1.848,0,0,0,1-1.153,5.92,5.92,0,0,0,0-2.36,7.9,7.9,0,0,1,.333-3.7c.554-1.7,1.307-1.876,1.882-3.094a3.086,3.086,0,0,0,.417-1.851,2.225,2.225,0,0,1-.417-1.485,14.24,14.24,0,0,1,.417-2.69Z" transform="matrix(1, 0, 0, 1, -3738.984, 450.57)"/>
          <path id="Path_341-2" data-name="Path 341" class="cls-56" d="M26.15,0s-2.744.42-3.591,1.792A17.54,17.54,0,0,0,19.844,5.3a29.149,29.149,0,0,0-2.181,7.015,4.56,4.56,0,0,1-2.062.7,8.184,8.184,0,0,1-2.532-.7c-.271-.173.5,2.47.672,5.077a49.307,49.307,0,0,1,0,5.353s.134,2.746-.672,3.848-2.558-.193-4.244,1.082a9.057,9.057,0,0,0-2.5,4.018,48.575,48.575,0,0,0-3.568,9.026A60.131,60.131,0,0,0,1.1,50.942L0,58.171s1-3.753,1.989-8.335-2.645,9.5-1.364,6.292S3.235,45.9,5.708,40.942s4.808-4.663,4.808-4.663l3.882-.993,2.7-1.006,1.631-1.054a3.376,3.376,0,0,0,1.82-2.107c.427-1.243.133-2.006,0-4.314a14.419,14.419,0,0,1,.609-6.757c1.012-3.1,2.389-3.428,3.439-5.654a5.64,5.64,0,0,0,.762-3.383A4.065,4.065,0,0,1,24.6,8.3a26.011,26.011,0,0,1,.762-4.917Z" transform="translate(32.668 6.584) rotate(5)"/>
          <path id="Path_342-2" data-name="Path 342" class="cls-55" d="M17.721,0S14.977.42,14.13,1.792A17.54,17.54,0,0,0,11.415,5.3C9.948,8.15.607,5.827,1.647,17.717c0,0,.777,3.659-.029,4.762S2.082,26.4.4,27.679s2.555,29.2,2.555,29.2h0c-1.307,4.811.321,3.67.321,3.67l.142,1.619L5.969,35.285l2.7-1.006L10.3,33.226a3.376,3.376,0,0,0,1.82-2.107c.427-1.243.133-2.006,0-4.314a14.419,14.419,0,0,1,.609-6.757c1.012-3.1,2.389-3.428,3.439-5.654a5.641,5.641,0,0,0,.762-3.383A4.065,4.065,0,0,1,16.17,8.3a26.011,26.011,0,0,1,.762-4.917Z" transform="translate(30.243 2.295) rotate(5)"/>
          <path id="Path_343-2" data-name="Path 343" class="cls-56" d="M3767.39-417.062s1.392.213,1.821.909a8.919,8.919,0,0,1,1.376,1.781,14.788,14.788,0,0,1,1.106,3.557,2.311,2.311,0,0,0,1.045.357,4.15,4.15,0,0,0,1.284-.357c.138-.088-.255,1.252-.341,2.574a25.064,25.064,0,0,0,0,2.714,4.1,4.1,0,0,0,.341,1.951c.409.559,1.3-.1,2.152.549a4.591,4.591,0,0,1,1.268,2.037,24.64,24.64,0,0,1,1.81,4.577,30.506,30.506,0,0,1,.842,5.182l.556,3.666s-.506-1.9-1.008-4.226,1.341,4.815.691,3.19-1.324-5.184-2.578-7.7-2.438-2.365-2.438-2.365l-1.968-.5-1.371-.51-.827-.534a1.712,1.712,0,0,1-.923-1.068,5.485,5.485,0,0,1,0-2.187,7.3,7.3,0,0,0-.309-3.426c-.513-1.573-1.211-1.738-1.744-2.867a2.856,2.856,0,0,1-.386-1.716,2.062,2.062,0,0,0,.386-1.376,13.2,13.2,0,0,0-.386-2.493Z" transform="matrix(1, 0, 0, 1, -3752.244, 451.738)"/>
          <path id="Path_344-2" data-name="Path 344" class="cls-56" d="M0,0S1.392.213,1.821.909A8.9,8.9,0,0,1,3.2,2.689,14.776,14.776,0,0,1,4.3,6.246,2.312,2.312,0,0,0,5.349,6.6a4.15,4.15,0,0,0,1.284-.357c.138-.088-.255,1.252-.341,2.574a25.012,25.012,0,0,0,0,2.714,4.1,4.1,0,0,0,.341,1.951c.409.559,1.3-.1,2.152.549a4.592,4.592,0,0,1,1.268,2.037,24.626,24.626,0,0,1,1.809,4.577,30.507,30.507,0,0,1,.842,5.182l.415,2.787a30.569,30.569,0,0,1-.868-3.347c-.5-2.323,1.341,4.815.692,3.19s-1.324-5.184-2.578-7.7S7.927,18.4,7.927,18.4l-1.968-.5-1.37-.51-.827-.534a1.712,1.712,0,0,1-.923-1.068,5.483,5.483,0,0,1,0-2.187,7.312,7.312,0,0,0-.309-3.426C2.017,8.592,1.319,8.427.787,7.3A2.86,2.86,0,0,1,.4,5.583,2.061,2.061,0,0,0,.787,4.207,13.192,13.192,0,0,0,.4,1.714Z" transform="matrix(0.985, -0.174, 0.174, 0.985, 10.367, 39.143)"/>
          <path id="Path_346-2" data-name="Path 346" class="cls-56" d="M10.337,0S9.237.168,8.9.718A7.027,7.027,0,0,0,7.81,2.125a11.673,11.673,0,0,0-.874,2.81,1.826,1.826,0,0,1-.826.282A3.279,3.279,0,0,1,5.1,4.935c-.109-.069.2.989.269,2.034a19.776,19.776,0,0,1,0,2.144A3.236,3.236,0,0,1,5.1,10.655c-.323.442-1.025-.077-1.7.433a3.627,3.627,0,0,0-1,1.61A19.453,19.453,0,0,0,.965,16.314,24.1,24.1,0,0,0,.3,20.408l.087,2.17a8.037,8.037,0,0,1,.27-2.613c.4-1.835-1.06,3.8-.547,2.521s1.046-4.1,2.037-6.084,1.926-1.868,1.926-1.868l1.555-.4,1.082-.4.654-.422a1.352,1.352,0,0,0,.729-.844,4.333,4.333,0,0,0,0-1.728,5.776,5.776,0,0,1,.244-2.707c.405-1.243.957-1.373,1.378-2.265a2.26,2.26,0,0,0,.305-1.355,1.628,1.628,0,0,1-.305-1.087,10.422,10.422,0,0,1,.305-1.97Z" transform="matrix(0.978, 0.208, -0.208, 0.978, 32.445, 42.635)"/>
          <path id="Path_347-2" data-name="Path 347" class="cls-10" d="M0,0H2.319l-.97,3.181L1.221,3.09Z" transform="translate(26.902 62.639)"/>
        </g>
      </g>
    </g>
  </g>
</svg>
