<svg xmlns="http://www.w3.org/2000/svg" xmlns:xlink="http://www.w3.org/1999/xlink" viewBox="0 0 375 659">
  <defs>
    <style>
      .cls-1 {
        clip-path: url(#clip-iPhone_X_7);
      }

      .cls-2 {
        opacity: 0.998;
        fill: url(#linear-gradient);
      }

      .cls-3, .cls-4, .cls-55, .cls-56, .cls-57, .cls-59 {
        fill: #fff;
      }

      .cls-3 {
        opacity: 0.284;
      }

      .cls-5 {
        opacity: 0.343;
        fill: url(#linear-gradient-2);
      }

      .cls-6 {
        fill: url(#linear-gradient-3);
      }

      .cls-7 {
        fill: #c9deff;
      }

      .cls-8 {
        fill: #093352;
      }

      .cls-9 {
        fill: #067b90;
      }

      .cls-10 {
        fill: url(#linear-gradient-4);
      }

      .cls-11 {
        fill: url(#linear-gradient-5);
      }

      .cls-12 {
        fill: url(#linear-gradient-6);
      }

      .cls-13 {
        opacity: 0.736;
        fill: url(#linear-gradient-7);
      }

      .cls-14 {
        fill: #89cbd7;
      }

      .cls-15 {
        fill: #246c96;
        opacity: 0.743;
      }

      .cls-16 {
        fill: #529bc6;
      }

      .cls-17 {
        fill: url(#linear-gradient-8);
      }

      .cls-18 {
        fill: #eff5ff;
      }

      .cls-19 {
        fill: url(#linear-gradient-9);
      }

      .cls-20 {
        fill: url(#linear-gradient-10);
      }

      .cls-21 {
        fill: url(#linear-gradient-11);
      }

      .cls-22 {
        fill: url(#linear-gradient-12);
      }

      .cls-23 {
        fill: url(#linear-gradient-13);
      }

      .cls-24 {
        fill: url(#linear-gradient-14);
      }

      .cls-25 {
        fill: url(#linear-gradient-15);
      }

      .cls-26 {
        fill: url(#linear-gradient-16);
      }

      .cls-27, .cls-29 {
        fill: #31a5ba;
      }

      .cls-27 {
        opacity: 0.494;
      }

      .cls-28 {
        fill: #6ec7ef;
      }

      .cls-30 {
        fill: #ecf5ff;
      }

      .cls-31 {
        opacity: 0.747;
        fill: url(#linear-gradient-17);
      }

      .cls-32 {
        opacity: 0.123;
      }

      .cls-33 {
        fill: #81b6f0;
      }

      .cls-34 {
        fill: #484848;
      }

      .cls-35 {
        fill: #1f62a2;
      }

      .cls-36 {
        fill: #ffc5d0;
      }

      .cls-37 {
        fill: #f1f2f2;
      }

      .cls-38 {
        fill: #f0a5b4;
      }

      .cls-39 {
        fill: #ff7017;
      }

      .cls-40 {
        fill: #484857;
      }

      .cls-41 {
        fill: #ffb2c2;
      }

      .cls-42 {
        fill: url(#linear-gradient-18);
      }

      .cls-43 {
        fill: #eaf4f4;
      }

      .cls-44 {
        fill: #e6e7e8;
      }

      .cls-45 {
        fill: url(#linear-gradient-19);
      }

      .cls-46 {
        fill: #3b4193;
      }

      .cls-47 {
        fill: url(#linear-gradient-20);
      }

      .cls-48 {
        fill: #f7f7f7;
      }

      .cls-49 {
        fill: #b4b4b4;
        opacity: 0.312;
      }

      .cls-50 {
        fill: url(#linear-gradient-21);
      }

      .cls-51 {
        fill: #5093e9;
      }

      .cls-52 {
        fill: url(#linear-gradient-23);
      }

      .cls-53 {
        fill: url(#linear-gradient-24);
      }

      .cls-54 {
        fill: #568cdd;
      }

      .cls-55 {
        opacity: 0.422;
      }

      .cls-56 {
        font-size: 28px;
      }

      .cls-56, .cls-57, .cls-59 {
        font-family: DINAlternate-Bold, DIN Alternate;
        font-weight: 700;
      }

      .cls-57 {
        font-size: 26px;
      }

      .cls-58 {
        fill: #35d8d1;
        font-size: 25px;
        font-family: HelveticaNeue, Helvetica Neue;
      }

      .cls-59 {
        font-size: 14px;
      }

      .cls-60 {
        opacity: 0.662;
      }

      .cls-61, .cls-62, .cls-64 {
        fill: none;
      }

      .cls-61, .cls-62 {
        stroke: #fff;
      }

      .cls-61 {
        stroke-width: 3px;
      }

      .cls-62 {
        stroke-width: 2px;
      }

      .cls-63 {
        stroke: none;
      }

      .cls-65 {
        filter: url(#Path_143);
      }
    </style>
    <linearGradient id="linear-gradient" x1="0.058" y1="0.835" x2="0.771" y2="0.49" gradientUnits="objectBoundingBox">
      <stop offset="0" stop-color="#d6f2f2"/>
      <stop offset="0.573" stop-color="#31a5ba"/>
      <stop offset="1" stop-color="#2c6bc9"/>
    </linearGradient>
    <filter id="Path_143" x="-335.593" y="-261.066" width="1025.695" height="1048.361" filterUnits="userSpaceOnUse">
      <feOffset dy="3" input="SourceAlpha"/>
      <feGaussianBlur stdDeviation="27.5" result="blur"/>
      <feFlood flood-color="#76cad2" flood-opacity="0.314"/>
      <feComposite operator="in" in2="blur"/>
      <feComposite in="SourceGraphic"/>
    </filter>
    <linearGradient id="linear-gradient-2" x1="0.5" x2="0.5" y2="1" gradientUnits="objectBoundingBox">
      <stop offset="0" stop-color="#6bb2a0"/>
      <stop offset="1" stop-color="#365950"/>
    </linearGradient>
    <linearGradient id="linear-gradient-3" x1="0.442" y1="1" x2="0.784" y2="0.662" gradientUnits="objectBoundingBox">
      <stop offset="0" stop-color="#fff"/>
      <stop offset="1" stop-color="#31a5ba"/>
    </linearGradient>
    <linearGradient id="linear-gradient-4" x1="0.295" y1="-0.19" x2="0.139" y2="0.766" xlink:href="#linear-gradient-3"/>
    <linearGradient id="linear-gradient-5" y1="0.657" x2="1" y2="-0.114" gradientUnits="objectBoundingBox">
      <stop offset="0" stop-color="#fff"/>
      <stop offset="0.061" stop-color="#fff"/>
      <stop offset="1" stop-color="#31a5ba"/>
    </linearGradient>
    <linearGradient id="linear-gradient-6" x1="0.706" y1="1.082" x2="0.33" y2="-0.031" gradientUnits="objectBoundingBox">
      <stop offset="0" stop-color="#31a5ba"/>
      <stop offset="1" stop-color="#fff"/>
    </linearGradient>
    <linearGradient id="linear-gradient-7" x1="0.475" y1="0.222" x2="0.321" y2="1.294" gradientUnits="objectBoundingBox">
      <stop offset="0" stop-color="#fff"/>
      <stop offset="1" stop-color="#6eb1b3"/>
    </linearGradient>
    <linearGradient id="linear-gradient-8" x1="0.675" y1="0.14" x2="1.001" y2="1.25" gradientUnits="objectBoundingBox">
      <stop offset="0" stop-color="#61b7cc"/>
      <stop offset="1" stop-color="#d6f2f2" stop-opacity="0.11"/>
    </linearGradient>
    <linearGradient id="linear-gradient-9" x1="1.47" y1="-0.709" x2="0.077" y2="1.092" xlink:href="#linear-gradient-6"/>
    <linearGradient id="linear-gradient-10" x1="0.5" y1="0" x2="0.5" y2="1.263" xlink:href="#linear-gradient-3"/>
    <linearGradient id="linear-gradient-11" x1="0.5" y1="0" x2="0.5" y2="1" xlink:href="#linear-gradient-3"/>
    <linearGradient id="linear-gradient-12" x1="0.5" y1="1.497" x2="0.5" y2="-0.33" xlink:href="#linear-gradient-6"/>
    <linearGradient id="linear-gradient-13" x1="1.22" y1="0.352" x2="-0.129" y2="0.44" xlink:href="#linear-gradient-3"/>
    <linearGradient id="linear-gradient-14" x1="-0.061" y1="0.86" x2="1.006" y2="0.244" gradientUnits="objectBoundingBox">
      <stop offset="0" stop-color="#fff"/>
      <stop offset="1" stop-color="#fff" stop-opacity="0"/>
    </linearGradient>
    <linearGradient id="linear-gradient-15" x1="0.009" y1="0.775" x2="1.006" y2="0.244" gradientUnits="objectBoundingBox">
      <stop offset="0" stop-color="#fff"/>
      <stop offset="1" stop-color="#31a5ba" stop-opacity="0.235"/>
      <stop offset="1" stop-color="#5aabd4" stop-opacity="0"/>
    </linearGradient>
    <linearGradient id="linear-gradient-16" x1="-0.163" y1="0.824" x2="1.021" y2="0.318" gradientUnits="objectBoundingBox">
      <stop offset="0" stop-color="#fff"/>
      <stop offset="1" stop-color="#5aabd4" stop-opacity="0"/>
    </linearGradient>
    <linearGradient id="linear-gradient-17" x1="1.103" y1="-0.091" x2="-0.073" y2="1.09" gradientUnits="objectBoundingBox">
      <stop offset="0" stop-color="#31a5ba"/>
      <stop offset="1" stop-color="#2878f0"/>
    </linearGradient>
    <linearGradient id="linear-gradient-18" x1="0.3" y1="0.101" x2="0.5" y2="1" gradientUnits="objectBoundingBox">
      <stop offset="0" stop-color="#62e6c5"/>
      <stop offset="1" stop-color="#568cdd"/>
    </linearGradient>
    <linearGradient id="linear-gradient-19" x1="0.5" y1="0" x2="0" y2="0.882" xlink:href="#linear-gradient-18"/>
    <linearGradient id="linear-gradient-20" x1="0.5" y1="0" xlink:href="#linear-gradient-18"/>
    <linearGradient id="linear-gradient-21" x1="1.503" y1="-0.147" x2="-0.337" y2="1.399" xlink:href="#linear-gradient-18"/>
    <linearGradient id="linear-gradient-23" x1="0.2" y1="0.061" x2="0.507" y2="0.521" xlink:href="#linear-gradient-18"/>
    <linearGradient id="linear-gradient-24" x1="0.143" y1="0.099" x2="0.424" y2="0.665" xlink:href="#linear-gradient-18"/>
    <clipPath id="clip-iPhone_X_7">
      <rect width="375" height="659"/>
    </clipPath>
  </defs>
  <g id="iPhone_X_7" data-name="iPhone X – 7" class="cls-1">
    <rect class="cls-4" width="375" height="659"/>
    <g class="cls-65" transform="matrix(1, 0, 0, 1, 0, 0)">
      <path id="Path_143-2" data-name="Path 143" class="cls-2" d="M119.054,7.952l464.2,4.7c45.375.459,82.532,35.943,82.991,79.257L671.3,568.732c.459,43.313-35.953,78.053-81.328,77.594,0,0,16.656-54.076,11.2-52.691-16.635,4.223,10.8,90.1-45.323,115.079-12.921,5.751-44.011,9.3-85.8-.872-25.613-6.234-60.329-25.717-82.475-29.166-57.973-9.029-71.041,13.049-127.571,2.227s-62.933-23.958-98.549-45.518c-24.188-14.643-55.319-16.59-78.538-27.195C26.01,582.2,52.9,591.76,38.839,534.355s-4.5-114.014-8.781-177.267-73.245-91.68-79.163-157.48c-1.485-16.516,12.791-44.763,13.2-62.083,1.211-51.71,24.022-54.65,24.022-54.65-.032-3.032-17.228-102.994-16.695-106.3C-22.15-63.441,76.855,7.525,119.054,7.952Z" transform="matrix(0.98, -0.21, 0.21, 0.98, -197.54, -7.12)"/>
    </g>
    <g id="Group_119" data-name="Group 119" transform="translate(-15 -99)">
      <path id="Path_350" data-name="Path 350" class="cls-3" d="M311.394,231.459c0,23.5,166.448,416.652,48.935,428.356-49.829,4.963-104.267-44.627-207.917-54.686S-.621,631.854-54.271,619.583s46.446-54.314-11.086-55.143-91.453,21.707-91.453,21.707c-23.35,0-12.662-210.049-12.662-233.55Z" transform="matrix(0.998, 0.07, -0.07, 0.998, 151.005, -151.755)"/>
      <path id="Path_411" data-name="Path 411" class="cls-4" d="M201.464,247.977c0,23.5,109.65,322.075,86.3,322.075,0,0,190.079,78.06,72.565,89.764-49.829,4.963-105.416-51.047-209.066-61.1S-.621,631.854-54.271,619.583s46.446-54.314-11.086-55.143-91.453,21.707-91.453,21.707c-17.746,0-53.263-159.815-51.32-228.419C-207.519,336.13-169.473,358.237,201.464,247.977Z" transform="matrix(0.966, 0.259, -0.259, 0.966, 289.598, -201.842)"/>
    </g>
    <g id="Group_163" data-name="Group 163" transform="translate(395.991 124)">
      <g id="Group_162" data-name="Group 162" transform="translate(-325.483 -84.522)">
        <g id="Group_112" data-name="Group 112" transform="translate(0 0)">
          <path id="Path_310" data-name="Path 310" class="cls-5" d="M4873.3,369.2l87.373-49.649a7.436,7.436,0,0,1,2.588-.553,10.889,10.889,0,0,1,2.927.553l52.181,29.927a13.828,13.828,0,0,1,1.53,1.154,2.014,2.014,0,0,1,.492,1.005,1.548,1.548,0,0,1-.38,1.35,8.592,8.592,0,0,1-1.752,1.315l-134.119,77.063a13.1,13.1,0,0,1-3.342.39,5.578,5.578,0,0,1-2.428-.7l-2.723-1.383a11.455,11.455,0,0,0-1.792-.292,7.621,7.621,0,0,0-1.592.572l-3.422,1.8a8.581,8.581,0,0,1-2.448.411,9.966,9.966,0,0,1-3.35-1.108l-37.959-21.8a3.871,3.871,0,0,1-.735-2.1,3.628,3.628,0,0,1,.731-1.663l1.466-.766s2.44-1.173,2.428-1.529-1.37-1.07-1.37-1.07l-2.52-1.666s-1.262-1.084-1.05-2.136a3.723,3.723,0,0,1,1.393-1.883Z" transform="translate(-4809.379 -156.691)"/>
          <path id="Path_311" data-name="Path 311" class="cls-6" d="M4983.687,375.764l-31.431,41.855,89.865,49.572,66.872-37.669-117.984-61.588Z" transform="translate(-4905.777 -240.773)"/>
          <path id="Path_312" data-name="Path 312" class="cls-7" d="M0,.013,2.858,0,.958,1.634Z" transform="matrix(0.875, 0.485, -0.485, 0.875, 133.859, 225.037)"/>
          <rect id="Rectangle_54" data-name="Rectangle 54" class="cls-8" width="32.063" height="1.673" transform="matrix(0.875, 0.485, -0.485, 0.875, 106.695, 209.92)"/>
          <path id="Path_313" data-name="Path 313" class="cls-9" d="M4983.687,375.764l-31.431,41.855,89.865,49.572-51.112-99.257h0Z" transform="translate(-4905.777 -240.773)"/>
          <path id="Path_314" data-name="Path 314" class="cls-10" d="M1.177-4.182,50.092,22.834c1.232,0,3.976-4.813,3.976-3.581l-2.211,41.3c0,1.232,9.279,34.761,8.047,34.761L3.1,63.233S0,61.783,0,60.552V-.786C0-2.018-.055-4.182,1.177-4.182Z" transform="translate(71.502 69.416)"/>
          <path id="Path_315" data-name="Path 315" class="cls-11" d="M52.4,81.074,77.373,95.583c1.232,0-3.83,2.382-3.83,3.614L59.219,109.535c0,1.232-6.5,37.868-7.73,37.868l-57.752-32.9c-.452-.225-.54-.079-.54-.079l.328-.211L47.558,81.5C50.069,80.108,51.17,81.074,52.4,81.074Z" transform="translate(78.916 -48.989)"/>
          <path id="Path_316" data-name="Path 316" class="cls-12" d="M78.607.566c6.311,0,14.057,1.255,20.419,4.54,7.773,4.013,14.622,11.188,20.27,20.447,10.752,17.625,17.118,42.8,17.118,67.956,0,33.888-16.256,66.065-36.778,79.665-9.168,6.076-20.383,4.487-29.328,4.487-4.921,0-23.5.594-27.63-1.5C22.792,166.078,0,130.191,0,89.486,0,52.017,18.807,17.968,37.109,4.232c2.047-1.536,2.363-2.9,7.957-3.655C54.6-.715,74.269.566,78.607.566Z" transform="translate(86.713 66.135) rotate(-29)"/>
          <path id="Path_317" data-name="Path 317" class="cls-13" d="M83.853,3.211s-.62,1.336-2.049,3.7A69.128,69.128,0,0,1,76.552,14.4c-3.408,4.262-7.8,9.865-15.746,15.128-9.168,6.076-20.383,4.487-29.328,4.487-4.921,0-23.5.594-27.63-1.5C-16.037,22.428,47.615,0,47.615,0L69.8,2.172Z" transform="translate(190.317 172.949) rotate(-29)"/>
          <ellipse id="Ellipse_39" data-name="Ellipse 39" class="cls-4" cx="51.858" cy="88.8" rx="51.858" ry="88.8" transform="translate(82.148 68.43) rotate(-29)"/>
          <rect id="Rectangle_46" data-name="Rectangle 46" class="cls-14" width="5.371" height="8.214" transform="translate(11.473 191.496)"/>
          <ellipse id="Ellipse_40" data-name="Ellipse 40" class="cls-15" cx="35.548" cy="59.107" rx="35.548" ry="59.107" transform="translate(110.641 87.154) rotate(-29)"/>
          <ellipse id="Ellipse_41" data-name="Ellipse 41" class="cls-16" cx="34.014" cy="58.549" rx="34.014" ry="58.549" transform="translate(113.429 86.597) rotate(-29)"/>
          <path id="Path_318" data-name="Path 318" class="cls-17" d="M23.576,0s8.276,4.388,14.773,17.275a82.366,82.366,0,0,1,6.631,20.91,96.181,96.181,0,0,1,1.456,17.548c0,11.2-1.494,20.829-5.237,30.235a52.209,52.209,0,0,1-8.3,16.052c-5.472,7.919-14.733,11.12-14.733,11.12S0,85.269,0,53.395,23.576,0,23.576,0Z" transform="translate(134.09 78.669) rotate(-29)"/>
          <path id="Path_319" data-name="Path 319" class="cls-18" d="M4871.638,367.86l84.438-48.322a7.147,7.147,0,0,1,2.5-.538,10.455,10.455,0,0,1,2.829.538l50.428,29.128a13.311,13.311,0,0,1,1.478,1.124,1.963,1.963,0,0,1,.476.978,1.519,1.519,0,0,1-.368,1.314,8.3,8.3,0,0,1-1.693,1.279l-129.612,75a12.587,12.587,0,0,1-3.23.38,5.366,5.366,0,0,1-2.347-.678l-2.631-1.346a11.011,11.011,0,0,0-1.732-.284,7.323,7.323,0,0,0-1.539.557l-3.307,1.752a8.249,8.249,0,0,1-2.367.4,9.589,9.589,0,0,1-3.237-1.078l-36.683-21.221a3.786,3.786,0,0,1-.711-2.043,3.549,3.549,0,0,1,.707-1.619l1.417-.745s2.357-1.142,2.345-1.488-1.324-1.042-1.324-1.042l-2.434-1.621s-1.22-1.056-1.017-2.079a3.628,3.628,0,0,1,1.347-1.833Z" transform="translate(-4813.281 -205.482)"/>
          <path id="Path_320" data-name="Path 320" class="cls-19" d="M7.563,8.678,28.786,0l-1.41,11.343L23.569,42.277a23.784,23.784,0,0,0,.066,3.112,3.766,3.766,0,0,0,.942,2.219L1.858,57.245A2.308,2.308,0,0,1,0,55.421L4.845,11.994C4.845,11.224,6.816,8.678,7.563,8.678Z" transform="matrix(0.391, -0.921, 0.921, 0.391, 0, 227.394)"/>
          <path id="Path_321" data-name="Path 321" class="cls-20" d="M-.951-7.588A12.448,12.448,0,0,0,.5-8.19c.965-.462,2.246-1.208,3.038-1.6,1.407-.693,1.785-.313,1.785-.313V14.243l-6.327,3.188Z" transform="translate(54.106 231.006)"/>
          <path id="Path_322" data-name="Path 322" class="cls-21" d="M5022.915,513.722l.077,25.4,1.733-.1,15.308-8.884,15.579-9.04a18.489,18.489,0,0,0,3.812-4.322c1.608-2.595,1.2-2.584,2.618-6.056s1.665-4.722,3.16-7.742a17.5,17.5,0,0,1,2.822-4.339,22.233,22.233,0,0,1,4.316-3.537c3.126-2.11,8.188-4.9,8.188-4.9l75.548-43.424a3.662,3.662,0,0,0,.766-1.463,5.05,5.05,0,0,0,.36-2.417c.09-2.1-.126-5.568,0-5.966s-1.126.854-1.126.854-127.554,74.472-130.413,75.5S5022.915,513.722,5022.915,513.722Z" transform="translate(-4956.735 -290.753)"/>
          <path id="Path_323" data-name="Path 323" class="cls-22" d="M-5.452-20.008a5.134,5.134,0,0,1,2.393.712c.233.042,1.958,1.044,3.07,1.386a3.012,3.012,0,0,0,1.708.139s.238,23.194.165,24.143a.929.929,0,0,0,.589.906,2.256,2.256,0,0,0,1.243-.074S2.939,8.357.685,7.494A65.339,65.339,0,0,1-5.452,4.472Z" transform="translate(64.559 240.865)"/>
          <path id="Path_324" data-name="Path 324" class="cls-23" d="M4.455,0,130.6.595c3.08,0,8.682,1.534,11.478,5.716L161.014,39.1c.84,3.132-2.554,5.09-5.9,5.282H26.868c-3.08,0-8.112-6.116-8.136-6.856L0,4.2C0,1.121,1.375,0,4.455,0Z" transform="translate(25.124 189.543) rotate(-30)"/>
          <path id="Path_326" data-name="Path 326" class="cls-24" d="M.99,2.28,27.108,0,25.883,2.185,0,4.8Z" transform="translate(64.553 226.042) rotate(-22)"/>
          <path id="Path_327" data-name="Path 327" class="cls-25" d="M.991,2.308,27.079,0,25.853,2.185,0,4.827Z" transform="translate(64.58 231.328) rotate(-22)"/>
          <path id="Path_328" data-name="Path 328" class="cls-26" d="M.991,2.308,27.079,0,25.853,2.185,0,4.827Z" transform="translate(64.58 236.068) rotate(-22)"/>
          <path id="Path_329" data-name="Path 329" class="cls-27" d="M0,4.56,38.622,0,37.43,2.125.28,7.67Z" transform="translate(124.834 203.163) rotate(-22)"/>
          <path id="Path_330" data-name="Path 330" class="cls-27" d="M0,4.56,38.622,0,37.43,2.125.28,7.67Z" transform="translate(127.546 208.586) rotate(-22)"/>
          <path id="Path_331" data-name="Path 331" class="cls-27" d="M0,4.56,38.622,0,37.43,2.125.28,7.67Z" transform="translate(130.257 213.738) rotate(-22)"/>
          <g id="Group_103" data-name="Group 103" transform="translate(8.801 71.968)">
            <g id="Group_84" data-name="Group 84" transform="translate(0 0)">
              <path id="Path_247" data-name="Path 247" class="cls-28" d="M4.8,37.066V69.751L55.283,40.517V7.9Z" transform="translate(-1.552 -2.537)"/>
              <path id="Path_248" data-name="Path 248" class="cls-29" d="M1.759,28.887,51.5.127a.922.922,0,0,1,1.015,0h0L54.407,1.21,52.986,6.218V39.173a3.273,3.273,0,0,1-1.692,2.91L3.384,69.828l-.541,1.489L.947,70.234h0A1.878,1.878,0,0,1,0,68.61V31.933A3.638,3.638,0,0,1,1.759,28.887Z" transform="translate(0 0.025)"/>
              <path id="Path_249" data-name="Path 249" class="cls-30" d="M2.8,33.6V70.28a1.824,1.824,0,0,0,2.775,1.556L54.162,43.685a3.412,3.412,0,0,0,1.692-2.91V2.609a.977.977,0,0,0-1.489-.88L4.559,30.557A3.47,3.47,0,0,0,2.8,33.6Z" transform="translate(-0.905 -0.494)"/>
              <path id="Path_250" data-name="Path 250" class="cls-31" d="M4.8,37.066V69.751L55.283,40.517V7.9Z" transform="translate(-1.552 -2.537)"/>
            </g>
            <g id="Group_85" data-name="Group 85" transform="translate(7.982 32.288)">
              <path id="Path_251" data-name="Path 251" class="cls-30" d="M17.889,49.117A9.782,9.782,0,0,1,22.761,47.7c2.707-.2,3.045,3.587,2.775,4.8s0,1.421.135,1.692a14.744,14.744,0,0,1,1.15,1.421c.2.406-.541,1.15-.812,1.421s-.068.609,0,.947S25.536,59,25.536,59a.741.741,0,0,1,.068.744,2.423,2.423,0,0,1-.406.744,2.752,2.752,0,0,1-1.692,2.91c-.474.271-1.015.541-1.556.812a.066.066,0,0,0-.068.068c-1.759,1.015-1.827,4.669-1.827,4.8L12,73.75c2.91-6.9,1.218-10.286,1.15-10.489-1.489-1.218-1.353-3.654-1.353-3.79a13.609,13.609,0,0,1,3.113-8.121A16.242,16.242,0,0,1,17.889,49.117Z" transform="translate(-11.795 -47.688)"/>
            </g>
            <g id="Group_86" data-name="Group 86" transform="translate(26.595 18.626)">
              <path id="Path_252" data-name="Path 252" class="cls-30" d="M39.3,33.726v1.218l10.692-6.226V27.5Z" transform="translate(-39.3 -27.5)"/>
              <path id="Path_253" data-name="Path 253" class="cls-30" d="M39.3,38.644l10.692-6.226V31.2L39.3,37.426Z" transform="translate(-39.3 -28.696)"/>
              <path id="Path_254" data-name="Path 254" class="cls-30" d="M46.879,37.6,39.3,41.931v1.218l7.579-4.331Z" transform="translate(-39.3 -30.765)"/>
              <path id="Path_255" data-name="Path 255" class="cls-30" d="M39.3,49.644l10.692-6.226V42.2L39.3,48.426Z" transform="translate(-39.3 -32.252)"/>
              <path id="Path_256" data-name="Path 256" class="cls-30" d="M48.5,39.8l-9.2,5.346v1.218l9.2-5.346Z" transform="translate(-39.3 -31.476)"/>
              <path id="Path_257" data-name="Path 257" class="cls-30" d="M39.3,54.472l6.361-3.722V49.6L39.3,53.254Z" transform="translate(-39.3 -34.645)"/>
            </g>
            <g id="Group_87" data-name="Group 87" transform="translate(40.264 10.709)">
              <path id="Path_258" data-name="Path 258" class="cls-30" d="M59.5,22.026v1.218l10.76-6.226V15.8Z" transform="translate(-59.5 -15.8)"/>
              <path id="Path_259" data-name="Path 259" class="cls-30" d="M59.5,26.844l10.76-6.226V19.4L59.5,25.626Z" transform="translate(-59.5 -16.964)"/>
              <path id="Path_260" data-name="Path 260" class="cls-30" d="M67.079,25.8,59.5,30.2v1.218l7.579-4.4Z" transform="translate(-59.5 -19.033)"/>
              <path id="Path_261" data-name="Path 261" class="cls-30" d="M59.5,37.844l10.76-6.226V30.4L59.5,36.626Z" transform="translate(-59.5 -20.52)"/>
              <path id="Path_262" data-name="Path 262" class="cls-30" d="M68.7,28.1l-9.2,5.346V34.6l9.2-5.346Z" transform="translate(-59.5 -19.776)"/>
              <path id="Path_263" data-name="Path 263" class="cls-30" d="M59.5,42.74l6.429-3.722V37.8L59.5,41.522Z" transform="translate(-59.5 -22.912)"/>
            </g>
            <path id="Path_264" data-name="Path 264" class="cls-30" d="M65.256,49.674,61.94,51.23l-.947-1.556a.247.247,0,0,0-.338-.135.3.3,0,0,0-.271.2L58.624,55.29l-1.489-5.82a.347.347,0,0,0-.677,0l-1.015,5.211L48,58.877l.338.541,7.579-4.263c.068-.068.135-.135.135-.2l.744-3.925,1.421,5.481c.068.135.135.271.338.271a.372.372,0,0,0,.338-.2l1.895-5.955.677,1.218a.325.325,0,0,0,.406.135l3.587-1.624Z" transform="translate(-15.518 -15.889)"/>
          </g>
          <g id="Group_110" data-name="Group 110" class="cls-32" transform="translate(140.77 175.101) rotate(21)">
            <path id="Path_284" data-name="Path 284" class="cls-33" d="M2.649,1.533v.279L0,.307V0Z"/>
            <path id="Path_285" data-name="Path 285" class="cls-33" d="M2.649,1.812,0,.307V0L2.649,1.533Z" transform="translate(0 0.613)"/>
            <path id="Path_286" data-name="Path 286" class="cls-33" d="M0,0,1.868,1.087v.279L0,.307Z" transform="translate(0.781 1.673)"/>
            <path id="Path_287" data-name="Path 287" class="cls-33" d="M2.649,1.812,0,.279V0L2.649,1.506Z" transform="translate(0 2.453)"/>
            <path id="Path_288" data-name="Path 288" class="cls-33" d="M0,0,2.286,1.31v.307L0,.307Z" transform="translate(0.362 2.035)"/>
            <path id="Path_289" data-name="Path 289" class="cls-33" d="M1.589,1.227,0,.307V0L1.589.92Z" transform="translate(1.059 3.652)"/>
          </g>
          <g id="Group_111" data-name="Group 111" transform="translate(112.4 82.875)">
            <g id="Group_98" data-name="Group 98" transform="translate(0 0)">
              <path id="Path_306" data-name="Path 306" class="cls-29" d="M8.527,5.063A3.021,3.021,0,0,1,9.683,7.374L9.657,17.565c0,.859-.514,1.185-1.156.77L1.156,13.447A3.021,3.021,0,0,1,0,11.136L.026.945C.026.086.539-.24,1.181.175Z" transform="translate(0 0.004)"/>
            </g>
            <g id="Group_102" data-name="Group 102" transform="translate(105.11 54.646)">
              <path id="Path_306-2" data-name="Path 306" class="cls-29" d="M8.527,5.063A3.021,3.021,0,0,1,9.683,7.374L9.657,17.565c0,.859-.514,1.185-1.156.77L1.156,13.447A3.021,3.021,0,0,1,0,11.136L.026.945C.026.086.539-.24,1.181.175Z" transform="translate(0 0.004)"/>
            </g>
          </g>
          <g id="Group_161" data-name="Group 161" transform="matrix(0.643, 0.766, -0.766, 0.643, 136.076, 115.541)">
            <path id="Path_291" data-name="Path 291" class="cls-34" d="M6.483.548s1.192,4.235-.753,4.8S-.649,6.545.08,9.868c.81,3.161,4.782,1.783,5.592,1.378A59.965,59.965,0,0,1,11.116,8.2c1.621-.567.7-3.889.132-6.644C10.762-1.2,6.483.548,6.483.548Z" transform="translate(0 103.899)"/>
            <path id="Path_292" data-name="Path 292" class="cls-34" d="M7.888.165s1.371,2.333-.574,2.9S-1.49,6.461.293,9.216a4.333,4.333,0,0,0,5.592,1.459c.81-.405,4.029-2.315,5.65-2.964,1.621-.567,2.292-3.069,1.724-5.825C12.692-.788,7.888.165,7.888.165Z" transform="translate(10.088 105.937)"/>
            <path id="Path_293" data-name="Path 293" class="cls-35" d="M7.68,0s-2.9,19.778-4.808,34.371-2.817,24-2.817,24-.732.272,3.172.886c.589.092,1.86-.2,2.821-.044,0,0,3.126-11.609,6.031-25.064,1.409-6.526,1.862-13.547,3.3-18.347a75.966,75.966,0,0,0,2.028-8.186L19.188.648Z" transform="translate(6.119 50.809)"/>
            <path id="Path_290" data-name="Path 290" class="cls-36" d="M5.349,0S3.4,1.783,2.594,2.35A6.044,6.044,0,0,0,0,6.322c.081.892.729,2.35,1.378,2.594s1.3-1.864,1.864-2.675c1.216-1.7,2.026-1.7,2.026-1.7a2.427,2.427,0,0,0-.324.81,15.113,15.113,0,0,1-.81,1.621c0,.081-.081.081,0,.162,0,.081.081.081.162.081.729.081,1.621-.81,1.864-1.378A46.79,46.79,0,0,1,9,1.783Z" transform="matrix(0.891, -0.454, 0.454, 0.891, 7.134, 54.921)"/>
            <path id="Path_294" data-name="Path 294" class="cls-35" d="M5.153,0,4.208,5.041,3.267,26.3S-.442,46.641.044,54.989c0,0,1.1,2.1,5.883-.492,0,0,4.057-16.834,4.3-19.1L13.284,17.92s3.653-14.36,2.6-16.548Z" transform="translate(17.285 53.571)"/>
            <path id="Path_295" data-name="Path 295" class="cls-37" d="M6.966,0S1.884.5,2.127,6.421L2.046,16.633S1.628,32.354,0,33.589a40.1,40.1,0,0,1,4.907,1.152L7.233,21.333Z" transform="translate(12.701 20.241) rotate(3)"/>
            <path id="Path_296" data-name="Path 296" class="cls-38" d="M9.645,0l.324,4.3a5.131,5.131,0,0,1-4.62,3.4A5.263,5.263,0,0,1,0,5.268V1.7Z" transform="translate(24.177 16.593)"/>
            <path id="Path_297" data-name="Path 297" class="cls-39" d="M15.449.174s7.273.2,10.191,3.277c0,0-6.138,12.365-6.949,31.492a22.988,22.988,0,0,1-12.385.247c-1.815-.441-4.328.222-6.306-1.183A72.221,72.221,0,0,0,2.928,20.571C3.428,14.9,3.215,7.6,3.885,2.4c0,0-.276-2.7,1.994-2.376L7.987.056Z" transform="translate(14.397 20.162)"/>
            <path id="Path_298" data-name="Path 298" class="cls-36" d="M14.423,13.842S12.964,20.488,6.8,20.326c-7.051-.081-7.375-9.4-6.4-13.7.892-4.052,5.835-8.753,10.7-5.592C14.747,3.468,15.963,7.845,14.423,13.842Z" transform="translate(20.372 1.13)"/>
            <path id="Path_299" data-name="Path 299" class="cls-40" d="M9.983.222s6.16.405,7.456,8.1c0,0,.892,6.4-3.89,10.536,0,0,.162-2.675-.162-3.161s1.054-2.026.892-3-.243-2.837-1.378-1.945l-.405.405c-.405.405-.973.081-.973-.486A3.244,3.244,0,0,0,11.2,8.488c-.81-1.216-5.349,2.431-10.05,1.54,0,0-1.3-.081-1.135-1.945C.014,8,1.8-1.562,9.983.222Z" transform="translate(19.382 0)"/>
            <path id="Path_300" data-name="Path 300" class="cls-41" d="M8.267,0,4.214.973,0,2.269.324,4.214l1.945.892L6.322,3.242,8.672.973Z" transform="translate(24.259 19.916)"/>
            <path id="Path_301" data-name="Path 301" class="cls-37" d="M7.537,0,8.591,1.54l-6.565,6.4L0,5.43Z" transform="translate(26.127 19.627)"/>
            <path id="Path_302" data-name="Path 302" class="cls-37" d="M3.566,5.106,1.135,7.213,0,0Z" transform="translate(22.561 19.951)"/>
            <path id="Path_303" data-name="Path 303" class="cls-40" d="M9.344.243s.81,6.484-1.216,8.024a8.963,8.963,0,0,1-7.294.405s-1.7,1.945-.243,3.242c1.378,1.216,7.375.973,8.753-.486s1.7-8.024.973-10.779L9.668,0Z" transform="translate(21.56 10.515)"/>
            <path id="Path_304" data-name="Path 304" class="cls-36" d="M.973,7.213A7.4,7.4,0,0,1,2.026,3.728,4.944,4.944,0,0,0,.81,4.782c-.567.648-.81,0-.81,0A9.43,9.43,0,0,1,2.107,1.864a21.975,21.975,0,0,0,1.7-1.54l.324.162A2.293,2.293,0,0,0,4.377,0S7.294,2.431,7.132,3.323,5.106,5.43,4.7,6.322c-.567,1.216-.162,2.35-.567,3.242-.324.892-1.54.892-2.107.81C1.54,10.212.973,8.429.973,7.213Z" transform="translate(27.722 54.733)"/>
            <path id="Path_305" data-name="Path 305" class="cls-37" d="M10.076,8.2c.081-5.025-.2-8.2-.2-8.2a7.336,7.336,0,0,0-5.37,6.4c-.243.324-1.36,10.064-1.36,10.064L0,32.11A8.414,8.414,0,0,0,4.279,35.7L8,20.537C9.054,19.484,10.076,11.2,10.076,8.2Z" transform="translate(30.43 23.512)"/>
          </g>
        </g>
        <g id="Group_153" data-name="Group 153" transform="translate(75.404 94.341)">
          <g id="Group_98-2" data-name="Group 98" transform="translate(0 0)">
            <path id="Path_306-3" data-name="Path 306" class="cls-16" d="M11.89,6.126A3.516,3.516,0,0,1,13.5,8.919l-.036,12.32c0,1.039-.716,1.433-1.612.931L1.612,16.261A3.516,3.516,0,0,1,0,13.467L.036,1.148C.036.109.752-.285,1.647.216Z" transform="translate(0 0)"/>
          </g>
          <g id="Group_99" data-name="Group 99" transform="translate(2.175 6.775)">
            <path id="Path_307" data-name="Path 307" class="cls-30" d="M1.074.163C.43-.2,0,.055,0,.736A2.367,2.367,0,0,0,1.074,2.6c.573.322,1.039.036,1.039-.645A2.353,2.353,0,0,0,1.074.163Z" transform="translate(3.555 6.063)"/>
            <path id="Path_308" data-name="Path 308" class="cls-30" d="M5.448,3.079a7.745,7.745,0,0,0-1.4-1.791l-.179-.179a6.72,6.72,0,0,0-.86-.645,2.972,2.972,0,0,0-1.97-.43,1.588,1.588,0,0,0-.967.5c-.143.179-.072.609.107.931a1.584,1.584,0,0,0,.466.5.525.525,0,0,0,.5.072c.143-.072.251-.215.394-.251A1.679,1.679,0,0,1,3.049,2a4.566,4.566,0,0,1,1.5,1.576l.251.466a.933.933,0,0,0,.394.43c.358.215.716.036.716-.358a1.762,1.762,0,0,0-.287-.788C5.556,3.258,5.52,3.15,5.448,3.079Z" transform="translate(1.688 2.897)"/>
            <path id="Path_309" data-name="Path 309" class="cls-30" d="M9.106,5.94a3.326,3.326,0,0,0-.143-.466,11.72,11.72,0,0,0-1.54-2.22A10.64,10.64,0,0,0,4.593.783,8.625,8.625,0,0,0,3.412.246,4.934,4.934,0,0,0,2.48.031,3.2,3.2,0,0,0,.3.5.435.435,0,0,0,.009.854a1.175,1.175,0,0,0,.143.68A1.362,1.362,0,0,0,.582,2c.072.036.107.072.179.072.287.072.466-.179.645-.287a2.836,2.836,0,0,1,1.468-.251,5.207,5.207,0,0,1,1.647.537c.036.036.072.036.107.072a9.486,9.486,0,0,1,3.08,3.116,4.061,4.061,0,0,0,.573.931c.072.072.143.107.215.179a.385.385,0,0,0,.43.036C9.106,6.405,9.142,6.191,9.106,5.94Z" transform="translate(0 0)"/>
          </g>
        </g>
        <g id="Group_154" data-name="Group 154" transform="translate(75.404 73.837)">
          <path id="Path_407" data-name="Path 407" class="cls-16" d="M11.89,6.126A3.516,3.516,0,0,1,13.5,8.919l-.036,12.32c0,1.039-.716,1.433-1.612.931L1.612,16.261A3.516,3.516,0,0,1,0,13.467L.036,1.148C.036.109.752-.285,1.647.216Z" transform="translate(0 0)"/>
          <path id="Path_408" data-name="Path 408" class="cls-30" d="M3.8,6.515c-.026-.193-.154-1.194-.167-1.4a5.3,5.3,0,0,0-.141-.642,3.3,3.3,0,0,0-.128-.822A2.614,2.614,0,0,0,3.312,3a1.66,1.66,0,0,0-.668-.847.928.928,0,0,1-.334-.462V1.367c.013-.026.039-.154.077-.141s.1-.193.1-.257A.071.071,0,0,0,2.452.905C2.426.892,2.388.892,2.388.88A1.259,1.259,0,0,0,2.4.584.908.908,0,0,0,1.99-.07c-.026-.013-.424-.193-.411.18,0,.013,0,.193.013.308A.351.351,0,0,0,1.528.366C1.5.353,1.489.353,1.489.379a1.054,1.054,0,0,0,.1.385c.026.026.051.193.077.231v.321c0,.013-.077.154-.347.051-.3-.09-.642-.167-.68.09a1.97,1.97,0,0,0-.051.591,2.877,2.877,0,0,0-.128.68A1.5,1.5,0,0,0,.321,3.2C.308,3.4.18,4.243.141,4.41S0,4.8,0,4.9a1.346,1.346,0,0,0,.09.462c.051.064.205.257.231.282C.334,5.642.347,5.6.3,5.488S.218,5.36.218,5.3s-.013-.141,0-.193.026-.116.051-.09a.636.636,0,0,1,.051.167c.013.051.039.128.077.141s.064-.051.026-.167a4.136,4.136,0,0,1-.051-.5c-.026-.064.154-.347.244-.462a2.625,2.625,0,0,0,.3-.886c.013-.3.1-.411.128-.4a.6.6,0,0,1,.051.18,4.674,4.674,0,0,1,.051.757c-.013.257-.013.321-.013.385a5.36,5.36,0,0,1-.09.655A5.829,5.829,0,0,0,.911,6.1a9.615,9.615,0,0,0,.128,1.22,4.648,4.648,0,0,1,.026.745,3.732,3.732,0,0,0-.039.989,13.394,13.394,0,0,1,.116,1.425A.271.271,0,0,1,1,10.6a.41.41,0,0,1-.205.026c-.064-.013-.218.013-.193.09a.131.131,0,0,0,.064.077c.013.013.039.013.077.026s.1.064.116.077a1.282,1.282,0,0,0,.231.116.217.217,0,0,1,.064.026,1.6,1.6,0,0,1,.154.1.4.4,0,0,0,.077.051c.077.051.18.077.154-.141a2.172,2.172,0,0,1-.051-.668c.026-.18.116-.719.18-.976a3.28,3.28,0,0,0-.039-.86c0-.051.1-.591.116-.719s.128-1,.141-1.232a2.016,2.016,0,0,1,.09-.552,3.4,3.4,0,0,1,.09.655c.013.257.128,1.258.128,1.4s.116.8.116.847a2.782,2.782,0,0,0-.039.822c.064.321.141.963.167,1.168a1.651,1.651,0,0,1-.051.6.259.259,0,0,0,.154.308c.039.026.064.026.077.039a1.337,1.337,0,0,1,.154.064A.128.128,0,0,1,2.837,12a1.428,1.428,0,0,0,.231.154c.026.013.077.039.141.077a.281.281,0,0,0,.064.039.057.057,0,0,0,.064,0c.026-.051-.116-.244-.193-.308A1.76,1.76,0,0,1,2.94,11.7c-.09-.128-.128-.27-.141-.27a7.953,7.953,0,0,1,.116-1.3,4.285,4.285,0,0,0-.039-1.027A3.958,3.958,0,0,1,2.9,8.4a9.475,9.475,0,0,0,.154-1.04A8.135,8.135,0,0,0,2.927,6a5.684,5.684,0,0,1-.09-.77c0-.064,0-.128-.013-.411a3.721,3.721,0,0,1,.051-.706C2.889,4.089,2.914,4,2.927,4a1.121,1.121,0,0,1,.128.552,6.1,6.1,0,0,0,.282,1.22,3.984,3.984,0,0,1,.231.732c-.026.039-.026.359-.064.436a.213.213,0,0,0,.026.205c.026.013.064-.026.077-.051s.026-.1.064-.116a.5.5,0,0,1,.039.154.553.553,0,0,1,0,.205c.013.077-.013.051-.077.1s-.051.1-.026.116a.72.72,0,0,0,.231-.013c.051-.013.09-.244.09-.359A3.156,3.156,0,0,0,3.8,6.515Z" transform="translate(4.224 5.196)"/>
        </g>
        <g id="Group_157" data-name="Group 157" transform="translate(91.636 102.884)">
          <path id="Path_407-2" data-name="Path 407" class="cls-16" d="M11.89,6.126A3.516,3.516,0,0,1,13.5,8.919l-.036,12.32c0,1.039-.716,1.433-1.612.931L1.612,16.261A3.516,3.516,0,0,1,0,13.467L.036,1.148C.036.109.752-.285,1.647.216Z" transform="translate(0 0)"/>
          <path id="Path_408-2" data-name="Path 408" class="cls-30" d="M3.8,6.515c-.026-.193-.154-1.194-.167-1.4a5.3,5.3,0,0,0-.141-.642,3.3,3.3,0,0,0-.128-.822A2.614,2.614,0,0,0,3.312,3a1.66,1.66,0,0,0-.668-.847.928.928,0,0,1-.334-.462V1.367c.013-.026.039-.154.077-.141s.1-.193.1-.257A.071.071,0,0,0,2.452.905C2.426.892,2.388.892,2.388.88A1.259,1.259,0,0,0,2.4.584.908.908,0,0,0,1.99-.07c-.026-.013-.424-.193-.411.18,0,.013,0,.193.013.308A.351.351,0,0,0,1.528.366C1.5.353,1.489.353,1.489.379a1.054,1.054,0,0,0,.1.385c.026.026.051.193.077.231v.321c0,.013-.077.154-.347.051-.3-.09-.642-.167-.68.09a1.97,1.97,0,0,0-.051.591,2.877,2.877,0,0,0-.128.68A1.5,1.5,0,0,0,.321,3.2C.308,3.4.18,4.243.141,4.41S0,4.8,0,4.9a1.346,1.346,0,0,0,.09.462c.051.064.205.257.231.282C.334,5.642.347,5.6.3,5.488S.218,5.36.218,5.3s-.013-.141,0-.193.026-.116.051-.09a.636.636,0,0,1,.051.167c.013.051.039.128.077.141s.064-.051.026-.167a4.136,4.136,0,0,1-.051-.5c-.026-.064.154-.347.244-.462a2.625,2.625,0,0,0,.3-.886c.013-.3.1-.411.128-.4a.6.6,0,0,1,.051.18,4.674,4.674,0,0,1,.051.757c-.013.257-.013.321-.013.385a5.36,5.36,0,0,1-.09.655A5.829,5.829,0,0,0,.911,6.1a9.615,9.615,0,0,0,.128,1.22,4.648,4.648,0,0,1,.026.745,3.732,3.732,0,0,0-.039.989,13.394,13.394,0,0,1,.116,1.425A.271.271,0,0,1,1,10.6a.41.41,0,0,1-.205.026c-.064-.013-.218.013-.193.09a.131.131,0,0,0,.064.077c.013.013.039.013.077.026s.1.064.116.077a1.282,1.282,0,0,0,.231.116.217.217,0,0,1,.064.026,1.6,1.6,0,0,1,.154.1.4.4,0,0,0,.077.051c.077.051.18.077.154-.141a2.172,2.172,0,0,1-.051-.668c.026-.18.116-.719.18-.976a3.28,3.28,0,0,0-.039-.86c0-.051.1-.591.116-.719s.128-1,.141-1.232a2.016,2.016,0,0,1,.09-.552,3.4,3.4,0,0,1,.09.655c.013.257.128,1.258.128,1.4s.116.8.116.847a2.782,2.782,0,0,0-.039.822c.064.321.141.963.167,1.168a1.651,1.651,0,0,1-.051.6.259.259,0,0,0,.154.308c.039.026.064.026.077.039a1.337,1.337,0,0,1,.154.064A.128.128,0,0,1,2.837,12a1.428,1.428,0,0,0,.231.154c.026.013.077.039.141.077a.281.281,0,0,0,.064.039.057.057,0,0,0,.064,0c.026-.051-.116-.244-.193-.308A1.76,1.76,0,0,1,2.94,11.7c-.09-.128-.128-.27-.141-.27a7.953,7.953,0,0,1,.116-1.3,4.285,4.285,0,0,0-.039-1.027A3.958,3.958,0,0,1,2.9,8.4a9.475,9.475,0,0,0,.154-1.04A8.135,8.135,0,0,0,2.927,6a5.684,5.684,0,0,1-.09-.77c0-.064,0-.128-.013-.411a3.721,3.721,0,0,1,.051-.706C2.889,4.089,2.914,4,2.927,4a1.121,1.121,0,0,1,.128.552,6.1,6.1,0,0,0,.282,1.22,3.984,3.984,0,0,1,.231.732c-.026.039-.026.359-.064.436a.213.213,0,0,0,.026.205c.026.013.064-.026.077-.051s.026-.1.064-.116a.5.5,0,0,1,.039.154.553.553,0,0,1,0,.205c.013.077-.013.051-.077.1s-.051.1-.026.116a.72.72,0,0,0,.231-.013c.051-.013.09-.244.09-.359A3.156,3.156,0,0,0,3.8,6.515Z" transform="translate(4.224 5.196)"/>
        </g>
        <g id="Group_158" data-name="Group 158" transform="translate(91.636 83.235)">
          <path id="Path_407-3" data-name="Path 407" class="cls-16" d="M11.89,6.126A3.516,3.516,0,0,1,13.5,8.919l-.036,12.32c0,1.039-.716,1.433-1.612.931L1.612,16.261A3.516,3.516,0,0,1,0,13.467L.036,1.148C.036.109.752-.285,1.647.216Z" transform="translate(0 0)"/>
          <g id="Group_159" data-name="Group 159" transform="translate(4.996 6.475) rotate(1)">
            <path id="Path_284-2" data-name="Path 284" class="cls-30" d="M6.76,3.914v.712L0,.783V0Z"/>
            <path id="Path_285-2" data-name="Path 285" class="cls-30" d="M6.76,4.625,0,.783V0L6.76,3.914Z" transform="translate(0 1.566)"/>
            <path id="Path_286-2" data-name="Path 286" class="cls-30" d="M0,0,4.768,2.775v.712L0,.783Z" transform="translate(1.993 4.27)"/>
            <path id="Path_287-2" data-name="Path 287" class="cls-30" d="M6.76,4.625,0,.712V0L6.76,3.843Z" transform="translate(0 6.262)"/>
            <path id="Path_288-2" data-name="Path 288" class="cls-30" d="M0,0,5.835,3.345v.783L0,.783Z" transform="translate(0.925 5.195)"/>
            <path id="Path_289-2" data-name="Path 289" class="cls-30" d="M4.056,3.131,0,.783V0L4.056,2.348Z" transform="translate(2.704 9.322)"/>
          </g>
        </g>
      </g>
      <g id="Group_145" data-name="Group 145" transform="translate(-213.714 61.072)">
        <g id="Group_90" data-name="Group 90" transform="translate(1.118 0)">
          <g id="Group_89" data-name="Group 89" transform="translate(32.329 19.119)">
            <path id="Path_265" data-name="Path 265" class="cls-41" d="M41.553,26.672a5.243,5.243,0,0,0-.327,2.208,3.814,3.814,0,0,1-.327,2.045c-.082.164.9.654.9.654l1.554-.818,2.29-3.435a7.774,7.774,0,0,0,.491-1.472c0-.082-2.372-2.454-2.372-2.454Z" transform="translate(-40.894 -23.4)"/>
            <path id="Path_266" data-name="Path 266" class="cls-36" d="M44.372,31.79s2.208-1.881,2.535-2.944.327-4.417.654-4.662c0,0-1.145-.573-1.554,1.472-.164.409-.327.9-.491,1.309a5.215,5.215,0,0,1-.654,1.145,3.09,3.09,0,0,1-.981.736A6.3,6.3,0,0,0,42,31.79l1.718.9A8.8,8.8,0,0,0,44.372,31.79Z" transform="translate(-41.095 -23.529)"/>
          </g>
          <path id="Path_267" data-name="Path 267" class="cls-42" d="M40.966,19.062,38.349,18l.082-1.554L33.769,14.4l-1.227,1.309-1.718-.818a.982.982,0,0,0-1.39.654L23.3,33.457l10.387,5.234,7.77-18.32A.923.923,0,0,0,40.966,19.062Z" transform="translate(-5.361 -2.642)"/>
          <path id="Path_268" data-name="Path 268" class="cls-43" d="M30.562,17l9.406,3.926L33.833,37.038,25,33.358Z" transform="translate(-5.671 -3.115)"/>
          <path id="Path_269" data-name="Path 269" class="cls-44" d="M4.747,25.4s-7.606,3.272,0,13.331Z" transform="translate(-1.367 -4.645)"/>
          <path id="Path_270" data-name="Path 270" class="cls-34" d="M8.988,139.4a2.1,2.1,0,0,0,2.7,0,8.812,8.812,0,0,1,3.435-1.309,5.739,5.739,0,0,1,2.045.082c.491.082,1.472.409,1.718.981a3.1,3.1,0,0,1-1.145,3.517,17.6,17.6,0,0,1-9.978,4.58,10.58,10.58,0,0,1-5.071-.491s-.245-6.134.409-6.952Z" transform="translate(-1.599 -25.158)"/>
          <path id="Path_271" data-name="Path 271" class="cls-45" d="M5.5,66.5S3.454,74.27,3.7,80.4L1.9,126.123s3.435,3.108,10.142,1.963l2.7-61.1Z" transform="translate(-1.464 -12.13)"/>
          <path id="Path_272" data-name="Path 272" class="cls-46" d="M13.6,79.9l1.309,31.979.981-21.837Z" transform="translate(-3.595 -14.571)"/>
          <path id="Path_273" data-name="Path 273" class="cls-34" d="M25.788,144a2.1,2.1,0,0,0,2.7,0,8.812,8.812,0,0,1,3.435-1.309,5.739,5.739,0,0,1,2.045.082c.491.082,1.472.409,1.718.981a3.1,3.1,0,0,1-1.145,3.517,17.6,17.6,0,0,1-9.978,4.58,9.685,9.685,0,0,1-5.071-.572s-.245-6.134.409-6.952Z" transform="translate(-4.659 -25.996)"/>
          <path id="Path_274" data-name="Path 274" class="cls-47" d="M14.63,65.7s-2.29,7.524-.573,14.722l3.762,50.463a14.656,14.656,0,0,0,10.223,0L25.59,69.871Z" transform="translate(-3.562 -11.984)"/>
          <path id="Path_275" data-name="Path 275" class="cls-4" d="M24.84,59.623c-.573-1.063-.573-9.324-.573-9.324h0c.245-10.305-.164-20.611-.164-20.611L18.3,25.845,9.627,23.8l-3.19.818a2.963,2.963,0,0,0-2.781,2.454,26.272,26.272,0,0,0-.327,9.569c.409,2.126.9,6.052,1.309,9.815,0,.409.573,7.933.327,10.96a1.445,1.445,0,0,0,.654,1.227c5.725,5.316,17.993,3.517,17.993,3.517C25.085,62.159,25.413,60.686,24.84,59.623Z" transform="translate(-1.667 -4.354)"/>
          <path id="Path_276" data-name="Path 276" class="cls-48" d="M38.066,31,32.832,41.469s-.9-4.989-1.309-6.952C31.2,32.636,28.006,31,28.006,31c-4.825,2.454-3.353,6.3-3.353,6.3l3.926,13.331c.573,1.881,2.781,2.372,4.58,1.554L41.5,35.5C40.847,31.573,38.066,31,38.066,31Z" transform="translate(-5.569 -5.665)"/>
          <path id="Path_277" data-name="Path 277" class="cls-36" d="M11.6,1.143a17.633,17.633,0,0,1,6.87.164,7.982,7.982,0,0,1,5.971,6.3c.818,3.19,1.063,8.588-.818,11.532-1.145,1.881-3.68,1.554-5.562,1.063a21.738,21.738,0,0,1-6.952-2.944C8.572,15.374,7.264,11.2,7.1,8.177,7.1,5.641,8.49,1.634,11.6,1.143Z" transform="translate(-2.411 -0.181)"/>
          <path id="Path_278" data-name="Path 278" class="cls-41" d="M11.2,20a4.287,4.287,0,0,0,.9.818c1.8,1.39,4.744,2.29,6.952,2.944.327.082.736.164,1.145.245l-.245,1.227a11.063,11.063,0,0,1-6.134,0c-1.227-.327-2.454-.818-2.454-2.126L11.2,20Z" transform="translate(-3.158 -3.662)"/>
          <path id="Path_279" data-name="Path 279" class="cls-40" d="M22.663,15.4s.818,4.089,2.208,4.825a2.159,2.159,0,0,0,2.208.164,3.617,3.617,0,0,1,0,1.963c-.245.736-1.39,2.372-2.045,2.454-.654,0-3.108-.981-3.108-2.372s-.327-6.3-.327-6.3l.327-.573Z" transform="translate(-5.052 -2.824)"/>
          <path id="Path_280" data-name="Path 280" class="cls-40" d="M26.11.986S23.493,2.213,19.4.495C17.359-.323,11.634-.159,10,1.64h0C8.035,2.949,7.217,5.975,7.3,8.1a15.6,15.6,0,0,0,1.636,6.052c2.045,5.153,5.725,4.825,5.725,4.825.491-.245,3.272-2.372,3.272-2.372-1.063-.654-1.881-4.171-.736-4.744,1.145-.654,1.881,1.554,1.881,1.554a1.639,1.639,0,0,0,1.063-2.29,3.819,3.819,0,0,1,0-2.7,7.885,7.885,0,0,0,4.253-1.472S27.091,5.157,26.11.986Z" transform="translate(-2.446 -0.023)"/>
          <path id="Path_281" data-name="Path 281" class="cls-30" d="M10.918,21.8,10.1,23.681a8.855,8.855,0,0,0,10.387,2.454l-.818-1.227C19.751,24.908,13.617,25.808,10.918,21.8Z" transform="translate(-2.957 -3.989)"/>
        </g>
        <path id="Path_282" data-name="Path 282" class="cls-4" d="M23.718,55.1,4.5,63.2S1.472,82.663,0,93.7c0,0,11.287,8.015,26.908,2.617Z" transform="translate(0 -10.054)"/>
      </g>
    </g>
    <g id="Group_167" data-name="Group 167" transform="translate(-319.94 -377)">
      <g id="Group_151" data-name="Group 151" transform="translate(630.39 615.924)">
        <g id="Group_116" data-name="Group 116" transform="translate(0 0)">
          <ellipse id="Ellipse_50" data-name="Ellipse 50" class="cls-49" cx="6.783" cy="15.601" rx="6.783" ry="15.601" transform="translate(32.558 73.445) rotate(70)"/>
          <g id="Group_115" data-name="Group 115" transform="translate(12.796 54.292)">
            <path id="Path_190" data-name="Path 190" class="cls-50" d="M-3.225,0A60.226,60.226,0,0,0,7.127,1.042,59.923,59.923,0,0,0,17.463,0a6.133,6.133,0,0,0-.616,3.6c.35,2.3,1.937,5.361,1.937,8.827,0,3.5-1.673,7.578-2.234,10.057-.391,1.729.3,2.316.3,2.316a32.877,32.877,0,0,1-10.1,1.843A28.816,28.816,0,0,1-.168,25.508c-1.545-.352-2.591-.707-2.591-.707a2.419,2.419,0,0,0,.278-2.316c-.591-2.272-2.4-6.281-2.4-10.057,0-3.323,1.662-6.351,2.122-8.827A6.236,6.236,0,0,0-3.225,0Z" transform="translate(4.881 2.035)"/>
            <ellipse id="Ellipse_31" data-name="Ellipse 31" class="cls-51" cx="10.344" cy="2.205" rx="10.344" ry="2.205" transform="translate(1.655)"/>
          </g>
          <g id="Group_114" data-name="Group 114">
            <path id="Path_338" data-name="Path 338" class="cls-47" d="M3767.39-417.062s2.558.392,3.348,1.67a16.353,16.353,0,0,1,2.531,3.274,27.177,27.177,0,0,1,2.033,6.54,4.252,4.252,0,0,0,1.923.656,7.63,7.63,0,0,0,2.36-.656c.253-.161-.47,2.3-.626,4.733a46,46,0,0,0,0,4.99s-.125,2.56.626,3.588,2.385-.18,3.956,1.009a8.444,8.444,0,0,1,2.331,3.746,48.313,48.313,0,0,1,4.448,9.878,104.78,104.78,0,0,1,2.057,12.558l-.608,2.245s-.929-3.5-1.854-7.77-.652-6.326-1.846-9.314-1.169-1.738-2.695-2.57a7.474,7.474,0,0,0-3.409-.757l-3.618-.926-2.519-.938-1.521-.982a3.148,3.148,0,0,1-1.7-1.964c-.4-1.159-.124-1.87,0-4.021a13.445,13.445,0,0,0-.568-6.3c-.944-2.893-2.227-3.2-3.206-5.271a5.26,5.26,0,0,1-.711-3.154,3.79,3.79,0,0,0,.711-2.53,24.253,24.253,0,0,0-.711-4.584Z" transform="translate(-3767.39 419.441)"/>
            <path id="Path_345" data-name="Path 345" class="cls-52" d="M15.552,0S13.143.369,12.4,1.572a15.393,15.393,0,0,0-2.382,3.082C8.73,7.153.533,5.113,1.446,15.548c0,0,.682,3.211-.026,4.179s.408,3.445-1.072,4.564S2.59,49.919,2.59,49.919h0c-1.147,4.222.282,3.221.282,3.221L2.585,56.1,5.238,30.966l2.371-.883,1.432-.925a2.963,2.963,0,0,0,1.6-1.849c.375-1.091.116-1.76,0-3.785a12.656,12.656,0,0,1,.534-5.93c.888-2.723,2.1-3.009,3.018-4.962a4.951,4.951,0,0,0,.669-2.969,3.567,3.567,0,0,1-.669-2.382,22.829,22.829,0,0,1,.669-4.315Z" transform="translate(18.394 1.16) rotate(-4)"/>
            <path id="Path_339" data-name="Path 339" class="cls-53" d="M0,0S2.558.392,3.348,1.67A16.347,16.347,0,0,1,5.879,4.945a27.172,27.172,0,0,1,2.033,6.54,4.251,4.251,0,0,0,1.923.656,7.629,7.629,0,0,0,2.36-.656c.253-.161-.47,2.3-.626,4.733a45.988,45.988,0,0,0,0,4.99s-.125,2.56.626,3.588,2.385-.18,3.957,1.009a8.444,8.444,0,0,1,2.331,3.746,45.293,45.293,0,0,1,3.326,8.414,56.071,56.071,0,0,1,1.548,9.527l.636,4.965s-.543-1.725-1.468-6,2.466,8.854,1.272,5.866S21.363,42.8,19.057,38.169s-4.482-4.347-4.482-4.347L10.956,32.9l-2.519-.938-1.521-.982a3.147,3.147,0,0,1-1.7-1.964c-.4-1.159-.124-1.87,0-4.021a13.443,13.443,0,0,0-.568-6.3c-.943-2.893-2.227-3.2-3.206-5.271a5.259,5.259,0,0,1-.711-3.154,3.79,3.79,0,0,0,.711-2.53A24.251,24.251,0,0,0,.735,3.152Z" transform="translate(17.279 0) rotate(17)"/>
            <path id="Path_340" data-name="Path 340" class="cls-53" d="M3779.948-417.062s-1.318.2-1.724.86a8.413,8.413,0,0,0-1.3,1.686,14,14,0,0,0-1.047,3.369,2.19,2.19,0,0,1-.99.338,3.927,3.927,0,0,1-1.216-.338c-.131-.083.242,1.186.323,2.438a23.635,23.635,0,0,1,0,2.57,3.88,3.88,0,0,1-.323,1.848c-.387.53-1.229-.093-2.038.52a4.348,4.348,0,0,0-1.2,1.929,23.317,23.317,0,0,0-1.714,4.334,28.893,28.893,0,0,0-.8,4.907l-.527,3.471s.479-1.8.955-4-1.27,4.56-.655,3.021,1.253-4.91,2.441-7.293,2.309-2.239,2.309-2.239l1.864-.477,1.3-.483.783-.506a1.621,1.621,0,0,0,.874-1.012,5.2,5.2,0,0,0,0-2.071,6.924,6.924,0,0,1,.292-3.245c.486-1.49,1.147-1.646,1.651-2.715a2.707,2.707,0,0,0,.366-1.625,1.953,1.953,0,0,1-.366-1.3,12.5,12.5,0,0,1,.366-2.361Z" transform="matrix(1, 0, 0, 1, -3742.462, 446.468)"/>
            <path id="Path_341" data-name="Path 341" class="cls-53" d="M22.949,0S20.541.369,19.8,1.572a15.393,15.393,0,0,0-2.382,3.082A25.579,25.579,0,0,0,15.5,10.811a4,4,0,0,1-1.81.618,7.181,7.181,0,0,1-2.222-.618c-.238-.152.442,2.167.59,4.456a43.261,43.261,0,0,1,0,4.7s.118,2.409-.59,3.377-2.245-.169-3.724.949a7.948,7.948,0,0,0-2.194,3.526A42.63,42.63,0,0,0,2.42,35.738,52.777,52.777,0,0,0,.963,44.706L0,51.05s.875-3.294,1.745-7.314S-.576,52.07.548,49.257s2.291-8.973,4.461-13.328,4.219-4.092,4.219-4.092l3.406-.871,2.371-.883,1.432-.925a2.963,2.963,0,0,0,1.6-1.849c.375-1.091.116-1.76,0-3.785a12.656,12.656,0,0,1,.534-5.93c.888-2.723,2.1-3.009,3.018-4.962a4.951,4.951,0,0,0,.669-2.969,3.567,3.567,0,0,1-.669-2.382,22.829,22.829,0,0,1,.669-4.315Z" transform="translate(28.668 5.778) rotate(5)"/>
            <path id="Path_342" data-name="Path 342" class="cls-52" d="M15.552,0S13.143.369,12.4,1.572a15.393,15.393,0,0,0-2.382,3.082C8.73,7.153.533,5.113,1.446,15.548c0,0,.682,3.211-.026,4.179s.408,3.445-1.072,4.564S2.59,49.919,2.59,49.919h0c-1.147,4.222.282,3.221.282,3.221L3,54.561l2.242-23.6,2.371-.883,1.432-.925a2.963,2.963,0,0,0,1.6-1.849c.375-1.091.116-1.76,0-3.785a12.656,12.656,0,0,1,.534-5.93c.888-2.723,2.1-3.009,3.018-4.962a4.951,4.951,0,0,0,.669-2.969,3.567,3.567,0,0,1-.669-2.382,22.829,22.829,0,0,1,.669-4.315Z" transform="translate(26.541 2.014) rotate(5)"/>
            <path id="Path_343" data-name="Path 343" class="cls-53" d="M3767.39-417.062s1.221.187,1.6.8a7.792,7.792,0,0,1,1.208,1.563,12.964,12.964,0,0,1,.97,3.122,2.028,2.028,0,0,0,.917.313,3.641,3.641,0,0,0,1.127-.313c.121-.077-.224,1.1-.3,2.259a21.953,21.953,0,0,0,0,2.382,3.6,3.6,0,0,0,.3,1.712c.359.491,1.138-.086,1.888.481a4.031,4.031,0,0,1,1.113,1.788,21.61,21.61,0,0,1,1.588,4.016,26.737,26.737,0,0,1,.739,4.547l.488,3.217s-.443-1.67-.885-3.709,1.177,4.226.607,2.8-1.162-4.55-2.262-6.758-2.14-2.075-2.14-2.075l-1.727-.442-1.2-.448-.726-.469a1.5,1.5,0,0,1-.81-.937,4.822,4.822,0,0,1,0-1.919,6.412,6.412,0,0,0-.271-3.007c-.45-1.381-1.063-1.526-1.53-2.516a2.51,2.51,0,0,1-.339-1.505,1.809,1.809,0,0,0,.339-1.208,11.58,11.58,0,0,0-.339-2.188Z" transform="matrix(1, 0, 0, 1, -3754.098, 447.493)"/>
            <path id="Path_344" data-name="Path 344" class="cls-53" d="M0,0S1.221.187,1.6.8A7.806,7.806,0,0,1,2.806,2.36a12.968,12.968,0,0,1,.97,3.122,2.029,2.029,0,0,0,.918.313,3.641,3.641,0,0,0,1.127-.313c.121-.077-.224,1.1-.3,2.259a21.955,21.955,0,0,0,0,2.382,3.6,3.6,0,0,0,.3,1.712c.359.491,1.138-.086,1.889.481A4.03,4.03,0,0,1,8.822,14.1a21.617,21.617,0,0,1,1.588,4.016,26.773,26.773,0,0,1,.739,4.547l.365,2.446a26.837,26.837,0,0,1-.761-2.938c-.442-2.039,1.177,4.226.607,2.8S10.2,20.426,9.1,18.218s-2.139-2.075-2.139-2.075L5.23,15.7l-1.2-.448L3.3,14.785a1.5,1.5,0,0,1-.81-.937,4.813,4.813,0,0,1,0-1.919,6.417,6.417,0,0,0-.271-3.007C1.77,7.541,1.158,7.4.69,6.405A2.51,2.51,0,0,1,.351,4.9,1.809,1.809,0,0,0,.69,3.692,11.577,11.577,0,0,0,.351,1.5Z" transform="matrix(0.985, -0.174, 0.174, 0.985, 9.098, 34.351)"/>
            <path id="Path_346" data-name="Path 346" class="cls-53" d="M9.071,0S8.106.148,7.809.63a6.167,6.167,0,0,0-.954,1.235,10.246,10.246,0,0,0-.767,2.466,1.6,1.6,0,0,1-.725.247,2.877,2.877,0,0,1-.89-.247c-.1-.061.177.868.236,1.785A17.34,17.34,0,0,1,4.709,8a2.84,2.84,0,0,1-.236,1.353c-.283.388-.9-.068-1.492.38A3.184,3.184,0,0,0,2.1,11.144,17.074,17.074,0,0,0,.847,14.317,21.143,21.143,0,0,0,.263,17.91l.077,1.9a7.055,7.055,0,0,1,.237-2.293C.926,15.91-.353,20.86.1,19.733a52.041,52.041,0,0,1,1.787-5.339c.869-1.745,1.69-1.639,1.69-1.639l1.365-.349.95-.354.573-.37a1.187,1.187,0,0,0,.64-.741,3.8,3.8,0,0,0,0-1.517,5.07,5.07,0,0,1,.214-2.376c.356-1.091.84-1.205,1.209-1.988a1.983,1.983,0,0,0,.268-1.189,1.429,1.429,0,0,1-.268-.954,9.145,9.145,0,0,1,.268-1.729Z" transform="matrix(0.978, 0.208, -0.208, 0.978, 28.473, 37.416)"/>
            <path id="Path_347" data-name="Path 347" class="cls-54" d="M0,0H2.035L1.184,2.792l-.113-.08Z" transform="translate(23.609 54.97)"/>
          </g>
        </g>
      </g>
      <path id="Path_410" data-name="Path 410" class="cls-55" d="M6176.522,2651.956s-.075.192-.6.431a15.05,15.05,0,0,1-1.511.523,13.718,13.718,0,0,1-2.938.51c-2.11.208-5.5.323-5.5.323l1.871,3.073a27.409,27.409,0,0,1,2.768,4.484,8.172,8.172,0,0,1,1.213,4.25c.3,2.709-1.067,3.935,0,6.588s4.271,4.025,4.271,4.025a4.883,4.883,0,0,1-.252-1.818,7.807,7.807,0,0,1,.808-2.444l.22-1.384,1.441-4.589v-2.286L6178,2661.3l-.363-2.216-1.118-3.466-.431-1.45Z" transform="translate(-5511.303 -1979.042)"/>
    </g>
    <g id="Group_179" data-name="Group 179" transform="translate(6.441 -89)">
      <text id="Hello_we_are" data-name="Hello, we are" class="cls-56" transform="translate(94.763 498)"><tspan x="0" y="0">Hello, we are</tspan></text>
      <text id="OPD_BOOKS" data-name="OPD BOOKS" class="cls-57" transform="translate(105 534.48)"><tspan x="0" y="0">OPD BOOKS</tspan></text>
      <g id="Group_117" data-name="Group 117" transform="translate(86.949 599.059)">
        <rect id="Rectangle_56" data-name="Rectangle 56" class="cls-4" width="188.89" height="51.711" rx="25.856" transform="translate(0 0)"/>
        <text id="SIGN_UP" data-name="SIGN UP" class="cls-58" transform="translate(42.375 34.773)"><tspan x="0" y="0">SIGN UP</tspan></text>
      </g>
      <text id="By_storing_data_across_its_peer_to_peer_network_the_blockchain_eliminates_a_number_of_risks_that_come_with_data_being_held_centrally." data-name="By storing data across its peer to peer network,
the blockchain eliminates a number of risks
 that come with data being held centrally." class="cls-59" transform="translate(43 553.48)"><tspan x="0" y="0">By storing data across its peer to peer network,</tspan><tspan x="0" y="16">the blockchain eliminates a number of risks</tspan><tspan x="0" y="32" xml:space="preserve"> that come with data being held centrally.</tspan></text>
    </g>
    <g id="Group_170" data-name="Group 170" class="cls-60" transform="translate(-43.295 360.505) rotate(-17)">
      <g id="Ellipse_55" data-name="Ellipse 55" class="cls-61" transform="translate(26 150)">
        <circle class="cls-63" cx="8.303" cy="8.303" r="8.303"/>
        <circle class="cls-64" cx="8.303" cy="8.303" r="6.803"/>
      </g>
      <g id="Ellipse_56" data-name="Ellipse 56" class="cls-62" transform="translate(32.992 167.479)">
        <circle class="cls-63" cx="4.37" cy="4.37" r="4.37"/>
        <circle class="cls-64" cx="4.37" cy="4.37" r="3.37"/>
      </g>
    </g>
    <g id="Group_180" data-name="Group 180" class="cls-60" transform="translate(379.046 213.049) rotate(30)">
      <g id="Ellipse_55-2" data-name="Ellipse 55" class="cls-61" transform="translate(26 150)">
        <circle class="cls-63" cx="8.303" cy="8.303" r="8.303"/>
        <circle class="cls-64" cx="8.303" cy="8.303" r="6.803"/>
      </g>
      <g id="Ellipse_56-2" data-name="Ellipse 56" class="cls-62" transform="translate(32.992 167.479)">
        <circle class="cls-63" cx="4.37" cy="4.37" r="4.37"/>
        <circle class="cls-64" cx="4.37" cy="4.37" r="3.37"/>
      </g>
    </g>
    <g id="Group_181" data-name="Group 181" class="cls-60" transform="translate(400.046 360.049) rotate(30)">
      <g id="Ellipse_55-3" data-name="Ellipse 55" class="cls-61" transform="translate(26 150)">
        <circle class="cls-63" cx="8.303" cy="8.303" r="8.303"/>
        <circle class="cls-64" cx="8.303" cy="8.303" r="6.803"/>
      </g>
      <g id="Ellipse_56-3" data-name="Ellipse 56" class="cls-62" transform="translate(32.992 167.479)">
        <circle class="cls-63" cx="4.37" cy="4.37" r="4.37"/>
        <circle class="cls-64" cx="4.37" cy="4.37" r="3.37"/>
      </g>
    </g>
    <g id="Group_183" data-name="Group 183" class="cls-60" transform="translate(49.171 190.931) rotate(-18)">
      <g id="Ellipse_55-4" data-name="Ellipse 55" class="cls-61" transform="translate(26 150)">
        <circle class="cls-63" cx="8.303" cy="8.303" r="8.303"/>
        <circle class="cls-64" cx="8.303" cy="8.303" r="6.803"/>
      </g>
      <g id="Ellipse_56-4" data-name="Ellipse 56" class="cls-62" transform="translate(32.992 167.479)">
        <circle class="cls-63" cx="4.37" cy="4.37" r="4.37"/>
        <circle class="cls-64" cx="4.37" cy="4.37" r="3.37"/>
      </g>
    </g>
    <g id="Group_184" data-name="Group 184" class="cls-60" transform="translate(-85.829 215.931) rotate(-18)">
      <g id="Ellipse_55-5" data-name="Ellipse 55" class="cls-61" transform="translate(26 150)">
        <circle class="cls-63" cx="8.303" cy="8.303" r="8.303"/>
        <circle class="cls-64" cx="8.303" cy="8.303" r="6.803"/>
      </g>
      <g id="Ellipse_56-5" data-name="Ellipse 56" class="cls-62" transform="translate(32.992 167.479)">
        <circle class="cls-63" cx="4.37" cy="4.37" r="4.37"/>
        <circle class="cls-64" cx="4.37" cy="4.37" r="3.37"/>
      </g>
    </g>
    <g id="Group_185" data-name="Group 185" class="cls-60" transform="translate(303.045 187.049) rotate(30)">
      <g id="Ellipse_55-6" data-name="Ellipse 55" class="cls-61" transform="translate(26 150)">
        <circle class="cls-63" cx="5.568" cy="5.568" r="5.568"/>
        <circle class="cls-64" cx="5.568" cy="5.568" r="4.068"/>
      </g>
      <g id="Ellipse_56-6" data-name="Ellipse 56" class="cls-62" transform="translate(30.689 161.722)">
        <circle class="cls-63" cx="2.93" cy="2.93" r="2.93"/>
        <circle class="cls-64" cx="2.93" cy="2.93" r="1.93"/>
      </g>
    </g>
    <g id="Group_186" data-name="Group 186" class="cls-60" transform="matrix(0.777, 0.629, -0.629, 0.777, 450.188, 287.11)">
      <g id="Ellipse_55-7" data-name="Ellipse 55" class="cls-61" transform="translate(26 150)">
        <circle class="cls-63" cx="6.871" cy="6.871" r="6.871"/>
        <circle class="cls-64" cx="6.871" cy="6.871" r="5.371"/>
      </g>
      <g id="Ellipse_56-7" data-name="Ellipse 56" class="cls-62" transform="translate(31.786 164.466)">
        <circle class="cls-63" cx="3.616" cy="3.616" r="3.616"/>
        <circle class="cls-64" cx="3.616" cy="3.616" r="2.616"/>
      </g>
    </g>
    <g id="Group_187" data-name="Group 187" class="cls-60" transform="matrix(0.99, -0.139, 0.139, 0.99, 0.571, 233.091)">
      <g id="Ellipse_55-8" data-name="Ellipse 55" class="cls-61" transform="translate(26 150)">
        <circle class="cls-63" cx="6.871" cy="6.871" r="6.871"/>
        <circle class="cls-64" cx="6.871" cy="6.871" r="5.371"/>
      </g>
      <g id="Ellipse_56-8" data-name="Ellipse 56" class="cls-62" transform="translate(31.786 164.466)">
        <circle class="cls-63" cx="3.616" cy="3.616" r="3.616"/>
        <circle class="cls-64" cx="3.616" cy="3.616" r="2.616"/>
      </g>
    </g>
    <g id="Group_166" data-name="Group 166" transform="translate(-605.835 -461)">
      <g id="Group_151-2" data-name="Group 151" transform="translate(630.39 615.924)">
        <g id="Group_116-2" data-name="Group 116" transform="translate(0 0)">
          <ellipse id="Ellipse_50-2" data-name="Ellipse 50" class="cls-49" cx="5.19" cy="11.937" rx="5.19" ry="11.937" transform="translate(24.91 56.193) rotate(70)"/>
          <g id="Group_115-2" data-name="Group 115" transform="translate(9.79 41.539)">
            <path id="Path_190-2" data-name="Path 190" class="cls-50" d="M-3.614,0A46.079,46.079,0,0,0,4.306.8,45.847,45.847,0,0,0,12.215,0a4.692,4.692,0,0,0-.471,2.755c.268,1.757,1.482,4.1,1.482,6.754,0,2.68-1.28,5.8-1.71,7.695-.3,1.323.227,1.772.227,1.772a25.154,25.154,0,0,1-7.73,1.41,22.047,22.047,0,0,1-5.288-.869c-1.182-.269-1.982-.541-1.982-.541A1.85,1.85,0,0,0-3.045,17.2C-3.5,15.465-4.881,12.4-4.881,9.508c0-2.543,1.272-4.859,1.624-6.754A4.771,4.771,0,0,0-3.614,0Z" transform="translate(4.881 1.557)"/>
            <ellipse id="Ellipse_31-2" data-name="Ellipse 31" class="cls-51" cx="7.915" cy="1.687" rx="7.915" ry="1.687" transform="translate(1.267)"/>
          </g>
          <g id="Group_114-2" data-name="Group 114" transform="translate(0 0)">
            <path id="Path_338-2" data-name="Path 338" class="cls-47" d="M3767.39-417.062s1.958.3,2.562,1.278a12.51,12.51,0,0,1,1.937,2.505,20.8,20.8,0,0,1,1.556,5,3.252,3.252,0,0,0,1.471.5,5.839,5.839,0,0,0,1.806-.5c.193-.123-.36,1.762-.479,3.621a35.153,35.153,0,0,0,0,3.818,5.756,5.756,0,0,0,.479,2.745c.575.787,1.824-.138,3.027.772a6.459,6.459,0,0,1,1.783,2.866,36.968,36.968,0,0,1,3.4,7.558,80.152,80.152,0,0,1,1.574,9.608l-.466,1.717s-.711-2.677-1.419-5.945-.5-4.84-1.413-7.126-.894-1.33-2.062-1.966a5.718,5.718,0,0,0-2.608-.579l-2.769-.708-1.927-.717-1.164-.751a2.408,2.408,0,0,1-1.3-1.5c-.3-.886-.094-1.431,0-3.077a10.287,10.287,0,0,0-.434-4.82c-.722-2.213-1.7-2.445-2.453-4.033a4.024,4.024,0,0,1-.544-2.413,2.9,2.9,0,0,0,.544-1.936,18.557,18.557,0,0,0-.544-3.507Z" transform="translate(-3767.39 418.882)"/>
            <path id="Path_345-2" data-name="Path 345" class="cls-52" d="M11.9,0S10.056.282,9.487,1.2A11.777,11.777,0,0,0,7.664,3.561C6.68,5.472.408,3.912,1.106,11.9c0,0,.522,2.457-.02,3.2s.312,2.636-.82,3.492S1.982,38.193,1.982,38.193h0c-.878,3.23.216,2.464.216,2.464l-.219,2.265,2.03-19.231,1.814-.675,1.1-.707a2.267,2.267,0,0,0,1.222-1.414c.287-.834.089-1.347,0-2.9a9.683,9.683,0,0,1,.409-4.537c.68-2.083,1.6-2.3,2.309-3.8a3.788,3.788,0,0,0,.512-2.272,2.729,2.729,0,0,1-.512-1.822,17.466,17.466,0,0,1,.512-3.3Z" transform="translate(14.073 0.888) rotate(-4)"/>
            <path id="Path_339-2" data-name="Path 339" class="cls-53" d="M0,0S1.957.3,2.561,1.278A12.507,12.507,0,0,1,4.5,3.783a20.789,20.789,0,0,1,1.556,5,3.252,3.252,0,0,0,1.471.5,5.837,5.837,0,0,0,1.806-.5c.194-.123-.359,1.762-.479,3.622a35.186,35.186,0,0,0,0,3.818,5.76,5.76,0,0,0,.479,2.745c.575.787,1.825-.138,3.027.772a6.461,6.461,0,0,1,1.783,2.866,34.653,34.653,0,0,1,2.545,6.438,42.9,42.9,0,0,1,1.184,7.289l.487,3.8s-.415-1.32-1.123-4.587,1.887,6.774.973,4.488S16.345,32.742,14.581,29.2s-3.43-3.326-3.43-3.326l-2.769-.708-1.927-.717L5.292,23.7a2.408,2.408,0,0,1-1.3-1.5c-.3-.886-.095-1.431,0-3.077A10.285,10.285,0,0,0,3.56,14.3c-.722-2.213-1.7-2.445-2.453-4.033A4.024,4.024,0,0,1,.563,7.854a2.9,2.9,0,0,0,.544-1.936A18.554,18.554,0,0,0,.563,2.411Z" transform="translate(13.22) rotate(17)"/>
            <path id="Path_340-2" data-name="Path 340" class="cls-53" d="M3777-417.062s-1.008.154-1.319.658a6.44,6.44,0,0,0-1,1.29,10.708,10.708,0,0,0-.8,2.577,1.676,1.676,0,0,1-.758.259,3,3,0,0,1-.93-.259c-.1-.064.185.907.247,1.865a18.1,18.1,0,0,1,0,1.967,2.97,2.97,0,0,1-.247,1.414c-.3.405-.94-.071-1.56.4a3.328,3.328,0,0,0-.918,1.476,17.84,17.84,0,0,0-1.311,3.316,22.114,22.114,0,0,0-.61,3.755l-.4,2.656s.366-1.379.731-3.062-.972,3.489-.5,2.312a54.351,54.351,0,0,1,1.868-5.58c.908-1.823,1.766-1.713,1.766-1.713l1.426-.365.992-.37.6-.387a1.24,1.24,0,0,0,.668-.774,3.974,3.974,0,0,0,0-1.585,5.294,5.294,0,0,1,.224-2.483c.372-1.14.877-1.26,1.263-2.077a2.073,2.073,0,0,0,.28-1.243,1.494,1.494,0,0,1-.28-1,9.56,9.56,0,0,1,.28-1.806Z" transform="matrix(1, 0, 0, 1, -3748.318, 439.561)"/>
            <path id="Path_341-2" data-name="Path 341" class="cls-53" d="M17.558,0s-1.842.282-2.411,1.2a11.777,11.777,0,0,0-1.823,2.358,19.571,19.571,0,0,0-1.464,4.71,3.061,3.061,0,0,1-1.385.473,5.494,5.494,0,0,1-1.7-.473c-.182-.116.338,1.658.451,3.409a33.1,33.1,0,0,1,0,3.594,5.422,5.422,0,0,1-.451,2.584c-.541.74-1.717-.13-2.85.726a6.081,6.081,0,0,0-1.679,2.7,32.616,32.616,0,0,0-2.4,6.06A40.38,40.38,0,0,0,.737,34.2L0,39.058s.669-2.52,1.335-5.6S-.441,39.838.419,37.687s1.753-6.865,3.413-10.2,3.228-3.131,3.228-3.131l2.606-.667,1.814-.675,1.1-.707A2.267,2.267,0,0,0,13.8,20.895c.287-.834.089-1.347,0-2.9a9.683,9.683,0,0,1,.409-4.537c.68-2.083,1.6-2.3,2.309-3.8a3.788,3.788,0,0,0,.512-2.272,2.729,2.729,0,0,1-.512-1.822,17.466,17.466,0,0,1,.512-3.3Z" transform="translate(21.934 4.421) rotate(5)"/>
            <path id="Path_342-2" data-name="Path 342" class="cls-52" d="M11.9,0S10.056.282,9.487,1.2A11.777,11.777,0,0,0,7.664,3.561C6.68,5.472.408,3.912,1.106,11.9c0,0,.522,2.457-.02,3.2s.312,2.636-.82,3.492S1.982,38.193,1.982,38.193h0c-.878,3.23.216,2.464.216,2.464l.1,1.087L4.008,23.692l1.814-.675,1.1-.707a2.267,2.267,0,0,0,1.222-1.414c.287-.834.089-1.347,0-2.9a9.683,9.683,0,0,1,.409-4.537c.68-2.083,1.6-2.3,2.309-3.8a3.788,3.788,0,0,0,.512-2.272,2.729,2.729,0,0,1-.512-1.822,17.466,17.466,0,0,1,.512-3.3Z" transform="translate(20.306 1.541) rotate(5)"/>
            <path id="Path_343-2" data-name="Path 343" class="cls-53" d="M3767.39-417.062s.934.143,1.223.61a5.965,5.965,0,0,1,.924,1.2,9.916,9.916,0,0,1,.742,2.388,1.552,1.552,0,0,0,.7.24,2.786,2.786,0,0,0,.862-.24c.092-.059-.172.841-.229,1.729a16.8,16.8,0,0,0,0,1.822,2.751,2.751,0,0,0,.229,1.31c.274.375.871-.066,1.445.368a3.084,3.084,0,0,1,.851,1.368,16.54,16.54,0,0,1,1.215,3.073,20.46,20.46,0,0,1,.565,3.479l.373,2.461s-.339-1.278-.677-2.838.9,3.233.465,2.142a50.442,50.442,0,0,0-1.731-5.171c-.842-1.69-1.637-1.588-1.637-1.588l-1.322-.338-.92-.342-.555-.359a1.149,1.149,0,0,1-.62-.717,3.684,3.684,0,0,1,0-1.469,4.9,4.9,0,0,0-.208-2.3c-.344-1.056-.813-1.167-1.171-1.925a1.919,1.919,0,0,1-.26-1.152,1.384,1.384,0,0,0,.26-.924,8.857,8.857,0,0,0-.26-1.674Z" transform="matrix(1, 0, 0, 1, -3757.221, 440.345)"/>
            <path id="Path_344-2" data-name="Path 344" class="cls-53" d="M0,0S.934.143,1.223.61a5.972,5.972,0,0,1,.924,1.2,9.922,9.922,0,0,1,.742,2.388,1.552,1.552,0,0,0,.7.24,2.786,2.786,0,0,0,.862-.24c.092-.059-.172.841-.229,1.729a16.8,16.8,0,0,0,0,1.822,2.75,2.75,0,0,0,.229,1.31c.275.375.871-.066,1.445.368a3.083,3.083,0,0,1,.851,1.368,16.539,16.539,0,0,1,1.215,3.073,20.484,20.484,0,0,1,.565,3.479l.279,1.871a20.533,20.533,0,0,1-.583-2.247c-.338-1.56.9,3.233.465,2.142A50.412,50.412,0,0,0,6.96,13.939c-.842-1.69-1.637-1.588-1.637-1.588L4,12.013l-.92-.342-.555-.359a1.149,1.149,0,0,1-.619-.717,3.682,3.682,0,0,1,0-1.469,4.91,4.91,0,0,0-.207-2.3C1.355,5.769.886,5.658.528,4.9a1.92,1.92,0,0,1-.26-1.152,1.384,1.384,0,0,0,.26-.924,8.857,8.857,0,0,0-.26-1.674Z" transform="matrix(0.985, -0.174, 0.174, 0.985, 6.961, 26.282)"/>
            <path id="Path_346-2" data-name="Path 346" class="cls-53" d="M6.94,0S6.2.113,5.974.482a4.718,4.718,0,0,0-.73.945,7.839,7.839,0,0,0-.587,1.887A1.227,1.227,0,0,1,4.1,3.5a2.2,2.2,0,0,1-.681-.189c-.073-.047.136.664.181,1.366a13.267,13.267,0,0,1,0,1.44,2.173,2.173,0,0,1-.181,1.035c-.217.3-.688-.052-1.142.291a2.436,2.436,0,0,0-.672,1.081,13.064,13.064,0,0,0-.96,2.428A16.176,16.176,0,0,0,.2,13.7L.26,15.16a5.4,5.4,0,0,1,.181-1.754C.708,12.173-.27,15.96.074,15.1a39.816,39.816,0,0,1,1.367-4.085c.665-1.335,1.293-1.254,1.293-1.254l1.044-.267.727-.271.439-.283a.908.908,0,0,0,.489-.567,2.909,2.909,0,0,0,0-1.16A3.879,3.879,0,0,1,5.6,5.393c.272-.835.643-.922.925-1.521a1.517,1.517,0,0,0,.205-.91,1.093,1.093,0,0,1-.205-.73A7,7,0,0,1,6.728.909Z" transform="matrix(0.978, 0.208, -0.208, 0.978, 21.784, 28.627)"/>
            <path id="Path_347-2" data-name="Path 347" class="cls-54" d="M0,0H1.557L.906,2.136.82,2.075Z" transform="translate(18.063 42.058)"/>
          </g>
        </g>
      </g>
      <path id="Path_410-2" data-name="Path 410" class="cls-55" d="M6174.043,2651.956s-.057.147-.461.33a11.541,11.541,0,0,1-1.156.4,10.51,10.51,0,0,1-2.248.39c-1.614.159-4.208.247-4.208.247l1.431,2.351a20.98,20.98,0,0,1,2.117,3.431,6.248,6.248,0,0,1,.928,3.251c.232,2.073-.817,3.01,0,5.041a6.736,6.736,0,0,0,3.267,3.08,3.736,3.736,0,0,1-.193-1.391,5.976,5.976,0,0,1,.618-1.87l.168-1.059,1.1-3.511V2660.9l-.234-1.792-.278-1.7-.855-2.652-.33-1.109Z" transform="translate(-5517.005 -1992.429)"/>
    </g>
  </g>
</svg>
