<svg xmlns="http://www.w3.org/2000/svg" xmlns:xlink="http://www.w3.org/1999/xlink" viewBox="0 0 1080 980">
  <defs>
    <style>
      .cls-1 {
        clip-path: url(#clip-Custom_Size_19);
      }

      .cls-2, .cls-28, .cls-8 {
        fill: #51b4c5;
      }

      .cls-2 {
        opacity: 0.258;
      }

      .cls-3, .cls-4, .cls-9 {
        fill: #69c9d9;
      }

      .cls-4 {
        opacity: 0.204;
      }

      .cls-5 {
        fill: url(#linear-gradient);
      }

      .cls-6 {
        fill: #fcfcfc;
        opacity: 0.085;
      }

      .cls-18, .cls-19, .cls-22, .cls-26, .cls-31, .cls-32, .cls-34, .cls-7 {
        fill: #fff;
      }

      .cls-8 {
        opacity: 0.066;
      }

      .cls-9 {
        opacity: 0.09;
      }

      .cls-10, .cls-15, .cls-20, .cls-30, .cls-35 {
        fill: none;
      }

      .cls-11 {
        fill: #31a5ba;
      }

      .cls-12 {
        fill: #f7f7f7;
      }

      .cls-13 {
        fill: #e0dcd3;
      }

      .cls-14 {
        fill: #e74424;
      }

      .cls-15 {
        stroke: #707070;
      }

      .cls-16, .cls-17 {
        font-size: 16px;
      }

      .cls-16, .cls-17, .cls-18, .cls-19, .cls-22, .cls-25, .cls-26 {
        font-family: HelveticaNeue, Helvetica Neue;
      }

      .cls-17 {
        fill: #0d0c0c;
      }

      .cls-18, .cls-25, .cls-26 {
        font-size: 14px;
      }

      .cls-19, .cls-22, .cls-26, .cls-30 {
        stroke: #fff;
      }

      .cls-19 {
        font-size: 18px;
      }

      .cls-20 {
        stroke: #f7f7f7;
        stroke-width: 2px;
      }

      .cls-21 {
        fill: #e8be95;
      }

      .cls-22 {
        font-size: 12px;
      }

      .cls-22, .cls-26 {
        letter-spacing: 0.1em;
      }

      .cls-23 {
        fill: #e7eced;
      }

      .cls-24 {
        fill: #535353;
      }

      .cls-27 {
        fill: #010002;
      }

      .cls-28 {
        opacity: 0.213;
      }

      .cls-29 {
        opacity: 0.775;
      }

      .cls-30 {
        stroke-width: 5px;
      }

      .cls-31 {
        opacity: 0.291;
      }

      .cls-32 {
        opacity: 0.105;
      }

      .cls-33, .cls-34 {
        stroke: none;
      }
    </style>
    <linearGradient id="linear-gradient" x1="1.165" x2="0.082" y2="1.057" gradientUnits="objectBoundingBox">
      <stop offset="0" stop-color="#d6f2f2"/>
      <stop offset="1" stop-color="#31a5ba"/>
    </linearGradient>
    <clipPath id="clip-Custom_Size_19">
      <rect width="1080" height="980"/>
    </clipPath>
  </defs>
  <g id="Custom_Size_19" data-name="Custom Size – 19" class="cls-1">
    <rect class="cls-7" width="1080" height="980"/>
    <path id="Path_632" data-name="Path 632" class="cls-2" d="M54.52,42.108c30.608-.913,67.55,13.073,67.474-5.417S77.548-.557,59.125-.632-.512,21.852-.436,40.342,23.912,43.021,54.52,42.108Z" transform="matrix(0.545, -0.839, 0.839, 0.545, 29.826, 339.185)"/>
    <path id="Path_633" data-name="Path 633" class="cls-3" d="M54.575,41.972c30.658-.9,67.667,13.077,67.585-5.382S77.626-.613,59.172-.7-.556,21.728-.473,40.187,23.917,42.872,54.575,41.972Z" transform="matrix(0.695, -0.719, 0.719, 0.695, 23.665, 321.389)"/>
    <ellipse id="Ellipse_7" data-name="Ellipse 7" class="cls-4" cx="33.856" cy="33.554" rx="33.856" ry="33.554" transform="translate(83.049 73)"/>
    <path id="Path_628" data-name="Path 628" class="cls-5" d="M575.758-18.709c-170.4,7.349-340.432,152.159-422.137,198.84C8.569,263-14.105,326.6-32.224,473.075c-9.53,77.043,4.253,148.85,30.156,209.618C21.251,737.4,54.414,783.15,89.207,815.646c95.088,88.812,311.186,71,462.21,73.979,92.728,1.827,290.227-42.8,378-166.422,55.385-78.009,104.768-351.986-18.624-501.877S746.161-26.058,575.758-18.709Z" transform="translate(78.021 62.075)"/>
    <path id="Path_630" data-name="Path 630" class="cls-6" d="M-33.2,473.075c-9.53,77.043,4.253,148.85,30.156,209.618C20.27,737.4,53.433,783.149,88.226,815.646c95.088,88.812,311.186,71,462.21,73.979,92.728,1.827,290.227-42.8,378-166.422,55.385-78.009,136.643-359.952-103.766-422.484S-27.534,427.229-33.2,473.075Z" transform="translate(79.002 62.075)"/>
    <g id="Group_165" data-name="Group 165" transform="translate(177.669 169.978)">
      <g id="Group_178" data-name="Group 178" transform="translate(266.254 0)">
        <path id="Path_640" data-name="Path 640" class="cls-7" d="M101.245-19.011C63.179-17.369,25.2,14.98,6.943,25.409-25.461,43.922-30.526,58.13-34.573,90.85a90.755,90.755,0,0,0,6.737,46.827,88.572,88.572,0,0,0,20.39,29.7C13.8,187.218,62.07,183.24,95.808,183.9c20.715.408,64.835-9.561,84.442-37.178,12.373-17.427,23.4-78.631-4.16-112.116S139.312-20.653,101.245-19.011Z" transform="translate(35.681 19.098)"/>
        <path id="Path_641" data-name="Path 641" class="cls-8" d="M140.4,23.971c-4.412-6.209-24.332-22.171-50.05-24.5S50.883,7.819,37.524,14.639c-8.5,4.339-19.613,12.148-27.034,21.182C3.642,44.156-3.437,61.4.578,55.074S30.639,26.419,30.639,26.419,42.051,21.936,56.652,17.5s13.37-9.683,32.389-8.81S141.931,26.128,140.4,23.971Z" transform="translate(253.863 85.851) rotate(121)"/>
        <path id="Path_642" data-name="Path 642" class="cls-9" d="M.121,88.755C3.153,98.464,21,80.138,29.734,66.258c3.437-5.461,4.675-13.611,6.872-18.122,7.473-15.345,4.1-34.715,4.1-34.715S37.959-2.555,36.615.294,35.376,17.628,35.33,24.82c-.048,7.512-10.25,31.722-11.645,36.434C19.486,75.439-2.576,80.118.121,88.755Z" transform="translate(46.112 143.006) rotate(177)"/>
      </g>
      <g id="Group_179" data-name="Group 179" transform="translate(479.154 453)">
        <path id="Path_640-2" data-name="Path 640" class="cls-7" d="M101.245-19.011C63.179-17.369,25.2,14.98,6.943,25.409-25.461,43.922-30.526,58.13-34.573,90.85a90.755,90.755,0,0,0,6.737,46.827,88.572,88.572,0,0,0,20.39,29.7C13.8,187.218,62.07,183.24,95.808,183.9c20.715.408,64.835-9.561,84.442-37.178,12.373-17.427,23.4-78.631-4.16-112.116S139.312-20.653,101.245-19.011Z" transform="translate(35.681 19.098)"/>
        <path id="Path_641-2" data-name="Path 641" class="cls-8" d="M140.4,23.971c-4.412-6.209-24.332-22.171-50.05-24.5S50.883,7.819,37.524,14.639c-8.5,4.339-19.613,12.148-27.034,21.182C3.642,44.156-3.437,61.4.578,55.074S30.639,26.419,30.639,26.419,42.051,21.936,56.652,17.5s13.37-9.683,32.389-8.81S141.931,26.128,140.4,23.971Z" transform="translate(253.863 85.851) rotate(121)"/>
        <path id="Path_642-2" data-name="Path 642" class="cls-9" d="M.121,88.755C3.153,98.464,21,80.138,29.734,66.258c3.437-5.461,4.675-13.611,6.872-18.122,7.473-15.345,4.1-34.715,4.1-34.715S37.959-2.555,36.615.294,35.376,17.628,35.33,24.82c-.048,7.512-10.25,31.722-11.645,36.434C19.486,75.439-2.576,80.118.121,88.755Z" transform="translate(46.112 143.006) rotate(177)"/>
      </g>
      <g id="Group_180" data-name="Group 180" transform="matrix(-0.899, -0.438, 0.438, -0.899, 227.181, 706.076)">
        <path id="Path_640-3" data-name="Path 640" class="cls-7" d="M92.342,204.524c38.007-1.778,76.04-34.317,94.3-44.828,32.414-18.659,37.521-32.909,41.677-65.7a90.926,90.926,0,0,0-6.559-46.885,87.87,87.87,0,0,0-20.25-29.681C180.374-2.37,132.168,1.785,98.491,1.238,77.813.9,33.733,11.044,14.062,38.777c-12.413,17.5-23.643,78.849,3.756,112.3S54.335,206.3,92.342,204.524Z" transform="translate(25.163 3.515)"/>
        <path id="Path_641-3" data-name="Path 641" class="cls-8" d="M140.936,23.84c-4.43-6.185-24.43-22.088-50.25-24.416s-39.617,8.313-53.029,15.1c-8.533,4.321-19.688,12.1-27.138,21.095C3.646,43.925-3.459,61.1.571,54.8S30.748,26.262,30.748,26.262,42.2,21.8,56.861,17.386,70.283,7.743,89.377,8.615,142.477,25.989,140.936,23.84Z" transform="translate(1.132 122.553) rotate(-59)"/>
        <path id="Path_642-3" data-name="Path 642" class="cls-9" d="M.964,89.383c2.992,9.711,20.881-8.705,29.656-22.636,3.453-5.481,4.719-13.646,6.93-18.172C45.071,33.181,41.774,13.8,41.774,13.8S39.09-2.19,37.737.669s-1.3,17.362-1.375,24.563c-.076,7.523-10.354,31.8-11.764,36.526C20.352,75.978-1.7,80.744.964,89.383Z" transform="translate(207.475 64.106) rotate(-3)"/>
      </g>
      <g id="Path_643" data-name="Path 643" class="cls-10" transform="translate(112.856 101.431)">
        <path class="cls-33" d="M267.9,0C119.944,0,0,118.873,0,265.511S119.944,531.022,267.9,531.022,535.8,412.148,535.8,265.511A262.811,262.811,0,0,0,514.2,160.872C473.318,66.332,378.426,0,267.9,0Z"/>
        <path class="cls-34" d="M 267.9014282226562 4 C 249.9910583496094 4 232.0932006835938 5.7879638671875 214.7049865722656 9.31439208984375 C 197.760986328125 12.75067138671875 181.0945739746094 17.87811279296875 165.1684875488281 24.55410766601562 C 149.5312805175781 31.109130859375 134.4490051269531 39.22247314453125 120.3406372070312 48.6688232421875 C 106.3659973144531 58.02569580078125 93.224853515625 68.77139282226562 81.2822265625 80.60739135742188 C 69.34027099609375 92.4427490234375 58.4986572265625 105.4656066894531 49.05850219726562 119.3141784667969 C 39.52899169921875 133.2939147949219 31.3443603515625 148.2381896972656 24.73199462890625 163.7321166992188 C 17.99798583984375 179.510986328125 12.82623291015625 196.0231323242188 9.36016845703125 212.8099670410156 C 5.80340576171875 230.0362548828125 4 247.7673950195312 4 265.5108337402344 C 4 283.2542724609375 5.80340576171875 300.9854125976562 9.36016845703125 318.211669921875 C 12.82623291015625 334.99853515625 17.99798583984375 351.5106811523438 24.73199462890625 367.28955078125 C 31.3443603515625 382.7834777832031 39.52899169921875 397.727783203125 49.05850219726562 411.7074584960938 C 58.4986572265625 425.5560302734375 69.34027099609375 438.5789184570312 81.2822265625 450.4142456054688 C 93.224853515625 462.250244140625 106.3659973144531 472.9959716796875 120.3406372070312 482.3528442382812 C 134.4490051269531 491.7991943359375 149.5312805175781 499.9125366210938 165.1684875488281 506.4675598144531 C 181.0945739746094 513.1435546875 197.760986328125 518.27099609375 214.7049865722656 521.707275390625 C 232.0932006835938 525.2337036132812 249.9910583496094 527.0216674804688 267.9014282226562 527.0216674804688 C 285.811767578125 527.0216674804688 303.7096557617188 525.2337036132812 321.0978393554688 521.707275390625 C 338.0418701171875 518.27099609375 354.7082824707031 513.1435546875 370.6343383789062 506.4675598144531 C 386.2715759277344 499.9125366210938 401.3538513183594 491.7991943359375 415.4622192382812 482.3528442382812 C 429.4368591308594 472.9959716796875 442.5780029296875 462.250244140625 454.5206298828125 450.4142456054688 C 466.4625854492188 438.5789184570312 477.30419921875 425.5560302734375 486.7443542480469 411.7074584960938 C 496.2738647460938 397.727783203125 504.45849609375 382.7834777832031 511.0708618164062 367.28955078125 C 517.8048706054688 351.5106811523438 522.9766235351562 334.99853515625 526.4426879882812 318.211669921875 C 529.9994506835938 300.9854125976562 531.8028564453125 283.2542724609375 531.8028564453125 265.5108337402344 C 531.8028564453125 247.5498962402344 529.9539794921875 229.6067504882812 526.3076171875 212.1798400878906 C 522.752197265625 195.1876220703125 517.4417114257812 178.4591979980469 510.5236511230469 162.4591979980469 C 500.5411987304688 139.3719787597656 487.2250061035156 117.8269653320312 470.9449462890625 98.422607421875 C 454.7711486816406 79.1448974609375 435.9314270019531 62.28555297851562 414.9490051269531 48.31289672851562 C 393.6664428710938 34.14031982421875 370.4990844726562 23.1561279296875 346.0905151367188 15.66552734375 C 320.8668518066406 7.9248046875 294.560302734375 4 267.9014282226562 4 M 267.9014282226562 0 C 378.4259338378906 0 473.3181457519531 66.332275390625 514.1951293945312 160.8717041015625 C 528.1253662109375 193.0892639160156 535.8028564453125 228.4114685058594 535.8028564453125 265.5108337402344 C 535.8028564453125 412.1484069824219 415.8592834472656 531.0216674804688 267.9014282226562 531.0216674804688 C 119.9435729980469 531.0216674804688 0 412.1484069824219 0 265.5108337402344 C 0 118.8732604980469 119.9435729980469 0 267.9014282226562 0 Z"/>
      </g>
      <g id="hospital" transform="translate(341.326 35.244)">
        <g id="Layer_2_46_" transform="translate(0 0)">
          <g id="Group_1" data-name="Group 1">
            <path id="Path_7" data-name="Path 7" class="cls-11" d="M41.309,43.62H62.338V57.714a2.406,2.406,0,0,0,2.078,2.634H84.461a2.406,2.406,0,0,0,2.078-2.634V43.62h20.566c3.95,0,7.152,4.059,7.152,9.066v90.472c0,5.007-3.2,9.066-7.152,9.066H80.28V131.046a1.581,1.581,0,0,0-1.366-1.731H69.083a1.581,1.581,0,0,0-1.366,1.731v21.179H41.309c-3.95,0-7.152-4.059-7.152-9.066V52.686C34.157,47.679,37.359,43.62,41.309,43.62Zm45.7,78.443a1.581,1.581,0,0,0,1.366,1.731H98.21a1.581,1.581,0,0,0,1.366-1.731V109.6a1.581,1.581,0,0,0-1.366-1.731H88.378a1.581,1.581,0,0,0-1.366,1.731Zm0-21.254a1.581,1.581,0,0,0,1.366,1.731H98.21a1.581,1.581,0,0,0,1.366-1.731V88.345a1.581,1.581,0,0,0-1.366-1.731H88.378a1.581,1.581,0,0,0-1.366,1.731Zm0-21.447a1.581,1.581,0,0,0,1.366,1.731H98.21a1.581,1.581,0,0,0,1.366-1.731V66.9a1.581,1.581,0,0,0-1.366-1.731H88.378A1.581,1.581,0,0,0,87.012,66.9Zm-19.3,42.7a1.581,1.581,0,0,0,1.366,1.731h9.832a1.581,1.581,0,0,0,1.366-1.731V109.6a1.581,1.581,0,0,0-1.366-1.731H69.083a1.581,1.581,0,0,0-1.366,1.731Zm0-21.254a1.581,1.581,0,0,0,1.366,1.731h9.832a1.581,1.581,0,0,0,1.366-1.731V88.345a1.581,1.581,0,0,0-1.366-1.731H69.083a1.581,1.581,0,0,0-1.366,1.731Zm0-21.447a1.581,1.581,0,0,0,1.366,1.731h9.832a1.581,1.581,0,0,0,1.366-1.731V66.9a1.581,1.581,0,0,0-1.366-1.731H69.083A1.581,1.581,0,0,0,67.717,66.9Zm-19.3,42.7a1.581,1.581,0,0,0,1.366,1.731h9.832a1.581,1.581,0,0,0,1.366-1.731V109.6a1.581,1.581,0,0,0-1.366-1.731H49.787a1.581,1.581,0,0,0-1.366,1.731Zm0-21.254a1.581,1.581,0,0,0,1.366,1.731h9.832a1.581,1.581,0,0,0,1.366-1.731V88.345a1.581,1.581,0,0,0-1.366-1.731H49.787a1.581,1.581,0,0,0-1.366,1.731Zm0-21.447a1.581,1.581,0,0,0,1.366,1.731h9.832a1.581,1.581,0,0,0,1.366-1.731V66.9a1.581,1.581,0,0,0-1.366-1.731H49.787A1.581,1.581,0,0,0,48.422,66.9Z" transform="translate(-34.157 -37.289)"/>
            <path id="Path_8" data-name="Path 8" class="cls-12" d="M99.064,117.184H108.9a1.581,1.581,0,0,1,1.366,1.731v12.464a1.581,1.581,0,0,1-1.366,1.731H99.064a1.581,1.581,0,0,1-1.366-1.731V118.915A1.581,1.581,0,0,1,99.064,117.184Z" transform="translate(-44.843 -89.305)"/>
            <path id="Path_9" data-name="Path 9" class="cls-12" d="M182.572,117.184H192.4a1.581,1.581,0,0,1,1.366,1.731v12.464a1.581,1.581,0,0,1-1.366,1.731h-9.832a1.581,1.581,0,0,1-1.366-1.731V118.915A1.581,1.581,0,0,1,182.572,117.184Z" transform="translate(-147.646 -89.305)"/>
            <path id="Path_10" data-name="Path 10" class="cls-12" d="M266.082,117.184h9.832a1.581,1.581,0,0,1,1.366,1.731v12.464a1.581,1.581,0,0,1-1.366,1.731h-9.832a1.581,1.581,0,0,1-1.366-1.731V118.915A1.581,1.581,0,0,1,266.082,117.184Z" transform="translate(-250.451 -89.305)"/>
            <path id="Path_11" data-name="Path 11" class="cls-12" d="M99.064,190.4H108.9a1.581,1.581,0,0,1,1.366,1.731V204.6a1.581,1.581,0,0,1-1.366,1.731H99.064A1.581,1.581,0,0,1,97.7,204.6V192.134A1.581,1.581,0,0,1,99.064,190.4Z" transform="translate(-44.843 -141.077)"/>
            <path id="Path_12" data-name="Path 12" class="cls-12" d="M182.572,190.4H192.4a1.581,1.581,0,0,1,1.366,1.731V204.6a1.581,1.581,0,0,1-1.366,1.731h-9.832a1.581,1.581,0,0,1-1.366-1.731V192.134A1.581,1.581,0,0,1,182.572,190.4Z" transform="translate(-147.646 -141.077)"/>
            <path id="Path_13" data-name="Path 13" class="cls-12" d="M266.082,190.4h9.832a1.581,1.581,0,0,1,1.366,1.731V204.6a1.581,1.581,0,0,1-1.366,1.731h-9.832a1.581,1.581,0,0,1-1.366-1.731V192.134A1.581,1.581,0,0,1,266.082,190.4Z" transform="translate(-250.451 -141.077)"/>
            <path id="Path_14" data-name="Path 14" class="cls-12" d="M99.064,262.963H108.9a1.581,1.581,0,0,1,1.366,1.731v12.464a1.581,1.581,0,0,1-1.366,1.731H99.064a1.581,1.581,0,0,1-1.366-1.731V264.694A1.581,1.581,0,0,1,99.064,262.963Z" transform="translate(-44.843 -192.384)"/>
            <path id="Path_15" data-name="Path 15" class="cls-12" d="M182.572,262.963H192.4a1.581,1.581,0,0,1,1.366,1.731v12.464a1.581,1.581,0,0,1-1.366,1.731h-9.832a1.581,1.581,0,0,1-1.366-1.731V264.694A1.581,1.581,0,0,1,182.572,262.963Z" transform="translate(-147.646 -192.384)"/>
            <path id="Path_16" data-name="Path 16" class="cls-12" d="M266.082,262.963h9.832a1.581,1.581,0,0,1,1.366,1.731v12.464a1.581,1.581,0,0,1-1.366,1.731h-9.832a1.581,1.581,0,0,1-1.366-1.731V264.694A1.581,1.581,0,0,1,266.082,262.963Z" transform="translate(-250.451 -192.384)"/>
            <path id="Path_17" data-name="Path 17" class="cls-12" d="M182.572,336.181H192.4a1.581,1.581,0,0,1,1.366,1.731v21.35H181.206v-21.35A1.581,1.581,0,0,1,182.572,336.181Z" transform="translate(-147.646 -244.155)"/>
            <path id="Path_18" data-name="Path 18" class="cls-13" d="M177.913,23.06H156.355A2.152,2.152,0,0,1,154.12,21V2.059A2.152,2.152,0,0,1,156.355,0h21.558a2.152,2.152,0,0,1,2.235,2.059V21A2.152,2.152,0,0,1,177.913,23.06ZM173.069,4.273h-3.312a.737.737,0,0,0-.765.705V9.763h-3.735V4.978a.737.737,0,0,0-.765-.705H161.2a.737.737,0,0,0-.765.705v13.1a.737.737,0,0,0,.765.705h3.292a.737.737,0,0,0,.765-.705V13.513h3.735v4.569a.737.737,0,0,0,.765.705h3.312a.737.737,0,0,0,.765-.705V4.978A.737.737,0,0,0,173.069,4.273Z" transform="translate(-127.292)"/>
            <path id="Path_19" data-name="Path 19" class="cls-14" d="M192.927,32.473a.737.737,0,0,1-.765.705H188.85a.737.737,0,0,1-.765-.705V27.9H184.35v4.569a.737.737,0,0,1-.765.705h-3.292a.737.737,0,0,1-.765-.705v-13.1a.737.737,0,0,1,.765-.705h3.292a.737.737,0,0,1,.765.705v4.785h3.735V19.369a.737.737,0,0,1,.765-.705h3.312a.737.737,0,0,1,.765.705Z" transform="translate(-146.385 -14.391)"/>
          </g>
        </g>
      </g>
      <path id="Path_20" data-name="Path 20" class="cls-15" d="M0,284" transform="translate(598.951 222.415)"/>
      <text id="Clinic_B" data-name="Clinic B" class="cls-16" transform="translate(574.361 624.743)"><tspan x="0" y="0">Clinic B</tspan></text>
      <text id="Clinic_C" data-name="Clinic C" class="cls-16" transform="translate(123.564 630.743)"><tspan x="0" y="0">Clinic C</tspan></text>
      <text id="Clinic_A" data-name="Clinic A" class="cls-17" transform="translate(352.412 180.012)"><tspan x="0" y="0">Clinic A</tspan></text>
      <g id="hospital-2" data-name="hospital" transform="translate(559.271 483.244)">
        <g id="Layer_2_46_2" data-name="Layer_2_46_" transform="translate(0 0)">
          <g id="Group_1-2" data-name="Group 1">
            <path id="Path_7-2" data-name="Path 7" class="cls-11" d="M41.309,43.62H62.338V57.714a2.406,2.406,0,0,0,2.078,2.634H84.461a2.406,2.406,0,0,0,2.078-2.634V43.62h20.566c3.95,0,7.152,4.059,7.152,9.066v90.472c0,5.007-3.2,9.066-7.152,9.066H80.28V131.046a1.581,1.581,0,0,0-1.366-1.731H69.083a1.581,1.581,0,0,0-1.366,1.731v21.179H41.309c-3.95,0-7.152-4.059-7.152-9.066V52.686C34.157,47.679,37.359,43.62,41.309,43.62Zm45.7,78.443a1.581,1.581,0,0,0,1.366,1.731H98.21a1.581,1.581,0,0,0,1.366-1.731V109.6a1.581,1.581,0,0,0-1.366-1.731H88.378a1.581,1.581,0,0,0-1.366,1.731Zm0-21.254a1.581,1.581,0,0,0,1.366,1.731H98.21a1.581,1.581,0,0,0,1.366-1.731V88.345a1.581,1.581,0,0,0-1.366-1.731H88.378a1.581,1.581,0,0,0-1.366,1.731Zm0-21.447a1.581,1.581,0,0,0,1.366,1.731H98.21a1.581,1.581,0,0,0,1.366-1.731V66.9a1.581,1.581,0,0,0-1.366-1.731H88.378A1.581,1.581,0,0,0,87.012,66.9Zm-19.3,42.7a1.581,1.581,0,0,0,1.366,1.731h9.832a1.581,1.581,0,0,0,1.366-1.731V109.6a1.581,1.581,0,0,0-1.366-1.731H69.083a1.581,1.581,0,0,0-1.366,1.731Zm0-21.254a1.581,1.581,0,0,0,1.366,1.731h9.832a1.581,1.581,0,0,0,1.366-1.731V88.345a1.581,1.581,0,0,0-1.366-1.731H69.083a1.581,1.581,0,0,0-1.366,1.731Zm0-21.447a1.581,1.581,0,0,0,1.366,1.731h9.832a1.581,1.581,0,0,0,1.366-1.731V66.9a1.581,1.581,0,0,0-1.366-1.731H69.083A1.581,1.581,0,0,0,67.717,66.9Zm-19.3,42.7a1.581,1.581,0,0,0,1.366,1.731h9.832a1.581,1.581,0,0,0,1.366-1.731V109.6a1.581,1.581,0,0,0-1.366-1.731H49.787a1.581,1.581,0,0,0-1.366,1.731Zm0-21.254a1.581,1.581,0,0,0,1.366,1.731h9.832a1.581,1.581,0,0,0,1.366-1.731V88.345a1.581,1.581,0,0,0-1.366-1.731H49.787a1.581,1.581,0,0,0-1.366,1.731Zm0-21.447a1.581,1.581,0,0,0,1.366,1.731h9.832a1.581,1.581,0,0,0,1.366-1.731V66.9a1.581,1.581,0,0,0-1.366-1.731H49.787A1.581,1.581,0,0,0,48.422,66.9Z" transform="translate(-34.157 -37.289)"/>
            <path id="Path_8-2" data-name="Path 8" class="cls-12" d="M99.064,117.184H108.9a1.581,1.581,0,0,1,1.366,1.731v12.464a1.581,1.581,0,0,1-1.366,1.731H99.064a1.581,1.581,0,0,1-1.366-1.731V118.915A1.581,1.581,0,0,1,99.064,117.184Z" transform="translate(-44.843 -89.305)"/>
            <path id="Path_9-2" data-name="Path 9" class="cls-12" d="M182.572,117.184H192.4a1.581,1.581,0,0,1,1.366,1.731v12.464a1.581,1.581,0,0,1-1.366,1.731h-9.832a1.581,1.581,0,0,1-1.366-1.731V118.915A1.581,1.581,0,0,1,182.572,117.184Z" transform="translate(-147.646 -89.305)"/>
            <path id="Path_10-2" data-name="Path 10" class="cls-12" d="M266.082,117.184h9.832a1.581,1.581,0,0,1,1.366,1.731v12.464a1.581,1.581,0,0,1-1.366,1.731h-9.832a1.581,1.581,0,0,1-1.366-1.731V118.915A1.581,1.581,0,0,1,266.082,117.184Z" transform="translate(-250.451 -89.305)"/>
            <path id="Path_11-2" data-name="Path 11" class="cls-12" d="M99.064,190.4H108.9a1.581,1.581,0,0,1,1.366,1.731V204.6a1.581,1.581,0,0,1-1.366,1.731H99.064A1.581,1.581,0,0,1,97.7,204.6V192.134A1.581,1.581,0,0,1,99.064,190.4Z" transform="translate(-44.843 -141.077)"/>
            <path id="Path_12-2" data-name="Path 12" class="cls-12" d="M182.572,190.4H192.4a1.581,1.581,0,0,1,1.366,1.731V204.6a1.581,1.581,0,0,1-1.366,1.731h-9.832a1.581,1.581,0,0,1-1.366-1.731V192.134A1.581,1.581,0,0,1,182.572,190.4Z" transform="translate(-147.646 -141.077)"/>
            <path id="Path_13-2" data-name="Path 13" class="cls-12" d="M266.082,190.4h9.832a1.581,1.581,0,0,1,1.366,1.731V204.6a1.581,1.581,0,0,1-1.366,1.731h-9.832a1.581,1.581,0,0,1-1.366-1.731V192.134A1.581,1.581,0,0,1,266.082,190.4Z" transform="translate(-250.451 -141.077)"/>
            <path id="Path_14-2" data-name="Path 14" class="cls-12" d="M99.064,262.963H108.9a1.581,1.581,0,0,1,1.366,1.731v12.464a1.581,1.581,0,0,1-1.366,1.731H99.064a1.581,1.581,0,0,1-1.366-1.731V264.694A1.581,1.581,0,0,1,99.064,262.963Z" transform="translate(-44.843 -192.384)"/>
            <path id="Path_15-2" data-name="Path 15" class="cls-12" d="M182.572,262.963H192.4a1.581,1.581,0,0,1,1.366,1.731v12.464a1.581,1.581,0,0,1-1.366,1.731h-9.832a1.581,1.581,0,0,1-1.366-1.731V264.694A1.581,1.581,0,0,1,182.572,262.963Z" transform="translate(-147.646 -192.384)"/>
            <path id="Path_16-2" data-name="Path 16" class="cls-12" d="M266.082,262.963h9.832a1.581,1.581,0,0,1,1.366,1.731v12.464a1.581,1.581,0,0,1-1.366,1.731h-9.832a1.581,1.581,0,0,1-1.366-1.731V264.694A1.581,1.581,0,0,1,266.082,262.963Z" transform="translate(-250.451 -192.384)"/>
            <path id="Path_17-2" data-name="Path 17" class="cls-12" d="M182.572,336.181H192.4a1.581,1.581,0,0,1,1.366,1.731v21.35H181.206v-21.35A1.581,1.581,0,0,1,182.572,336.181Z" transform="translate(-147.646 -244.155)"/>
            <path id="Path_18-2" data-name="Path 18" class="cls-13" d="M177.913,23.06H156.355A2.152,2.152,0,0,1,154.12,21V2.059A2.152,2.152,0,0,1,156.355,0h21.558a2.152,2.152,0,0,1,2.235,2.059V21A2.152,2.152,0,0,1,177.913,23.06ZM173.069,4.273h-3.312a.737.737,0,0,0-.765.705V9.763h-3.735V4.978a.737.737,0,0,0-.765-.705H161.2a.737.737,0,0,0-.765.705v13.1a.737.737,0,0,0,.765.705h3.292a.737.737,0,0,0,.765-.705V13.513h3.735v4.569a.737.737,0,0,0,.765.705h3.312a.737.737,0,0,0,.765-.705V4.978A.737.737,0,0,0,173.069,4.273Z" transform="translate(-127.292)"/>
            <path id="Path_19-2" data-name="Path 19" class="cls-14" d="M192.927,32.473a.737.737,0,0,1-.765.705H188.85a.737.737,0,0,1-.765-.705V27.9H184.35v4.569a.737.737,0,0,1-.765.705h-3.292a.737.737,0,0,1-.765-.705v-13.1a.737.737,0,0,1,.765-.705h3.292a.737.737,0,0,1,.765.705v4.785h3.735V19.369a.737.737,0,0,1,.765-.705h3.312a.737.737,0,0,1,.765.705Z" transform="translate(-146.385 -14.391)"/>
          </g>
        </g>
      </g>
      <g id="hospital-3" data-name="hospital" transform="translate(109.255 489.244)">
        <g id="Layer_2_46_3" data-name="Layer_2_46_" transform="translate(0 0)">
          <g id="Group_1-3" data-name="Group 1">
            <path id="Path_7-3" data-name="Path 7" class="cls-11" d="M41.309,43.62H62.338V57.714a2.406,2.406,0,0,0,2.078,2.634H84.461a2.406,2.406,0,0,0,2.078-2.634V43.62h20.566c3.95,0,7.152,4.059,7.152,9.066v90.472c0,5.007-3.2,9.066-7.152,9.066H80.28V131.046a1.581,1.581,0,0,0-1.366-1.731H69.083a1.581,1.581,0,0,0-1.366,1.731v21.179H41.309c-3.95,0-7.152-4.059-7.152-9.066V52.686C34.157,47.679,37.359,43.62,41.309,43.62Zm45.7,78.443a1.581,1.581,0,0,0,1.366,1.731H98.21a1.581,1.581,0,0,0,1.366-1.731V109.6a1.581,1.581,0,0,0-1.366-1.731H88.378a1.581,1.581,0,0,0-1.366,1.731Zm0-21.254a1.581,1.581,0,0,0,1.366,1.731H98.21a1.581,1.581,0,0,0,1.366-1.731V88.345a1.581,1.581,0,0,0-1.366-1.731H88.378a1.581,1.581,0,0,0-1.366,1.731Zm0-21.447a1.581,1.581,0,0,0,1.366,1.731H98.21a1.581,1.581,0,0,0,1.366-1.731V66.9a1.581,1.581,0,0,0-1.366-1.731H88.378A1.581,1.581,0,0,0,87.012,66.9Zm-19.3,42.7a1.581,1.581,0,0,0,1.366,1.731h9.832a1.581,1.581,0,0,0,1.366-1.731V109.6a1.581,1.581,0,0,0-1.366-1.731H69.083a1.581,1.581,0,0,0-1.366,1.731Zm0-21.254a1.581,1.581,0,0,0,1.366,1.731h9.832a1.581,1.581,0,0,0,1.366-1.731V88.345a1.581,1.581,0,0,0-1.366-1.731H69.083a1.581,1.581,0,0,0-1.366,1.731Zm0-21.447a1.581,1.581,0,0,0,1.366,1.731h9.832a1.581,1.581,0,0,0,1.366-1.731V66.9a1.581,1.581,0,0,0-1.366-1.731H69.083A1.581,1.581,0,0,0,67.717,66.9Zm-19.3,42.7a1.581,1.581,0,0,0,1.366,1.731h9.832a1.581,1.581,0,0,0,1.366-1.731V109.6a1.581,1.581,0,0,0-1.366-1.731H49.787a1.581,1.581,0,0,0-1.366,1.731Zm0-21.254a1.581,1.581,0,0,0,1.366,1.731h9.832a1.581,1.581,0,0,0,1.366-1.731V88.345a1.581,1.581,0,0,0-1.366-1.731H49.787a1.581,1.581,0,0,0-1.366,1.731Zm0-21.447a1.581,1.581,0,0,0,1.366,1.731h9.832a1.581,1.581,0,0,0,1.366-1.731V66.9a1.581,1.581,0,0,0-1.366-1.731H49.787A1.581,1.581,0,0,0,48.422,66.9Z" transform="translate(-34.157 -37.289)"/>
            <path id="Path_8-3" data-name="Path 8" class="cls-12" d="M99.064,117.184H108.9a1.581,1.581,0,0,1,1.366,1.731v12.464a1.581,1.581,0,0,1-1.366,1.731H99.064a1.581,1.581,0,0,1-1.366-1.731V118.915A1.581,1.581,0,0,1,99.064,117.184Z" transform="translate(-44.843 -89.305)"/>
            <path id="Path_9-3" data-name="Path 9" class="cls-12" d="M182.572,117.184H192.4a1.581,1.581,0,0,1,1.366,1.731v12.464a1.581,1.581,0,0,1-1.366,1.731h-9.832a1.581,1.581,0,0,1-1.366-1.731V118.915A1.581,1.581,0,0,1,182.572,117.184Z" transform="translate(-147.646 -89.305)"/>
            <path id="Path_10-3" data-name="Path 10" class="cls-12" d="M266.082,117.184h9.832a1.581,1.581,0,0,1,1.366,1.731v12.464a1.581,1.581,0,0,1-1.366,1.731h-9.832a1.581,1.581,0,0,1-1.366-1.731V118.915A1.581,1.581,0,0,1,266.082,117.184Z" transform="translate(-250.451 -89.305)"/>
            <path id="Path_11-3" data-name="Path 11" class="cls-12" d="M99.064,190.4H108.9a1.581,1.581,0,0,1,1.366,1.731V204.6a1.581,1.581,0,0,1-1.366,1.731H99.064A1.581,1.581,0,0,1,97.7,204.6V192.134A1.581,1.581,0,0,1,99.064,190.4Z" transform="translate(-44.843 -141.077)"/>
            <path id="Path_12-3" data-name="Path 12" class="cls-12" d="M182.572,190.4H192.4a1.581,1.581,0,0,1,1.366,1.731V204.6a1.581,1.581,0,0,1-1.366,1.731h-9.832a1.581,1.581,0,0,1-1.366-1.731V192.134A1.581,1.581,0,0,1,182.572,190.4Z" transform="translate(-147.646 -141.077)"/>
            <path id="Path_13-3" data-name="Path 13" class="cls-12" d="M266.082,190.4h9.832a1.581,1.581,0,0,1,1.366,1.731V204.6a1.581,1.581,0,0,1-1.366,1.731h-9.832a1.581,1.581,0,0,1-1.366-1.731V192.134A1.581,1.581,0,0,1,266.082,190.4Z" transform="translate(-250.451 -141.077)"/>
            <path id="Path_14-3" data-name="Path 14" class="cls-12" d="M99.064,262.963H108.9a1.581,1.581,0,0,1,1.366,1.731v12.464a1.581,1.581,0,0,1-1.366,1.731H99.064a1.581,1.581,0,0,1-1.366-1.731V264.694A1.581,1.581,0,0,1,99.064,262.963Z" transform="translate(-44.843 -192.384)"/>
            <path id="Path_15-3" data-name="Path 15" class="cls-12" d="M182.572,262.963H192.4a1.581,1.581,0,0,1,1.366,1.731v12.464a1.581,1.581,0,0,1-1.366,1.731h-9.832a1.581,1.581,0,0,1-1.366-1.731V264.694A1.581,1.581,0,0,1,182.572,262.963Z" transform="translate(-147.646 -192.384)"/>
            <path id="Path_16-3" data-name="Path 16" class="cls-12" d="M266.082,262.963h9.832a1.581,1.581,0,0,1,1.366,1.731v12.464a1.581,1.581,0,0,1-1.366,1.731h-9.832a1.581,1.581,0,0,1-1.366-1.731V264.694A1.581,1.581,0,0,1,266.082,262.963Z" transform="translate(-250.451 -192.384)"/>
            <path id="Path_17-3" data-name="Path 17" class="cls-12" d="M182.572,336.181H192.4a1.581,1.581,0,0,1,1.366,1.731v21.35H181.206v-21.35A1.581,1.581,0,0,1,182.572,336.181Z" transform="translate(-147.646 -244.155)"/>
            <path id="Path_18-3" data-name="Path 18" class="cls-13" d="M177.913,23.06H156.355A2.152,2.152,0,0,1,154.12,21V2.059A2.152,2.152,0,0,1,156.355,0h21.558a2.152,2.152,0,0,1,2.235,2.059V21A2.152,2.152,0,0,1,177.913,23.06ZM173.069,4.273h-3.312a.737.737,0,0,0-.765.705V9.763h-3.735V4.978a.737.737,0,0,0-.765-.705H161.2a.737.737,0,0,0-.765.705v13.1a.737.737,0,0,0,.765.705h3.292a.737.737,0,0,0,.765-.705V13.513h3.735v4.569a.737.737,0,0,0,.765.705h3.312a.737.737,0,0,0,.765-.705V4.978A.737.737,0,0,0,173.069,4.273Z" transform="translate(-127.292)"/>
            <path id="Path_19-3" data-name="Path 19" class="cls-14" d="M192.927,32.473a.737.737,0,0,1-.765.705H188.85a.737.737,0,0,1-.765-.705V27.9H184.35v4.569a.737.737,0,0,1-.765.705h-3.292a.737.737,0,0,1-.765-.705v-13.1a.737.737,0,0,1,.765-.705h3.292a.737.737,0,0,1,.765.705v4.785h3.735V19.369a.737.737,0,0,1,.765-.705h3.312a.737.737,0,0,1,.765.705Z" transform="translate(-146.385 -14.391)"/>
          </g>
        </g>
      </g>
      <g id="Group_160" data-name="Group 160" transform="translate(109.923 368.988)">
        <text id="_Register_and_treatmentment_at_Clinic_A" data-name=" Register and treatmentment 
 at Clinic A" class="cls-18" transform="translate(32.548 47.248)"><tspan x="0" y="0" xml:space="preserve"> Register and treatmentment </tspan><tspan x="0" y="16" xml:space="preserve"> at Clinic A</tspan></text>
        <text id="Scan_QR_Code_" data-name="Scan QR Code " class="cls-19" transform="translate(37.86 25.957)"><tspan x="0" y="0">Scan QR Code </tspan></text>
        <g id="qr-code-scan" transform="translate(171.656 -2.012)">
          <g id="Group_10" data-name="Group 10" transform="translate(0 0)">
            <path id="Path_42" data-name="Path 42" class="cls-12" d="M9.671.362H2.411A2.4,2.4,0,0,0,0,2.769v7.262a2.421,2.421,0,0,0,2.411,2.43H9.672a2.434,2.434,0,0,0,2.426-2.43V2.769A2.415,2.415,0,0,0,9.671.362Zm.243,9.629a.287.287,0,0,1-.288.287H2.379a.287.287,0,0,1-.287-.287V2.742a.287.287,0,0,1,.287-.287H9.627a.287.287,0,0,1,.288.287V9.991Z" transform="translate(0 -0.362)"/>
            <rect id="Rectangle_19" data-name="Rectangle 19" class="cls-12" width="4.64" height="4.639" transform="translate(3.729 3.73)"/>
            <path id="Path_43" data-name="Path 43" class="cls-12" d="M9.671,19.072H2.411A2.4,2.4,0,0,0,0,21.474v7.263a2.426,2.426,0,0,0,2.411,2.435H9.672A2.439,2.439,0,0,0,12.1,28.737V21.474A2.411,2.411,0,0,0,9.671,19.072Zm.243,9.66a.249.249,0,0,1-.272.257H2.4a.281.281,0,0,1-.308-.257V21.488a.338.338,0,0,1,.308-.324H9.643a.309.309,0,0,1,.272.324v7.244Z" transform="translate(0 -0.15)"/>
            <rect id="Rectangle_20" data-name="Rectangle 20" class="cls-12" width="4.64" height="4.64" transform="translate(3.729 22.652)"/>
            <path id="Path_44" data-name="Path 44" class="cls-12" d="M21.018,12.461H28.28a2.446,2.446,0,0,0,2.438-2.43V2.769A2.426,2.426,0,0,0,28.28.362H21.018a2.391,2.391,0,0,0-2.4,2.407v7.262A2.411,2.411,0,0,0,21.018,12.461Zm-.306-9.72A.287.287,0,0,1,21,2.454h7.249a.287.287,0,0,1,.286.287V9.991a.287.287,0,0,1-.286.287H21a.287.287,0,0,1-.287-.287Z" transform="translate(0.211 -0.362)"/>
            <rect id="Rectangle_21" data-name="Rectangle 21" class="cls-12" width="4.729" height="4.639" transform="translate(22.47 3.73)"/>
            <path id="Path_45" data-name="Path 45" class="cls-12" d="M4.324,13.675h-1.6a.659.659,0,0,0-.654.64v1.6a.685.685,0,0,0,.654.671H4.251v.02a.589.589,0,0,0,.6.616H8.436V17.3a.673.673,0,0,0,.658.652h1.6a.665.665,0,0,0,.651-.652V15.747a.636.636,0,0,0-.651-.617h-.8v-.815a.635.635,0,0,0-.628-.64H8.4a.616.616,0,0,0-.6.64v.816H4.979v-.816A.658.658,0,0,0,4.324,13.675Z" transform="translate(0.023 -0.211)"/>
            <path id="Path_46" data-name="Path 46" class="cls-12" d="M14.407,7.172V10.72a.6.6,0,0,0,.59.637H17.29a.667.667,0,0,0,.666-.637v-1.6a.7.7,0,0,0-.666-.674H16.5V3.533h.1a.62.62,0,0,0,.631-.618v-.86a.616.616,0,0,0-.631-.614H13.565a.6.6,0,0,0-.613.614v.86a.6.6,0,0,0,.613.618h.842V5.808h-.842a.625.625,0,0,0-.613.643V6.57a.59.59,0,0,0,.613.6Z" transform="translate(0.147 -0.35)"/>
            <path id="Path_47" data-name="Path 47" class="cls-12" d="M16.133,14.424V12.867a.632.632,0,0,0-.632-.632H13.944a.632.632,0,0,0-.632.632v1.556a.632.632,0,0,0,.632.632H15.5A.632.632,0,0,0,16.133,14.424Z" transform="translate(0.151 -0.228)"/>
            <path id="Path_48" data-name="Path 48" class="cls-12" d="M18.839,14.935a.681.681,0,0,0-.669.65v.625a14.6,14.6,0,0,1,1.735-1.275H18.839Z" transform="translate(0.206 -0.197)"/>
            <path id="Path_49" data-name="Path 49" class="cls-12" d="M18.046,16.374H15.323a.653.653,0,0,0-.661.627v3.646A16.144,16.144,0,0,1,17.358,17,8.28,8.28,0,0,1,18.046,16.374Z" transform="translate(0.166 -0.181)"/>
            <g id="Ellipse_22" data-name="Ellipse 22" class="cls-20" transform="translate(14.817 14.508)">
              <ellipse class="cls-33" cx="11.113" cy="11.113" rx="11.113" ry="11.113"/>
              <ellipse class="cls-35" cx="11.113" cy="11.113" rx="10.113" ry="10.113"/>
            </g>
          </g>
        </g>
      </g>
      <g id="Group_161" data-name="Group 161" transform="translate(-141.669 -129.978)">
        <g id="Group_15" data-name="Group 15" transform="translate(412.774 531.841)">
          <g id="Group_14" data-name="Group 14" transform="translate(-7 2)">
            <g id="Group_7" data-name="Group 7" transform="translate(0 4.964)">
              <g id="Group_4" data-name="Group 4" transform="translate(0 19.132)">
                <line id="Line_1" data-name="Line 1" class="cls-15" x1="116.621" y1="0.379" transform="translate(-19.274 12.563)"/>
                <rect id="Rectangle_16" data-name="Rectangle 16" class="cls-21" width="25.884" height="25.884" rx="4"/>
                <rect id="Rectangle_17" data-name="Rectangle 17" class="cls-21" width="25.884" height="25.884" rx="4" transform="translate(38.264)"/>
                <rect id="Rectangle_18" data-name="Rectangle 18" class="cls-21" width="25.884" height="25.884" rx="4" transform="translate(76.527)"/>
                <rect id="Rectangle_22" data-name="Rectangle 22" class="cls-21" width="25.884" height="25.884" rx="4" transform="translate(-38 0)"/>
              </g>
              <circle id="Ellipse_19" data-name="Ellipse 19" class="cls-7" cx="7.315" cy="7.315" r="7.315" transform="translate(82.154 0)"/>
              <text id="Query_Data_in_Blockchain" data-name="Query Data in Blockchain" class="cls-22" transform="translate(-18.807 62.779)"><tspan x="0" y="0">Query Data in Blockchain</tspan></text>
            </g>
            <g id="id-card_1_" data-name="id-card (1)" transform="translate(45.28 30.191)">
              <path id="Path_33" data-name="Path 33" class="cls-23" d="M21.358,5H11.1a.605.605,0,0,0-.6.6V20.684a.605.605,0,0,0,.6.6H21.358a.605.605,0,0,0,.6-.6V5.6A.6.6,0,0,0,21.358,5ZM16.231,7.715a.9.9,0,1,1,.9-.9A.9.9,0,0,1,16.231,7.715Z" transform="translate(-10.5 -5)"/>
              <path id="Path_34" data-name="Path 34" class="cls-24" d="M10.5,41v4.826a.6.6,0,0,0,.6.6H21.358a.6.6,0,0,0,.6-.6V41Z" transform="translate(-10.5 -30.142)"/>
              <g id="Group_8" data-name="Group 8" transform="translate(2.715 12.065)">
                <path id="Path_35" data-name="Path 35" class="cls-7" d="M19.8,49.6h5.429a.3.3,0,1,0,0-.6H19.8a.3.3,0,0,0,0,.6Z" transform="translate(-19.5 -47.794)"/>
                <path id="Path_36" data-name="Path 36" class="cls-7" d="M23.8,45.6h3.016a.3.3,0,1,0,0-.6H23.8a.3.3,0,0,0,0,.6Z" transform="translate(-22.294 -45)"/>
                <path id="Path_37" data-name="Path 37" class="cls-7" d="M20.1,53h-.3a.3.3,0,0,0,0,.6h.3a.3.3,0,1,0,0-.6Z" transform="translate(-19.5 -50.587)"/>
                <path id="Path_38" data-name="Path 38" class="cls-7" d="M25.4,53h-.6a.3.3,0,0,0,0,.6h.6a.3.3,0,0,0,0-.6Z" transform="translate(-22.992 -50.587)"/>
                <path id="Path_39" data-name="Path 39" class="cls-7" d="M31.1,53h-.3a.3.3,0,1,0,0,.6h.3a.3.3,0,1,0,0-.6Z" transform="translate(-27.182 -50.587)"/>
                <path id="Path_40" data-name="Path 40" class="cls-7" d="M36.4,53h-.6a.3.3,0,1,0,0,.6h.6a.3.3,0,0,0,0-.6Z" transform="translate(-30.674 -50.587)"/>
              </g>
              <path id="Path_41" data-name="Path 41" class="cls-24" d="M25.928,24.924a.989.989,0,0,0-.546-.863l-1.136-.58a.232.232,0,0,1-.126-.207v-.348a1.909,1.909,0,0,0,1.081-1.35A.6.6,0,0,0,25.627,21v-.3a.6.6,0,0,0-.325-.532c-.133-1.134-.883-1.593-2.088-1.593-.057,0-.113,0-.168.007a1.811,1.811,0,0,1-1.165-.274,1.511,1.511,0,0,1-.345-.3.06.06,0,0,0-.108.044c.012.106.03.229.057.363.1.5.04.428-.154.9a3.116,3.116,0,0,0-.208.858.6.6,0,0,0-.323.531V21a.6.6,0,0,0,.427.574,1.909,1.909,0,0,0,1.081,1.35v.345a.232.232,0,0,1-.129.208l-1.165.573a.99.99,0,0,0-.516.869v0Z" transform="translate(-17.484 -13.493)"/>
            </g>
          </g>
        </g>
        <text id="_" data-name="+" class="cls-25" transform="translate(491.179 549.841)"><tspan x="0" y="0">+</tspan></text>
      </g>
      <g id="Group_162" data-name="Group 162" transform="translate(53.331 -130.978)">
        <g id="Group_15-2" data-name="Group 15" transform="translate(412.774 531.841)">
          <g id="Group_14-2" data-name="Group 14" transform="translate(-7 2)">
            <g id="Group_7-2" data-name="Group 7" transform="translate(0 4.964)">
              <g id="Group_4-2" data-name="Group 4" transform="translate(0 19.132)">
                <line id="Line_1-2" data-name="Line 1" class="cls-15" x1="116.621" y1="0.379" transform="translate(-19.274 12.563)"/>
                <rect id="Rectangle_16-2" data-name="Rectangle 16" class="cls-21" width="25.884" height="25.884" rx="4"/>
                <rect id="Rectangle_17-2" data-name="Rectangle 17" class="cls-21" width="25.884" height="25.884" rx="4" transform="translate(38.264)"/>
                <rect id="Rectangle_18-2" data-name="Rectangle 18" class="cls-21" width="25.884" height="25.884" rx="4" transform="translate(76.527)"/>
                <rect id="Rectangle_22-2" data-name="Rectangle 22" class="cls-21" width="25.884" height="25.884" rx="4" transform="translate(-38 0)"/>
              </g>
              <circle id="Ellipse_19-2" data-name="Ellipse 19" class="cls-7" cx="7.315" cy="7.315" r="7.315" transform="translate(82.154 0)"/>
              <text id="Blockchain" class="cls-26" transform="translate(11.193 62.779)"><tspan x="0" y="0">Blockchain</tspan></text>
            </g>
            <g id="id-card_1_2" data-name="id-card (1)" transform="translate(83.28 29.191)">
              <path id="Path_33-2" data-name="Path 33" class="cls-23" d="M21.358,5H11.1a.605.605,0,0,0-.6.6V20.684a.605.605,0,0,0,.6.6H21.358a.605.605,0,0,0,.6-.6V5.6A.6.6,0,0,0,21.358,5ZM16.231,7.715a.9.9,0,1,1,.9-.9A.9.9,0,0,1,16.231,7.715Z" transform="translate(-10.5 -5)"/>
              <path id="Path_34-2" data-name="Path 34" class="cls-24" d="M10.5,41v4.826a.6.6,0,0,0,.6.6H21.358a.6.6,0,0,0,.6-.6V41Z" transform="translate(-10.5 -30.142)"/>
              <g id="Group_8-2" data-name="Group 8" transform="translate(2.715 12.065)">
                <path id="Path_35-2" data-name="Path 35" class="cls-7" d="M19.8,49.6h5.429a.3.3,0,1,0,0-.6H19.8a.3.3,0,0,0,0,.6Z" transform="translate(-19.5 -47.794)"/>
                <path id="Path_36-2" data-name="Path 36" class="cls-7" d="M23.8,45.6h3.016a.3.3,0,1,0,0-.6H23.8a.3.3,0,0,0,0,.6Z" transform="translate(-22.294 -45)"/>
                <path id="Path_37-2" data-name="Path 37" class="cls-7" d="M20.1,53h-.3a.3.3,0,0,0,0,.6h.3a.3.3,0,1,0,0-.6Z" transform="translate(-19.5 -50.587)"/>
                <path id="Path_38-2" data-name="Path 38" class="cls-7" d="M25.4,53h-.6a.3.3,0,0,0,0,.6h.6a.3.3,0,0,0,0-.6Z" transform="translate(-22.992 -50.587)"/>
                <path id="Path_39-2" data-name="Path 39" class="cls-7" d="M31.1,53h-.3a.3.3,0,1,0,0,.6h.3a.3.3,0,1,0,0-.6Z" transform="translate(-27.182 -50.587)"/>
                <path id="Path_40-2" data-name="Path 40" class="cls-7" d="M36.4,53h-.6a.3.3,0,1,0,0,.6h.6a.3.3,0,0,0,0-.6Z" transform="translate(-30.674 -50.587)"/>
              </g>
              <path id="Path_41-2" data-name="Path 41" class="cls-24" d="M25.928,24.924a.989.989,0,0,0-.546-.863l-1.136-.58a.232.232,0,0,1-.126-.207v-.348a1.909,1.909,0,0,0,1.081-1.35A.6.6,0,0,0,25.627,21v-.3a.6.6,0,0,0-.325-.532c-.133-1.134-.883-1.593-2.088-1.593-.057,0-.113,0-.168.007a1.811,1.811,0,0,1-1.165-.274,1.511,1.511,0,0,1-.345-.3.06.06,0,0,0-.108.044c.012.106.03.229.057.363.1.5.04.428-.154.9a3.116,3.116,0,0,0-.208.858.6.6,0,0,0-.323.531V21a.6.6,0,0,0,.427.574,1.909,1.909,0,0,0,1.081,1.35v.345a.232.232,0,0,1-.129.208l-1.165.573a.99.99,0,0,0-.516.869v0Z" transform="translate(-17.484 -13.493)"/>
            </g>
          </g>
        </g>
        <g id="checked-symbol" transform="translate(491.742 544.129)">
          <path id="Path_50" data-name="Path 50" class="cls-27" d="M6.456,3.79,6.265,3.6a.541.541,0,0,0-.763,0L2.261,6.841,1.11,5.692a.541.541,0,0,0-.763,0l-.191.19a.542.542,0,0,0,0,.763L1.878,8.368a.542.542,0,0,0,.763,0L6.456,4.553A.542.542,0,0,0,6.456,3.79Z" transform="translate(0 -3.442)"/>
        </g>
      </g>
      <g id="Group_163" data-name="Group 163" transform="translate(-57.669 -331.978)">
        <g id="Group_15-3" data-name="Group 15" transform="translate(412.774 531.841)">
          <g id="Group_14-3" data-name="Group 14" transform="translate(-7 2)">
            <g id="Group_7-3" data-name="Group 7" transform="translate(0 4.964)">
              <g id="Group_4-3" data-name="Group 4" transform="translate(0 19.132)">
                <line id="Line_1-3" data-name="Line 1" class="cls-15" x1="116.621" y1="0.379" transform="translate(-19.274 12.563)"/>
                <rect id="Rectangle_16-3" data-name="Rectangle 16" class="cls-21" width="25.884" height="25.884" rx="4"/>
                <rect id="Rectangle_17-3" data-name="Rectangle 17" class="cls-21" width="25.884" height="25.884" rx="4" transform="translate(38.264)"/>
                <rect id="Rectangle_18-3" data-name="Rectangle 18" class="cls-21" width="25.884" height="25.884" rx="4" transform="translate(76.527)"/>
                <rect id="Rectangle_22-3" data-name="Rectangle 22" class="cls-21" width="25.884" height="25.884" rx="4" transform="translate(-38 0)"/>
              </g>
              <circle id="Ellipse_19-3" data-name="Ellipse 19" class="cls-7" cx="7.315" cy="7.315" r="7.315" transform="translate(82.154 0)"/>
              <text id="Blockchain-2" data-name="Blockchain" class="cls-26" transform="translate(0.193 70.779)"><tspan x="0" y="0">Blockchain</tspan></text>
            </g>
            <g id="id-card_1_3" data-name="id-card (1)" transform="translate(83.28 29.191)">
              <path id="Path_33-3" data-name="Path 33" class="cls-23" d="M21.358,5H11.1a.605.605,0,0,0-.6.6V20.684a.605.605,0,0,0,.6.6H21.358a.605.605,0,0,0,.6-.6V5.6A.6.6,0,0,0,21.358,5ZM16.231,7.715a.9.9,0,1,1,.9-.9A.9.9,0,0,1,16.231,7.715Z" transform="translate(-10.5 -5)"/>
              <path id="Path_34-3" data-name="Path 34" class="cls-24" d="M10.5,41v4.826a.6.6,0,0,0,.6.6H21.358a.6.6,0,0,0,.6-.6V41Z" transform="translate(-10.5 -30.142)"/>
              <g id="Group_8-3" data-name="Group 8" transform="translate(2.715 12.065)">
                <path id="Path_35-3" data-name="Path 35" class="cls-7" d="M19.8,49.6h5.429a.3.3,0,1,0,0-.6H19.8a.3.3,0,0,0,0,.6Z" transform="translate(-19.5 -47.794)"/>
                <path id="Path_36-3" data-name="Path 36" class="cls-7" d="M23.8,45.6h3.016a.3.3,0,1,0,0-.6H23.8a.3.3,0,0,0,0,.6Z" transform="translate(-22.294 -45)"/>
                <path id="Path_37-3" data-name="Path 37" class="cls-7" d="M20.1,53h-.3a.3.3,0,0,0,0,.6h.3a.3.3,0,1,0,0-.6Z" transform="translate(-19.5 -50.587)"/>
                <path id="Path_38-3" data-name="Path 38" class="cls-7" d="M25.4,53h-.6a.3.3,0,0,0,0,.6h.6a.3.3,0,0,0,0-.6Z" transform="translate(-22.992 -50.587)"/>
                <path id="Path_39-3" data-name="Path 39" class="cls-7" d="M31.1,53h-.3a.3.3,0,1,0,0,.6h.3a.3.3,0,1,0,0-.6Z" transform="translate(-27.182 -50.587)"/>
                <path id="Path_40-3" data-name="Path 40" class="cls-7" d="M36.4,53h-.6a.3.3,0,1,0,0,.6h.6a.3.3,0,0,0,0-.6Z" transform="translate(-30.674 -50.587)"/>
              </g>
              <path id="Path_41-3" data-name="Path 41" class="cls-24" d="M25.928,24.924a.989.989,0,0,0-.546-.863l-1.136-.58a.232.232,0,0,1-.126-.207v-.348a1.909,1.909,0,0,0,1.081-1.35A.6.6,0,0,0,25.627,21v-.3a.6.6,0,0,0-.325-.532c-.133-1.134-.883-1.593-2.088-1.593-.057,0-.113,0-.168.007a1.811,1.811,0,0,1-1.165-.274,1.511,1.511,0,0,1-.345-.3.06.06,0,0,0-.108.044c.012.106.03.229.057.363.1.5.04.428-.154.9a3.116,3.116,0,0,0-.208.858.6.6,0,0,0-.323.531V21a.6.6,0,0,0,.427.574,1.909,1.909,0,0,0,1.081,1.35v.345a.232.232,0,0,1-.129.208l-1.165.573a.99.99,0,0,0-.516.869v0Z" transform="translate(-17.484 -13.493)"/>
            </g>
          </g>
        </g>
        <g id="checked-symbol-2" data-name="checked-symbol" transform="translate(491.742 544.129)">
          <path id="Path_50-2" data-name="Path 50" class="cls-27" d="M6.456,3.79,6.265,3.6a.541.541,0,0,0-.763,0L2.261,6.841,1.11,5.692a.541.541,0,0,0-.763,0l-.191.19a.542.542,0,0,0,0,.763L1.878,8.368a.542.542,0,0,0,.763,0L6.456,4.553A.542.542,0,0,0,6.456,3.79Z" transform="translate(0 -3.442)"/>
        </g>
      </g>
    </g>
    <path id="Path_631" data-name="Path 631" class="cls-28" d="M114.818,98.892c45.391-.2,104.428,29.832,104.63-15.517A81.271,81.271,0,0,0,137.626,1.63C92.234,1.832,1.374,54.049,1.172,99.4S69.427,99.094,114.818,98.892Z" transform="translate(698.917 11.134) rotate(42)"/>
    <g id="Group_173" data-name="Group 173" class="cls-29" transform="translate(769.754 141.58) rotate(-20)">
      <g id="Path_644" data-name="Path 644" class="cls-10" transform="translate(0 0)">
        <path class="cls-33" d="M22.076,43.879A21.946,21.946,0,0,0,44.187,21.92,22.254,22.254,0,0,0,21.948-.167,21.946,21.946,0,0,0-.163,21.793,22.254,22.254,0,0,0,22.076,43.879Z"/>
        <path class="cls-34" d="M 22.14177703857422 38.87953948974609 C 26.74168968200684 38.87953948974609 31.04983329772949 37.09954071044922 34.27260971069336 33.86741638183594 C 37.45478820800781 30.67604064941406 39.20012283325195 26.43814086914062 39.18709945678711 21.93439674377441 C 39.17395401000977 17.38833999633789 37.37576675415039 13.10598468780518 34.1237678527832 9.876173973083496 C 30.86263275146484 6.637284755706787 26.53359985351562 4.846284866333008 21.9331111907959 4.833073616027832 L 21.88301086425781 4.833006858825684 C 17.28253364562988 4.833006858825684 12.97411155700684 6.61296272277832 9.751399993896484 9.844995498657227 C 6.569422245025635 13.03618431091309 4.82420015335083 17.27412986755371 4.837211132049561 21.77815055847168 C 4.850355625152588 26.3242073059082 6.648544311523438 30.6065731048584 9.900544166564941 33.83638381958008 C 13.16167736053467 37.07526397705078 17.4907112121582 38.86627197265625 22.09119987487793 38.87947463989258 L 22.14139938354492 38.87953948974609 L 22.14177703857422 38.87953948974609 M 22.14129829406738 43.87954711914062 C 22.11963653564453 43.87954330444336 22.09749984741211 43.87951278686523 22.0758228302002 43.87945175170898 C 9.828944206237793 43.84429550170898 -0.1276111304759979 33.95567321777344 -0.162766695022583 21.79260635375977 C -0.1978600174188614 9.651080131530762 9.666142463684082 -0.1669980883598328 21.88301277160645 -0.1669980883598328 C 21.9046745300293 -0.1669980883598328 21.92681121826172 -0.1669663488864899 21.94848823547363 -0.1669041216373444 C 34.19536590576172 -0.1317374557256699 44.15192031860352 9.756874084472656 44.18707656860352 21.91994094848633 C 44.22218322753906 34.06147766113281 34.35816955566406 43.87979507446289 22.14129829406738 43.87954711914062 Z"/>
      </g>
      <g id="Path_645" data-name="Path 645" class="cls-10" transform="translate(22.221 48.02)">
        <path class="cls-33" d="M13.045,25.929A12.968,12.968,0,0,0,26.111,12.953,13.15,13.15,0,0,0,12.97-.1,12.968,12.968,0,0,0-.1,12.877,13.15,13.15,0,0,0,13.045,25.929Z"/>
        <path class="cls-34" d="M 13.08374118804932 20.92883110046387 C 15.25440120697021 20.92883110046387 17.28573036193848 20.09051132202148 18.80354118347168 18.56830024719238 C 20.29736137390137 17.07017135620117 21.11667060852051 15.08097076416016 21.11056137084961 12.96714019775391 C 21.09775161743164 8.532520294189453 17.43927192687988 4.914230346679688 12.95395088195801 4.901360511779785 L 12.9308614730835 4.901320457458496 C 10.75987148284912 4.901320457458496 8.728381156921387 5.739600658416748 7.210631370544434 7.2617506980896 C 5.716941356658936 8.759770393371582 4.897691249847412 10.74900054931641 4.903800964355469 12.86300086975098 C 4.916611194610596 17.29762077331543 8.575091361999512 20.9159107208252 13.06041145324707 20.92879104614258 L 13.08358097076416 20.92883110046387 L 13.08374118804932 20.92883110046387 M 13.0834846496582 25.92882537841797 C 13.0706844329834 25.92882537841797 13.05761051177979 25.92880821228027 13.04480075836182 25.92877006530762 C 5.808011054992676 25.90799140930176 -0.07540883123874664 20.06472015380859 -0.09617882966995239 12.87745094299316 C -0.1169220507144928 5.702902317047119 5.711793899536133 -0.09867501258850098 12.93085956573486 -0.09867501258850098 C 12.94365978240967 -0.09867501258850098 12.95675182342529 -0.09865624457597733 12.96956157684326 -0.09861946851015091 C 20.20635032653809 -0.07784946262836456 26.08977127075195 5.765420436859131 26.11054039001465 12.95269012451172 C 26.13128471374512 20.12722969055176 20.30254936218262 25.92897033691406 13.0834846496582 25.92882537841797 Z"/>
      </g>
    </g>
    <g id="Group_174" data-name="Group 174" class="cls-29" transform="translate(110.421 699.304) rotate(-9)">
      <g id="Path_650" data-name="Path 650" class="cls-10" transform="translate(0 0)">
        <path class="cls-33" d="M22.145,43.928a22.006,22.006,0,1,0-.061-44.01,22.006,22.006,0,1,0,.061,44.01Z"/>
        <path class="cls-34" d="M 22.17675971984863 38.92850494384766 C 26.79690361022949 38.92850494384766 31.12675857543945 37.14058303833008 34.36873626708984 33.89410400390625 C 37.55997085571289 30.69841575622559 39.31401443481445 26.4605598449707 39.30774688720703 21.9611930847168 C 39.30144882202148 17.42443656921387 37.51070404052734 13.1538257598877 34.26540374755859 9.936037063598633 C 31.00871467590332 6.706948280334473 26.68012619018555 4.925114631652832 22.07860374450684 4.918770313262939 L 22.05237007141113 4.918748378753662 C 17.43175888061523 4.918748378753662 13.10175895690918 6.706559181213379 9.859981536865234 9.952848434448242 C 6.668937206268311 13.14833736419678 4.914992809295654 17.38630294799805 4.92125940322876 21.88607025146484 C 4.927559375762939 26.42281532287598 6.718303680419922 30.69342613220215 9.963603973388672 33.91121673583984 C 13.22029304504395 37.14030456542969 17.54888153076172 38.92213821411133 22.15040397644043 38.92848205566406 L 22.17675971984863 38.92850494384766 M 22.17663764953613 43.92850494384766 C 22.16616630554199 43.92850494384766 22.15557670593262 43.92849731445312 22.14510345458984 43.92848205566406 C 9.888114929199219 43.91158294677734 -0.06184058263897896 34.04595947265625 -0.07874058187007904 21.89302635192871 C -0.09562614560127258 9.750454902648926 9.809835433959961 -0.08125130832195282 22.05237007141113 -0.08125130832195282 C 22.06283950805664 -0.08125130832195282 22.07343101501465 -0.08124405145645142 22.08390426635742 -0.08122961223125458 C 34.34089279174805 -0.06431850045919418 44.29084777832031 9.801281929016113 44.30774688720703 21.95423698425293 C 44.32464599609375 34.09678649902344 34.41917037963867 43.92856597900391 22.17663764953613 43.92850494384766 Z"/>
      </g>
      <g id="Path_651" data-name="Path 651" class="cls-10" transform="translate(22.215 47.995)">
        <path class="cls-33" d="M13.086,25.958A13,13,0,1,0,13.05-.048a13,13,0,1,0,.036,26.006Z"/>
        <path class="cls-34" d="M 13.10444831848145 20.95775032043457 C 15.28763866424561 20.95775032043457 17.33216857910156 20.1143798828125 18.86142921447754 18.5829906463623 C 20.3607177734375 17.08160972595215 21.18478775024414 15.09173011779785 21.18184852600098 12.97990989685059 C 21.17570877075195 8.559480667114258 17.52447891235352 4.95818042755127 13.04148864746094 4.951990127563477 L 13.03092861175537 4.951990127563477 C 10.84747886657715 4.951990127563477 8.802858352661133 5.795300006866455 7.273708343505859 7.326580047607422 C 5.774538516998291 8.82783031463623 4.950528621673584 10.81777000427246 4.953468322753906 12.92982006072998 C 4.959608554840088 17.35025024414062 8.610828399658203 20.95156097412109 13.09381866455078 20.95775032043457 L 13.10444831848145 20.95775032043457 M 13.10437870025635 25.9577522277832 C 13.0981912612915 25.9577522277832 13.09192752838135 25.95774841308594 13.08573818206787 25.95774078369141 C 5.842978477478027 25.94775009155273 -0.03654157742857933 20.11807060241699 -0.04653157666325569 12.93677997589111 C -0.05651303753256798 5.761636734008789 5.79671573638916 -0.0480126291513443 13.03092861175537 -0.0480126291513443 C 13.0371150970459 -0.0480126291513443 13.04337978363037 -0.04800831153988838 13.04956817626953 -0.04799977689981461 C 20.29233932495117 -0.03800977766513824 26.1718578338623 5.791670322418213 26.18184852600098 12.97294998168945 C 26.19182968139648 20.14810371398926 20.33860015869141 25.95779418945312 13.10437870025635 25.9577522277832 Z"/>
      </g>
    </g>
    <g id="Group_175" data-name="Group 175" class="cls-29" transform="translate(181.422 324.001)">
      <g id="Ellipse_51" data-name="Ellipse 51" class="cls-30" transform="translate(0 0)">
        <ellipse class="cls-33" cx="22.198" cy="22" rx="22.198" ry="22"/>
        <ellipse class="cls-35" cx="22.198" cy="22" rx="19.698" ry="19.5"/>
      </g>
      <g id="Ellipse_52" data-name="Ellipse 52" class="cls-30" transform="translate(22.198 48)">
        <ellipse class="cls-33" cx="13.117" cy="13" rx="13.117" ry="13"/>
        <ellipse class="cls-35" cx="13.117" cy="13" rx="10.617" ry="10.5"/>
      </g>
    </g>
    <g id="Group_176" data-name="Group 176" class="cls-29" transform="translate(940.2 449.167) rotate(-21)">
      <g id="Path_646" data-name="Path 646" class="cls-10" transform="translate(0 0)">
        <path class="cls-33" d="M14.125,28.083A14.042,14.042,0,0,0,28.274,14.028,14.247,14.247,0,0,0,14.04-.111,14.042,14.042,0,0,0-.108,13.943,14.247,14.247,0,0,0,14.125,28.083Z"/>
        <path class="cls-34" d="M 14.16933345794678 23.08277702331543 C 16.63021278381348 23.08277702331543 18.93344306945801 22.13195610046387 20.65474319458008 20.40547752380371 C 22.35091400146484 18.70418739318848 23.28106307983398 16.44471740722656 23.27383422851562 14.04328727722168 C 23.25869369506836 9.010737419128418 19.10983276367188 4.904097080230713 14.02634334564209 4.888906955718994 L 13.99665355682373 4.888856887817383 C 11.53530311584473 4.888856887817383 9.231803894042969 5.839696884155273 7.510473728179932 7.566206932067871 C 5.814423561096191 9.267376899719238 4.88434362411499 11.52682685852051 4.891573429107666 13.92834663391113 C 4.906713485717773 18.96089744567871 9.055573463439941 23.06753730773926 14.13906383514404 23.08272743225098 L 14.16854381561279 23.08277702331543 L 14.16908359527588 23.08277702331543 L 14.16933345794678 23.08277702331543 M 14.16875171661377 28.08277130126953 C 14.15441036224365 28.08277130126953 14.13947486877441 28.08275032043457 14.12512397766113 28.08270645141602 C 6.287583827972412 28.05928611755371 -0.08497641235589981 21.72889709472656 -0.1084064096212387 13.94339656829834 C -0.1317935138940811 6.172162532806396 6.178986549377441 -0.1111382395029068 13.99665546417236 -0.1111382395029068 C 14.01099681854248 -0.1111382395029068 14.02593231201172 -0.1111159473657608 14.040283203125 -0.1110730469226837 C 21.87782287597656 -0.08765304088592529 28.2503833770752 6.24273681640625 28.27381324768066 14.02823734283447 C 28.29720115661621 21.79948043823242 21.98641967773438 28.08308792114258 14.16875171661377 28.08277130126953 Z"/>
      </g>
      <g id="Path_647" data-name="Path 647" class="cls-10" transform="translate(14.222 30.736)">
        <path class="cls-33" d="M8.347,16.594a8.3,8.3,0,0,0,8.361-8.3A8.419,8.419,0,0,0,8.3-.066a8.3,8.3,0,0,0-8.361,8.3A8.419,8.419,0,0,0,8.347,16.594Z"/>
        <path class="cls-34" d="M 8.372797012329102 11.59436416625977 C 9.279437065124512 11.59436416625977 10.12599754333496 11.24606418609619 10.75653743743896 10.61361408233643 C 11.37225723266602 9.996044158935547 11.7098970413208 9.17596435546875 11.70727729797363 8.30445384979248 C 11.7017068862915 6.451794147491455 10.16494750976562 4.939974308013916 8.278846740722656 4.934334278106689 L 8.270767211914062 4.934324264526367 C 7.363857269287109 4.934324264526367 6.517117023468018 5.282644271850586 5.886547088623047 5.915124416351318 C 5.270906925201416 6.532614231109619 4.933297157287598 7.352674007415771 4.935926914215088 8.224244117736816 C 4.941497325897217 10.07689380645752 6.478247165679932 11.58871459960938 8.364347457885742 11.5943546295166 L 8.372197151184082 11.59436416625977 L 8.372587203979492 11.59436416625977 L 8.372797012329102 11.59436416625977 M 8.37244701385498 16.59436225891113 C 8.363972663879395 16.59436225891113 8.355136871337891 16.5943489074707 8.346656799316406 16.59432411193848 C 3.715397119522095 16.58048439025879 -0.05021290108561516 12.83980464935303 -0.06405290216207504 8.239284515380859 C -0.07787754386663437 3.647177934646606 3.651232242584229 -0.06567426025867462 8.270766258239746 -0.06567426025867462 C 8.279240608215332 -0.06567426025867462 8.288057327270508 -0.06566112488508224 8.296537399291992 -0.06563578546047211 C 12.92780685424805 -0.05179578438401222 16.69340705871582 3.688884258270264 16.70725631713867 8.289403915405273 C 16.72107124328613 12.88151073455811 12.9919900894165 16.59455490112305 8.37244701385498 16.59436225891113 Z"/>
      </g>
    </g>
    <g id="Group_177" data-name="Group 177" class="cls-29" transform="translate(620.346 867.168) rotate(-21)">
      <g id="Path_648" data-name="Path 648" class="cls-10" transform="translate(0 0)">
        <path class="cls-33" d="M14.125,28.083A14.042,14.042,0,0,0,28.274,14.028,14.247,14.247,0,0,0,14.04-.111,14.042,14.042,0,0,0-.108,13.943,14.247,14.247,0,0,0,14.125,28.083Z"/>
        <path class="cls-34" d="M 14.16933345794678 23.08277702331543 C 16.63021278381348 23.08277702331543 18.93344306945801 22.13195610046387 20.65474319458008 20.40547752380371 C 22.35091400146484 18.70418739318848 23.28106307983398 16.44471740722656 23.27383422851562 14.04328727722168 C 23.25869369506836 9.010737419128418 19.10983276367188 4.904097080230713 14.02634334564209 4.888906955718994 L 13.99665355682373 4.888856887817383 C 11.53530311584473 4.888856887817383 9.231803894042969 5.839696884155273 7.510473728179932 7.566206932067871 C 5.814423561096191 9.267376899719238 4.88434362411499 11.52682685852051 4.891573429107666 13.92834663391113 C 4.906713485717773 18.96089744567871 9.055573463439941 23.06753730773926 14.13906383514404 23.08272743225098 L 14.16854381561279 23.08277702331543 L 14.16908359527588 23.08277702331543 L 14.16933345794678 23.08277702331543 M 14.16875171661377 28.08277130126953 C 14.15441036224365 28.08277130126953 14.13947486877441 28.08275032043457 14.12512397766113 28.08270645141602 C 6.287583827972412 28.05928611755371 -0.08497641235589981 21.72889709472656 -0.1084064096212387 13.94339656829834 C -0.1317935138940811 6.172162532806396 6.178986549377441 -0.1111382395029068 13.99665546417236 -0.1111382395029068 C 14.01099681854248 -0.1111382395029068 14.02593231201172 -0.1111159473657608 14.040283203125 -0.1110730469226837 C 21.87782287597656 -0.08765304088592529 28.2503833770752 6.24273681640625 28.27381324768066 14.02823734283447 C 28.29720115661621 21.79948043823242 21.98641967773438 28.08308792114258 14.16875171661377 28.08277130126953 Z"/>
      </g>
      <g id="Path_649" data-name="Path 649" class="cls-10" transform="translate(14.222 30.736)">
        <path class="cls-33" d="M8.347,16.594a8.3,8.3,0,0,0,8.361-8.3A8.419,8.419,0,0,0,8.3-.066a8.3,8.3,0,0,0-8.361,8.3A8.419,8.419,0,0,0,8.347,16.594Z"/>
        <path class="cls-34" d="M 8.372797012329102 11.59436416625977 C 9.279437065124512 11.59436416625977 10.12599754333496 11.24606418609619 10.75653743743896 10.61361408233643 C 11.37225723266602 9.996044158935547 11.7098970413208 9.17596435546875 11.70727729797363 8.30445384979248 C 11.7017068862915 6.451794147491455 10.16494750976562 4.939974308013916 8.278846740722656 4.934334278106689 L 8.270767211914062 4.934324264526367 C 7.363857269287109 4.934324264526367 6.517117023468018 5.282644271850586 5.886547088623047 5.915124416351318 C 5.270906925201416 6.532614231109619 4.933297157287598 7.352674007415771 4.935926914215088 8.224244117736816 C 4.941497325897217 10.07689380645752 6.478247165679932 11.58871459960938 8.364347457885742 11.5943546295166 L 8.372197151184082 11.59436416625977 L 8.372587203979492 11.59436416625977 L 8.372797012329102 11.59436416625977 M 8.37244701385498 16.59436225891113 C 8.363972663879395 16.59436225891113 8.355136871337891 16.5943489074707 8.346656799316406 16.59432411193848 C 3.715397119522095 16.58048439025879 -0.05021290108561516 12.83980464935303 -0.06405290216207504 8.239284515380859 C -0.07787754386663437 3.647177934646606 3.651232242584229 -0.06567426025867462 8.270766258239746 -0.06567426025867462 C 8.279240608215332 -0.06567426025867462 8.288057327270508 -0.06566112488508224 8.296537399291992 -0.06563578546047211 C 12.92780685424805 -0.05179578438401222 16.69340705871582 3.688884258270264 16.70725631713867 8.289403915405273 C 16.72107124328613 12.88151073455811 12.9919900894165 16.59455490112305 8.37244701385498 16.59436225891113 Z"/>
      </g>
    </g>
    <path id="Path_634" data-name="Path 634" class="cls-28" d="M33.587,49.384S73.51.3,38.382.458C7.839.594-1.515,32.166.927,53.678,2.073,63.786,33.587,49.384,33.587,49.384Z" transform="translate(549.69 62.772) rotate(43)"/>
    <ellipse id="Ellipse_75" data-name="Ellipse 75" class="cls-4" cx="22.252" cy="22.054" rx="22.252" ry="22.054" transform="translate(294.94 89)"/>
    <ellipse id="Ellipse_76" data-name="Ellipse 76" class="cls-4" cx="22.252" cy="22.054" rx="22.252" ry="22.054" transform="translate(1009.315 140)"/>
    <ellipse id="Ellipse_77" data-name="Ellipse 77" class="cls-4" cx="22.252" cy="22.054" rx="22.252" ry="22.054" transform="translate(60.851 884)"/>
    <ellipse id="Ellipse_78" data-name="Ellipse 78" class="cls-4" cx="33.856" cy="33.554" rx="33.856" ry="33.554" transform="translate(1001.243 856)"/>
    <ellipse id="Ellipse_79" data-name="Ellipse 79" class="cls-4" cx="17.712" cy="17.554" rx="17.712" ry="17.554" transform="translate(911.442 894)"/>
    <ellipse id="Ellipse_80" data-name="Ellipse 80" class="cls-4" cx="22.252" cy="22.054" rx="22.252" ry="22.054" transform="translate(893.28 73)"/>
    <path id="Path_637" data-name="Path 637" class="cls-31" d="M22.355-6.394C18.067-20.144-1.4,10.893-8.884,26.242S-11,57.852-11,57.852-5.926,69-4.8,65.917-6.528,52.7-6.479,45.506A78.207,78.207,0,0,1-3.447,25.433C.759,11.245,25.048,2.241,22.355-6.394Z" transform="translate(61.855 281)"/>
    <path id="Path_638" data-name="Path 638" class="cls-32" d="M52.035-56.254C47.747-70,18.5-26.3,1.122,24.7s-18.611,123.05-18.611,123.05-2.23,129.062,18.611,154.918c6.689,8.3,15.1,38.036,20.413,48.668C31.656,371.589,36.021,372.2,36.021,372.2S12.6,280.7,1.122,230.3s10.1-123.62,17.308-169.356S54.728-47.619,52.035-56.254Z" transform="translate(75.289 408)"/>
  </g>
</svg>
