<svg xmlns="http://www.w3.org/2000/svg" xmlns:xlink="http://www.w3.org/1999/xlink" viewBox="0 0 32.474 30">
  <defs>
    <style>
      .cls-1 {
        fill: url(#linear-gradient);
      }

      .cls-2 {
        fill: url(#linear-gradient-2);
      }

      .cls-3 {
        opacity: 0.229;
      }

      .cls-4 {
        fill: none;
      }

      .cls-5 {
        fill: #31a5ba;
      }

      .cls-6 {
        fill: url(#linear-gradient-3);
      }

      .cls-7 {
        fill: url(#linear-gradient-4);
      }
    </style>
    <linearGradient id="linear-gradient" x1="0.946" y1="1" x2="0.052" y2="0.042" gradientUnits="objectBoundingBox">
      <stop offset="0" stop-color="#568cdd"/>
      <stop offset="1" stop-color="#31a5ba"/>
    </linearGradient>
    <linearGradient id="linear-gradient-2" x2="2.062" y2="1.966" gradientUnits="objectBoundingBox">
      <stop offset="0" stop-color="#fff"/>
      <stop offset="1" stop-color="#31a5ba"/>
    </linearGradient>
    <linearGradient id="linear-gradient-3" x1="1.071" y1="1.187" x2="0.082" y2="0.083" xlink:href="#linear-gradient"/>
    <linearGradient id="linear-gradient-4" x1="-0.64" y1="0.353" x2="-0.442" y2="1.386" gradientUnits="objectBoundingBox">
      <stop offset="0" stop-color="#defff7"/>
      <stop offset="1" stop-color="#31a5ba"/>
    </linearGradient>
  </defs>
  <g id="logoWeb" transform="translate(-1526 -474.776)">
    <g id="Group_15" data-name="Group 15" transform="translate(1526 478.178)">
      <path id="Subtraction_4" data-name="Subtraction 4" class="cls-1" d="M19.6,25.106H5.6A5.584,5.584,0,0,1,0,19.527V0H19.6a5.584,5.584,0,0,1,5.6,5.579V19.527a5.584,5.584,0,0,1-5.6,5.579ZM5.378,5.207V16.516a3.237,3.237,0,0,0,3.243,3.231h8.106a3.237,3.237,0,0,0,3.243-3.231V8.438a3.237,3.237,0,0,0-3.243-3.231Z" transform="translate(0 0)"/>
    </g>
    <path id="Subtraction_5" data-name="Subtraction 5" class="cls-2" d="M19.6,25.2H5.6A5.594,5.594,0,0,1,0,19.6V0H19.6a5.594,5.594,0,0,1,5.6,5.6v14a5.594,5.594,0,0,1-5.6,5.6ZM7.361,7.209v9.806a2.8,2.8,0,0,0,2.8,2.8h7a2.8,2.8,0,0,0,2.8-2.8v-7a2.8,2.8,0,0,0-2.8-2.8Z" transform="translate(1528.426 479.581)"/>
    <g id="Group_10" data-name="Group 10" class="cls-3" transform="translate(1529.498 480.696)">
      <g id="Path_21" data-name="Path 21" transform="translate(4.146 3.952)">
        <path id="Path_28" data-name="Path 28" class="cls-4" d="M0,0H12.8a3.658,3.658,0,0,1,3.658,3.658V12.8A3.658,3.658,0,0,1,12.8,16.461H3.658A3.658,3.658,0,0,1,0,12.8Z" transform="translate(0 0)"/>
        <path id="Path_29" data-name="Path 29" class="cls-5" d="M.187.187V12.8a3.468,3.468,0,0,0,3.471,3.471H12.8A3.468,3.468,0,0,0,16.274,12.8V3.658A3.468,3.468,0,0,0,12.8.187H.187M0,0H12.8a3.658,3.658,0,0,1,3.658,3.658V12.8A3.658,3.658,0,0,1,12.8,16.461H3.658A3.658,3.658,0,0,1,0,12.8Z" transform="translate(0 0)"/>
      </g>
      <g id="Path_22" data-name="Path 22" transform="translate(1.553 1.648)">
        <path id="Path_30" data-name="Path 30" class="cls-4" d="M0,0H15.883A4.515,4.515,0,0,1,20.42,4.491V15.72a4.515,4.515,0,0,1-4.538,4.492H4.538A4.515,4.515,0,0,1,0,15.72Z" transform="translate(0 0)"/>
        <path id="Path_31" data-name="Path 31" class="cls-5" d="M.187.187V15.721A4.239,4.239,0,0,0,.528,17.4a4.289,4.289,0,0,0,.932,1.368,4.36,4.36,0,0,0,3.077,1.262H15.882a4.36,4.36,0,0,0,3.077-1.262,4.289,4.289,0,0,0,.932-1.368,4.239,4.239,0,0,0,.342-1.675V4.492a4.239,4.239,0,0,0-.342-1.675,4.289,4.289,0,0,0-.932-1.368A4.36,4.36,0,0,0,15.882.187H.187M0,0H15.882A4.515,4.515,0,0,1,20.42,4.492V15.721a4.515,4.515,0,0,1-4.538,4.492H4.538A4.515,4.515,0,0,1,0,15.721Z" transform="translate(0 0)"/>
      </g>
      <g id="Path_23" data-name="Path 23" transform="translate(0 0)">
        <path id="Path_32" data-name="Path 32" class="cls-4" d="M0,0H18.052A5.148,5.148,0,0,1,23.21,5.138V17.982a5.148,5.148,0,0,1-5.158,5.138H5.158A5.148,5.148,0,0,1,0,17.982Z" transform="translate(0 0)"/>
        <path id="Path_33" data-name="Path 33" class="cls-5" d="M.187.187v17.8a4.925,4.925,0,0,0,1.456,3.5,4.965,4.965,0,0,0,3.515,1.45H18.052a4.974,4.974,0,0,0,4.581-3.024,4.9,4.9,0,0,0,.39-1.927V5.138a4.925,4.925,0,0,0-1.456-3.5A4.965,4.965,0,0,0,18.052.187H.187M0,0H18.052A5.148,5.148,0,0,1,23.21,5.138V17.982a5.148,5.148,0,0,1-5.158,5.138H5.158A5.148,5.148,0,0,1,0,17.982Z" transform="translate(0 0)"/>
      </g>
    </g>
    <g id="Group_11" data-name="Group 11" transform="translate(1551.155 474.777)">
      <g id="Group_16" data-name="Group 16" transform="translate(0 0)">
        <path id="Union_1" data-name="Union 1" class="cls-6" d="M2.132,5.513V4.628H1.247a1.248,1.248,0,1,1,0-2.5h.885V1.247a1.248,1.248,0,1,1,2.5,0v.885h.885a1.248,1.248,0,1,1,0,2.5H4.628v.885a1.248,1.248,0,1,1-2.5,0Z" transform="translate(0.001 0.001)"/>
      </g>
      <path id="Union_2" data-name="Union 2" class="cls-7" d="M2.132,5.513V4.628H1.247a1.248,1.248,0,1,1,0-2.5h.885V1.247a1.248,1.248,0,1,1,2.5,0v.885h.885a1.248,1.248,0,1,1,0,2.5H4.628v.885a1.248,1.248,0,1,1-2.5,0Z" transform="translate(0.559 0.187)"/>
    </g>
  </g>
</svg>
