<svg xmlns="http://www.w3.org/2000/svg" xmlns:xlink="http://www.w3.org/1999/xlink" viewBox="0 0 191 215.224">
  <defs>
    <style>
      .cls-1 {
        fill: url(#linear-gradient);
      }

      .cls-2 {
        fill: url(#linear-gradient-2);
      }

      .cls-3 {
        opacity: 0.229;
      }

      .cls-4 {
        fill: none;
      }

      .cls-5, .cls-8, .cls-9 {
        fill: #31a5ba;
      }

      .cls-6 {
        fill: url(#linear-gradient-3);
      }

      .cls-7 {
        fill: url(#linear-gradient-4);
      }

      .cls-8, .cls-9 {
        stroke: #31a5ba;
        stroke-linecap: round;
        stroke-linejoin: bevel;
        font-size: 34px;
        font-family: Kanit-Medium, Kanit;
        font-weight: 500;
      }

      .cls-9 {
        opacity: 0.44;
      }
    </style>
    <linearGradient id="linear-gradient" x1="0.946" y1="1" x2="0.052" y2="0.042" gradientUnits="objectBoundingBox">
      <stop offset="0" stop-color="#568cdd"/>
      <stop offset="1" stop-color="#31a5ba"/>
    </linearGradient>
    <linearGradient id="linear-gradient-2" x2="2.062" y2="1.966" gradientUnits="objectBoundingBox">
      <stop offset="0" stop-color="#fff"/>
      <stop offset="1" stop-color="#31a5ba"/>
    </linearGradient>
    <linearGradient id="linear-gradient-3" x1="1.071" y1="1.187" x2="0.082" y2="0.083" xlink:href="#linear-gradient"/>
    <linearGradient id="linear-gradient-4" x1="-0.64" y1="0.353" x2="-0.442" y2="1.386" gradientUnits="objectBoundingBox">
      <stop offset="0" stop-color="#defff7"/>
      <stop offset="1" stop-color="#31a5ba"/>
    </linearGradient>
  </defs>
  <g id="Group_32" data-name="Group 32" transform="translate(-1614.5 -678.5)">
    <g id="logoWeb" transform="translate(100.025 203.724)">
      <g id="Group_15" data-name="Group 15" transform="translate(1526 492.895)">
        <path id="Subtraction_4" data-name="Subtraction 4" class="cls-1" d="M104.4,133.747H29.828A29.75,29.75,0,0,1,0,104.025V0H104.4a29.75,29.75,0,0,1,29.828,29.721v74.3A29.75,29.75,0,0,1,104.4,133.747ZM28.651,27.74V87.986A17.244,17.244,0,0,0,45.926,105.2H89.111a17.244,17.244,0,0,0,17.274-17.213V44.953A17.244,17.244,0,0,0,89.111,27.74Z" transform="translate(0 0)"/>
      </g>
      <path id="Subtraction_5" data-name="Subtraction 5" class="cls-2" d="M104.4,134.225H29.828A29.8,29.8,0,0,1,0,104.4V0H104.4a29.8,29.8,0,0,1,29.828,29.828V104.4A29.8,29.8,0,0,1,104.4,134.225ZM39.217,38.406V90.648a14.927,14.927,0,0,0,14.926,14.926H91.459a14.926,14.926,0,0,0,14.927-14.927V53.332A14.926,14.926,0,0,0,91.459,38.406Z" transform="translate(1538.925 500.371)"/>
      <g id="Group_10" data-name="Group 10" class="cls-3" transform="translate(1544.637 506.311)">
        <g id="Path_21" data-name="Path 21" transform="translate(22.084 21.053)">
          <path id="Path_28" data-name="Path 28" class="cls-4" d="M0,0H68.206A19.487,19.487,0,0,1,87.694,19.487V68.206A19.487,19.487,0,0,1,68.206,87.694H19.487A19.487,19.487,0,0,1,0,68.206Z" transform="translate(0 0)"/>
          <path id="Path_29" data-name="Path 29" class="cls-5" d="M.994.994V68.2A18.477,18.477,0,0,0,19.487,86.7H68.2A18.477,18.477,0,0,0,86.7,68.2V19.487A18.477,18.477,0,0,0,68.2.994H.994M0,0H68.2A19.487,19.487,0,0,1,87.692,19.487V68.2A19.487,19.487,0,0,1,68.2,87.692H19.487A19.487,19.487,0,0,1,0,68.2Z" transform="translate(0 0)"/>
        </g>
        <g id="Path_22" data-name="Path 22" transform="translate(8.271 8.782)">
          <path id="Path_30" data-name="Path 30" class="cls-4" d="M0,0H84.611a24.052,24.052,0,0,1,24.174,23.928V83.748a24.052,24.052,0,0,1-24.174,23.93H24.174A24.052,24.052,0,0,1,0,83.748Z" transform="translate(0 0)"/>
          <path id="Path_31" data-name="Path 31" class="cls-5" d="M.994.994V83.749a22.581,22.581,0,0,0,1.82,8.923,22.847,22.847,0,0,0,4.966,7.29,23.23,23.23,0,0,0,16.395,6.721H84.611a23.23,23.23,0,0,0,16.395-6.721,22.847,22.847,0,0,0,4.966-7.29,22.581,22.581,0,0,0,1.82-8.923V23.928A22.581,22.581,0,0,0,105.971,15a22.847,22.847,0,0,0-4.966-7.29A23.23,23.23,0,0,0,84.611.994H.994M0,0H84.611a24.052,24.052,0,0,1,24.174,23.928V83.749a24.052,24.052,0,0,1-24.174,23.928H24.174A24.052,24.052,0,0,1,0,83.749Z" transform="translate(0 0)"/>
        </g>
        <g id="Path_23" data-name="Path 23" transform="translate(0 0)">
          <path id="Path_32" data-name="Path 32" class="cls-4" d="M0,0H96.171a27.424,27.424,0,0,1,27.477,27.37V95.795a27.424,27.424,0,0,1-27.477,27.37H27.477A27.424,27.424,0,0,1,0,95.795Z" transform="translate(0 0)"/>
          <path id="Path_33" data-name="Path 33" class="cls-5" d="M.994.994v94.8A26.236,26.236,0,0,0,8.75,114.443a26.451,26.451,0,0,0,18.728,7.727H96.17a26.5,26.5,0,0,0,24.4-16.111,26.118,26.118,0,0,0,2.08-10.265V27.37A26.236,26.236,0,0,0,114.9,8.721,26.451,26.451,0,0,0,96.17.994H.994M0,0H96.17a27.424,27.424,0,0,1,27.477,27.37V95.794a27.424,27.424,0,0,1-27.477,27.37H27.477A27.424,27.424,0,0,1,0,95.794Z" transform="translate(0 0)"/>
        </g>
      </g>
      <g id="Group_11" data-name="Group 11" transform="translate(1660.01 474.777)">
        <g id="Group_16" data-name="Group 16" transform="translate(0 0)">
          <path id="Union_1" data-name="Union 1" class="cls-6" d="M11.361,29.369V24.658H6.646a6.646,6.646,0,1,1,0-13.292h4.716V6.646a6.646,6.646,0,1,1,13.292,0v4.716h4.716a6.646,6.646,0,1,1,0,13.292H24.658v4.716a6.646,6.646,0,1,1-13.292,0Z" transform="translate(0.001 0.001)"/>
        </g>
        <path id="Union_2" data-name="Union 2" class="cls-7" d="M11.361,29.369V24.658H6.646a6.646,6.646,0,1,1,0-13.292h4.716V6.646a6.646,6.646,0,1,1,13.292,0v4.716h4.716a6.646,6.646,0,1,1,0,13.292H24.658v4.716a6.646,6.646,0,1,1-13.292,0Z" transform="translate(2.975 0.995)"/>
      </g>
    </g>
    <g id="Group_24" data-name="Group 24" transform="translate(490.5 206.724)">
      <g id="Group_30" data-name="Group 30" transform="translate(1113.5 446.5)">
        <text id="OPD_BOOKS" data-name="OPD BOOKS" class="cls-8" transform="translate(11.5 226.5)"><tspan x="0" y="0">OPD BOOKS</tspan></text>
      </g>
      <g id="Group_31" data-name="Group 31" transform="translate(1113.5 446.5)">
        <text id="OPD_BOOKS-2" data-name="OPD BOOKS" class="cls-9" transform="translate(14.5 226.5)"><tspan x="0" y="0">OPD BOOKS</tspan></text>
      </g>
    </g>
  </g>
</svg>
