<svg xmlns="http://www.w3.org/2000/svg" viewBox="0 0 505 505">
  <defs>
    <style>
      .cls-1 {
        fill: #102d4a;
      }

      .cls-2 {
        fill: #fff;
      }

      .cls-3 {
        fill: #355472;
      }

      .cls-4 {
        fill: #bfdadd;
      }

      .cls-5 {
        fill: #ebebeb;
      }

      .cls-6 {
        fill: #4b5051;
      }
    </style>
  </defs>
  <g id="sms" transform="translate(35 -11)">
    <path id="Path_458" data-name="Path 458" class="cls-1" d="M252.5,0C391.952,0,505,113.048,505,252.5S391.952,505,252.5,505,0,391.952,0,252.5,113.048,0,252.5,0Z" transform="translate(-35 11)"/>
    <path id="Path_473" data-name="Path 473" class="cls-2" d="M193.171,0A193.059,193.059,0,0,1,386.341,193.171c0,106.685-86.485,193.171-193.171,193.171S0,299.856,0,193.171,86.485,0,193.171,0Z" transform="translate(24.277 70.381)"/>
    <g id="tick" transform="translate(105.247 132.001)">
      <path id="Path_460" data-name="Path 460" class="cls-3" d="M223.7,185.266V306.559a21.479,21.479,0,0,1-21.479,21.474H21.478A21.473,21.473,0,0,1,0,306.559V185.266Zm0,0" transform="translate(-0.002 -104.313)"/>
      <path id="Path_461" data-name="Path 461" class="cls-1" d="M223.7,80.953,137.713,9.358a40.42,40.42,0,0,0-51.73,0L0,80.953H0l25.342,21.1,60.64,50.491a40.409,40.409,0,0,0,51.728,0l60.645-50.491,25.342-21.1"/>
      <path id="Path_462" data-name="Path 462" class="cls-4" d="M231.013,51.011v65.781l-60.645,50.491a40.409,40.409,0,0,1-51.728,0L58,116.791V51.011A24.837,24.837,0,0,1,82.838,26.176h123.34A24.834,24.834,0,0,1,231.013,51.011Zm0,0" transform="translate(-32.656 -14.739)"/>
      <path id="Path_463" data-name="Path 463" class="cls-5" d="M231.013,51.011v50.714l-60.645,50.492a40.413,40.413,0,0,1-51.728,0L58,101.725V51.011A24.837,24.837,0,0,1,82.838,26.176h123.34A24.834,24.834,0,0,1,231.013,51.011Zm0,0" transform="translate(-32.656 -14.739)"/>
      <g id="Group_189" data-name="Group 189" transform="translate(58.209 51.654)">
        <path id="Path_464" data-name="Path 464" class="cls-6" d="M237.072,216.078H136.639a3.424,3.424,0,1,1,0-6.848H237.072a3.424,3.424,0,1,1,0,6.848Zm0,0" transform="translate(-133.215 -169.461)"/>
        <path id="Path_465" data-name="Path 465" class="cls-6" d="M237.072,261.59H136.639a3.424,3.424,0,1,1,0-6.848H237.072a3.424,3.424,0,1,1,0,6.848Zm0,0" transform="translate(-133.215 -195.086)"/>
        <path id="Path_466" data-name="Path 466" class="cls-6" d="M237.072,125.063H136.639a3.424,3.424,0,0,1,0-6.848H237.072a3.424,3.424,0,1,1,0,6.848Zm0,0" transform="translate(-133.215 -118.215)"/>
        <path id="Path_467" data-name="Path 467" class="cls-6" d="M237.072,170.571H136.639a3.424,3.424,0,0,1,0-6.848H237.072a3.424,3.424,0,1,1,0,6.848Zm0,0" transform="translate(-133.215 -143.838)"/>
      </g>
      <path id="Path_471" data-name="Path 471" class="cls-1" d="M389.467,412.7a3.411,3.411,0,0,1-2.188-.792l-54.6-45.457a3.424,3.424,0,1,1,4.382-5.262l54.6,45.455a3.424,3.424,0,0,1-2.192,6.056Zm0,0" transform="translate(-186.62 -202.922)"/>
      <path id="Path_472" data-name="Path 472" class="cls-1" d="M77.531,267.938,32.663,306.262a9.605,9.605,0,0,0,4.593,16.767c12.885,2.239,27.941,4.752,31.99,5.006H21.48A21.472,21.472,0,0,1,0,306.561V185.266H16.216v82.682c.155,16.714,19.748,25.683,32.6,14.991l24.446-20.356a3.429,3.429,0,0,1,4.89.526A3.519,3.519,0,0,1,77.531,267.938Zm0,0" transform="translate(-0.002 -104.313)"/>
    </g>
  </g>
</svg>
