<svg xmlns="http://www.w3.org/2000/svg" xmlns:xlink="http://www.w3.org/1999/xlink" viewBox="0 0 500 500">
  <defs>
    <style>
      .cls-1 {
        clip-path: url(#clip-custom_1);
      }

      .cls-2, .cls-4 {
        fill: #fff;
      }

      .cls-3 {
        fill: #47b5c9;
      }

      .cls-4 {
        stroke: #707070;
      }

      .cls-5 {
        fill: #31a5ba;
      }

      .cls-6 {
        fill: url(#linear-gradient);
      }

      .cls-7 {
        fill: url(#linear-gradient-2);
      }

      .cls-8 {
        opacity: 0.229;
      }

      .cls-9 {
        fill: none;
      }

      .cls-10 {
        fill: url(#linear-gradient-3);
      }

      .cls-11 {
        fill: url(#linear-gradient-4);
      }

      .cls-12 {
        stroke: none;
      }

      .cls-13 {
        filter: url(#Path_37);
      }
    </style>
    <filter id="Path_37" x="-31.5" y="-30.5" width="564" height="564" filterUnits="userSpaceOnUse">
      <feOffset dy="3" input="SourceAlpha"/>
      <feGaussianBlur stdDeviation="15.5" result="blur"/>
      <feFlood flood-color="#31a5ba" flood-opacity="0.431"/>
      <feComposite operator="in" in2="blur"/>
      <feComposite in="SourceGraphic"/>
    </filter>
    <linearGradient id="linear-gradient" x1="0.946" y1="1" x2="0.052" y2="0.042" gradientUnits="objectBoundingBox">
      <stop offset="0" stop-color="#568cdd"/>
      <stop offset="1" stop-color="#31a5ba"/>
    </linearGradient>
    <linearGradient id="linear-gradient-2" x2="2.062" y2="1.966" gradientUnits="objectBoundingBox">
      <stop offset="0" stop-color="#fff"/>
      <stop offset="1" stop-color="#31a5ba"/>
    </linearGradient>
    <linearGradient id="linear-gradient-3" x1="1.071" y1="1.187" x2="0.082" y2="0.083" xlink:href="#linear-gradient"/>
    <linearGradient id="linear-gradient-4" x1="-0.64" y1="0.353" x2="-0.442" y2="1.386" gradientUnits="objectBoundingBox">
      <stop offset="0" stop-color="#defff7"/>
      <stop offset="1" stop-color="#31a5ba"/>
    </linearGradient>
    <clipPath id="clip-custom_1">
      <rect width="500" height="500"/>
    </clipPath>
  </defs>
  <g id="custom_1" data-name="custom – 1" class="cls-1">
    <rect class="cls-2" width="500" height="500"/>
    <g class="cls-13" transform="matrix(1, 0, 0, 1, 0, 0)">
      <path id="Path_37-2" data-name="Path 37" class="cls-2" d="M20,0H451a20,20,0,0,1,20,20V451a20,20,0,0,1-20,20H20A20,20,0,0,1,0,451V20A20,20,0,0,1,20,0Z" transform="translate(15 13)"/>
    </g>
    <path id="Path_6" data-name="Path 6" class="cls-3" d="M10.5,143.57A10.5,10.5,0,0,0,21,133.07v-42.8a9.384,9.384,0,0,1,9.374-9.374H65.137a10.5,10.5,0,0,0,0-21H30.374A30.407,30.407,0,0,0,0,90.266v42.8A10.5,10.5,0,0,0,10.5,143.57Z" transform="translate(34 -25.892)"/>
    <path id="Path_7" data-name="Path 7" class="cls-3" d="M65.137,387.184H30.374A9.384,9.384,0,0,1,21,377.81v-42.8a10.5,10.5,0,1,0-21,0v42.8a30.408,30.408,0,0,0,30.374,30.374H65.137a10.5,10.5,0,0,0,0-21Z" transform="translate(34 57.108)"/>
    <path id="Path_8" data-name="Path 8" class="cls-3" d="M437.7,59.892H402.937a10.5,10.5,0,1,0,0,21H437.7a9.384,9.384,0,0,1,9.374,9.374v42.8a10.5,10.5,0,0,0,21,0v-42.8A30.409,30.409,0,0,0,437.7,59.892Z" transform="translate(-1 -25.892)"/>
    <path id="Path_9" data-name="Path 9" class="cls-3" d="M457.575,324.506a10.5,10.5,0,0,0-10.5,10.5v42.8a9.384,9.384,0,0,1-9.374,9.374H402.937a10.5,10.5,0,0,0,0,21H437.7a30.409,30.409,0,0,0,30.374-30.374v-42.8A10.5,10.5,0,0,0,457.575,324.506Z" transform="translate(-1 57.108)"/>
    <g id="Rectangle_5" data-name="Rectangle 5" class="cls-4" transform="translate(186 210)">
      <rect class="cls-12" width="2" height="2"/>
      <rect class="cls-9" x="0.5" y="0.5" width="1" height="1"/>
    </g>
    <g id="qr-code" transform="translate(89.166 87)">
      <g id="Group_1" data-name="Group 1" transform="translate(0.078)">
        <path id="Path_11" data-name="Path 11" class="cls-5" d="M90.281,98.149A7.948,7.948,0,0,0,98.229,90.2V7.948A7.948,7.948,0,0,0,90.281,0H8.026A7.948,7.948,0,0,0,.078,7.948V90.2a7.948,7.948,0,0,0,7.948,7.948ZM15.973,15.9h66.36V82.254H15.973Z" transform="translate(-0.078)"/>
        <rect id="Rectangle_2" data-name="Rectangle 2" class="cls-5" width="33.38" height="33.38" transform="translate(32.385 32.384)"/>
        <path id="Path_12" data-name="Path 12" class="cls-5" d="M377.269,0H295.014a7.948,7.948,0,0,0-7.948,7.948V90.2a7.948,7.948,0,0,0,7.948,7.948h82.255a7.949,7.949,0,0,0,7.948-7.948V7.948A7.948,7.948,0,0,0,377.269,0Zm-7.948,82.254h-66.36V15.9h66.36Z" transform="translate(-58.977)"/>
        <rect id="Rectangle_3" data-name="Rectangle 3" class="cls-5" width="33.38" height="33.38" transform="translate(260.474 32.384)"/>
        <path id="Path_13" data-name="Path 13" class="cls-5" d="M377.269,287.146H295.014a7.948,7.948,0,0,0-7.948,7.948v82.254a7.949,7.949,0,0,0,7.948,7.948h82.255a7.95,7.95,0,0,0,7.948-7.948V295.094A7.948,7.948,0,0,0,377.269,287.146ZM369.321,369.4h-66.36V303.042h66.36Z" transform="translate(-58.977 -58.931)"/>
        <rect id="Rectangle_4" data-name="Rectangle 4" class="cls-5" width="33.38" height="33.38" transform="translate(260.474 260.599)"/>
        <path id="Path_14" data-name="Path 14" class="cls-5" d="M49.354,264.465V228.749H92.669a1.989,1.989,0,0,0,1.987-1.987v-37.7a1.989,1.989,0,0,0-1.987-1.987H49.354V151.356a1.989,1.989,0,0,0-1.987-1.987H2.065a1.989,1.989,0,0,0-1.987,1.987v37.7a1.989,1.989,0,0,0,1.987,1.987H45.38v33.729H2.065a1.989,1.989,0,0,0-1.987,1.987v37.7a1.99,1.99,0,0,0,1.987,1.987h45.3A1.989,1.989,0,0,0,49.354,264.465Z" transform="translate(-0.078 -30.655)"/>
        <path id="Path_15" data-name="Path 15" class="cls-5" d="M148.287,178.143a1.989,1.989,0,0,0-1.987,1.987v43.9a1.989,1.989,0,0,0,1.987,1.987h43.9a1.989,1.989,0,0,0,1.987-1.987v-43.9a1.989,1.989,0,0,0-1.987-1.987Z" transform="translate(-30.087 -36.56)"/>
        <path id="Path_16" data-name="Path 16" class="cls-5" d="M187.281,96.473h53.577a1.989,1.989,0,0,0,1.987-1.987V40.909a1.989,1.989,0,0,0-1.987-1.987H187.281a1.989,1.989,0,0,0-1.987,1.987V94.486A1.99,1.99,0,0,0,187.281,96.473Z" transform="translate(-38.09 -7.988)"/>
        <path id="Path_17" data-name="Path 17" class="cls-5" d="M250.713,144.642v40.246a1.989,1.989,0,0,0,1.987,1.987h40.246a1.989,1.989,0,0,0,1.987-1.987V144.642a1.989,1.989,0,0,0-1.987-1.987H252.7A1.989,1.989,0,0,0,250.713,144.642Z" transform="translate(-51.516 -29.277)"/>
        <path id="Path_18" data-name="Path 18" class="cls-5" d="M71.4,318.4h-28.2a1.99,1.99,0,0,0-1.987,1.987v26.218H2.065A1.989,1.989,0,0,0,.078,348.6v41.126a1.989,1.989,0,0,0,1.987,1.987H43.192a1.989,1.989,0,0,0,1.987-1.987V350.583H71.4a1.99,1.99,0,0,0,1.987-1.987v-28.2A1.99,1.99,0,0,0,71.4,318.4Z" transform="translate(-0.078 -65.346)"/>
        <path id="Path_19" data-name="Path 19" class="cls-5" d="M241.384,282.918h-28.2a1.989,1.989,0,0,0-1.987,1.987v26.216H186.964V284.9a1.989,1.989,0,0,0-1.987-1.987h-28.2a1.989,1.989,0,0,0-1.987,1.987v28.2a1.989,1.989,0,0,0,1.987,1.987H182.99v24.231H143.85a1.989,1.989,0,0,0-1.987,1.987v41.126a1.989,1.989,0,0,0,1.987,1.987h41.127a1.989,1.989,0,0,0,1.987-1.987V343.3H213.18a1.99,1.99,0,0,0,1.987-1.987V315.1h26.217a1.989,1.989,0,0,0,1.987-1.987V284.9A1.989,1.989,0,0,0,241.384,282.918Z" transform="translate(-29.177 -58.064)"/>
        <path id="Path_20" data-name="Path 20" class="cls-5" d="M164.152,141.186v-28.2a1.989,1.989,0,0,0-1.987-1.987h-28.2a1.99,1.99,0,0,0-1.987,1.987v28.2a1.99,1.99,0,0,0,1.987,1.987h28.2A1.989,1.989,0,0,0,164.152,141.186Z" transform="translate(-27.147 -22.78)"/>
        <path id="Path_21" data-name="Path 21" class="cls-5" d="M178.478,30.191V1.987A1.989,1.989,0,0,0,176.491,0h-28.2A1.989,1.989,0,0,0,146.3,1.987v28.2a1.989,1.989,0,0,0,1.987,1.987h28.2A1.988,1.988,0,0,0,178.478,30.191Z" transform="translate(-30.087)"/>
        <path id="Path_22" data-name="Path 22" class="cls-5" d="M392.983,175.754a1.989,1.989,0,0,0,1.987-1.987v-28.2a1.989,1.989,0,0,0-1.987-1.987h-28.2a1.989,1.989,0,0,0-1.987,1.987V171.78H336.575a1.989,1.989,0,0,0-1.987,1.987v28.2a1.989,1.989,0,0,0,1.987,1.987h26.217v26.217a1.99,1.99,0,0,0,1.987,1.987h28.2a1.99,1.99,0,0,0,1.987-1.987v-28.2a1.989,1.989,0,0,0-1.987-1.987H366.766v-24.23Z" transform="translate(-68.73 -29.466)"/>
      </g>
    </g>
    <rect id="Rectangle_6" data-name="Rectangle 6" class="cls-2" width="116" height="120" transform="translate(193 190)"/>
    <g id="logoWebpage" transform="translate(-1323.367 -276.907)">
      <g id="Group_15" data-name="Group 15" transform="translate(1526 485.236)">
        <path id="Subtraction_4" data-name="Subtraction 4" class="cls-6" d="M60.251,77.177H17.215A17.165,17.165,0,0,1,0,60.027V0H60.251A17.165,17.165,0,0,1,77.466,17.15V60.027a17.165,17.165,0,0,1-17.215,17.15ZM16.532,16.007V50.771A9.951,9.951,0,0,0,26.5,60.7H51.419a9.951,9.951,0,0,0,9.969-9.932V25.939a9.951,9.951,0,0,0-9.969-9.932Z" transform="translate(0 0)"/>
      </g>
      <path id="Subtraction_5" data-name="Subtraction 5" class="cls-7" d="M60.251,77.466H17.215A17.2,17.2,0,0,1,0,60.251V0H60.251A17.2,17.2,0,0,1,77.466,17.215V60.251A17.2,17.2,0,0,1,60.251,77.466Zm-37.623-55.3V52.3a8.607,8.607,0,0,0,8.607,8.607H52.753A8.607,8.607,0,0,0,61.361,52.3V30.786a8.607,8.607,0,0,0-8.607-8.607Z" transform="translate(1533.458 489.549)"/>
      <g id="Group_10" data-name="Group 10" class="cls-8" transform="translate(1536.753 492.976)">
        <g id="Path_21-2" data-name="Path 21" transform="translate(12.745 12.149)">
          <path id="Path_28" data-name="Path 28" class="cls-9" d="M0,0H39.348A11.245,11.245,0,0,1,50.592,11.245v28.1A11.245,11.245,0,0,1,39.348,50.6h-28.1A11.245,11.245,0,0,1,0,39.348Z" transform="translate(0)"/>
          <path id="Path_29" data-name="Path 29" class="cls-5" d="M.575.575V39.348a10.661,10.661,0,0,0,10.67,10.67h28.1a10.661,10.661,0,0,0,10.679-10.67v-28.1A10.661,10.661,0,0,0,39.348.575H.575M0,0H39.348A11.245,11.245,0,0,1,50.592,11.245v28.1A11.245,11.245,0,0,1,39.348,50.6h-28.1A11.245,11.245,0,0,1,0,39.348Z" transform="translate(0)"/>
        </g>
        <g id="Path_22-2" data-name="Path 22" transform="translate(4.774 5.066)">
          <path id="Path_30" data-name="Path 30" class="cls-9" d="M0,0H48.825A13.879,13.879,0,0,1,62.772,13.806V48.324a13.879,13.879,0,0,1-13.95,13.809H13.95A13.879,13.879,0,0,1,0,48.324Z" transform="translate(0 0)"/>
          <path id="Path_31" data-name="Path 31" class="cls-5" d="M.575.575V48.327a13.031,13.031,0,0,0,1.048,5.161,13.184,13.184,0,0,0,2.865,4.205,13.4,13.4,0,0,0,9.459,3.879H48.822a13.4,13.4,0,0,0,9.459-3.879,13.185,13.185,0,0,0,2.865-4.205A13.031,13.031,0,0,0,62.2,48.339V13.809A13.031,13.031,0,0,0,61.146,8.66a13.185,13.185,0,0,0-2.865-4.205A13.4,13.4,0,0,0,48.822.575H.575M0,0H48.822a13.879,13.879,0,0,1,13.95,13.809V48.327a13.879,13.879,0,0,1-13.95,13.809H13.95A13.879,13.879,0,0,1,0,48.327Z" transform="translate(0 0)"/>
        </g>
        <g id="Path_23" data-name="Path 23" transform="translate(0 0)">
          <path id="Path_32" data-name="Path 32" class="cls-9" d="M0,0H55.492A15.825,15.825,0,0,1,71.348,15.794V55.277A15.825,15.825,0,0,1,55.492,71.072H15.856A15.825,15.825,0,0,1,0,55.277Z" transform="translate(0 0)"/>
          <path id="Path_33" data-name="Path 33" class="cls-5" d="M.575.575V55.293A15.25,15.25,0,0,0,15.856,70.509H55.492a15.29,15.29,0,0,0,14.082-9.3,15.063,15.063,0,0,0,1.2-5.924v-39.5A15.255,15.255,0,0,0,55.492.575H.575M0,0H55.492A15.825,15.825,0,0,1,71.348,15.794V55.277A15.825,15.825,0,0,1,55.492,71.072H15.856A15.825,15.825,0,0,1,0,55.277Z" transform="translate(0 0)"/>
        </g>
      </g>
      <g id="Group_11" data-name="Group 11" transform="translate(1603.321 474.775)">
        <g id="Group_16" data-name="Group 16" transform="translate(0 0)">
          <path id="Union_1" data-name="Union 1" class="cls-10" d="M6.56,16.953V14.233H3.84a3.843,3.843,0,1,1,0-7.685H6.56V3.84a3.843,3.843,0,0,1,7.685,0V6.56h2.721a3.843,3.843,0,1,1,0,7.685H14.233v2.721a3.843,3.843,0,1,1-7.685,0Z" transform="translate(0.003 0.003)"/>
        </g>
        <path id="Union_2" data-name="Union 2" class="cls-11" d="M6.56,16.953V14.233H3.84a3.843,3.843,0,1,1,0-7.685H6.56V3.84a3.843,3.843,0,0,1,7.685,0V6.56h2.721a3.843,3.843,0,1,1,0,7.685H14.233v2.721a3.843,3.843,0,1,1-7.685,0Z" transform="translate(1.718 0.575)"/>
      </g>
    </g>
  </g>
</svg>
