<svg xmlns="http://www.w3.org/2000/svg" xmlns:xlink="http://www.w3.org/1999/xlink" viewBox="0 0 500 500">
  <defs>
    <style>
      .cls-1 {
        clip-path: url(#clip-path);
      }

      .cls-2, .cls-4 {
        fill: #fff;
      }

      .cls-3 {
        fill: #fa636f;
      }

      .cls-4 {
        stroke: #707070;
      }

      .cls-5 {
        fill: #31a5ba;
      }

      .cls-6 {
        fill: url(#linear-gradient);
      }

      .cls-7 {
        fill: url(#linear-gradient-2);
      }

      .cls-8 {
        opacity: 0.229;
      }

      .cls-9 {
        fill: none;
      }

      .cls-10 {
        fill: url(#linear-gradient-3);
      }

      .cls-11 {
        fill: url(#linear-gradient-4);
      }

      .cls-12 {
        fill: #707070;
        font-size: 43px;
        font-family: Kanit-Regular, Kanit;
      }

      .cls-13 {
        stroke: none;
      }
    </style>
    <clipPath id="clip-path">
      <rect id="Rectangle_2" data-name="Rectangle 2" width="500" height="500"/>
    </clipPath>
    <linearGradient id="linear-gradient" x1="0.946" y1="1" x2="0.052" y2="0.042" gradientUnits="objectBoundingBox">
      <stop offset="0" stop-color="#568cdd"/>
      <stop offset="1" stop-color="#31a5ba"/>
    </linearGradient>
    <linearGradient id="linear-gradient-2" x2="2.062" y2="1.966" gradientUnits="objectBoundingBox">
      <stop offset="0" stop-color="#fff"/>
      <stop offset="1" stop-color="#31a5ba"/>
    </linearGradient>
    <linearGradient id="linear-gradient-3" x1="1.071" y1="1.187" x2="0.082" y2="0.083" xlink:href="#linear-gradient"/>
    <linearGradient id="linear-gradient-4" x1="-0.64" y1="0.353" x2="-0.442" y2="1.386" gradientUnits="objectBoundingBox">
      <stop offset="0" stop-color="#defff7"/>
      <stop offset="1" stop-color="#31a5ba"/>
    </linearGradient>
  </defs>
  <g id="ScanButton" class="cls-1">
    <rect id="Rectangle_1" data-name="Rectangle 1" class="cls-2" width="500" height="500"/>
    <g id="Group_1" data-name="Group 1">
      <path id="Path_37" data-name="Path 37" class="cls-2" d="M20,0H451a20,20,0,0,1,20,20V451a20,20,0,0,1-20,20H20A20,20,0,0,1,0,451V20A20,20,0,0,1,20,0Z" transform="translate(15 13)"/>
    </g>
    <path id="Path_6" data-name="Path 6" class="cls-3" d="M8.776,129.833a8.776,8.776,0,0,0,8.776-8.776V85.28a7.844,7.844,0,0,1,7.835-7.835H54.444a8.776,8.776,0,1,0,0-17.553H25.388A25.415,25.415,0,0,0,0,85.28v35.777a8.777,8.777,0,0,0,8.775,8.776Z" transform="translate(69.096 -24.892)"/>
    <path id="Path_7" data-name="Path 7" class="cls-3" d="M54.444,376.894H25.388a7.844,7.844,0,0,1-7.835-7.835V333.282a8.776,8.776,0,0,0-17.553,0v35.777a25.416,25.416,0,0,0,25.388,25.388H54.444a8.776,8.776,0,1,0,0-17.553Z" transform="translate(69.096 1.042)"/>
    <path id="Path_8" data-name="Path 8" class="cls-3" d="M430.27,59.892H401.213a8.777,8.777,0,0,0,0,17.553H430.27A7.844,7.844,0,0,1,438.1,85.28v35.777a8.777,8.777,0,0,0,17.553,0V85.28A25.417,25.417,0,0,0,430.27,59.892Z" transform="translate(-24.583 -24.892)"/>
    <path id="Path_9" data-name="Path 9" class="cls-3" d="M446.882,324.506a8.776,8.776,0,0,0-8.776,8.776v35.777a7.844,7.844,0,0,1-7.835,7.835H401.213a8.777,8.777,0,0,0,0,17.553H430.27a25.417,25.417,0,0,0,25.388-25.388V333.282a8.776,8.776,0,0,0-8.776-8.776Z" transform="translate(-24.583 1.042)"/>
    <g id="Rectangle_5" data-name="Rectangle 5" class="cls-4" transform="translate(196.143 182.107)">
      <rect class="cls-13" width="1.672" height="1.672"/>
      <rect class="cls-9" x="0.5" y="0.5" width="0.672" height="0.672"/>
    </g>
    <g id="qr-code" transform="translate(115.271 79.299)">
      <g id="Group_1-2" data-name="Group 1">
        <path id="Path_11" data-name="Path 11" class="cls-3" d="M75.473,82.037a6.643,6.643,0,0,0,6.643-6.643V6.643A6.643,6.643,0,0,0,75.473,0H6.721A6.643,6.643,0,0,0,.078,6.643V75.394a6.643,6.643,0,0,0,6.643,6.643ZM13.364,13.286H68.83V68.751H13.364Z" transform="translate(-0.078)"/>
        <rect id="Rectangle_2-2" data-name="Rectangle 2" class="cls-3" width="27.9" height="27.9" transform="translate(27.069 27.068)"/>
        <path id="Path_12" data-name="Path 12" class="cls-3" d="M362.461,0H293.709a6.643,6.643,0,0,0-6.643,6.643V75.394a6.643,6.643,0,0,0,6.643,6.643h68.752A6.644,6.644,0,0,0,369.1,75.4V6.643A6.643,6.643,0,0,0,362.461,0Zm-6.643,68.751H300.352V13.286h55.466Z" transform="translate(-96.421)"/>
        <rect id="Rectangle_3" data-name="Rectangle 3" class="cls-3" width="27.9" height="27.9" transform="translate(217.714 27.068)"/>
        <path id="Path_13" data-name="Path 13" class="cls-3" d="M362.461,287.146H293.709a6.643,6.643,0,0,0-6.643,6.643V362.54a6.644,6.644,0,0,0,6.642,6.643h68.753a6.645,6.645,0,0,0,6.643-6.643V293.789A6.643,6.643,0,0,0,362.461,287.146ZM355.818,355.9H300.352V300.433h55.466Z" transform="translate(-96.421 -96.396)"/>
        <rect id="Rectangle_4" data-name="Rectangle 4" class="cls-3" width="27.9" height="27.9" transform="translate(217.714 217.818)"/>
        <path id="Path_14" data-name="Path 14" class="cls-3" d="M41.264,245.57V215.718h36.2a1.663,1.663,0,0,0,1.661-1.661V182.543a1.663,1.663,0,0,0-1.661-1.661h-36.2V151.03a1.663,1.663,0,0,0-1.661-1.661H1.739A1.663,1.663,0,0,0,.078,151.03v31.514A1.663,1.663,0,0,0,1.739,184.2h36.2v28.2H1.739a1.662,1.662,0,0,0-1.661,1.661V245.57a1.663,1.663,0,0,0,1.661,1.661H39.6a1.662,1.662,0,0,0,1.664-1.661Z" transform="translate(-0.078 -50.144)"/>
        <path id="Path_15" data-name="Path 15" class="cls-5" d="M147.961,178.143A1.663,1.663,0,0,0,146.3,179.8v36.69a1.663,1.663,0,0,0,1.661,1.661h36.69a1.663,1.663,0,0,0,1.661-1.661V179.8a1.663,1.663,0,0,0-1.661-1.661Z" transform="translate(-49.165 -59.803)"/>
        <path id="Path_16" data-name="Path 16" class="cls-3" d="M186.955,87.025h44.782a1.663,1.663,0,0,0,1.661-1.661V40.583a1.663,1.663,0,0,0-1.661-1.661H186.955a1.663,1.663,0,0,0-1.661,1.661V85.364a1.663,1.663,0,0,0,1.661,1.661Z" transform="translate(-62.256 -13.066)"/>
        <path id="Path_17" data-name="Path 17" class="cls-3" d="M250.713,144.316v33.639a1.663,1.663,0,0,0,1.661,1.661h33.639a1.663,1.663,0,0,0,1.661-1.661V144.316a1.663,1.663,0,0,0-1.661-1.661H252.374a1.663,1.663,0,0,0-1.661,1.661Z" transform="translate(-84.217 -47.89)"/>
        <path id="Path_18" data-name="Path 18" class="cls-3" d="M59.688,318.4H36.114a1.663,1.663,0,0,0-1.661,1.661v21.914H1.739a1.662,1.662,0,0,0-1.661,1.661v34.375a1.662,1.662,0,0,0,1.661,1.661H36.114a1.662,1.662,0,0,0,1.661-1.661V345.3H59.688a1.663,1.663,0,0,0,1.661-1.661V320.065a1.663,1.663,0,0,0-1.661-1.665Z" transform="translate(-0.078 -106.889)"/>
        <path id="Path_19" data-name="Path 19" class="cls-3" d="M225.046,282.918H201.472a1.663,1.663,0,0,0-1.661,1.661v21.912H179.56V284.579a1.663,1.663,0,0,0-1.661-1.661H154.325a1.663,1.663,0,0,0-1.661,1.661v23.573a1.662,1.662,0,0,0,1.661,1.661h21.913v20.253H143.524a1.662,1.662,0,0,0-1.661,1.661V366.1a1.662,1.662,0,0,0,1.661,1.661H177.9a1.662,1.662,0,0,0,1.661-1.661V333.387h21.912a1.663,1.663,0,0,0,1.661-1.661V309.813h21.913a1.662,1.662,0,0,0,1.661-1.661V284.579A1.663,1.663,0,0,0,225.046,282.918Z" transform="translate(-47.676 -94.977)"/>
        <path id="Path_20" data-name="Path 20" class="cls-3" d="M158.869,136.23V112.656a1.663,1.663,0,0,0-1.661-1.661H133.635a1.663,1.663,0,0,0-1.661,1.661V136.23a1.663,1.663,0,0,0,1.661,1.661h23.574a1.663,1.663,0,0,0,1.66-1.661Z" transform="translate(-44.356 -37.261)"/>
        <path id="Path_21" data-name="Path 21" class="cls-3" d="M173.2,25.235V1.661A1.663,1.663,0,0,0,171.535,0H147.961A1.663,1.663,0,0,0,146.3,1.661V25.235a1.663,1.663,0,0,0,1.661,1.661h23.573a1.662,1.662,0,0,0,1.666-1.661Z" transform="translate(-49.165)"/>
        <path id="Path_22" data-name="Path 22" class="cls-3" d="M383.4,170.471a1.663,1.663,0,0,0,1.661-1.661V145.237a1.663,1.663,0,0,0-1.661-1.661H359.823a1.663,1.663,0,0,0-1.661,1.661V167.15H336.249a1.663,1.663,0,0,0-1.661,1.661v23.574a1.663,1.663,0,0,0,1.661,1.661h21.913v21.913a1.663,1.663,0,0,0,1.661,1.661H383.4a1.663,1.663,0,0,0,1.661-1.661V192.384a1.663,1.663,0,0,0-1.661-1.661H361.483V170.471Z" transform="translate(-112.374 -48.199)"/>
      </g>
    </g>
    <rect id="Rectangle_6" data-name="Rectangle 6" class="cls-2" width="96.957" height="100.3" transform="translate(201.993 165.39)"/>
    <g id="logoWebpage" transform="translate(210.045 171.967)">
      <g id="Group_15" data-name="Group 15" transform="translate(0 8.744)">
        <path id="Subtraction_4" data-name="Subtraction 4" class="cls-6" d="M50.36,64.507H14.389A14.347,14.347,0,0,1,0,50.172V0H50.36A14.347,14.347,0,0,1,64.749,14.335V50.172A14.347,14.347,0,0,1,50.36,64.507ZM13.818,13.379V42.436a8.317,8.317,0,0,0,8.333,8.3H42.978a8.317,8.317,0,0,0,8.333-8.3V21.681a8.317,8.317,0,0,0-8.333-8.3Z"/>
      </g>
      <path id="Subtraction_5" data-name="Subtraction 5" class="cls-7" d="M50.36,64.749H14.389A14.373,14.373,0,0,1,0,50.36V0H50.36A14.373,14.373,0,0,1,64.749,14.389V50.36A14.373,14.373,0,0,1,50.36,64.749ZM18.913,18.523v25.2a7.194,7.194,0,0,0,7.194,7.194H44.093a7.194,7.194,0,0,0,7.194-7.194V25.732a7.194,7.194,0,0,0-7.194-7.194Z" transform="translate(6.233 12.348)"/>
      <g id="Group_10" data-name="Group 10" class="cls-8" transform="translate(8.988 15.213)">
        <g id="Path_21-2" data-name="Path 21" transform="translate(10.653 10.154)">
          <path id="Path_28" data-name="Path 28" class="cls-9" d="M0,0H32.888a9.4,9.4,0,0,1,9.4,9.4V32.888a9.4,9.4,0,0,1-9.4,9.407H9.4A9.4,9.4,0,0,1,0,32.888Z"/>
          <path id="Path_29" data-name="Path 29" class="cls-5" d="M.48.48V32.888A8.911,8.911,0,0,0,9.4,41.806H32.888a8.911,8.911,0,0,0,8.926-8.918V9.4A8.911,8.911,0,0,0,32.888.48H.48M0,0H32.888a9.4,9.4,0,0,1,9.4,9.4V32.888a9.4,9.4,0,0,1-9.4,9.407H9.4A9.4,9.4,0,0,1,0,32.888Z"/>
        </g>
        <g id="Path_22-2" data-name="Path 22" transform="translate(3.99 4.234)">
          <path id="Path_30" data-name="Path 30" class="cls-9" d="M0,0H40.81A11.6,11.6,0,0,1,52.467,11.539V40.391a11.6,11.6,0,0,1-11.66,11.542H11.66A11.6,11.6,0,0,1,0,40.391Z"/>
          <path id="Path_31" data-name="Path 31" class="cls-5" d="M.48.481V40.393a10.892,10.892,0,0,0,.876,4.314,11.02,11.02,0,0,0,2.395,3.515,11.2,11.2,0,0,0,7.906,3.243h29.15a11.2,11.2,0,0,0,7.906-3.243,11.02,11.02,0,0,0,2.4-3.515,10.892,10.892,0,0,0,.879-4.3V11.542a10.892,10.892,0,0,0-.879-4.3,11.02,11.02,0,0,0-2.395-3.515A11.2,11.2,0,0,0,40.807.481H.48M0,0H40.807a11.6,11.6,0,0,1,11.66,11.542V40.393a11.6,11.6,0,0,1-11.66,11.542H11.66A11.6,11.6,0,0,1,0,40.393Z"/>
        </g>
        <g id="Path_23" data-name="Path 23">
          <path id="Path_32" data-name="Path 32" class="cls-9" d="M0,0H46.383A13.227,13.227,0,0,1,59.635,13.2v33A13.227,13.227,0,0,1,46.383,59.4H13.253A13.227,13.227,0,0,1,0,46.2Z"/>
          <path id="Path_33" data-name="Path 33" class="cls-5" d="M.48.48V46.216A12.746,12.746,0,0,0,13.253,58.934h33.13a12.78,12.78,0,0,0,11.77-7.77,12.59,12.59,0,0,0,1-4.951V13.2A12.751,12.751,0,0,0,46.383.48H.48M0,0H46.383A13.227,13.227,0,0,1,59.635,13.2v33A13.227,13.227,0,0,1,46.383,59.4H13.253A13.227,13.227,0,0,1,0,46.2Z"/>
        </g>
      </g>
      <g id="Group_11" data-name="Group 11" transform="translate(64.628)">
        <g id="Group_16" data-name="Group 16">
          <path id="Union_1" data-name="Union 1" class="cls-10" d="M5.483,14.17V11.9H3.209a3.212,3.212,0,1,1,0-6.423H5.483V3.209a3.212,3.212,0,1,1,6.424,0V5.483H14.18a3.212,3.212,0,1,1,0,6.424H11.9V14.18a3.212,3.212,0,1,1-6.423,0Z" transform="translate(0.003 0.003)"/>
        </g>
        <path id="Union_2" data-name="Union 2" class="cls-11" d="M5.483,14.17V11.9H3.209a3.212,3.212,0,1,1,0-6.423H5.483V3.209a3.212,3.212,0,1,1,6.424,0V5.483H14.18a3.212,3.212,0,1,1,0,6.424H11.9V14.18a3.212,3.212,0,1,1-6.423,0Z" transform="translate(1.437 0.481)"/>
      </g>
    </g>
    <text id="Scan_QRCode" data-name="Scan QRCode" class="cls-12" transform="translate(121 457)"><tspan x="0" y="0">Scan QRCode</tspan></text>
  </g>
</svg>
