<svg xmlns="http://www.w3.org/2000/svg" xmlns:xlink="http://www.w3.org/1999/xlink" viewBox="0 0 433 250">
  <defs>
    <style>
      .cls-1 {
        clip-path: url(#clip-Custom_Size_1);
      }

      .cls-2, .cls-3, .cls-5 {
        fill: #fff;
      }

      .cls-2 {
        opacity: 0.091;
      }

      .cls-3 {
        opacity: 0.134;
      }

      .cls-4 {
        opacity: 0.16;
      }

      .cls-6 {
        fill: url(#linear-gradient);
      }
    </style>
    <linearGradient id="linear-gradient" y1="0.015" x2="1" y2="1" gradientUnits="objectBoundingBox">
      <stop offset="0" stop-color="#4ea7fd"/>
      <stop offset="0.505" stop-color="#5e84fe"/>
      <stop offset="1" stop-color="#6e61fc"/>
    </linearGradient>
    <clipPath id="clip-Custom_Size_1">
      <rect width="433" height="250"/>
    </clipPath>
  </defs>
  <g id="Custom_Size_1" data-name="Custom Size – 1" class="cls-1">
    <rect class="cls-6" width="433" height="250"/>
    <path id="Path_2" data-name="Path 2" class="cls-2" d="M50.732,71.115c22.5-4.8-17.656-26.775-15.131-41.152S46.557,12.6,60.833,13.607c10.484.74,24.5-1.139,36.555-3.106C106.47,9.02,118.717,0,126.993,0c54.979,0,27.507,18,56.194,72.05s0,186.163,0,186.163l-76.625-20.029S-13.572,211.179,1.27,170.7c5.046-13.764,32.89-33.362,29.413-48.992C24.069,91.982,14.059,78.94,50.732,71.115Z" transform="translate(112.891 237.243) rotate(133)"/>
    <path id="Path_3" data-name="Path 3" class="cls-2" d="M50.732,71.115c22.5-4.8-17.656-26.775-15.131-41.152S46.557,12.6,60.833,13.607c10.484.74,24.5-1.139,36.555-3.106C106.47,9.02,118.717,0,126.993,0c54.979,0,27.507,18,56.194,72.05s0,186.163,0,186.163l-76.625-20.029S-13.572,211.179,1.27,170.7c5.046-13.764,32.89-33.362,29.413-48.992C24.069,91.982,14.059,78.94,50.732,71.115Z" transform="translate(219.316 6.668) rotate(-70)"/>
    <path id="Path_4" data-name="Path 4" class="cls-2" d="M50.732,71.115c22.5-4.8-17.656-26.775-15.131-41.152S46.557,12.6,60.833,13.607c10.484.74,24.5-1.139,36.555-3.106C106.47,9.02,118.717,0,126.993,0c54.979,0,27.507,18,56.194,72.05s0,186.163,0,186.163l-76.625-20.029S-13.572,211.179,1.27,170.7c5.046-13.764,32.89-33.362,29.413-48.992C24.069,91.982,14.059,78.94,50.732,71.115Z" transform="translate(320.58 364.673) rotate(-70)"/>
    <ellipse id="Ellipse_1" data-name="Ellipse 1" class="cls-3" cx="5.626" cy="5.626" rx="5.626" ry="5.626" transform="translate(98.002 19.462)"/>
    <ellipse id="Ellipse_2" data-name="Ellipse 2" class="cls-3" cx="5.626" cy="5.626" rx="5.626" ry="5.626" transform="translate(49.977 69.143)"/>
    <ellipse id="Ellipse_4" data-name="Ellipse 4" class="cls-3" cx="5.626" cy="5.626" rx="5.626" ry="5.626" transform="translate(336.587 55.809)"/>
    <ellipse id="Ellipse_5" data-name="Ellipse 5" class="cls-3" cx="5.626" cy="5.626" rx="5.626" ry="5.626" transform="translate(323.486 124.915)"/>
    <ellipse id="Ellipse_6" data-name="Ellipse 6" class="cls-3" cx="5.626" cy="5.626" rx="5.626" ry="5.626" transform="translate(69.632 201.031)"/>
    <g id="Group_1" data-name="Group 1" class="cls-4" transform="matrix(0.695, -0.719, 0.719, 0.695, 0.405, 141.174)">
      <rect id="Rectangle_1" data-name="Rectangle 1" class="cls-5" width="6.222" height="15.901" rx="3.111" transform="translate(4.84 0)"/>
      <rect id="Rectangle_2" data-name="Rectangle 2" class="cls-5" width="6.222" height="15.901" rx="3.111" transform="translate(0 11.062) rotate(-90)"/>
    </g>
    <g id="Group_3" data-name="Group 3" class="cls-4" transform="matrix(0.695, -0.719, 0.719, 0.695, 246.734, 50.813)">
      <rect id="Rectangle_1-2" data-name="Rectangle 1" class="cls-5" width="6.222" height="15.901" rx="3.111" transform="translate(4.84 0)"/>
      <rect id="Rectangle_2-2" data-name="Rectangle 2" class="cls-5" width="6.222" height="15.901" rx="3.111" transform="translate(0 11.062) rotate(-90)"/>
    </g>
    <g id="Group_4" data-name="Group 4" class="cls-4" transform="matrix(0.695, -0.719, 0.719, 0.695, 116.014, 125.085)">
      <rect id="Rectangle_1-3" data-name="Rectangle 1" class="cls-5" width="5.146" height="13.15" rx="2.573" transform="translate(4.002 0)"/>
      <rect id="Rectangle_2-3" data-name="Rectangle 2" class="cls-5" width="5.146" height="13.15" rx="2.573" transform="translate(0 9.148) rotate(-90)"/>
    </g>
    <g id="Group_5" data-name="Group 5" class="cls-4" transform="matrix(0.695, -0.719, 0.719, 0.695, 336.98, 212.654)">
      <rect id="Rectangle_1-4" data-name="Rectangle 1" class="cls-5" width="4.635" height="11.845" rx="2.317" transform="translate(3.605 0)"/>
      <rect id="Rectangle_2-4" data-name="Rectangle 2" class="cls-5" width="4.635" height="11.845" rx="2.317" transform="translate(0 8.24) rotate(-90)"/>
    </g>
    <g id="Group_6" data-name="Group 6" class="cls-4" transform="matrix(0.695, -0.719, 0.719, 0.695, 406.102, 132.744)">
      <rect id="Rectangle_1-5" data-name="Rectangle 1" class="cls-5" width="4.135" height="10.568" rx="2.068" transform="translate(3.216 0)"/>
      <rect id="Rectangle_2-5" data-name="Rectangle 2" class="cls-5" width="4.135" height="10.568" rx="2.068" transform="translate(0 7.352) rotate(-90)"/>
    </g>
  </g>
</svg>
