<svg xmlns="http://www.w3.org/2000/svg" xmlns:xlink="http://www.w3.org/1999/xlink" viewBox="0 0 1920 1080">
  <defs>
    <style>
      .cls-1 {
        clip-path: url(#clip-Web_1920_1);
      }

      .cls-10, .cls-11, .cls-2 {
        fill: none;
      }

      .cls-2, .cls-3 {
        opacity: 0.998;
      }

      .cls-3 {
        fill: url(#linear-gradient);
      }

      .cls-4 {
        fill: #5fdcc3;
        opacity: 0.1;
      }

      .cls-5 {
        opacity: 0.123;
      }

      .cls-6 {
        fill: #81b6f0;
      }

      .cls-7, .cls-8 {
        fill: #d6f2f2;
      }

      .cls-7 {
        opacity: 0.157;
      }

      .cls-8 {
        opacity: 0.189;
      }

      .cls-11, .cls-9 {
        opacity: 0.775;
      }

      .cls-12 {
        fill: #6fc3d0;
        opacity: 0.098;
      }

      .cls-13, .cls-14 {
        stroke: none;
      }

      .cls-14, .cls-15 {
        fill: #fff;
      }

      .cls-16 {
        filter: url(#Path_143-2);
      }

      .cls-17 {
        filter: url(#Path_409-2);
      }

      .cls-18 {
        filter: url(#Path_143);
      }

      .cls-19 {
        filter: url(#Path_409);
      }
    </style>
    <filter id="Path_409" x="1592.168" y="-350.328" width="1420.945" height="1592.293" filterUnits="userSpaceOnUse">
      <feOffset dy="3" input="SourceAlpha"/>
      <feGaussianBlur stdDeviation="27.5" result="blur"/>
      <feFlood flood-color="#76cad2" flood-opacity="0.314"/>
      <feComposite operator="in" in2="blur"/>
      <feComposite in="SourceGraphic"/>
    </filter>
    <linearGradient id="linear-gradient" x1="0.058" y1="0.835" x2="0.771" y2="0.49" gradientUnits="objectBoundingBox">
      <stop offset="0" stop-color="#d6f2f2"/>
      <stop offset="0.573" stop-color="#31a5ba"/>
      <stop offset="1" stop-color="#2c6bc9"/>
    </linearGradient>
    <filter id="Path_143" x="1554.785" y="-412.73" width="1536.214" height="1671.251" filterUnits="userSpaceOnUse">
      <feOffset dy="3" input="SourceAlpha"/>
      <feGaussianBlur stdDeviation="27.5" result="blur-2"/>
      <feFlood flood-color="#76cad2" flood-opacity="0.314"/>
      <feComposite operator="in" in2="blur-2"/>
      <feComposite in="SourceGraphic"/>
    </filter>
    <filter id="Path_409-2" x="-1262.657" y="-776.964" width="1955.44" height="2022.233" filterUnits="userSpaceOnUse">
      <feOffset dy="3" input="SourceAlpha"/>
      <feGaussianBlur stdDeviation="27.5" result="blur-3"/>
      <feFlood flood-color="#76cad2" flood-opacity="0.314"/>
      <feComposite operator="in" in2="blur-3"/>
      <feComposite in="SourceGraphic"/>
    </filter>
    <filter id="Path_143-2" x="-1361.031" y="-829.203" width="2094.536" height="2147.174" filterUnits="userSpaceOnUse">
      <feOffset dy="3" input="SourceAlpha"/>
      <feGaussianBlur stdDeviation="27.5" result="blur-4"/>
      <feFlood flood-color="#76cad2" flood-opacity="0.314"/>
      <feComposite operator="in" in2="blur-4"/>
      <feComposite in="SourceGraphic"/>
    </filter>
    <clipPath id="clip-Web_1920_1">
      <rect width="1920" height="1080"/>
    </clipPath>
  </defs>
  <g id="Web_1920_1" data-name="Web 1920 – 1" class="cls-1">
    <rect class="cls-15" width="1920" height="1080"/>
    <g id="Group_193" data-name="Group 193" transform="matrix(0.978, 0.208, -0.208, 0.978, 2486.491, 280.849)">
      <g class="cls-19" transform="matrix(0.98, -0.21, 0.21, 0.98, -2490.55, 242.26)">
        <path id="Path_409-3" data-name="Path 409" class="cls-2" d="M237.3,46.922l887.079-6.669c86.712-.652,156.477,71.487,155.825,161.127l-7.177,986.829c-.652,89.64-71.474,162.836-158.186,163.488,0,0,33.745-112.523,23.267-109.463-44.061,12.868-152.922,199.7-314.519,225.144-11.45,1.8,25.834-11.589-64.679-25.5s-174.475,4.908-309.809-44.525-153.8-91.349-234.665-169.662S73.09,1187.075,48.247,1068.747s63.165-168.013,57.209-298.793-72.044-88.336-81.032-224.33C22.168,511.49,44.65,448.617,46.037,412.752c4.14-107.08-2.492-180.389-2.492-180.389C44.2,142.723,150.59,47.574,237.3,46.922Z" transform="translate(1650.4 -311.08)"/>
      </g>
      <g class="cls-18" transform="matrix(0.98, -0.21, 0.21, 0.98, -2490.55, 242.26)">
        <path id="Path_143-3" data-name="Path 143" class="cls-3" d="M349.088,89.25l887.08-6.669c86.711-.652,156.477,71.487,155.825,161.127l-7.177,986.829c-.652,89.64-71.474,162.836-158.186,163.488,0,0,33.745-112.523,23.267-109.463-44.06,12.868-152.922,199.7-314.519,225.144-11.45,1.8,25.834-11.589-64.679-25.5s-174.475,4.907-309.809-44.525-153.8-91.349-234.665-169.662S184.877,1229.4,160.034,1111.075s12.58-165.207,6.624-295.987S29.9,627.9,20.911,491.907c-2.256-34.134,26.028-93.11,27.415-128.976C52.466,255.852,96.17,248.96,96.17,248.96c.046-6.275-29.291-212.584-28.156-219.455C81.72-53.545,268.447,89.856,349.088,89.25Z" transform="translate(1616.5 -336.85)"/>
      </g>
      <ellipse id="Ellipse_20" data-name="Ellipse 20" class="cls-4" cx="19.721" cy="21.519" rx="19.721" ry="21.519" transform="translate(-182.495 824.495)"/>
      <g id="Group_137" data-name="Group 137" class="cls-5" transform="translate(-308.995 535.362) rotate(21)">
        <path id="Path_284" data-name="Path 284" class="cls-6" d="M6.581,4.19l.021.726L.023.8,0,0Z"/>
        <path id="Path_285" data-name="Path 285" class="cls-6" d="M6.6,4.917.023.8,0,0,6.581,4.19Z" transform="translate(0.045 1.598)"/>
        <path id="Path_286" data-name="Path 286" class="cls-6" d="M0,0,4.642,2.971l.021.726L.023.8Z" transform="translate(2.029 4.416)"/>
        <path id="Path_287" data-name="Path 287" class="cls-6" d="M6.6,4.917.021.726,0,0,6.579,4.118Z" transform="translate(0.181 6.393)"/>
        <path id="Path_288" data-name="Path 288" class="cls-6" d="M0,0,5.679,3.583l.023.8L.023.8Z" transform="translate(1.035 5.33)"/>
        <path id="Path_289" data-name="Path 289" class="cls-6" d="M3.971,3.313.023.8,0,0,3.948,2.514Z" transform="translate(2.856 9.594)"/>
      </g>
      <path id="Path_406" data-name="Path 406" class="cls-7" d="M678.492,34.236c88.594.141,346.581-58.166,408.09.649,71.46,68.331-52.45,436.054-52.288,546.839.084,57.658,26.925,280.585,9.114,327.837-22.039,58.466-187.191,75.7-341.361,85.17s-275.322-47.276-275.322-47.276S289.044,880.582,201.419,770.235c-30.452-38.348-76.762-75.082-76.839-128.005-.061-41.6,14.919-136.1-.335-229.69-8.665-53.162-74.18-129.927-92.937-177.154C-7.288,138.209-10.664,50.016,21.64,20.726,81.844-33.861,593.156,34.1,678.492,34.236Z" transform="translate(-263.246 -415.329) rotate(1)"/>
      <path id="Path_405" data-name="Path 405" class="cls-8" d="M703.846-5c92.27,1.016,388.16,186.652,452.735,246.948C1231.6,312,1105.772,683.966,1106.91,796.4c.592,58.515,30.5,285.02,12.362,332.8-22.441,59.118-194.293,74.976-354.776,83.07s-287.156-50.693-287.156-50.693-143.977-69.224-236.2-182.076c-32.051-39.218-80.6-76.955-81.147-130.665-.427-42.218,14.347-137.974-2.359-233.107-9.489-54.037-78.394-132.589-98.343-180.7-41.048-99-82.838-373.334-49.45-402.741C72.06-22.521,614.969-5.977,703.846-5Z" transform="translate(-439.557 -547.326) rotate(7)"/>
      <g id="Group_173" data-name="Group 173" class="cls-9" transform="matrix(-0.921, 0.391, -0.391, -0.921, -569.434, 176.701)">
        <g id="Path_410" data-name="Path 410" class="cls-10" transform="translate(1.846 25.134)">
          <path class="cls-13" d="M18.667,1.275c9.168-.3,16.359,7.359,16.063,17.1S26.761,36.252,17.593,36.548,1.234,29.189,1.53,19.448,9.5,1.571,18.667,1.275Z"/>
          <path class="cls-14" d="M 19.1815185546875 6.266252517700195 C 19.06468772888184 6.266252517700195 18.94606781005859 6.268173217773438 18.8288688659668 6.27197265625 C 15.72416877746582 6.372404098510742 12.73427772521973 7.785253524780273 10.40996742248535 10.2502326965332 C 8.012937545776367 12.79233360290527 6.634357452392578 16.11303329467773 6.528167724609375 19.60063362121582 C 6.423177719116211 23.04890441894531 7.576337814331055 26.19636344909668 9.775217056274414 28.46321296691895 C 11.71023750305176 30.45805358886719 14.30405807495117 31.5566520690918 17.078857421875 31.5566520690918 C 17.19568824768066 31.5566520690918 17.31430816650391 31.55473327636719 17.4315071105957 31.55093383789062 C 20.53620910644531 31.45050430297852 23.52609825134277 30.03765296936035 25.85040664672852 27.57267379760742 C 28.24743843078613 25.03057289123535 29.62601852416992 21.70987319946289 29.73220825195312 18.2222728729248 C 29.83719825744629 14.77400398254395 28.68403816223145 11.62654304504395 26.48515701293945 9.35969352722168 C 24.55013656616211 7.364852905273438 21.95631790161133 6.266252517700195 19.1815185546875 6.266252517700195 M 19.18152046203613 1.266250610351562 C 28.10292434692383 1.266250610351562 35.02091217041016 8.816379547119141 34.72988891601562 18.37444305419922 C 34.43330764770508 28.11501312255859 26.76093673706055 36.25174331665039 17.59317779541016 36.54832458496094 C 17.42139434814453 36.55387878417969 17.24921417236328 36.55665588378906 17.07885551452637 36.55665588378906 C 8.157449722290039 36.55665588378906 1.239463806152344 29.00652694702148 1.530487060546875 19.44846343994141 C 1.827068328857422 9.707893371582031 9.49943733215332 1.571163177490234 18.66719818115234 1.274581909179688 C 18.83898162841797 1.269027709960938 19.01116180419922 1.266250610351562 19.18152046203613 1.266250610351562 Z"/>
        </g>
        <g id="Path_411" data-name="Path 411" class="cls-10" transform="translate(20.024 1.288)">
          <path class="cls-13" d="M11.031.753C16.448.578,20.7,5.1,20.522,10.858S15.813,21.421,10.4,21.6.729,17.248.9,11.492,5.613.928,11.031.753Z"/>
          <path class="cls-14" d="M 11.33453178405762 5.748237609863281 C 11.28749179840088 5.748237609863281 11.23957252502441 5.749017715454102 11.19229221343994 5.750547409057617 C 8.419241905212402 5.84025764465332 5.996612548828125 8.539338111877441 5.90206241607666 11.64445781707764 C 5.857011795043945 13.12415790557861 6.333742141723633 14.45611763000488 7.244452476501465 15.39498710632324 C 7.77843189239502 15.94546794891357 8.705912590026855 16.60165786743164 10.09206199645996 16.60165786743164 C 10.1391019821167 16.60165786743164 10.18702220916748 16.60087776184082 10.23430252075195 16.5993480682373 C 13.00735187530518 16.5096378326416 15.42997169494629 13.81056785583496 15.52452278137207 10.70544815063477 C 15.56957244873047 9.225737571716309 15.09284210205078 7.893767356872559 14.18212223052979 6.954907417297363 C 13.64815235137939 6.404427528381348 12.72068214416504 5.748237609863281 11.33453178405762 5.748237609863281 M 11.33452796936035 0.7482337951660156 C 16.60626411437988 0.7482337951660156 20.69417762756348 5.209678649902344 20.52220153808594 10.85762786865234 C 20.34695243835449 16.61341857910156 15.81328201293945 21.42147827148438 10.39597225189209 21.59673690795898 C 10.29446315765381 21.60002136230469 10.19273281097412 21.60166168212891 10.09206581115723 21.60166168212891 C 4.820320129394531 21.60166168212891 0.7324066162109375 17.14021682739258 0.9043827056884766 11.49227809906006 C 1.079631805419922 5.736476898193359 5.613302230834961 0.9284172058105469 11.0306224822998 0.7531585693359375 C 11.13213062286377 0.7498741149902344 11.23386096954346 0.7482337951660156 11.33452796936035 0.7482337951660156 Z"/>
        </g>
      </g>
      <g id="Group_177" data-name="Group 177" transform="matrix(-0.985, 0.174, -0.174, -0.985, 84.83, 332.617)">
        <g id="Path_412" data-name="Path 412" class="cls-11" transform="translate(0.486 13.562)">
          <path class="cls-13" d="M17.363.536C26.43.395,33.666,8.258,33.525,18.1S25.919,36.034,16.853,36.175.55,28.452.691,18.611,8.3.677,17.363.536Z"/>
          <path class="cls-14" d="M 17.6033821105957 5.533697128295898 C 17.54971122741699 5.533697128295898 17.49507141113281 5.534128189086914 17.44117164611816 5.534967422485352 C 14.43857192993164 5.581657409667969 11.56703186035156 6.927806854248047 9.355522155761719 9.325418472290039 C 7.042821884155273 11.83274841308594 5.741340637207031 15.15575790405273 5.690811157226562 18.68233680725098 C 5.664260864257812 20.53488731384277 5.982631683349609 22.31087875366211 6.637062072753906 23.96097755432129 C 7.255451202392578 25.52020645141602 8.141481399536133 26.89154815673828 9.270542144775391 28.03690719604492 C 11.26668167114258 30.06184768676758 13.87421226501465 31.17703819274902 16.61280059814453 31.17703819274902 C 16.66647148132324 31.17703819274902 16.72111129760742 31.17660713195801 16.77500152587891 31.17576789855957 C 19.77761077880859 31.12906837463379 22.64915084838867 29.78292846679688 24.86066055297852 27.38530731201172 C 27.17336082458496 24.87798690795898 28.4748420715332 21.55497741699219 28.52537155151367 18.02839851379395 C 28.55192184448242 16.17584800720215 28.23355102539062 14.39985847473145 27.57912063598633 12.74975776672363 C 26.96073150634766 11.19052696228027 26.0747013092041 9.819177627563477 24.94564056396484 8.673828125 C 22.94950103759766 6.648887634277344 20.34197235107422 5.533697128295898 17.6033821105957 5.533697128295898 M 17.6033763885498 0.5336990356445312 C 26.55810165405273 0.5336990356445312 33.66464233398438 8.344936370849609 33.52486038208008 18.10003852844238 C 33.38385009765625 27.9416389465332 25.91949081420898 36.03414916992188 16.85276222229004 36.17516708374023 C 16.77307319641113 36.17640686035156 16.69220733642578 36.17703628540039 16.61280632019043 36.17703628540039 C 7.658090591430664 36.17703628540039 0.5515403747558594 28.36579895019531 0.6913223266601562 18.61069679260254 C 0.8323326110839844 8.769086837768555 8.29669189453125 0.6765785217285156 17.3634204864502 0.5355682373046875 C 17.4431095123291 0.5343284606933594 17.52397537231445 0.5336990356445312 17.6033763885498 0.5336990356445312 Z"/>
        </g>
        <g id="Path_413" data-name="Path 413" class="cls-11" transform="translate(35.145 1.052)">
          <path class="cls-13" d="M10.26.316C15.618.233,19.893,4.88,19.81,10.7s-4.494,10.6-9.852,10.681S.325,16.813.409,11,4.9.4,10.26.316Z"/>
          <path class="cls-14" d="M 10.40199565887451 5.315372467041016 C 10.3807258605957 5.315372467041016 10.359055519104 5.315542221069336 10.33795547485352 5.315872192382812 C 9.129245758056641 5.334663391113281 7.955095291137695 5.896292686462402 7.031795501708984 6.897302627563477 C 6.007295608520508 8.008012771606445 5.430624961853027 9.489502906799316 5.407995223999023 11.06887245178223 C 5.385425567626953 12.64345264434814 5.941895484924316 14.12415313720703 6.934715270996094 15.13129234313965 C 7.495065689086914 15.69973278045654 8.449914932250977 16.37733268737793 9.816655158996582 16.37733268737793 C 9.837924957275391 16.37733268737793 9.85959529876709 16.37716293334961 9.880685806274414 16.37683296203613 C 11.08939552307129 16.3580322265625 12.2635555267334 15.79640197753906 13.18685531616211 14.79540252685547 C 14.21135520935059 13.6846923828125 14.78802490234375 12.20320224761963 14.81065559387207 10.62383270263672 C 14.83322525024414 9.049252510070801 14.27675533294678 7.56855297088623 13.283935546875 6.561412811279297 C 12.72358512878418 5.992972373962402 11.76873588562012 5.315372467041016 10.40199565887451 5.315372467041016 M 10.40199756622314 0.31536865234375 C 15.69341659545898 0.31536865234375 19.89274215698242 4.931095123291016 19.81014633178711 10.69547271728516 C 19.72681617736816 16.51097297668457 15.31606483459473 21.29290199279785 9.95844554901123 21.3762321472168 C 9.911356925964355 21.3769645690918 9.863572120666504 21.3773365020752 9.816653251647949 21.3773365020752 C 4.525234222412109 21.3773365020752 0.3259086608886719 16.76161003112793 0.4085044860839844 10.99723243713379 C 0.4918346405029297 5.181732177734375 4.902585029602051 0.3997917175292969 10.26020526885986 0.3164730072021484 C 10.30729389190674 0.3157405853271484 10.35507869720459 0.31536865234375 10.40199756622314 0.31536865234375 Z"/>
        </g>
      </g>
      <g id="Group_172" data-name="Group 172" class="cls-9" transform="translate(55.597 751.389) rotate(166)">
        <g id="Path_414" data-name="Path 414" class="cls-10" transform="translate(1.252 25.612)">
          <path class="cls-13" d="M17.779.764c9.09-.194,16.3,7.609,16.109,17.427s-7.719,17.934-16.81,18.128S.776,28.71.969,18.892,8.689.958,17.779.764Z"/>
          <path class="cls-14" d="M 18.10951614379883 5.760786056518555 C 18.03509712219238 5.760786056518555 17.95961761474609 5.761585235595703 17.88521766662598 5.763175964355469 C 14.85519790649414 5.827695846557617 11.94974708557129 7.196956634521484 9.704086303710938 9.61872673034668 C 7.364356994628906 12.1419563293457 6.03759765625 15.47034645080566 5.96818733215332 18.99077606201172 C 5.932126998901367 20.81988525390625 6.236207962036133 22.57132720947266 6.871976852416992 24.19643592834473 C 7.471677780151367 25.72933578491211 8.336036682128906 27.07802581787109 9.441066741943359 28.20504570007324 C 11.41227722167969 30.21549606323242 14.00692749023438 31.32270622253418 16.74707794189453 31.32270622253418 C 16.82149696350098 31.32270622253418 16.89697647094727 31.32190704345703 16.97136688232422 31.32031631469727 C 20.00139617919922 31.25579643249512 22.90684700012207 29.88653564453125 25.15250778198242 27.46475601196289 C 27.49223709106445 24.94153594970703 28.81899642944336 21.61314582824707 28.88839721679688 18.09270668029785 C 28.92445755004883 16.26360702514648 28.62038803100586 14.51216697692871 27.9846076965332 12.88705635070801 C 27.38491821289062 11.35416603088379 26.52054595947266 10.0054759979248 25.41552734375 8.878446578979492 C 23.44431686401367 6.867996215820312 20.84965705871582 5.760786056518555 18.10951614379883 5.760786056518555 M 18.1095142364502 0.7607803344726562 C 27.04335403442383 0.7607803344726562 34.07864761352539 8.492317199707031 33.88742828369141 18.1912670135498 C 33.69387817382812 28.00947570800781 26.16794586181641 36.12561798095703 17.07781791687012 36.31918716430664 C 16.96740913391113 36.32153701782227 16.85692405700684 36.32271194458008 16.74707794189453 36.32271194458008 C 7.813230514526367 36.32271194458008 0.7779464721679688 28.5911750793457 0.9691581726074219 18.89222526550293 C 1.162727355957031 9.074016571044922 8.68864631652832 0.9578666687011719 17.77877616882324 0.7643051147460938 C 17.88918495178223 0.7619552612304688 17.99967002868652 0.7607803344726562 18.1095142364502 0.7607803344726562 Z"/>
        </g>
        <g id="Path_415" data-name="Path 415" class="cls-10" transform="translate(29.951 1.237)">
          <path class="cls-13" d="M10.506.452c5.371-.114,9.633,4.5,9.519,10.3s-4.562,10.6-9.933,10.712-9.633-4.5-9.519-10.3S5.134.566,10.506.452Z"/>
          <path class="cls-14" d="M 10.70107555389404 5.449556350708008 C 10.67153549194336 5.449556350708008 10.64182567596436 5.449867248535156 10.61208534240723 5.450506210327148 C 9.380575180053711 5.476726531982422 8.180925369262695 6.053506851196289 7.234095573425293 7.074586868286133 C 6.193195343017578 8.197116851806641 5.602825164794922 9.684287071228027 5.571715354919434 11.26214694976807 C 5.541305541992188 12.80440711975098 6.076245307922363 14.25230693817139 7.039345741271973 15.23458671569824 C 7.588994979858398 15.79517650604248 8.530765533447266 16.46341705322266 9.895995140075684 16.46341705322266 C 9.925535202026367 16.46341705322266 9.955245018005371 16.46310615539551 9.9849853515625 16.46246719360352 C 11.21649551391602 16.43624687194824 12.41615581512451 15.85946655273438 13.36298561096191 14.83838653564453 C 14.40387535095215 13.71585655212402 14.99425506591797 12.22869682312012 15.02535533905029 10.6508264541626 C 15.05576515197754 9.108566284179688 14.52082538604736 7.660666465759277 13.55772590637207 6.678386688232422 C 13.00807571411133 6.117796897888184 12.06630516052246 5.449556350708008 10.70107555389404 5.449556350708008 M 10.70107746124268 0.449554443359375 C 15.98016929626465 0.449554443359375 20.13737678527832 5.018184661865234 20.02438545227051 10.74938678741455 C 19.91001510620117 16.55105590820312 15.46287536621094 21.34695625305176 10.09143543243408 21.46133613586426 C 10.02619361877441 21.46272659301758 9.960901260375977 21.46341896057129 9.895993232727051 21.46341896057129 C 4.616901397705078 21.46341896057129 0.4596939086914062 16.89479064941406 0.5726852416992188 11.16358661651611 C 0.6870651245117188 5.361917495727539 5.134195327758789 0.5660171508789062 10.50563526153564 0.4516372680664062 C 10.57087707519531 0.4502468109130859 10.63616943359375 0.449554443359375 10.70107746124268 0.449554443359375 Z"/>
        </g>
      </g>
      <g id="Group_171" data-name="Group 171" class="cls-9" transform="matrix(-1, -0.017, 0.017, -1, -182.136, 791.468)">
        <g id="Path_422" data-name="Path 422" class="cls-10" transform="translate(-0.089 24.264)">
          <path class="cls-13" d="M16.281-.049c9.042.014,16.384,8.024,16.4,17.89s-7.3,17.853-16.346,17.838S-.051,27.655-.065,17.789,7.239-.064,16.281-.049Z"/>
          <path class="cls-14" d="M 16.25659561157227 4.950681686401367 C 13.49176406860352 4.950681686401367 10.82863426208496 6.092811584472656 8.757795333862305 8.166671752929688 C 7.574924468994141 9.35127067565918 6.640064239501953 10.7684211730957 5.979194641113281 12.37875175476074 C 5.283445358276367 14.07407188415527 4.932075500488281 15.89189147949219 4.934825897216797 17.78173065185547 C 4.945184707641602 24.88356018066406 10.06200408935547 30.6694507598877 16.34035491943359 30.67945098876953 L 16.35750579833984 30.6794605255127 C 19.12233543395996 30.6794605255127 21.78545379638672 29.53733062744141 23.85628509521484 27.46347045898438 C 25.03916549682617 26.27887153625488 25.97402572631836 24.86172103881836 26.63489532470703 23.25139999389648 C 27.33064460754395 21.55607223510742 27.68201446533203 19.73825073242188 27.67926406860352 17.84841156005859 C 27.66890525817871 10.74658203125 22.55209541320801 4.960691452026367 16.27374458312988 4.950691223144531 L 16.25659561157227 4.950681686401367 M 16.2565975189209 -0.04931640625 C 16.26487159729004 -0.04931640625 16.2727165222168 -0.04931259155273438 16.2809944152832 -0.04929733276367188 C 25.3231143951416 -0.03490829467773438 32.66486358642578 7.974910736083984 32.67925643920898 17.84112167358398 C 32.69363021850586 27.69830894470215 25.38817596435547 35.67945861816406 16.35750389099121 35.67945861816406 C 16.34922790527344 35.67945861816406 16.34138298034668 35.6794548034668 16.33310508728027 35.67943954467773 C 7.290975570678711 35.6650505065918 -0.05077362060546875 27.65523147583008 -0.06516647338867188 17.78902053833008 C -0.07954025268554688 7.931833267211914 7.225912094116211 -0.04931640625 16.2565975189209 -0.04931640625 Z"/>
        </g>
        <g id="Path_423" data-name="Path 423" class="cls-10" transform="translate(27.373 -0.083)">
          <path class="cls-13" d="M9.621-.029c5.343.009,9.681,4.742,9.69,10.572S14.994,21.092,9.651,21.083-.03,16.342-.039,10.512,4.278-.038,9.621-.029Z"/>
          <path class="cls-14" d="M 9.606172561645508 4.970857620239258 C 8.21318244934082 4.970857620239258 7.214762687683105 5.677918434143066 6.622482299804688 6.271058082580566 C 5.564522743225098 7.330568313598633 4.959112167358398 8.873558044433594 4.961482048034668 10.50439834594727 C 4.963772773742676 12.07264804840088 5.507272720336914 13.52789878845215 6.491872787475586 14.60208797454834 C 7.36567211151123 15.5554084777832 8.490562438964844 16.08144760131836 9.659322738647461 16.08330917358398 L 9.66466236114502 16.08330917358398 L 9.665802955627441 16.08330917358398 C 11.05879211425781 16.08330917358398 12.05721282958984 15.37625885009766 12.64949226379395 14.78310775756836 C 13.70744228363037 13.72360801696777 14.31285285949707 12.18061828613281 14.31047248840332 10.54976844787598 C 14.30818271636963 8.981528282165527 13.76468276977539 7.526268005371094 12.78008270263672 6.452077865600586 C 11.90627288818359 5.498767852783203 10.78138256072998 4.972728729248047 9.611112594604492 4.970857620239258 L 9.606172561645508 4.970857620239258 M 9.606170654296875 -0.02914237976074219 C 9.611061096191406 -0.02914237976074219 9.615691184997559 -0.02914047241210938 9.620582580566406 -0.02913093566894531 C 14.96365261077881 -0.02062225341796875 19.30196189880371 4.712448120117188 19.31046295166016 10.54247856140137 C 19.3189640045166 16.36717987060547 15.00211334228516 21.08330917358398 9.665801048278809 21.08330917358398 C 9.660911560058594 21.08330917358398 9.656264305114746 21.08330535888672 9.651372909545898 21.08329772949219 C 4.308302879333496 21.07479858398438 -0.03000831604003906 16.34172821044922 -0.03850746154785156 10.51168823242188 C -0.04699897766113281 4.686996459960938 4.269858360290527 -0.02914237976074219 9.606170654296875 -0.02914237976074219 Z"/>
        </g>
      </g>
      <g id="Group_174" data-name="Group 174" class="cls-9" transform="translate(-20.85 -41.017) rotate(-166)">
        <g id="Path_416" data-name="Path 416" class="cls-10" transform="translate(-1.158 23.688)">
          <path class="cls-13" d="M15.332-.6c9.09.194,16.616,8.31,16.81,18.128S25.123,35.146,16.033,34.952-.583,26.642-.776,16.824,6.242-.8,15.332-.6Z"/>
          <path class="cls-14" d="M 15.00144577026367 4.393806457519531 C 12.26163673400879 4.393806457519531 9.667085647583008 5.501096725463867 7.695735931396484 7.511686325073242 C 6.590616226196289 8.63880729675293 5.726175308227539 9.987565994262695 5.126415252685547 11.52048683166504 C 4.490596771240234 13.14555740356445 4.186496734619141 14.8968563079834 4.222555160522461 16.72572708129883 C 4.291965484619141 20.24616622924805 5.61872673034668 23.57455635070801 7.958456039428711 26.09777641296387 C 10.20411491394043 28.51954650878906 13.10956573486328 29.8888053894043 16.13946533203125 29.95332717895508 C 16.21537590026855 29.95494651794434 16.28879547119141 29.95572662353516 16.36390686035156 29.95572662353516 C 19.10371589660645 29.95572662353516 21.69825553894043 28.84844589233398 23.66960525512695 26.83785629272461 C 24.77471542358398 25.71073532104492 25.6391658782959 24.36198616027832 26.23891639709473 22.82906723022461 C 26.87473678588867 21.20398712158203 27.17883682250977 19.45268630981445 27.14277648925781 17.6237964630127 C 27.0733757019043 14.10336685180664 25.74660491943359 10.77497673034668 23.40687561035156 8.25175666809082 C 21.16121673583984 5.829977035522461 18.25576591491699 4.460716247558594 15.22586631774902 4.396196365356445 C 15.15026664733887 4.394586563110352 15.07685661315918 4.393806457519531 15.00144577026367 4.393806457519531 M 15.0014476776123 -0.6061973571777344 C 15.11184120178223 -0.6061973571777344 15.22122192382812 -0.6050376892089844 15.33218574523926 -0.6026725769042969 C 24.42231559753418 -0.4091033935546875 31.94824600219727 7.707036972045898 32.14180755615234 17.52524566650391 C 32.33300399780273 27.22360610961914 25.29696273803711 34.95572280883789 16.36390113830566 34.95572280883789 C 16.25350761413574 34.95572280883789 16.14410972595215 34.95455932617188 16.03314590454102 34.95219802856445 C 6.943016052246094 34.75863647460938 -0.5829048156738281 26.64249610900879 -0.7764759063720703 16.82428741455078 C -0.9676723480224609 7.125938415527344 6.068386077880859 -0.6061973571777344 15.0014476776123 -0.6061973571777344 Z"/>
        </g>
        <g id="Path_417" data-name="Path 417" class="cls-10" transform="translate(14.362 -0.593)">
          <path class="cls-13" d="M9.06-.356c5.371.114,9.819,4.91,9.933,10.712s-4.147,10.412-9.519,10.3S-.344,15.743-.459,9.942,3.688-.471,9.06-.356Z"/>
          <path class="cls-14" d="M 8.864487648010254 4.641796112060547 C 7.499507904052734 4.641796112060547 6.557718276977539 5.31010627746582 6.008017539978027 5.870756149291992 C 5.044807434082031 6.853146553039551 4.509807586669922 8.301006317138672 4.540207862854004 9.843066215515137 C 4.571317672729492 11.42092609405518 5.161687850952148 12.90809631347656 6.202588081359863 14.03062629699707 C 7.149417877197266 15.05170631408691 8.349067687988281 15.62848663330078 9.58085823059082 15.65471649169922 C 9.610617637634277 15.65534591674805 9.639957427978516 15.6556568145752 9.669568061828613 15.6556568145752 C 11.03454780578613 15.6556568145752 11.97633743286133 14.98734664916992 12.52603721618652 14.42669677734375 C 13.48924827575684 13.44430637359619 14.02424812316895 11.99644660949707 13.99384784698486 10.45437622070312 C 13.96274757385254 8.876516342163086 13.37236785888672 7.38935661315918 12.33147811889648 6.266826629638672 C 11.38464736938477 5.245746612548828 10.18498802185059 4.668966293334961 8.953197479248047 4.642736434936523 C 8.92343807220459 4.642106056213379 8.894098281860352 4.641796112060547 8.864487648010254 4.641796112060547 M 8.864485740661621 -0.3582057952880859 C 8.929718017578125 -0.3582057952880859 8.994358062744141 -0.3575191497802734 9.059927940368652 -0.3561229705810547 C 14.43136787414551 -0.2417430877685547 18.87850761413574 4.554156303405762 18.99287796020508 10.35582637786865 C 19.10586166381836 16.0866756439209 14.94819736480713 20.65565872192383 9.669569969177246 20.65565872192383 C 9.604337692260742 20.65565872192383 9.539697647094727 20.65497207641602 9.474127769470215 20.6535758972168 C 4.102687835693359 20.5391960144043 -0.3444423675537109 15.74329662322998 -0.4588222503662109 9.94162654876709 C -0.5718059539794922 4.210777282714844 3.585858345031738 -0.3582057952880859 8.864485740661621 -0.3582057952880859 Z"/>
        </g>
      </g>
      <g id="Group_175" data-name="Group 175" class="cls-9" transform="translate(-704.82 -5.093) rotate(149)">
        <g id="Path_418" data-name="Path 418" class="cls-10" transform="translate(2.222 25.213)">
          <path class="cls-13" d="M19.317,1.673c9.261-.364,16.473,7.162,16.109,16.81S27.259,36.247,18,36.611,1.526,29.449,1.89,19.8,10.056,2.037,19.317,1.673Z"/>
          <path class="cls-14" d="M 19.95990180969238 6.660362243652344 C 19.81220245361328 6.660362243652344 19.66197204589844 6.663322448730469 19.51328277587891 6.669172286987305 C 16.33215141296387 6.794221878051758 13.26319122314453 8.233102798461914 10.87173271179199 10.72076225280762 C 8.431482315063477 13.25916290283203 7.016111373901367 16.55085182189941 6.886362075805664 19.98947143554688 C 6.761442184448242 23.3001708984375 7.853862762451172 26.32932281494141 9.962392807006836 28.51891326904297 C 11.89013290405273 30.520751953125 14.5157413482666 31.62322235107422 17.35556221008301 31.62322235107422 C 17.50326156616211 31.62322235107422 17.65349197387695 31.62026214599609 17.80218124389648 31.61441230773926 C 20.98331260681152 31.4893627166748 24.05227279663086 30.05047225952148 26.44374084472656 27.56282234191895 C 28.88398170471191 25.02442169189453 30.29935264587402 21.73273277282715 30.42910194396973 18.29411315917969 C 30.55402183532715 14.98341178894043 29.46160125732422 11.95426177978516 27.35307312011719 9.764673233032227 C 25.42533111572266 7.762832641601562 22.79972076416016 6.660362243652344 19.95990180969238 6.660362243652344 M 19.95990562438965 1.660362243652344 C 28.90918731689453 1.660362243652344 35.7811164855957 9.05926513671875 35.42554092407227 18.48264312744141 C 35.06150054931641 28.13037109375 27.25918197631836 36.24651336669922 17.99858283996582 36.61055374145508 C 17.78323173522949 36.6190185546875 17.56862449645996 36.62322235107422 17.35555839538574 36.62322235107422 C 8.406276702880859 36.62322235107422 1.534347534179688 29.22431945800781 1.889923095703125 19.80094146728516 C 2.253963470458984 10.15321159362793 10.05628204345703 2.037063598632812 19.31688117980957 1.673030853271484 C 19.5322322845459 1.664566040039062 19.74683952331543 1.660362243652344 19.95990562438965 1.660362243652344 Z"/>
        </g>
        <g id="Path_419" data-name="Path 419" class="cls-10" transform="translate(20.931 1.687)">
          <path class="cls-13" d="M11.415.989c5.472-.215,9.734,4.232,9.519,9.933a11.116,11.116,0,0,1-10.3,10.712C5.163,21.849.9,17.4,1.117,11.7A11.116,11.116,0,0,1,11.415.989Z"/>
          <path class="cls-14" d="M 11.79448318481445 5.981119155883789 C 11.7340030670166 5.981119155883789 11.67221355438232 5.982339859008789 11.61092376708984 5.984748840332031 C 8.747373580932617 6.097318649291992 6.229733467102051 8.801169395446777 6.113213539123535 11.88908863067627 C 6.060553550720215 13.28481864929199 6.503423690795898 14.54349899291992 7.360243797302246 15.43325901031494 C 7.890813827514648 15.98422908782959 8.823803901672363 16.64099884033203 10.25556373596191 16.64099884033203 C 10.31604385375977 16.64099884033203 10.37783336639404 16.63977813720703 10.43912315368652 16.63736915588379 C 13.30267333984375 16.52479934692383 15.82031345367432 13.82094860076904 15.93683338165283 10.73302936553955 C 15.98949337005615 9.337299346923828 15.54662322998047 8.078619003295898 14.68980407714844 7.188858985900879 C 14.15923309326172 6.63788890838623 13.226243019104 5.981119155883789 11.79448318481445 5.981119155883789 M 11.79448413848877 0.9811229705810547 C 17.08269691467285 0.9811229705810547 21.14338111877441 5.353200912475586 20.93327331542969 10.92155933380127 C 20.71816253662109 16.62248992919922 16.10770416259766 21.41839981079102 10.63552379608154 21.63350868225098 C 10.50827121734619 21.63851165771484 10.38146495819092 21.64099502563477 10.2555627822876 21.64099502563477 C 4.96735954284668 21.64099502563477 0.9066658020019531 17.26891708374023 1.11677360534668 11.70055866241455 C 1.331884384155273 5.999618530273438 5.942342758178711 1.203718185424805 11.41452312469482 0.9886093139648438 C 11.54177570343018 0.9836063385009766 11.66858291625977 0.9811229705810547 11.79448413848877 0.9811229705810547 Z"/>
        </g>
      </g>
      <g id="Group_176" data-name="Group 176" class="cls-9" transform="matrix(-0.985, -0.174, 0.174, -0.985, -48.697, 157.629)">
        <g id="Path_420" data-name="Path 420" class="cls-10" transform="translate(-0.856 23.888)">
          <path class="cls-13" d="M15.573-.45C24.64-.309,32.1,7.783,32.245,17.625S25.151,35.33,16.084,35.189-.447,26.956-.588,17.114,6.506-.591,15.573-.45Z"/>
          <path class="cls-14" d="M 15.33321189880371 4.54798698425293 C 12.5949535369873 4.54798698425293 9.987533569335938 5.663248062133789 7.991252899169922 7.688337326049805 C 6.862102508544922 8.83378791809082 5.975982666015625 10.20518684387207 5.357532501220703 11.76444816589355 C 4.703062057495117 13.41450691223145 4.384672164916992 15.19036674499512 4.411212921142578 17.04268836975098 C 4.461742401123047 20.56925773620605 5.763233184814453 23.89227676391602 8.075933456420898 26.39959716796875 C 10.28744316101074 28.79721832275391 13.15898323059082 30.14335823059082 16.16171264648438 30.19006729125977 C 16.21591186523438 30.1909065246582 16.26978302001953 30.19132804870605 16.32379150390625 30.19132804870605 C 19.06204223632812 30.19132804870605 21.66947174072266 29.0760669708252 23.66574287414551 27.05097770690918 C 24.79490280151367 25.90552711486816 25.6810131072998 24.53412628173828 26.29947280883789 22.97486877441406 C 26.95394325256348 21.32480621337891 27.27232360839844 19.54894638061523 27.24578285217285 17.69661712646484 C 27.19525146484375 14.17004776000977 25.89377212524414 10.84703826904297 23.58107376098633 8.33970832824707 C 21.36956405639648 5.942096710205078 18.49802398681641 4.595947265625 15.49529266357422 4.549247741699219 C 15.44109344482422 4.548406600952148 15.3872127532959 4.54798698425293 15.33321189880371 4.54798698425293 M 15.33321762084961 -0.4520111083984375 C 15.41316795349121 -0.4520111083984375 15.4929313659668 -0.4513893127441406 15.57317352294922 -0.4501419067382812 C 24.63990211486816 -0.3091316223144531 32.10426330566406 7.783376693725586 32.24527359008789 17.62498664855957 C 32.38504409790039 27.37948799133301 25.27772521972656 35.19132614135742 16.32378768920898 35.19132614135742 C 16.24383735656738 35.19132614135742 16.1640739440918 35.19070434570312 16.08383178710938 35.18945693969727 C 7.017091751098633 35.04843902587891 -0.4472579956054688 26.9559268951416 -0.5882759094238281 17.11432838439941 C -0.7280387878417969 7.359817504882812 6.379280090332031 -0.4520111083984375 15.33321762084961 -0.4520111083984375 Z"/>
        </g>
        <g id="Path_421" data-name="Path 421" class="cls-10" transform="translate(14.868 -0.445)">
          <path class="cls-13" d="M9.2-.266c5.358.083,9.768,4.865,9.852,10.681S14.862,20.877,9.5,20.794-.264,15.929-.348,10.113,3.845-.349,9.2-.266Z"/>
          <path class="cls-14" d="M 9.060535430908203 4.732908248901367 C 7.694055557250977 4.732908248901367 6.739185333251953 5.410578727722168 6.17878532409668 5.979068756103516 C 5.185855865478516 6.986328125 4.629315376281738 8.466988563537598 4.651875495910645 10.04136848449707 C 4.674505233764648 11.62073802947998 5.251175880432129 13.10222816467285 6.275675773620605 14.21293830871582 C 7.198975563049316 15.21393775939941 8.373135566711426 15.77556800842285 9.58210563659668 15.79437828063965 C 9.603425979614258 15.79470825195312 9.624625205993652 15.79486846923828 9.645875930786133 15.79486846923828 C 11.01235580444336 15.79486846923828 11.96722602844238 15.1171989440918 12.52762603759766 14.54870796203613 C 13.52055549621582 13.54144859313965 14.07709503173828 12.06078815460205 14.05453586578369 10.48640823364258 C 14.03190612792969 8.907038688659668 13.45522499084473 7.425548553466797 12.43073558807373 6.314838409423828 C 11.50743579864502 5.313828468322754 10.33328533172607 4.752198219299316 9.124305725097656 4.7333984375 C 9.102985382080078 4.733068466186523 9.081786155700684 4.732908248901367 9.060535430908203 4.732908248901367 M 9.06053352355957 -0.2670955657958984 C 9.10777759552002 -0.2670955657958984 9.154910087585449 -0.2667293548583984 9.202325820922852 -0.2659912109375 C 14.55994606018066 -0.1826725006103516 18.97069549560547 4.599278450012207 19.05402565002441 10.41476821899414 C 19.13661766052246 16.17879104614258 14.93683624267578 20.79487228393555 9.645877838134766 20.79487228393555 C 9.598633766174316 20.79487228393555 9.551501274108887 20.79450607299805 9.504085540771484 20.79376792907715 C 4.146465301513672 20.7104377746582 -0.2642841339111328 15.92850875854492 -0.3476142883300781 10.11300849914551 C -0.430206298828125 4.34898567199707 3.769575119018555 -0.2670955657958984 9.06053352355957 -0.2670955657958984 Z"/>
        </g>
      </g>
      <ellipse id="Ellipse_59" data-name="Ellipse 59" class="cls-12" cx="29.395" cy="32.075" rx="29.395" ry="32.075" transform="translate(-729.688 774.149)"/>
      <ellipse id="Ellipse_61" data-name="Ellipse 61" class="cls-12" cx="41.301" cy="45.068" rx="41.301" ry="45.068" transform="translate(-795.175 296.85)"/>
    </g>
    <g id="Group_194" data-name="Group 194" transform="translate(-524.261 283.682) rotate(-139)">
      <g class="cls-17" transform="matrix(-0.75, 0.66, -0.66, -0.75, -209.55, 558.04)">
        <path id="Path_409-4" data-name="Path 409" class="cls-2" d="M237.3,46.922l887.079-6.669c86.712-.652,156.477,71.487,155.825,161.127l-7.177,986.829c-.652,89.64-71.474,162.836-158.186,163.488,0,0,33.745-112.523,23.267-109.463-44.061,12.868-152.922,199.7-314.519,225.144-11.45,1.8,25.834-11.589-64.679-25.5s-174.475,4.908-309.809-44.525-153.8-91.349-234.665-169.662S73.09,1187.075,48.247,1068.747s63.165-168.013,57.209-298.793-72.044-88.336-81.032-224.33C22.168,511.49,44.65,448.617,46.037,412.752c4.14-107.08-2.492-180.389-2.492-180.389C44.2,142.723,150.59,47.574,237.3,46.922Z" transform="translate(-79.97 1206.74) rotate(-151)"/>
      </g>
      <g class="cls-16" transform="matrix(-0.75, 0.66, -0.66, -0.75, -209.55, 558.04)">
        <path id="Path_143-4" data-name="Path 143" class="cls-3" d="M349.088,89.25l887.08-6.669c86.711-.652,156.477,71.487,155.825,161.127l-7.177,986.829c-.652,89.64-71.474,162.836-158.186,163.488,0,0,33.745-112.523,23.267-109.463-44.06,12.868-152.922,199.7-314.519,225.144-11.45,1.8,25.834-11.589-64.679-25.5s-174.475,4.907-309.809-44.525-153.8-91.349-234.665-169.662S184.877,1229.4,160.034,1111.075s12.58-165.207,6.624-295.987S29.9,627.9,20.911,491.907c-2.256-34.134,26.028-93.11,27.415-128.976C52.466,255.852,96.17,248.96,96.17,248.96c.046-6.275-29.291-212.584-28.156-219.455C81.72-53.545,268.447,89.856,349.088,89.25Z" transform="translate(-62.82 1245.71) rotate(-151)"/>
      </g>
      <ellipse id="Ellipse_20-2" data-name="Ellipse 20" class="cls-4" cx="19.721" cy="21.519" rx="19.721" ry="21.519" transform="translate(-182.495 824.495)"/>
      <g id="Group_137-2" data-name="Group 137" class="cls-5" transform="translate(-308.995 535.362) rotate(21)">
        <path id="Path_284-2" data-name="Path 284" class="cls-6" d="M6.581,4.19l.021.726L.023.8,0,0Z"/>
        <path id="Path_285-2" data-name="Path 285" class="cls-6" d="M6.6,4.917.023.8,0,0,6.581,4.19Z" transform="translate(0.045 1.598)"/>
        <path id="Path_286-2" data-name="Path 286" class="cls-6" d="M0,0,4.642,2.971l.021.726L.023.8Z" transform="translate(2.029 4.416)"/>
        <path id="Path_287-2" data-name="Path 287" class="cls-6" d="M6.6,4.917.021.726,0,0,6.579,4.118Z" transform="translate(0.181 6.393)"/>
        <path id="Path_288-2" data-name="Path 288" class="cls-6" d="M0,0,5.679,3.583l.023.8L.023.8Z" transform="translate(1.035 5.33)"/>
        <path id="Path_289-2" data-name="Path 289" class="cls-6" d="M3.971,3.313.023.8,0,0,3.948,2.514Z" transform="translate(2.856 9.594)"/>
      </g>
      <path id="Path_406-2" data-name="Path 406" class="cls-7" d="M678.492,34.236c88.594.141,346.581-58.166,408.09.649,71.46,68.331-52.45,436.054-52.288,546.839.084,57.658,26.925,280.585,9.114,327.837-22.039,58.466-187.191,75.7-341.361,85.17s-275.322-47.276-275.322-47.276S289.044,880.582,201.419,770.235c-30.452-38.348-76.762-75.082-76.839-128.005-.061-41.6,14.919-136.1-.335-229.69-8.665-53.162-74.18-129.927-92.937-177.154C-7.288,138.209-10.664,50.016,21.64,20.726,81.844-33.861,593.156,34.1,678.492,34.236Z" transform="translate(-263.246 -415.329) rotate(1)"/>
      <path id="Path_405-2" data-name="Path 405" class="cls-8" d="M703.846-5c92.27,1.016,388.16,186.652,452.735,246.948C1231.6,312,1105.772,683.966,1106.91,796.4c.592,58.515,30.5,285.02,12.362,332.8-22.441,59.118-194.293,74.976-354.776,83.07s-287.156-50.693-287.156-50.693-143.977-69.224-236.2-182.076c-32.051-39.218-80.6-76.955-81.147-130.665-.427-42.218,14.347-137.974-2.359-233.107-9.489-54.037-78.394-132.589-98.343-180.7-41.048-99-82.838-373.334-49.45-402.741C72.06-22.521,614.969-5.977,703.846-5Z" transform="translate(-525.091 -540.548) rotate(7)"/>
      <g id="Group_173-2" data-name="Group 173" class="cls-9" transform="matrix(-0.921, 0.391, -0.391, -0.921, -569.434, 176.701)">
        <g id="Path_410-2" data-name="Path 410" class="cls-10" transform="translate(1.846 25.134)">
          <path class="cls-13" d="M18.667,1.275c9.168-.3,16.359,7.359,16.063,17.1S26.761,36.252,17.593,36.548,1.234,29.189,1.53,19.448,9.5,1.571,18.667,1.275Z"/>
          <path class="cls-14" d="M 19.1815185546875 6.266252517700195 C 19.06468772888184 6.266252517700195 18.94606781005859 6.268173217773438 18.8288688659668 6.27197265625 C 15.72416877746582 6.372404098510742 12.73427772521973 7.785253524780273 10.40996742248535 10.2502326965332 C 8.012937545776367 12.79233360290527 6.634357452392578 16.11303329467773 6.528167724609375 19.60063362121582 C 6.423177719116211 23.04890441894531 7.576337814331055 26.19636344909668 9.775217056274414 28.46321296691895 C 11.71023750305176 30.45805358886719 14.30405807495117 31.5566520690918 17.078857421875 31.5566520690918 C 17.19568824768066 31.5566520690918 17.31430816650391 31.55473327636719 17.4315071105957 31.55093383789062 C 20.53620910644531 31.45050430297852 23.52609825134277 30.03765296936035 25.85040664672852 27.57267379760742 C 28.24743843078613 25.03057289123535 29.62601852416992 21.70987319946289 29.73220825195312 18.2222728729248 C 29.83719825744629 14.77400398254395 28.68403816223145 11.62654304504395 26.48515701293945 9.35969352722168 C 24.55013656616211 7.364852905273438 21.95631790161133 6.266252517700195 19.1815185546875 6.266252517700195 M 19.18152046203613 1.266250610351562 C 28.10292434692383 1.266250610351562 35.02091217041016 8.816379547119141 34.72988891601562 18.37444305419922 C 34.43330764770508 28.11501312255859 26.76093673706055 36.25174331665039 17.59317779541016 36.54832458496094 C 17.42139434814453 36.55387878417969 17.24921417236328 36.55665588378906 17.07885551452637 36.55665588378906 C 8.157449722290039 36.55665588378906 1.239463806152344 29.00652694702148 1.530487060546875 19.44846343994141 C 1.827068328857422 9.707893371582031 9.49943733215332 1.571163177490234 18.66719818115234 1.274581909179688 C 18.83898162841797 1.269027709960938 19.01116180419922 1.266250610351562 19.18152046203613 1.266250610351562 Z"/>
        </g>
        <g id="Path_411-2" data-name="Path 411" class="cls-10" transform="translate(20.024 1.288)">
          <path class="cls-13" d="M11.031.753C16.448.578,20.7,5.1,20.522,10.858S15.813,21.421,10.4,21.6.729,17.248.9,11.492,5.613.928,11.031.753Z"/>
          <path class="cls-14" d="M 11.33453178405762 5.748237609863281 C 11.28749179840088 5.748237609863281 11.23957252502441 5.749017715454102 11.19229221343994 5.750547409057617 C 8.419241905212402 5.84025764465332 5.996612548828125 8.539338111877441 5.90206241607666 11.64445781707764 C 5.857011795043945 13.12415790557861 6.333742141723633 14.45611763000488 7.244452476501465 15.39498710632324 C 7.77843189239502 15.94546794891357 8.705912590026855 16.60165786743164 10.09206199645996 16.60165786743164 C 10.1391019821167 16.60165786743164 10.18702220916748 16.60087776184082 10.23430252075195 16.5993480682373 C 13.00735187530518 16.5096378326416 15.42997169494629 13.81056785583496 15.52452278137207 10.70544815063477 C 15.56957244873047 9.225737571716309 15.09284210205078 7.893767356872559 14.18212223052979 6.954907417297363 C 13.64815235137939 6.404427528381348 12.72068214416504 5.748237609863281 11.33453178405762 5.748237609863281 M 11.33452796936035 0.7482337951660156 C 16.60626411437988 0.7482337951660156 20.69417762756348 5.209678649902344 20.52220153808594 10.85762786865234 C 20.34695243835449 16.61341857910156 15.81328201293945 21.42147827148438 10.39597225189209 21.59673690795898 C 10.29446315765381 21.60002136230469 10.19273281097412 21.60166168212891 10.09206581115723 21.60166168212891 C 4.820320129394531 21.60166168212891 0.7324066162109375 17.14021682739258 0.9043827056884766 11.49227809906006 C 1.079631805419922 5.736476898193359 5.613302230834961 0.9284172058105469 11.0306224822998 0.7531585693359375 C 11.13213062286377 0.7498741149902344 11.23386096954346 0.7482337951660156 11.33452796936035 0.7482337951660156 Z"/>
        </g>
      </g>
      <g id="Group_177-2" data-name="Group 177" transform="matrix(-0.985, 0.174, -0.174, -0.985, 84.83, 332.617)">
        <g id="Path_412-2" data-name="Path 412" class="cls-11" transform="translate(0.486 13.562)">
          <path class="cls-13" d="M17.363.536C26.43.395,33.666,8.258,33.525,18.1S25.919,36.034,16.853,36.175.55,28.452.691,18.611,8.3.677,17.363.536Z"/>
          <path class="cls-14" d="M 17.6033821105957 5.533697128295898 C 17.54971122741699 5.533697128295898 17.49507141113281 5.534128189086914 17.44117164611816 5.534967422485352 C 14.43857192993164 5.581657409667969 11.56703186035156 6.927806854248047 9.355522155761719 9.325418472290039 C 7.042821884155273 11.83274841308594 5.741340637207031 15.15575790405273 5.690811157226562 18.68233680725098 C 5.664260864257812 20.53488731384277 5.982631683349609 22.31087875366211 6.637062072753906 23.96097755432129 C 7.255451202392578 25.52020645141602 8.141481399536133 26.89154815673828 9.270542144775391 28.03690719604492 C 11.26668167114258 30.06184768676758 13.87421226501465 31.17703819274902 16.61280059814453 31.17703819274902 C 16.66647148132324 31.17703819274902 16.72111129760742 31.17660713195801 16.77500152587891 31.17576789855957 C 19.77761077880859 31.12906837463379 22.64915084838867 29.78292846679688 24.86066055297852 27.38530731201172 C 27.17336082458496 24.87798690795898 28.4748420715332 21.55497741699219 28.52537155151367 18.02839851379395 C 28.55192184448242 16.17584800720215 28.23355102539062 14.39985847473145 27.57912063598633 12.74975776672363 C 26.96073150634766 11.19052696228027 26.0747013092041 9.819177627563477 24.94564056396484 8.673828125 C 22.94950103759766 6.648887634277344 20.34197235107422 5.533697128295898 17.6033821105957 5.533697128295898 M 17.6033763885498 0.5336990356445312 C 26.55810165405273 0.5336990356445312 33.66464233398438 8.344936370849609 33.52486038208008 18.10003852844238 C 33.38385009765625 27.9416389465332 25.91949081420898 36.03414916992188 16.85276222229004 36.17516708374023 C 16.77307319641113 36.17640686035156 16.69220733642578 36.17703628540039 16.61280632019043 36.17703628540039 C 7.658090591430664 36.17703628540039 0.5515403747558594 28.36579895019531 0.6913223266601562 18.61069679260254 C 0.8323326110839844 8.769086837768555 8.29669189453125 0.6765785217285156 17.3634204864502 0.5355682373046875 C 17.4431095123291 0.5343284606933594 17.52397537231445 0.5336990356445312 17.6033763885498 0.5336990356445312 Z"/>
        </g>
        <g id="Path_413-2" data-name="Path 413" class="cls-11" transform="translate(35.145 1.052)">
          <path class="cls-13" d="M10.26.316C15.618.233,19.893,4.88,19.81,10.7s-4.494,10.6-9.852,10.681S.325,16.813.409,11,4.9.4,10.26.316Z"/>
          <path class="cls-14" d="M 10.40199565887451 5.315372467041016 C 10.3807258605957 5.315372467041016 10.359055519104 5.315542221069336 10.33795547485352 5.315872192382812 C 9.129245758056641 5.334663391113281 7.955095291137695 5.896292686462402 7.031795501708984 6.897302627563477 C 6.007295608520508 8.008012771606445 5.430624961853027 9.489502906799316 5.407995223999023 11.06887245178223 C 5.385425567626953 12.64345264434814 5.941895484924316 14.12415313720703 6.934715270996094 15.13129234313965 C 7.495065689086914 15.69973278045654 8.449914932250977 16.37733268737793 9.816655158996582 16.37733268737793 C 9.837924957275391 16.37733268737793 9.85959529876709 16.37716293334961 9.880685806274414 16.37683296203613 C 11.08939552307129 16.3580322265625 12.2635555267334 15.79640197753906 13.18685531616211 14.79540252685547 C 14.21135520935059 13.6846923828125 14.78802490234375 12.20320224761963 14.81065559387207 10.62383270263672 C 14.83322525024414 9.049252510070801 14.27675533294678 7.56855297088623 13.283935546875 6.561412811279297 C 12.72358512878418 5.992972373962402 11.76873588562012 5.315372467041016 10.40199565887451 5.315372467041016 M 10.40199756622314 0.31536865234375 C 15.69341659545898 0.31536865234375 19.89274215698242 4.931095123291016 19.81014633178711 10.69547271728516 C 19.72681617736816 16.51097297668457 15.31606483459473 21.29290199279785 9.95844554901123 21.3762321472168 C 9.911356925964355 21.3769645690918 9.863572120666504 21.3773365020752 9.816653251647949 21.3773365020752 C 4.525234222412109 21.3773365020752 0.3259086608886719 16.76161003112793 0.4085044860839844 10.99723243713379 C 0.4918346405029297 5.181732177734375 4.902585029602051 0.3997917175292969 10.26020526885986 0.3164730072021484 C 10.30729389190674 0.3157405853271484 10.35507869720459 0.31536865234375 10.40199756622314 0.31536865234375 Z"/>
        </g>
      </g>
      <g id="Group_172-2" data-name="Group 172" class="cls-9" transform="translate(55.597 751.389) rotate(166)">
        <g id="Path_414-2" data-name="Path 414" class="cls-10" transform="translate(1.252 25.612)">
          <path class="cls-13" d="M17.779.764c9.09-.194,16.3,7.609,16.109,17.427s-7.719,17.934-16.81,18.128S.776,28.71.969,18.892,8.689.958,17.779.764Z"/>
          <path class="cls-14" d="M 18.10951614379883 5.760786056518555 C 18.03509712219238 5.760786056518555 17.95961761474609 5.761585235595703 17.88521766662598 5.763175964355469 C 14.85519790649414 5.827695846557617 11.94974708557129 7.196956634521484 9.704086303710938 9.61872673034668 C 7.364356994628906 12.1419563293457 6.03759765625 15.47034645080566 5.96818733215332 18.99077606201172 C 5.932126998901367 20.81988525390625 6.236207962036133 22.57132720947266 6.871976852416992 24.19643592834473 C 7.471677780151367 25.72933578491211 8.336036682128906 27.07802581787109 9.441066741943359 28.20504570007324 C 11.41227722167969 30.21549606323242 14.00692749023438 31.32270622253418 16.74707794189453 31.32270622253418 C 16.82149696350098 31.32270622253418 16.89697647094727 31.32190704345703 16.97136688232422 31.32031631469727 C 20.00139617919922 31.25579643249512 22.90684700012207 29.88653564453125 25.15250778198242 27.46475601196289 C 27.49223709106445 24.94153594970703 28.81899642944336 21.61314582824707 28.88839721679688 18.09270668029785 C 28.92445755004883 16.26360702514648 28.62038803100586 14.51216697692871 27.9846076965332 12.88705635070801 C 27.38491821289062 11.35416603088379 26.52054595947266 10.0054759979248 25.41552734375 8.878446578979492 C 23.44431686401367 6.867996215820312 20.84965705871582 5.760786056518555 18.10951614379883 5.760786056518555 M 18.1095142364502 0.7607803344726562 C 27.04335403442383 0.7607803344726562 34.07864761352539 8.492317199707031 33.88742828369141 18.1912670135498 C 33.69387817382812 28.00947570800781 26.16794586181641 36.12561798095703 17.07781791687012 36.31918716430664 C 16.96740913391113 36.32153701782227 16.85692405700684 36.32271194458008 16.74707794189453 36.32271194458008 C 7.813230514526367 36.32271194458008 0.7779464721679688 28.5911750793457 0.9691581726074219 18.89222526550293 C 1.162727355957031 9.074016571044922 8.68864631652832 0.9578666687011719 17.77877616882324 0.7643051147460938 C 17.88918495178223 0.7619552612304688 17.99967002868652 0.7607803344726562 18.1095142364502 0.7607803344726562 Z"/>
        </g>
        <g id="Path_415-2" data-name="Path 415" class="cls-10" transform="translate(29.951 1.237)">
          <path class="cls-13" d="M10.506.452c5.371-.114,9.633,4.5,9.519,10.3s-4.562,10.6-9.933,10.712-9.633-4.5-9.519-10.3S5.134.566,10.506.452Z"/>
          <path class="cls-14" d="M 10.70107555389404 5.449556350708008 C 10.67153549194336 5.449556350708008 10.64182567596436 5.449867248535156 10.61208534240723 5.450506210327148 C 9.380575180053711 5.476726531982422 8.180925369262695 6.053506851196289 7.234095573425293 7.074586868286133 C 6.193195343017578 8.197116851806641 5.602825164794922 9.684287071228027 5.571715354919434 11.26214694976807 C 5.541305541992188 12.80440711975098 6.076245307922363 14.25230693817139 7.039345741271973 15.23458671569824 C 7.588994979858398 15.79517650604248 8.530765533447266 16.46341705322266 9.895995140075684 16.46341705322266 C 9.925535202026367 16.46341705322266 9.955245018005371 16.46310615539551 9.9849853515625 16.46246719360352 C 11.21649551391602 16.43624687194824 12.41615581512451 15.85946655273438 13.36298561096191 14.83838653564453 C 14.40387535095215 13.71585655212402 14.99425506591797 12.22869682312012 15.02535533905029 10.6508264541626 C 15.05576515197754 9.108566284179688 14.52082538604736 7.660666465759277 13.55772590637207 6.678386688232422 C 13.00807571411133 6.117796897888184 12.06630516052246 5.449556350708008 10.70107555389404 5.449556350708008 M 10.70107746124268 0.449554443359375 C 15.98016929626465 0.449554443359375 20.13737678527832 5.018184661865234 20.02438545227051 10.74938678741455 C 19.91001510620117 16.55105590820312 15.46287536621094 21.34695625305176 10.09143543243408 21.46133613586426 C 10.02619361877441 21.46272659301758 9.960901260375977 21.46341896057129 9.895993232727051 21.46341896057129 C 4.616901397705078 21.46341896057129 0.4596939086914062 16.89479064941406 0.5726852416992188 11.16358661651611 C 0.6870651245117188 5.361917495727539 5.134195327758789 0.5660171508789062 10.50563526153564 0.4516372680664062 C 10.57087707519531 0.4502468109130859 10.63616943359375 0.449554443359375 10.70107746124268 0.449554443359375 Z"/>
        </g>
      </g>
      <g id="Group_171-2" data-name="Group 171" class="cls-9" transform="matrix(-1, -0.017, 0.017, -1, -182.136, 791.468)">
        <g id="Path_422-2" data-name="Path 422" class="cls-10" transform="translate(-0.089 24.264)">
          <path class="cls-13" d="M16.281-.049c9.042.014,16.384,8.024,16.4,17.89s-7.3,17.853-16.346,17.838S-.051,27.655-.065,17.789,7.239-.064,16.281-.049Z"/>
          <path class="cls-14" d="M 16.25659561157227 4.950681686401367 C 13.49176406860352 4.950681686401367 10.82863426208496 6.092811584472656 8.757795333862305 8.166671752929688 C 7.574924468994141 9.35127067565918 6.640064239501953 10.7684211730957 5.979194641113281 12.37875175476074 C 5.283445358276367 14.07407188415527 4.932075500488281 15.89189147949219 4.934825897216797 17.78173065185547 C 4.945184707641602 24.88356018066406 10.06200408935547 30.6694507598877 16.34035491943359 30.67945098876953 L 16.35750579833984 30.6794605255127 C 19.12233543395996 30.6794605255127 21.78545379638672 29.53733062744141 23.85628509521484 27.46347045898438 C 25.03916549682617 26.27887153625488 25.97402572631836 24.86172103881836 26.63489532470703 23.25139999389648 C 27.33064460754395 21.55607223510742 27.68201446533203 19.73825073242188 27.67926406860352 17.84841156005859 C 27.66890525817871 10.74658203125 22.55209541320801 4.960691452026367 16.27374458312988 4.950691223144531 L 16.25659561157227 4.950681686401367 M 16.2565975189209 -0.04931640625 C 16.26487159729004 -0.04931640625 16.2727165222168 -0.04931259155273438 16.2809944152832 -0.04929733276367188 C 25.3231143951416 -0.03490829467773438 32.66486358642578 7.974910736083984 32.67925643920898 17.84112167358398 C 32.69363021850586 27.69830894470215 25.38817596435547 35.67945861816406 16.35750389099121 35.67945861816406 C 16.34922790527344 35.67945861816406 16.34138298034668 35.6794548034668 16.33310508728027 35.67943954467773 C 7.290975570678711 35.6650505065918 -0.05077362060546875 27.65523147583008 -0.06516647338867188 17.78902053833008 C -0.07954025268554688 7.931833267211914 7.225912094116211 -0.04931640625 16.2565975189209 -0.04931640625 Z"/>
        </g>
        <g id="Path_423-2" data-name="Path 423" class="cls-10" transform="translate(27.373 -0.083)">
          <path class="cls-13" d="M9.621-.029c5.343.009,9.681,4.742,9.69,10.572S14.994,21.092,9.651,21.083-.03,16.342-.039,10.512,4.278-.038,9.621-.029Z"/>
          <path class="cls-14" d="M 9.606172561645508 4.970857620239258 C 8.21318244934082 4.970857620239258 7.214762687683105 5.677918434143066 6.622482299804688 6.271058082580566 C 5.564522743225098 7.330568313598633 4.959112167358398 8.873558044433594 4.961482048034668 10.50439834594727 C 4.963772773742676 12.07264804840088 5.507272720336914 13.52789878845215 6.491872787475586 14.60208797454834 C 7.36567211151123 15.5554084777832 8.490562438964844 16.08144760131836 9.659322738647461 16.08330917358398 L 9.66466236114502 16.08330917358398 L 9.665802955627441 16.08330917358398 C 11.05879211425781 16.08330917358398 12.05721282958984 15.37625885009766 12.64949226379395 14.78310775756836 C 13.70744228363037 13.72360801696777 14.31285285949707 12.18061828613281 14.31047248840332 10.54976844787598 C 14.30818271636963 8.981528282165527 13.76468276977539 7.526268005371094 12.78008270263672 6.452077865600586 C 11.90627288818359 5.498767852783203 10.78138256072998 4.972728729248047 9.611112594604492 4.970857620239258 L 9.606172561645508 4.970857620239258 M 9.606170654296875 -0.02914237976074219 C 9.611061096191406 -0.02914237976074219 9.615691184997559 -0.02914047241210938 9.620582580566406 -0.02913093566894531 C 14.96365261077881 -0.02062225341796875 19.30196189880371 4.712448120117188 19.31046295166016 10.54247856140137 C 19.3189640045166 16.36717987060547 15.00211334228516 21.08330917358398 9.665801048278809 21.08330917358398 C 9.660911560058594 21.08330917358398 9.656264305114746 21.08330535888672 9.651372909545898 21.08329772949219 C 4.308302879333496 21.07479858398438 -0.03000831604003906 16.34172821044922 -0.03850746154785156 10.51168823242188 C -0.04699897766113281 4.686996459960938 4.269858360290527 -0.02914237976074219 9.606170654296875 -0.02914237976074219 Z"/>
        </g>
      </g>
      <g id="Group_174-2" data-name="Group 174" class="cls-9" transform="translate(-20.85 -41.017) rotate(-166)">
        <g id="Path_416-2" data-name="Path 416" class="cls-10" transform="translate(-1.158 23.688)">
          <path class="cls-13" d="M15.332-.6c9.09.194,16.616,8.31,16.81,18.128S25.123,35.146,16.033,34.952-.583,26.642-.776,16.824,6.242-.8,15.332-.6Z"/>
          <path class="cls-14" d="M 15.00144577026367 4.393806457519531 C 12.26163673400879 4.393806457519531 9.667085647583008 5.501096725463867 7.695735931396484 7.511686325073242 C 6.590616226196289 8.63880729675293 5.726175308227539 9.987565994262695 5.126415252685547 11.52048683166504 C 4.490596771240234 13.14555740356445 4.186496734619141 14.8968563079834 4.222555160522461 16.72572708129883 C 4.291965484619141 20.24616622924805 5.61872673034668 23.57455635070801 7.958456039428711 26.09777641296387 C 10.20411491394043 28.51954650878906 13.10956573486328 29.8888053894043 16.13946533203125 29.95332717895508 C 16.21537590026855 29.95494651794434 16.28879547119141 29.95572662353516 16.36390686035156 29.95572662353516 C 19.10371589660645 29.95572662353516 21.69825553894043 28.84844589233398 23.66960525512695 26.83785629272461 C 24.77471542358398 25.71073532104492 25.6391658782959 24.36198616027832 26.23891639709473 22.82906723022461 C 26.87473678588867 21.20398712158203 27.17883682250977 19.45268630981445 27.14277648925781 17.6237964630127 C 27.0733757019043 14.10336685180664 25.74660491943359 10.77497673034668 23.40687561035156 8.25175666809082 C 21.16121673583984 5.829977035522461 18.25576591491699 4.460716247558594 15.22586631774902 4.396196365356445 C 15.15026664733887 4.394586563110352 15.07685661315918 4.393806457519531 15.00144577026367 4.393806457519531 M 15.0014476776123 -0.6061973571777344 C 15.11184120178223 -0.6061973571777344 15.22122192382812 -0.6050376892089844 15.33218574523926 -0.6026725769042969 C 24.42231559753418 -0.4091033935546875 31.94824600219727 7.707036972045898 32.14180755615234 17.52524566650391 C 32.33300399780273 27.22360610961914 25.29696273803711 34.95572280883789 16.36390113830566 34.95572280883789 C 16.25350761413574 34.95572280883789 16.14410972595215 34.95455932617188 16.03314590454102 34.95219802856445 C 6.943016052246094 34.75863647460938 -0.5829048156738281 26.64249610900879 -0.7764759063720703 16.82428741455078 C -0.9676723480224609 7.125938415527344 6.068386077880859 -0.6061973571777344 15.0014476776123 -0.6061973571777344 Z"/>
        </g>
        <g id="Path_417-2" data-name="Path 417" class="cls-10" transform="translate(14.362 -0.593)">
          <path class="cls-13" d="M9.06-.356c5.371.114,9.819,4.91,9.933,10.712s-4.147,10.412-9.519,10.3S-.344,15.743-.459,9.942,3.688-.471,9.06-.356Z"/>
          <path class="cls-14" d="M 8.864487648010254 4.641796112060547 C 7.499507904052734 4.641796112060547 6.557718276977539 5.31010627746582 6.008017539978027 5.870756149291992 C 5.044807434082031 6.853146553039551 4.509807586669922 8.301006317138672 4.540207862854004 9.843066215515137 C 4.571317672729492 11.42092609405518 5.161687850952148 12.90809631347656 6.202588081359863 14.03062629699707 C 7.149417877197266 15.05170631408691 8.349067687988281 15.62848663330078 9.58085823059082 15.65471649169922 C 9.610617637634277 15.65534591674805 9.639957427978516 15.6556568145752 9.669568061828613 15.6556568145752 C 11.03454780578613 15.6556568145752 11.97633743286133 14.98734664916992 12.52603721618652 14.42669677734375 C 13.48924827575684 13.44430637359619 14.02424812316895 11.99644660949707 13.99384784698486 10.45437622070312 C 13.96274757385254 8.876516342163086 13.37236785888672 7.38935661315918 12.33147811889648 6.266826629638672 C 11.38464736938477 5.245746612548828 10.18498802185059 4.668966293334961 8.953197479248047 4.642736434936523 C 8.92343807220459 4.642106056213379 8.894098281860352 4.641796112060547 8.864487648010254 4.641796112060547 M 8.864485740661621 -0.3582057952880859 C 8.929718017578125 -0.3582057952880859 8.994358062744141 -0.3575191497802734 9.059927940368652 -0.3561229705810547 C 14.43136787414551 -0.2417430877685547 18.87850761413574 4.554156303405762 18.99287796020508 10.35582637786865 C 19.10586166381836 16.0866756439209 14.94819736480713 20.65565872192383 9.669569969177246 20.65565872192383 C 9.604337692260742 20.65565872192383 9.539697647094727 20.65497207641602 9.474127769470215 20.6535758972168 C 4.102687835693359 20.5391960144043 -0.3444423675537109 15.74329662322998 -0.4588222503662109 9.94162654876709 C -0.5718059539794922 4.210777282714844 3.585858345031738 -0.3582057952880859 8.864485740661621 -0.3582057952880859 Z"/>
        </g>
      </g>
      <g id="Group_175-2" data-name="Group 175" class="cls-9" transform="translate(-704.82 -5.093) rotate(149)">
        <g id="Path_418-2" data-name="Path 418" class="cls-10" transform="translate(2.222 25.213)">
          <path class="cls-13" d="M19.317,1.673c9.261-.364,16.473,7.162,16.109,16.81S27.259,36.247,18,36.611,1.526,29.449,1.89,19.8,10.056,2.037,19.317,1.673Z"/>
          <path class="cls-14" d="M 19.95990180969238 6.660362243652344 C 19.81220245361328 6.660362243652344 19.66197204589844 6.663322448730469 19.51328277587891 6.669172286987305 C 16.33215141296387 6.794221878051758 13.26319122314453 8.233102798461914 10.87173271179199 10.72076225280762 C 8.431482315063477 13.25916290283203 7.016111373901367 16.55085182189941 6.886362075805664 19.98947143554688 C 6.761442184448242 23.3001708984375 7.853862762451172 26.32932281494141 9.962392807006836 28.51891326904297 C 11.89013290405273 30.520751953125 14.5157413482666 31.62322235107422 17.35556221008301 31.62322235107422 C 17.50326156616211 31.62322235107422 17.65349197387695 31.62026214599609 17.80218124389648 31.61441230773926 C 20.98331260681152 31.4893627166748 24.05227279663086 30.05047225952148 26.44374084472656 27.56282234191895 C 28.88398170471191 25.02442169189453 30.29935264587402 21.73273277282715 30.42910194396973 18.29411315917969 C 30.55402183532715 14.98341178894043 29.46160125732422 11.95426177978516 27.35307312011719 9.764673233032227 C 25.42533111572266 7.762832641601562 22.79972076416016 6.660362243652344 19.95990180969238 6.660362243652344 M 19.95990562438965 1.660362243652344 C 28.90918731689453 1.660362243652344 35.7811164855957 9.05926513671875 35.42554092407227 18.48264312744141 C 35.06150054931641 28.13037109375 27.25918197631836 36.24651336669922 17.99858283996582 36.61055374145508 C 17.78323173522949 36.6190185546875 17.56862449645996 36.62322235107422 17.35555839538574 36.62322235107422 C 8.406276702880859 36.62322235107422 1.534347534179688 29.22431945800781 1.889923095703125 19.80094146728516 C 2.253963470458984 10.15321159362793 10.05628204345703 2.037063598632812 19.31688117980957 1.673030853271484 C 19.5322322845459 1.664566040039062 19.74683952331543 1.660362243652344 19.95990562438965 1.660362243652344 Z"/>
        </g>
        <g id="Path_419-2" data-name="Path 419" class="cls-10" transform="translate(20.931 1.687)">
          <path class="cls-13" d="M11.415.989c5.472-.215,9.734,4.232,9.519,9.933a11.116,11.116,0,0,1-10.3,10.712C5.163,21.849.9,17.4,1.117,11.7A11.116,11.116,0,0,1,11.415.989Z"/>
          <path class="cls-14" d="M 11.79448318481445 5.981119155883789 C 11.7340030670166 5.981119155883789 11.67221355438232 5.982339859008789 11.61092376708984 5.984748840332031 C 8.747373580932617 6.097318649291992 6.229733467102051 8.801169395446777 6.113213539123535 11.88908863067627 C 6.060553550720215 13.28481864929199 6.503423690795898 14.54349899291992 7.360243797302246 15.43325901031494 C 7.890813827514648 15.98422908782959 8.823803901672363 16.64099884033203 10.25556373596191 16.64099884033203 C 10.31604385375977 16.64099884033203 10.37783336639404 16.63977813720703 10.43912315368652 16.63736915588379 C 13.30267333984375 16.52479934692383 15.82031345367432 13.82094860076904 15.93683338165283 10.73302936553955 C 15.98949337005615 9.337299346923828 15.54662322998047 8.078619003295898 14.68980407714844 7.188858985900879 C 14.15923309326172 6.63788890838623 13.226243019104 5.981119155883789 11.79448318481445 5.981119155883789 M 11.79448413848877 0.9811229705810547 C 17.08269691467285 0.9811229705810547 21.14338111877441 5.353200912475586 20.93327331542969 10.92155933380127 C 20.71816253662109 16.62248992919922 16.10770416259766 21.41839981079102 10.63552379608154 21.63350868225098 C 10.50827121734619 21.63851165771484 10.38146495819092 21.64099502563477 10.2555627822876 21.64099502563477 C 4.96735954284668 21.64099502563477 0.9066658020019531 17.26891708374023 1.11677360534668 11.70055866241455 C 1.331884384155273 5.999618530273438 5.942342758178711 1.203718185424805 11.41452312469482 0.9886093139648438 C 11.54177570343018 0.9836063385009766 11.66858291625977 0.9811229705810547 11.79448413848877 0.9811229705810547 Z"/>
        </g>
      </g>
      <g id="Group_176-2" data-name="Group 176" class="cls-9" transform="matrix(-0.985, -0.174, 0.174, -0.985, -48.697, 157.629)">
        <g id="Path_420-2" data-name="Path 420" class="cls-10" transform="translate(-0.856 23.888)">
          <path class="cls-13" d="M15.573-.45C24.64-.309,32.1,7.783,32.245,17.625S25.151,35.33,16.084,35.189-.447,26.956-.588,17.114,6.506-.591,15.573-.45Z"/>
          <path class="cls-14" d="M 15.33321189880371 4.54798698425293 C 12.5949535369873 4.54798698425293 9.987533569335938 5.663248062133789 7.991252899169922 7.688337326049805 C 6.862102508544922 8.83378791809082 5.975982666015625 10.20518684387207 5.357532501220703 11.76444816589355 C 4.703062057495117 13.41450691223145 4.384672164916992 15.19036674499512 4.411212921142578 17.04268836975098 C 4.461742401123047 20.56925773620605 5.763233184814453 23.89227676391602 8.075933456420898 26.39959716796875 C 10.28744316101074 28.79721832275391 13.15898323059082 30.14335823059082 16.16171264648438 30.19006729125977 C 16.21591186523438 30.1909065246582 16.26978302001953 30.19132804870605 16.32379150390625 30.19132804870605 C 19.06204223632812 30.19132804870605 21.66947174072266 29.0760669708252 23.66574287414551 27.05097770690918 C 24.79490280151367 25.90552711486816 25.6810131072998 24.53412628173828 26.29947280883789 22.97486877441406 C 26.95394325256348 21.32480621337891 27.27232360839844 19.54894638061523 27.24578285217285 17.69661712646484 C 27.19525146484375 14.17004776000977 25.89377212524414 10.84703826904297 23.58107376098633 8.33970832824707 C 21.36956405639648 5.942096710205078 18.49802398681641 4.595947265625 15.49529266357422 4.549247741699219 C 15.44109344482422 4.548406600952148 15.3872127532959 4.54798698425293 15.33321189880371 4.54798698425293 M 15.33321762084961 -0.4520111083984375 C 15.41316795349121 -0.4520111083984375 15.4929313659668 -0.4513893127441406 15.57317352294922 -0.4501419067382812 C 24.63990211486816 -0.3091316223144531 32.10426330566406 7.783376693725586 32.24527359008789 17.62498664855957 C 32.38504409790039 27.37948799133301 25.27772521972656 35.19132614135742 16.32378768920898 35.19132614135742 C 16.24383735656738 35.19132614135742 16.1640739440918 35.19070434570312 16.08383178710938 35.18945693969727 C 7.017091751098633 35.04843902587891 -0.4472579956054688 26.9559268951416 -0.5882759094238281 17.11432838439941 C -0.7280387878417969 7.359817504882812 6.379280090332031 -0.4520111083984375 15.33321762084961 -0.4520111083984375 Z"/>
        </g>
        <g id="Path_421-2" data-name="Path 421" class="cls-10" transform="translate(14.868 -0.445)">
          <path class="cls-13" d="M9.2-.266c5.358.083,9.768,4.865,9.852,10.681S14.862,20.877,9.5,20.794-.264,15.929-.348,10.113,3.845-.349,9.2-.266Z"/>
          <path class="cls-14" d="M 9.060535430908203 4.732908248901367 C 7.694055557250977 4.732908248901367 6.739185333251953 5.410578727722168 6.17878532409668 5.979068756103516 C 5.185855865478516 6.986328125 4.629315376281738 8.466988563537598 4.651875495910645 10.04136848449707 C 4.674505233764648 11.62073802947998 5.251175880432129 13.10222816467285 6.275675773620605 14.21293830871582 C 7.198975563049316 15.21393775939941 8.373135566711426 15.77556800842285 9.58210563659668 15.79437828063965 C 9.603425979614258 15.79470825195312 9.624625205993652 15.79486846923828 9.645875930786133 15.79486846923828 C 11.01235580444336 15.79486846923828 11.96722602844238 15.1171989440918 12.52762603759766 14.54870796203613 C 13.52055549621582 13.54144859313965 14.07709503173828 12.06078815460205 14.05453586578369 10.48640823364258 C 14.03190612792969 8.907038688659668 13.45522499084473 7.425548553466797 12.43073558807373 6.314838409423828 C 11.50743579864502 5.313828468322754 10.33328533172607 4.752198219299316 9.124305725097656 4.7333984375 C 9.102985382080078 4.733068466186523 9.081786155700684 4.732908248901367 9.060535430908203 4.732908248901367 M 9.06053352355957 -0.2670955657958984 C 9.10777759552002 -0.2670955657958984 9.154910087585449 -0.2667293548583984 9.202325820922852 -0.2659912109375 C 14.55994606018066 -0.1826725006103516 18.97069549560547 4.599278450012207 19.05402565002441 10.41476821899414 C 19.13661766052246 16.17879104614258 14.93683624267578 20.79487228393555 9.645877838134766 20.79487228393555 C 9.598633766174316 20.79487228393555 9.551501274108887 20.79450607299805 9.504085540771484 20.79376792907715 C 4.146465301513672 20.7104377746582 -0.2642841339111328 15.92850875854492 -0.3476142883300781 10.11300849914551 C -0.430206298828125 4.34898567199707 3.769575119018555 -0.2670955657958984 9.06053352355957 -0.2670955657958984 Z"/>
        </g>
      </g>
      <ellipse id="Ellipse_59-2" data-name="Ellipse 59" class="cls-12" cx="29.395" cy="32.075" rx="29.395" ry="32.075" transform="translate(-729.688 774.149)"/>
      <ellipse id="Ellipse_61-2" data-name="Ellipse 61" class="cls-12" cx="41.301" cy="45.068" rx="41.301" ry="45.068" transform="translate(-795.175 296.85)"/>
    </g>
  </g>
</svg>
