<svg xmlns="http://www.w3.org/2000/svg" xmlns:xlink="http://www.w3.org/1999/xlink" viewBox="0 0 1920 1076">
  <defs>
    <style>
      .cls-1 {
        clip-path: url(#clip-Web_1920_13);
      }

      .cls-2, .cls-63, .cls-64, .cls-66 {
        fill: none;
      }

      .cls-2, .cls-3 {
        opacity: 0.998;
      }

      .cls-3 {
        fill: url(#linear-gradient);
      }

      .cls-4 {
        fill: #6fc3d0;
        opacity: 0.098;
      }

      .cls-5 {
        fill: #5fdcc3;
        opacity: 0.1;
      }

      .cls-6 {
        opacity: 0.123;
      }

      .cls-7 {
        fill: #81b6f0;
      }

      .cls-10, .cls-8, .cls-9 {
        fill: #d6f2f2;
      }

      .cls-8 {
        opacity: 0.157;
      }

      .cls-9 {
        opacity: 0.189;
      }

      .cls-10 {
        opacity: 0.132;
      }

      .cls-11 {
        opacity: 0.447;
      }

      .cls-12 {
        fill: #568cdd;
      }

      .cls-13 {
        fill: #ecf5ff;
      }

      .cls-14 {
        opacity: 0.343;
        fill: url(#linear-gradient-2);
      }

      .cls-15 {
        fill: url(#linear-gradient-3);
      }

      .cls-16 {
        fill: #c9deff;
      }

      .cls-17 {
        fill: #093352;
      }

      .cls-18 {
        fill: #067b90;
      }

      .cls-19 {
        fill: url(#linear-gradient-4);
      }

      .cls-20 {
        fill: url(#linear-gradient-5);
      }

      .cls-21 {
        fill: url(#linear-gradient-6);
      }

      .cls-22 {
        opacity: 0.736;
        fill: url(#linear-gradient-7);
      }

      .cls-23, .cls-61 {
        fill: #fff;
      }

      .cls-24 {
        fill: #89cbd7;
      }

      .cls-25 {
        fill: #246c96;
        opacity: 0.743;
      }

      .cls-26 {
        fill: #529bc6;
      }

      .cls-27 {
        fill: url(#linear-gradient-8);
      }

      .cls-28 {
        fill: #eff5ff;
      }

      .cls-29 {
        fill: url(#linear-gradient-9);
      }

      .cls-30 {
        fill: url(#linear-gradient-10);
      }

      .cls-31 {
        fill: url(#linear-gradient-11);
      }

      .cls-32 {
        fill: url(#linear-gradient-12);
      }

      .cls-33 {
        fill: url(#linear-gradient-13);
      }

      .cls-34 {
        fill: url(#linear-gradient-14);
      }

      .cls-35 {
        fill: url(#linear-gradient-15);
      }

      .cls-36 {
        fill: url(#linear-gradient-16);
      }

      .cls-37, .cls-39 {
        fill: #31a5ba;
      }

      .cls-37 {
        opacity: 0.494;
      }

      .cls-38 {
        fill: #6ec7ef;
      }

      .cls-40 {
        opacity: 0.747;
        fill: url(#linear-gradient-17);
      }

      .cls-41 {
        fill: #484848;
      }

      .cls-42 {
        fill: #1f62a2;
      }

      .cls-43 {
        fill: #ffc5d0;
      }

      .cls-44 {
        fill: #f1f2f2;
      }

      .cls-45 {
        fill: #f0a5b4;
      }

      .cls-46 {
        fill: #ff7017;
      }

      .cls-47 {
        fill: #484857;
      }

      .cls-48 {
        fill: #ffb2c2;
      }

      .cls-49 {
        fill: url(#linear-gradient-18);
      }

      .cls-50 {
        fill: #eaf4f4;
      }

      .cls-51 {
        fill: #e6e7e8;
      }

      .cls-52 {
        fill: url(#linear-gradient-19);
      }

      .cls-53 {
        fill: #3b4193;
      }

      .cls-54 {
        fill: url(#linear-gradient-20);
      }

      .cls-55 {
        fill: #f7f7f7;
      }

      .cls-56 {
        fill: #b4b4b4;
        opacity: 0.312;
      }

      .cls-57 {
        fill: url(#linear-gradient-21);
      }

      .cls-58 {
        fill: #5093e9;
      }

      .cls-59 {
        fill: url(#linear-gradient-23);
      }

      .cls-60 {
        fill: url(#linear-gradient-24);
      }

      .cls-61 {
        opacity: 0.422;
      }

      .cls-62, .cls-64 {
        opacity: 0.775;
      }

      .cls-63, .cls-64 {
        stroke: #fff;
        stroke-width: 5px;
      }

      .cls-65 {
        stroke: none;
      }

      .cls-67 {
        filter: url(#Path_143);
      }

      .cls-68 {
        filter: url(#Path_409);
      }
    </style>
    <filter id="Path_409" x="547.841" y="-877.895" width="2092.027" height="2214.667" filterUnits="userSpaceOnUse">
      <feOffset dy="3" input="SourceAlpha"/>
      <feGaussianBlur stdDeviation="27.5" result="blur"/>
      <feFlood flood-color="#76cad2" flood-opacity="0.314"/>
      <feComposite operator="in" in2="blur"/>
      <feComposite in="SourceGraphic"/>
    </filter>
    <linearGradient id="linear-gradient" x1="0.058" y1="0.835" x2="0.771" y2="0.49" gradientUnits="objectBoundingBox">
      <stop offset="0" stop-color="#d6f2f2"/>
      <stop offset="0.573" stop-color="#31a5ba"/>
      <stop offset="1" stop-color="#2c6bc9"/>
    </linearGradient>
    <filter id="Path_143" x="654.841" y="-877.895" width="2092.027" height="2214.667" filterUnits="userSpaceOnUse">
      <feOffset dy="3" input="SourceAlpha"/>
      <feGaussianBlur stdDeviation="27.5" result="blur-2"/>
      <feFlood flood-color="#76cad2" flood-opacity="0.314"/>
      <feComposite operator="in" in2="blur-2"/>
      <feComposite in="SourceGraphic"/>
    </filter>
    <linearGradient id="linear-gradient-2" x1="0.5" x2="0.5" y2="1" gradientUnits="objectBoundingBox">
      <stop offset="0" stop-color="#6bb2a0"/>
      <stop offset="1" stop-color="#365950"/>
    </linearGradient>
    <linearGradient id="linear-gradient-3" x1="0.442" y1="1" x2="0.784" y2="0.662" gradientUnits="objectBoundingBox">
      <stop offset="0" stop-color="#fff"/>
      <stop offset="1" stop-color="#31a5ba"/>
    </linearGradient>
    <linearGradient id="linear-gradient-4" x1="0.295" y1="-0.19" x2="0.139" y2="0.766" xlink:href="#linear-gradient-3"/>
    <linearGradient id="linear-gradient-5" y1="0.657" x2="1" y2="-0.114" gradientUnits="objectBoundingBox">
      <stop offset="0" stop-color="#fff"/>
      <stop offset="0.061" stop-color="#fff"/>
      <stop offset="1" stop-color="#31a5ba"/>
    </linearGradient>
    <linearGradient id="linear-gradient-6" x1="0.706" y1="1.082" x2="0.33" y2="-0.031" gradientUnits="objectBoundingBox">
      <stop offset="0" stop-color="#31a5ba"/>
      <stop offset="1" stop-color="#fff"/>
    </linearGradient>
    <linearGradient id="linear-gradient-7" x1="0.475" y1="0.222" x2="0.321" y2="1.294" gradientUnits="objectBoundingBox">
      <stop offset="0" stop-color="#fff"/>
      <stop offset="1" stop-color="#6eb1b3"/>
    </linearGradient>
    <linearGradient id="linear-gradient-8" x1="0.675" y1="0.14" x2="1.001" y2="1.25" gradientUnits="objectBoundingBox">
      <stop offset="0" stop-color="#61b7cc"/>
      <stop offset="1" stop-color="#d6f2f2" stop-opacity="0.11"/>
    </linearGradient>
    <linearGradient id="linear-gradient-9" x1="1.47" y1="-0.709" x2="0.077" y2="1.092" xlink:href="#linear-gradient-6"/>
    <linearGradient id="linear-gradient-10" x1="0.5" y1="0" x2="0.5" y2="1.263" xlink:href="#linear-gradient-3"/>
    <linearGradient id="linear-gradient-11" x1="0.5" y1="0" x2="0.5" y2="1" xlink:href="#linear-gradient-3"/>
    <linearGradient id="linear-gradient-12" x1="0.5" y1="1.497" x2="0.5" y2="-0.33" xlink:href="#linear-gradient-6"/>
    <linearGradient id="linear-gradient-13" x1="1.22" y1="0.352" x2="-0.129" y2="0.44" xlink:href="#linear-gradient-3"/>
    <linearGradient id="linear-gradient-14" x1="-0.061" y1="0.86" x2="1.006" y2="0.244" gradientUnits="objectBoundingBox">
      <stop offset="0" stop-color="#fff"/>
      <stop offset="1" stop-color="#fff" stop-opacity="0"/>
    </linearGradient>
    <linearGradient id="linear-gradient-15" x1="0.009" y1="0.775" x2="1.006" y2="0.244" gradientUnits="objectBoundingBox">
      <stop offset="0" stop-color="#fff"/>
      <stop offset="1" stop-color="#31a5ba" stop-opacity="0.235"/>
      <stop offset="1" stop-color="#5aabd4" stop-opacity="0"/>
    </linearGradient>
    <linearGradient id="linear-gradient-16" x1="-0.163" y1="0.824" x2="1.021" y2="0.318" gradientUnits="objectBoundingBox">
      <stop offset="0" stop-color="#fff"/>
      <stop offset="1" stop-color="#5aabd4" stop-opacity="0"/>
    </linearGradient>
    <linearGradient id="linear-gradient-17" x1="1.103" y1="-0.091" x2="-0.073" y2="1.09" gradientUnits="objectBoundingBox">
      <stop offset="0" stop-color="#31a5ba"/>
      <stop offset="1" stop-color="#2878f0"/>
    </linearGradient>
    <linearGradient id="linear-gradient-18" x1="0.3" y1="0.101" x2="0.5" y2="1" gradientUnits="objectBoundingBox">
      <stop offset="0" stop-color="#62e6c5"/>
      <stop offset="1" stop-color="#568cdd"/>
    </linearGradient>
    <linearGradient id="linear-gradient-19" x1="0.5" y1="0" x2="0" y2="0.882" xlink:href="#linear-gradient-18"/>
    <linearGradient id="linear-gradient-20" x1="0.5" y1="0" xlink:href="#linear-gradient-18"/>
    <linearGradient id="linear-gradient-21" x1="1.503" y1="-0.147" x2="-0.337" y2="1.399" xlink:href="#linear-gradient-18"/>
    <linearGradient id="linear-gradient-23" x1="0.2" y1="0.061" x2="0.507" y2="0.521" xlink:href="#linear-gradient-18"/>
    <linearGradient id="linear-gradient-24" x1="0.143" y1="0.099" x2="0.424" y2="0.665" xlink:href="#linear-gradient-18"/>
    <clipPath id="clip-Web_1920_13">
      <rect width="1920" height="1076"/>
    </clipPath>
  </defs>
  <g id="Web_1920_13" data-name="Web 1920 – 13" class="cls-1">
    <rect class="cls-23" width="1920" height="1076"/>
    <g class="cls-68" transform="matrix(1, 0, 0, 1, 0, 0)">
      <path id="Path_409-2" data-name="Path 409" class="cls-2" d="M200,0H1330c110.457,0,200,89.543,200,200V1416c0,110.457-89.543,200-200,200,0,0,41.945-138.349,28.626-134.675-56.01,15.449-192.959,244.671-398.584,274.531-14.57,2.116,32.8-14.042-82.632-32.019s-222.221,4.432-395.082-57.738S285.558,1552.1,181.815,1454.85,1.372,1403.486-31.373,1257.441s78.91-206.457,70.111-367.672-92.6-109.524-105.306-277.191c-3.19-42.085,24.868-119.354,26.3-163.539,4.282-131.915-4.845-222.316-4.845-222.316C-45.11,116.266,89.543,0,200,0Z" transform="matrix(0.98, -0.21, 0.21, 0.98, 695.7, -480.29)"/>
    </g>
    <g class="cls-67" transform="matrix(1, 0, 0, 1, 0, 0)">
      <path id="Path_143-2" data-name="Path 143" class="cls-3" d="M200,0H1330c110.457,0,200,89.543,200,200V1416c0,110.457-89.543,200-200,200,0,0,41.945-138.349,28.626-134.675-56.01,15.449-192.959,244.671-398.584,274.531-14.57,2.116,32.8-14.042-82.632-32.019s-222.221,4.432-395.082-57.738S285.558,1552.1,181.815,1454.85,1.372,1403.486-31.373,1257.441s78.91-206.457,70.111-367.672-92.6-109.524-105.306-277.191c-3.19-42.085,24.868-119.354,26.3-163.539,4.282-131.915-4.845-222.316-4.845-222.316C-45.11,116.266,89.543,0,200,0Z" transform="matrix(0.98, -0.21, 0.21, 0.98, 802.7, -480.29)"/>
    </g>
    <circle id="Ellipse_14" data-name="Ellipse 14" class="cls-4" cx="40" cy="40" r="40" transform="translate(105 266)"/>
    <circle id="Ellipse_16" data-name="Ellipse 16" class="cls-4" cx="89" cy="89" r="89" transform="translate(362 869)"/>
    <circle id="Ellipse_17" data-name="Ellipse 17" class="cls-4" cx="107.5" cy="107.5" r="107.5" transform="translate(-89 781)"/>
    <circle id="Ellipse_20" data-name="Ellipse 20" class="cls-5" cx="26.5" cy="26.5" r="26.5" transform="translate(1556 995)"/>
    <circle id="Ellipse_21" data-name="Ellipse 21" class="cls-4" cx="26.5" cy="26.5" r="26.5" transform="translate(663 485)"/>
    <g id="Group_137" data-name="Group 137" class="cls-6" transform="translate(1394.46 639.498) rotate(21)">
      <path id="Path_284" data-name="Path 284" class="cls-7" d="M8.591,4.974v.9L0,.995V0Z"/>
      <path id="Path_285" data-name="Path 285" class="cls-7" d="M8.591,5.878,0,.995V0L8.591,4.974Z" transform="translate(0 1.989)"/>
      <path id="Path_286" data-name="Path 286" class="cls-7" d="M0,0,6.059,3.527v.9L0,.995Z" transform="translate(2.532 5.426)"/>
      <path id="Path_287" data-name="Path 287" class="cls-7" d="M8.591,5.878,0,.9V0L8.591,4.883Z" transform="translate(0 7.958)"/>
      <path id="Path_288" data-name="Path 288" class="cls-7" d="M0,0,7.415,4.25v.995L0,.995Z" transform="translate(1.176 6.601)"/>
      <path id="Path_289" data-name="Path 289" class="cls-7" d="M5.154,3.979,0,.995V0L5.154,2.984Z" transform="translate(3.436 11.846)"/>
    </g>
    <path id="Path_406" data-name="Path 406" class="cls-8" d="M688.666-170.265c114.564,0,448.287-64.175,527.715,0,92.279,74.557-68.647,476.668-68.647,597.749,0,63.016,34.289,306.613,11.167,358.287-28.609,63.938-242.205,83.057-441.587,93.679s-355.939-51.191-355.939-51.191S183.461,755.41,70.358,634.961C31.052,593.1-28.764,553.034-28.764,495.193c0-45.465,19.549-148.772,0-251.035C-39.868,186.071-124.443,102.286-148.61,50.7c-49.727-106.139-53.925-202.522-12.1-234.591C-82.753-243.653,578.316-170.265,688.666-170.265Z" transform="translate(1626.956 -182.161) rotate(1)"/>
    <path id="Path_405" data-name="Path 405" class="cls-9" d="M688.666-170.265c114.564,0,448.287-64.175,527.715,0,92.279,74.557-68.647,476.668-68.647,597.749,0,63.016,34.289,306.613,11.167,358.287-28.609,63.938-242.205,83.057-441.587,93.679s-355.939-51.191-355.939-51.191S183.461,755.41,70.358,634.961C31.052,593.1-28.764,553.034-28.764,495.193c0-45.465,19.549-148.772,0-251.035C-39.868,186.071-124.443,102.286-148.61,50.7c-49.727-106.139-53.925-202.522-12.1-234.591C-82.753-243.653,578.316-170.265,688.666-170.265Z" transform="translate(1409.965 -52.817) rotate(7)"/>
    <path id="Path_404" data-name="Path 404" class="cls-10" d="M688.666-170.265c114.564,0,448.287-64.175,527.715,0,92.279,74.557-68.647,476.668-68.647,597.749,0,63.016,34.289,306.613,11.167,358.287-28.609,63.938-242.205,83.057-441.587,93.679s-355.939-51.191-355.939-51.191S183.461,755.41,70.358,634.961C31.052,593.1-28.764,553.034-28.764,495.193c0-45.465,19.549-148.772,0-251.035C-39.868,186.071-124.443,102.286-148.61,50.7c-49.727-106.139-53.925-202.522-12.1-234.591C-82.753-243.653,578.316-170.265,688.666-170.265Z" transform="matrix(0.999, 0.035, -0.035, 0.999, 906.071, 373.784)"/>
    <g id="Group_152" data-name="Group 152" transform="translate(1174.301 417.761)">
      <g id="Group_98" data-name="Group 98" class="cls-11" transform="translate(0 0)">
        <path id="Path_306" data-name="Path 306" class="cls-12" d="M41.752,21.51a12.348,12.348,0,0,1,5.659,9.809l-.126,43.261c0,3.647-2.515,5.03-5.659,3.27L5.659,57.1A12.348,12.348,0,0,1,0,47.291L.126,4.03C.126.383,2.641-1,5.785.76Z"/>
      </g>
      <g id="Group_99" data-name="Group 99" transform="translate(7.639 23.792)">
        <path id="Path_307" data-name="Path 307" class="cls-13" d="M3.773.572C1.509-.686,0,.195,0,2.584A8.312,8.312,0,0,0,3.773,9.124C5.785,10.255,7.42,9.249,7.42,6.86A8.264,8.264,0,0,0,3.773.572Z" transform="translate(12.483 21.292)"/>
        <path id="Path_308" data-name="Path 308" class="cls-13" d="M19.131,10.811a27.2,27.2,0,0,0-4.9-6.288L13.6,3.894A23.6,23.6,0,0,0,10.58,1.63,10.436,10.436,0,0,0,3.663.121a5.577,5.577,0,0,0-3.4,1.761c-.5.629-.252,2.138.377,3.27A5.562,5.562,0,0,0,2.28,6.912a1.845,1.845,0,0,0,1.761.252c.5-.252.88-.755,1.383-.88a5.9,5.9,0,0,1,5.282.755,16.032,16.032,0,0,1,5.282,5.533l.88,1.635a3.277,3.277,0,0,0,1.383,1.509c1.258.755,2.515.126,2.515-1.258a6.188,6.188,0,0,0-1.006-2.767C19.509,11.44,19.383,11.062,19.131,10.811Z" transform="translate(5.927 10.173)"/>
        <path id="Path_309" data-name="Path 309" class="cls-13" d="M31.976,20.858a11.68,11.68,0,0,0-.5-1.635,41.154,41.154,0,0,0-5.408-7.8A37.362,37.362,0,0,0,16.13,2.749,30.287,30.287,0,0,0,11.98.862,17.327,17.327,0,0,0,8.71.108,11.252,11.252,0,0,0,1.039,1.743,1.528,1.528,0,0,0,.033,3a4.126,4.126,0,0,0,.5,2.389A4.783,4.783,0,0,0,2.045,7.025c.252.126.377.252.629.252,1.006.252,1.635-.629,2.264-1.006a9.958,9.958,0,0,1,5.156-.88,18.285,18.285,0,0,1,5.785,1.886c.126.126.252.126.377.252A33.311,33.311,0,0,1,27.071,18.469a14.26,14.26,0,0,0,2.012,3.27c.252.252.5.377.755.629a1.352,1.352,0,0,0,1.509.126C31.976,22.493,32.1,21.738,31.976,20.858Z" transform="translate(0 0)"/>
      </g>
    </g>
    <g id="Group_162" data-name="Group 162" transform="translate(143 -24)">
      <g id="Group_112" data-name="Group 112" transform="translate(-6330.031 -1551.363)">
        <path id="Path_310" data-name="Path 310" class="cls-14" d="M4997.092,495.286l306.816-174.346A26.115,26.115,0,0,1,5313,319a38.218,38.218,0,0,1,10.277,1.94l183.237,105.092s4.821,3.252,5.372,4.054,1.727,2.172,1.727,3.53.458,2.63-1.336,4.741-6.151,4.616-6.151,4.616L5035.16,713.585a46.033,46.033,0,0,1-11.737,1.37,19.588,19.588,0,0,1-8.528-2.447l-9.561-4.858a40.207,40.207,0,0,0-6.293-1.024c-1.5.087-5.59,2.008-5.59,2.008l-12.02,6.32a30.124,30.124,0,0,1-8.6,1.445c-4.4,0-11.763-3.891-11.763-3.891l-133.294-76.564s-2.961-4.176-2.584-7.372a12.758,12.758,0,0,1,2.569-5.841l5.147-2.688s8.567-4.119,8.522-5.37-4.809-3.758-4.809-3.758l-8.846-5.85s-4.432-3.808-3.691-7.5,4.893-6.612,4.893-6.612Z" transform="translate(2303.9 1884.799)"/>
        <path id="Path_311" data-name="Path 311" class="cls-15" d="M5062.627,395.43,4952.256,542.406l315.565,174.075L5502.645,584.2,5088.337,367.934Z" transform="translate(2287.505 1712.441)"/>
        <path id="Path_312" data-name="Path 312" class="cls-16" d="M0,.046,10.034,0,3.366,5.737Z" transform="matrix(0.875, 0.485, -0.485, 0.875, 7546.6, 2424.071)"/>
        <rect id="Rectangle_54" data-name="Rectangle 54" class="cls-17" width="112.59" height="5.874" transform="matrix(0.875, 0.485, -0.485, 0.875, 7451.212, 2370.987)"/>
        <path id="Path_313" data-name="Path 313" class="cls-18" d="M5062.627,395.43,4952.256,542.406l315.565,174.075L5088.337,367.934h0Z" transform="translate(2287.505 1712.441)"/>
        <path id="Path_314" data-name="Path 314" class="cls-19" d="M4.135-4.182,175.905,90.687c4.326,0,13.961-16.9,13.961-12.575L182.1,223.134c0,4.326,32.582,122.066,28.256,122.066L10.888,232.548S0,227.459,0,223.134V7.745C0,3.419-.191-4.182,4.135-4.182Z" transform="translate(7327.625 1867.096)"/>
        <path id="Path_315" data-name="Path 315" class="cls-20" d="M201.1,81.9l87.687,50.947c4.326,0-13.45,8.365-13.45,12.69l-50.3,36.3c0,4.326-22.817,132.977-27.143,132.977L-4.9,199.3c-1.587-.788-1.9-.277-1.9-.277l1.153-.739,189.737-114.9C192.905,78.5,196.773,81.9,201.1,81.9Z" transform="translate(7336.579 1664.613)"/>
        <path id="Path_316" data-name="Path 316" class="cls-21" d="M276.033,1.987c22.16,0,49.362,4.407,71.7,15.943,27.295,14.093,51.347,39.289,71.18,71.8,37.756,61.89,60.109,150.286,60.109,238.632,0,119-57.083,231.99-129.149,279.749-32.193,21.335-71.577,15.757-102.988,15.757-17.281,0-82.538,2.086-97.024-5.261C80.037,583.193,0,457.173,0,314.234,0,182.662,66.043,63.1,130.311,14.861c7.187-5.394,8.3-10.173,27.94-12.835C191.721-2.51,260.8,1.987,276.033,1.987Z" transform="translate(7381.044 1866.077) rotate(-29)"/>
        <path id="Path_317" data-name="Path 317" class="cls-22" d="M294.455,11.276s-2.176,4.69-7.195,12.979a242.744,242.744,0,0,1-18.443,26.3c-11.966,14.965-27.4,34.64-55.292,53.123-32.193,21.335-71.577,15.757-102.988,15.757-17.281,0-82.538,2.086-97.024-5.261C-56.314,78.758,167.2,0,167.2,0l77.9,7.626Z" transform="translate(7744.854 2241.161) rotate(-29)"/>
        <ellipse id="Ellipse_39" data-name="Ellipse 39" class="cls-23" cx="182.102" cy="311.825" rx="182.102" ry="311.825" transform="translate(7365.014 1874.138) rotate(-29)"/>
        <rect id="Rectangle_46" data-name="Rectangle 46" class="cls-24" width="18.859" height="28.843" transform="translate(7116.835 2306.291)"/>
        <ellipse id="Ellipse_40" data-name="Ellipse 40" class="cls-25" cx="124.828" cy="207.557" rx="124.828" ry="207.557" transform="translate(7465.068 1939.888) rotate(-29)"/>
        <ellipse id="Ellipse_41" data-name="Ellipse 41" class="cls-26" cx="119.443" cy="205.599" rx="119.443" ry="205.599" transform="translate(7474.858 1937.929) rotate(-29)"/>
        <path id="Path_318" data-name="Path 318" class="cls-27" d="M82.787,0s29.061,15.408,51.875,60.661c9.509,18.862,18.085,45.547,23.284,73.428,3.82,20.487,5.114,41.452,5.114,61.621,0,39.326-5.246,73.141-18.39,106.172-6.279,20.778-18.022,42.221-29.161,56.366C96.292,386.057,63.774,397.3,63.774,397.3S0,299.426,0,187.5,82.787,0,82.787,0Z" transform="translate(7547.412 1910.091) rotate(-29)"/>
        <path id="Path_319" data-name="Path 319" class="cls-28" d="M4991.277,490.574l296.507-169.685a25.1,25.1,0,0,1,8.784-1.889,36.7,36.7,0,0,1,9.932,1.889l177.082,102.283s4.659,3.165,5.191,3.945,1.669,2.114,1.669,3.436.442,2.56-1.292,4.614-5.944,4.493-5.944,4.493L5028.065,703.038a44.182,44.182,0,0,1-11.342,1.334,18.833,18.833,0,0,1-8.24-2.381l-9.24-4.728a38.6,38.6,0,0,0-6.082-1c-1.454.085-5.4,1.954-5.4,1.954l-11.616,6.152a28.932,28.932,0,0,1-8.308,1.406c-4.248,0-11.368-3.787-11.368-3.787l-128.815-74.517s-2.862-4.064-2.5-7.175a12.46,12.46,0,0,1,2.483-5.685l4.975-2.616s8.279-4.009,8.235-5.227-4.647-3.657-4.647-3.657l-8.549-5.693s-4.284-3.707-3.568-7.3,4.729-6.435,4.729-6.435Z" transform="translate(2290.193 1713.466)"/>
        <path id="Path_320" data-name="Path 320" class="cls-29" d="M26.559,30.475,101.085,0l-4.95,39.83L82.763,148.458A83.518,83.518,0,0,0,83,159.384a13.225,13.225,0,0,0,3.308,7.793L6.524,201.019c-2.623,0-6.524-3.7-6.524-6.406l17.015-152.5C17.015,39.413,23.936,30.475,26.559,30.475Z" transform="matrix(0.391, -0.921, 0.921, 0.391, 7076.547, 2432.348)"/>
        <path id="Path_321" data-name="Path 321" class="cls-30" d="M-.806-1.016A43.713,43.713,0,0,0,4.273-3.131C7.66-4.754,12.16-7.372,14.941-8.742c4.941-2.432,6.269-1.1,6.269-1.1V75.645L-1.009,86.838Z" transform="translate(7264.008 2419.402)"/>
        <path id="Path_322" data-name="Path 322" class="cls-31" d="M5022.917,706.792l.269,89.2,6.085-.366,53.756-31.2,54.705-31.746a64.927,64.927,0,0,0,13.384-15.178c5.645-9.111,4.2-9.073,9.2-21.267s5.844-16.582,11.095-27.188,9.908-15.236,9.908-15.236,4.18-5.011,15.158-12.42,28.753-17.215,28.753-17.215L5490.521,471.7a12.89,12.89,0,0,0,2.689-5.136c.988-3.406.947-1.128,1.263-8.488s-.442-19.553,0-20.95-3.953,3-3.953,3S5042.608,701.633,5032.57,705.237,5022.917,706.792,5022.917,706.792Z" transform="translate(2286.025 1710.017)"/>
        <path id="Path_323" data-name="Path 323" class="cls-32" d="M-5.452-20.008s5.929.356,8.4,2.5c.817.146,6.876,3.665,10.779,4.868s6,.49,6,.49.834,81.448.578,84.781a3.262,3.262,0,0,0,2.067,3.182c1.361.7,4.365-.259,4.365-.259S24.015,79.6,16.1,76.569-5.452,65.956-5.452,65.956Z" transform="translate(7289.557 2429.397)"/>
        <path id="Path_324" data-name="Path 324" class="cls-33" d="M15.644,0,458.6,2.089c10.814,0,30.487,5.388,40.3,20.073l66.509,115.155c2.948,11-8.967,17.873-20.7,18.549H94.349c-10.814,0-28.487-21.475-28.57-24.075L0,14.749C0,3.935,4.829,0,15.644,0Z" transform="translate(7164.772 2299.432) rotate(-30)"/>
        <path id="Path_326" data-name="Path 326" class="cls-34" d="M3.475,8.006,95.192,0l-4.3,7.673L0,16.856Z" transform="translate(7303.229 2427.599) rotate(-22)"/>
        <path id="Path_327" data-name="Path 327" class="cls-35" d="M3.48,8.1,95.088,0l-4.3,7.673L0,16.949Z" transform="translate(7303.325 2446.162) rotate(-22)"/>
        <path id="Path_328" data-name="Path 328" class="cls-36" d="M3.48,8.1,95.088,0l-4.3,7.673L0,16.949Z" transform="translate(7303.325 2462.805) rotate(-22)"/>
        <path id="Path_329" data-name="Path 329" class="cls-37" d="M0,16.011,135.623,0l-4.186,7.462L.982,26.932Z" transform="translate(7514.909 2347.26) rotate(-22)"/>
        <path id="Path_330" data-name="Path 330" class="cls-37" d="M0,16.011,135.623,0l-4.186,7.462L.982,26.932Z" transform="translate(7524.43 2366.303) rotate(-22)"/>
        <path id="Path_331" data-name="Path 331" class="cls-37" d="M0,16.011,135.623,0l-4.186,7.462L.982,26.932Z" transform="translate(7533.952 2384.394) rotate(-22)"/>
        <g id="Group_103" data-name="Group 103" transform="translate(7107.453 1886.559)">
          <g id="Group_84" data-name="Group 84" transform="translate(0 0)">
            <path id="Path_247" data-name="Path 247" class="cls-38" d="M4.8,110.319V225.094L182.072,122.438V7.9Z" transform="translate(6.606 10.932)"/>
            <path id="Path_248" data-name="Path 248" class="cls-39" d="M6.178,101.5,180.837.51a3.238,3.238,0,0,1,3.564,0h0l6.654,3.8L186.064,21.9V137.622a11.494,11.494,0,0,1-5.941,10.218L11.882,245.269,9.98,250.5l-6.654-3.8h0A6.593,6.593,0,0,1,0,240.991V112.2A12.775,12.775,0,0,1,6.178,101.5Z" transform="translate(0 0.025)"/>
            <path id="Path_249" data-name="Path 249" class="cls-13" d="M2.8,114.025v128.8a6.4,6.4,0,0,0,9.743,5.465l170.618-98.854a11.983,11.983,0,0,0,5.941-10.218V5.19A3.43,3.43,0,0,0,183.874,2.1L8.978,103.332A12.185,12.185,0,0,0,2.8,114.025Z" transform="translate(3.854 2.236)"/>
            <path id="Path_250" data-name="Path 250" class="cls-40" d="M4.8,110.319V225.094L182.072,122.438V7.9Z" transform="translate(6.606 10.932)"/>
          </g>
          <g id="Group_85" data-name="Group 85" transform="translate(28.029 113.381)">
            <path id="Path_251" data-name="Path 251" class="cls-13" d="M33.193,52.706c9.03-5.228,16.634-4.99,17.109-4.99C59.808,47,61,60.31,60.045,64.588s0,4.99.475,5.941c.475.713,3.327,3.564,4.04,4.99s-1.9,4.04-2.852,4.99-.238,2.139,0,3.327S60.045,87.4,60.045,87.4a2.6,2.6,0,0,1,.238,2.614,8.508,8.508,0,0,1-1.426,2.614c.475,5.466-2.139,8.079-5.941,10.218-1.663.951-3.564,1.9-5.465,2.852a.233.233,0,0,0-.238.238c-6.178,3.564-6.416,16.4-6.416,16.872L12.519,139.2c10.218-24.238,4.277-36.12,4.04-36.833-5.228-4.277-4.753-12.832-4.753-13.307A47.79,47.79,0,0,1,22.737,60.548,57.035,57.035,0,0,1,33.193,52.706Z" transform="translate(-11.795 -47.688)"/>
          </g>
          <g id="Group_86" data-name="Group 86" transform="translate(93.389 65.408)">
            <path id="Path_252" data-name="Path 252" class="cls-13" d="M39.3,49.362v4.277L76.846,31.777V27.5Z" transform="translate(-39.3 -27.5)"/>
            <path id="Path_253" data-name="Path 253" class="cls-13" d="M39.3,57.339,76.846,35.477V31.2L39.3,53.062Z" transform="translate(-39.3 -22.408)"/>
            <path id="Path_254" data-name="Path 254" class="cls-13" d="M65.915,37.6,39.3,52.808v4.277L65.915,41.877Z" transform="translate(-39.3 -13.599)"/>
            <path id="Path_255" data-name="Path 255" class="cls-13" d="M39.3,68.339,76.846,46.477V42.2L39.3,64.062Z" transform="translate(-39.3 -7.268)"/>
            <path id="Path_256" data-name="Path 256" class="cls-13" d="M71.618,39.8,39.3,58.573V62.85L71.618,44.077Z" transform="translate(-39.3 -10.571)"/>
            <path id="Path_257" data-name="Path 257" class="cls-13" d="M39.3,66.709,61.637,53.64V49.6L39.3,62.432Z" transform="translate(-39.3 2.916)"/>
          </g>
          <g id="Group_87" data-name="Group 87" transform="translate(141.39 37.605)">
            <path id="Path_258" data-name="Path 258" class="cls-13" d="M59.5,37.662v4.277L97.283,20.077V15.8Z" transform="translate(-59.5 -15.8)"/>
            <path id="Path_259" data-name="Path 259" class="cls-13" d="M59.5,45.539,97.283,23.677V19.4L59.5,41.262Z" transform="translate(-59.5 -10.845)"/>
            <path id="Path_260" data-name="Path 260" class="cls-13" d="M86.115,25.8,59.5,41.246v4.277L86.115,30.077Z" transform="translate(-59.5 -2.037)"/>
            <path id="Path_261" data-name="Path 261" class="cls-13" d="M59.5,56.539,97.283,34.677V30.4L59.5,52.262Z" transform="translate(-59.5 4.294)"/>
            <path id="Path_262" data-name="Path 262" class="cls-13" d="M91.818,28.1,59.5,46.873v4.04L91.818,32.14Z" transform="translate(-59.5 1.129)"/>
            <path id="Path_263" data-name="Path 263" class="cls-13" d="M59.5,55.147l22.575-13.07V37.8L59.5,50.87Z" transform="translate(-59.5 14.479)"/>
          </g>
          <path id="Path_264" data-name="Path 264" class="cls-13" d="M108.6,50.863,96.952,56.329l-3.327-5.465a.868.868,0,0,0-1.188-.475,1.061,1.061,0,0,0-.951.713L85.308,70.587,80.08,50.151a1.218,1.218,0,0,0-2.376,0l-3.564,18.3L48,83.181l1.188,1.9L75.8,70.111c.238-.238.475-.475.475-.713l2.614-13.783,4.99,19.248c.238.475.475.951,1.188.951a1.307,1.307,0,0,0,1.188-.713L92.912,54.19l2.376,4.277a1.143,1.143,0,0,0,1.426.475l12.594-5.7Z" transform="translate(66.062 67.773)"/>
        </g>
        <g id="Group_110" data-name="Group 110" class="cls-6" transform="translate(7570.869 2248.716) rotate(21)">
          <path id="Path_284-2" data-name="Path 284" class="cls-7" d="M9.3,5.385v.979L0,1.077V0Z"/>
          <path id="Path_285-2" data-name="Path 285" class="cls-7" d="M9.3,6.364,0,1.077V0L9.3,5.385Z" transform="translate(0 2.154)"/>
          <path id="Path_286-2" data-name="Path 286" class="cls-7" d="M0,0,6.56,3.818V4.8L0,1.077Z" transform="translate(2.741 5.874)"/>
          <path id="Path_287-2" data-name="Path 287" class="cls-7" d="M9.3,6.364,0,.979V0L9.3,5.287Z" transform="translate(0 8.616)"/>
          <path id="Path_288-2" data-name="Path 288" class="cls-7" d="M0,0,8.028,4.6V5.678L0,1.077Z" transform="translate(1.273 7.147)"/>
          <path id="Path_289-2" data-name="Path 289" class="cls-7" d="M5.581,4.308,0,1.077V0L5.581,3.231Z" transform="translate(3.72 12.825)"/>
        </g>
        <g id="Group_111" data-name="Group 111" transform="translate(7471.247 1924.859)">
          <g id="Group_98-2" data-name="Group 98" transform="translate(0 0)">
            <path id="Path_306-2" data-name="Path 306" class="cls-39" d="M29.943,17.789C32.2,19.246,34,22.887,34,25.9l-.09,35.786c0,3.017-1.8,4.161-4.059,2.7L4.059,47.23C1.8,45.773,0,42.132,0,39.115L.09,3.329c0-3.017,1.8-4.161,4.059-2.7Z" transform="translate(0 0.004)"/>
          </g>
          <g id="Group_102" data-name="Group 102" transform="translate(369.099 191.892)">
            <path id="Path_306-3" data-name="Path 306" class="cls-39" d="M29.943,17.789C32.2,19.246,34,22.887,34,25.9l-.09,35.786c0,3.017-1.8,4.161-4.059,2.7L4.059,47.23C1.8,45.773,0,42.132,0,39.115L.09,3.329c0-3.017,1.8-4.161,4.059-2.7Z" transform="translate(0 0.004)"/>
          </g>
        </g>
        <g id="Group_161" data-name="Group 161" transform="matrix(0.643, 0.766, -0.766, 0.643, 7535.918, 2014.053)">
          <path id="Path_291" data-name="Path 291" class="cls-41" d="M22.825,111.449s4.185,14.871-2.646,16.863-22.4,4.2-19.838,15.866c2.846,11.1,16.792,6.261,19.638,4.838s13.709-8.712,19.117-10.7c5.692-1.992,2.454-13.655.462-23.331C37.85,105.3,22.825,111.449,22.825,111.449Z" transform="translate(31.357 257.576)"/>
          <path id="Path_292" data-name="Path 292" class="cls-41" d="M42.411,118.1s4.815,8.194-2.016,10.186-30.915,11.922-24.654,21.6S32.533,156.427,35.379,155,49.528,146.873,55.22,144.6c5.692-1.992,8.047-10.778,6.055-20.454C59.282,114.751,42.411,118.1,42.411,118.1Z" transform="translate(52.129 256.739)"/>
          <path id="Path_293" data-name="Path 293" class="cls-42" d="M68.651,63.5S58.462,132.951,51.768,184.2s-9.893,84.285-9.893,84.285-2.571.957,11.139,3.112c2.067.325,6.531-.715,9.907-.155,0,0,10.977-40.767,21.179-88.015,4.948-22.915,6.54-47.572,11.583-64.426A266.756,266.756,0,0,0,102.8,90.253l6.261-24.476Z" transform="translate(11.22 117.173)"/>
          <path id="Path_290" data-name="Path 290" class="cls-43" d="M18.784,0s-6.83,6.261-9.676,8.253C3.131,12.522,0,19.068,0,22.2c.285,3.131,2.561,8.253,4.838,9.107s4.554-6.546,6.546-9.392c4.269-5.977,7.115-5.977,7.115-5.977-.285,0-1.138,2.561-1.138,2.846a53.069,53.069,0,0,1-2.846,5.692c0,.285-.285.285,0,.569,0,.285.285.285.569.285,2.561.285,5.692-2.846,6.546-4.838.854-2.277,9.961-14.23,9.961-14.23Z" transform="matrix(0.891, -0.454, 0.454, 0.891, 56.466, 195.112)"/>
          <path id="Path_294" data-name="Path 294" class="cls-42" d="M72.929,66,69.611,83.7l-3.3,74.663S53.281,229.78,54.989,259.094c0,0,3.866,7.379,20.658-1.728,0,0,14.247-59.115,15.1-67.083l10.736-61.359s12.828-50.425,9.129-58.109Z" transform="translate(37.279 124.372)"/>
          <path id="Path_295" data-name="Path 295" class="cls-44" d="M60.313,27.26s-17.844,1.771-16.99,22.547l-.285,35.86s-1.468,55.207-7.186,59.542c0,0,4.992.63,17.23,4.045l8.171-47.08Z" transform="translate(41.639 44.232) rotate(3)"/>
          <path id="Path_296" data-name="Path 296" class="cls-45" d="M70.368,20.5l1.138,15.084S68.66,46.114,55.284,47.537C41.623,48.96,36.5,39,36.5,39V26.477Z" transform="translate(79.817 40.022)"/>
          <path id="Path_297" data-name="Path 297" class="cls-46" d="M86.529,28.407s25.54.693,35.786,11.508c0,0-21.555,43.42-24.4,110.586,0,0-18.654,6.911-43.491.869-6.372-1.549-15.2.778-22.143-4.155,0,0,8.381-25.632,10.281-47.182,1.757-19.92,1.008-45.54,3.359-63.8,0,0-.968-9.481,7-8.343l7.4.1Z" transform="translate(49.693 45.256)"/>
          <path id="Path_298" data-name="Path 298" class="cls-43" d="M82.451,50.029S77.328,73.366,55.7,72.8c-24.76-.285-25.9-33.014-22.484-48.1C36.345,10.469,53.706-6.038,70.782,5.062,83.589,13.6,87.858,28.968,82.451,50.029Z" transform="translate(71.149 4.801)"/>
          <path id="Path_299" data-name="Path 299" class="cls-47" d="M65.638.8s21.63,1.423,26.183,28.46c0,0,3.131,22.484-13.661,37,0,0,.569-9.392-.569-11.1s3.7-7.115,3.131-10.53-.854-9.961-4.838-6.83l-1.423,1.423c-1.423,1.423-3.415.285-3.415-1.708.285-2.846.285-5.692-1.138-7.684-2.846-4.269-18.784,8.538-35.291,5.407,0,0-4.554-.285-3.984-6.83C30.632,28.126,36.893-5.457,65.638.8Z" transform="translate(68.893 2.228)"/>
          <path id="Path_300" data-name="Path 300" class="cls-48" d="M65.629,24.6,51.4,28.015,36.6,32.569l1.138,6.83,6.83,3.131L58.8,35.984l8.253-7.969Z" transform="translate(80.002 47.591)"/>
          <path id="Path_301" data-name="Path 301" class="cls-44" d="M65.868,24.2l3.7,5.407L46.515,52.091,39.4,43.268Z" transform="translate(83.762 46.976)"/>
          <path id="Path_302" data-name="Path 302" class="cls-44" d="M47.522,42.53l-8.538,7.4L35,24.6Z" transform="translate(75.639 47.714)"/>
          <path id="Path_303" data-name="Path 303" class="cls-47" d="M66.083,13.854s2.846,22.768-4.269,28.176A31.476,31.476,0,0,1,36.2,43.452s-5.977,6.83-.854,11.384c4.838,4.269,25.9,3.415,30.737-1.708S72.059,24.953,69.5,15.277L67.221,13Z" transform="translate(73.856 26.177)"/>
          <path id="Path_304" data-name="Path 304" class="cls-43" d="M37.315,95.83c0-3.415.854-6.546,3.7-12.238a17.362,17.362,0,0,0-4.269,3.7c-1.992,2.277-2.846,0-2.846,0,.285-1.708,5.123-8.538,7.4-10.246a77.166,77.166,0,0,0,5.977-5.407l1.138.569a8.052,8.052,0,0,0,.854-1.708s10.246,8.538,9.676,11.669-7.115,7.4-8.538,10.53c-1.992,4.269-.569,8.253-1.992,11.384-1.138,3.131-5.407,3.131-7.4,2.846C39.307,106.36,37.315,100.1,37.315,95.83Z" transform="translate(94.863 123.952)"/>
          <path id="Path_305" data-name="Path 305" class="cls-44" d="M102.726,62.538c.285-17.645-.7-28.807-.7-28.807C84.093,38.854,83.734,55.066,83.165,56.2c-.854,1.138-4.777,35.339-4.777,35.339L67.342,146.488A29.547,29.547,0,0,0,82.369,159.1l13.068-53.247C99.137,102.15,102.726,73.069,102.726,62.538Z" transform="translate(70.929 51.086)"/>
        </g>
      </g>
      <g id="Group_153" data-name="Group 153" transform="translate(1011.301 413.761)">
        <g id="Group_98-3" data-name="Group 98" transform="translate(0 0)">
          <path id="Path_306-4" data-name="Path 306" class="cls-26" d="M41.752,21.51a12.348,12.348,0,0,1,5.659,9.809l-.126,43.261c0,3.647-2.515,5.03-5.659,3.27L5.659,57.1A12.348,12.348,0,0,1,0,47.291L.126,4.03C.126.383,2.641-1,5.785.76Z"/>
        </g>
        <g id="Group_99-2" data-name="Group 99" transform="translate(7.639 23.792)">
          <path id="Path_307-2" data-name="Path 307" class="cls-13" d="M3.773.572C1.509-.686,0,.195,0,2.584A8.312,8.312,0,0,0,3.773,9.124C5.785,10.255,7.42,9.249,7.42,6.86A8.264,8.264,0,0,0,3.773.572Z" transform="translate(12.483 21.292)"/>
          <path id="Path_308-2" data-name="Path 308" class="cls-13" d="M19.131,10.811a27.2,27.2,0,0,0-4.9-6.288L13.6,3.894A23.6,23.6,0,0,0,10.58,1.63,10.436,10.436,0,0,0,3.663.121a5.577,5.577,0,0,0-3.4,1.761c-.5.629-.252,2.138.377,3.27A5.562,5.562,0,0,0,2.28,6.912a1.845,1.845,0,0,0,1.761.252c.5-.252.88-.755,1.383-.88a5.9,5.9,0,0,1,5.282.755,16.032,16.032,0,0,1,5.282,5.533l.88,1.635a3.277,3.277,0,0,0,1.383,1.509c1.258.755,2.515.126,2.515-1.258a6.188,6.188,0,0,0-1.006-2.767C19.509,11.44,19.383,11.062,19.131,10.811Z" transform="translate(5.927 10.173)"/>
          <path id="Path_309-2" data-name="Path 309" class="cls-13" d="M31.976,20.858a11.68,11.68,0,0,0-.5-1.635,41.154,41.154,0,0,0-5.408-7.8A37.362,37.362,0,0,0,16.13,2.749,30.287,30.287,0,0,0,11.98.862,17.327,17.327,0,0,0,8.71.108,11.252,11.252,0,0,0,1.039,1.743,1.528,1.528,0,0,0,.033,3a4.126,4.126,0,0,0,.5,2.389A4.783,4.783,0,0,0,2.045,7.025c.252.126.377.252.629.252,1.006.252,1.635-.629,2.264-1.006a9.958,9.958,0,0,1,5.156-.88,18.285,18.285,0,0,1,5.785,1.886c.126.126.252.126.377.252A33.311,33.311,0,0,1,27.071,18.469a14.26,14.26,0,0,0,2.012,3.27c.252.252.5.377.755.629a1.352,1.352,0,0,0,1.509.126C31.976,22.493,32.1,21.738,31.976,20.858Z" transform="translate(0 0)"/>
        </g>
      </g>
      <g id="Group_154" data-name="Group 154" transform="translate(-59 -29)">
        <path id="Path_407" data-name="Path 407" class="cls-26" d="M41.752,21.51a12.348,12.348,0,0,1,5.659,9.809l-.126,43.261c0,3.647-2.515,5.03-5.659,3.27L5.659,57.1A12.348,12.348,0,0,1,0,47.291L.126,4.03C.126.383,2.641-1,5.785.76Z" transform="translate(1070.301 370.761)"/>
        <path id="Path_408" data-name="Path 408" class="cls-13" d="M13.344,23.193c-.09-.676-.541-4.193-.586-4.914a18.6,18.6,0,0,0-.5-2.254,11.571,11.571,0,0,0-.451-2.885,9.178,9.178,0,0,0-.18-2.3C11.5,9.8,10.278,8.632,9.287,7.866A3.258,3.258,0,0,1,8.115,6.243V5.116c.045-.09.135-.541.27-.5s.361-.676.361-.9a.248.248,0,0,0-.135-.225c-.09-.045-.225-.045-.225-.09A4.42,4.42,0,0,0,8.43,2.366,3.188,3.188,0,0,0,6.988.067C6.9.022,5.5-.61,5.545.7c0,.045,0,.676.045,1.082a1.233,1.233,0,0,0-.225-.18c-.09-.045-.135-.045-.135.045A3.7,3.7,0,0,0,5.59,3c.09.09.18.676.27.811V4.935c0,.045-.27.541-1.217.18C3.606,4.8,2.389,4.53,2.254,5.431A6.917,6.917,0,0,0,2.074,7.5a10.1,10.1,0,0,0-.451,2.389,5.269,5.269,0,0,0-.5,1.668c-.045.676-.5,3.652-.631,4.238-.09.541-.5,1.352-.5,1.713a4.725,4.725,0,0,0,.316,1.623c.18.225.721.9.811.992.045,0,.09-.135-.09-.541-.225-.406-.27-.451-.27-.676.045-.225-.045-.5,0-.676s.09-.406.18-.316a2.232,2.232,0,0,1,.18.586c.045.18.135.451.27.5.09.045.225-.18.09-.586a14.525,14.525,0,0,1-.18-1.758c-.09-.225.541-1.217.857-1.623A9.219,9.219,0,0,0,3.2,11.923c.045-1.037.361-1.443.451-1.4a2.106,2.106,0,0,1,.18.631,16.414,16.414,0,0,1,.18,2.66c-.045.9-.045,1.127-.045,1.352a18.823,18.823,0,0,1-.316,2.3A20.469,20.469,0,0,0,3.2,21.751a33.763,33.763,0,0,0,.451,4.283,16.321,16.321,0,0,1,.09,2.615,13.106,13.106,0,0,0-.135,3.471,47.035,47.035,0,0,1,.406,5,.952.952,0,0,1-.5.406,1.438,1.438,0,0,1-.721.09c-.225-.045-.766.045-.676.316a.462.462,0,0,0,.225.27c.045.045.135.045.27.09.135.09.361.225.406.27a4.5,4.5,0,0,0,.811.406.762.762,0,0,1,.225.09,5.626,5.626,0,0,1,.541.361,1.4,1.4,0,0,0,.27.18c.27.18.631.27.541-.5a7.628,7.628,0,0,1-.18-2.344c.09-.631.406-2.525.631-3.426a11.52,11.52,0,0,0-.135-3.02c0-.18.361-2.074.406-2.525s.451-3.516.5-4.328a7.079,7.079,0,0,1,.316-1.938,11.947,11.947,0,0,1,.316,2.3c.045.9.451,4.418.451,4.914.045.5.406,2.8.406,2.975A9.768,9.768,0,0,0,7.979,34.6c.225,1.127.5,3.381.586,4.1a5.8,5.8,0,0,1-.18,2.119A.91.91,0,0,0,8.926,41.9c.135.09.225.09.27.135a4.7,4.7,0,0,1,.541.225.45.45,0,0,1,.225.18,5.016,5.016,0,0,0,.811.541c.09.045.27.135.5.27a.986.986,0,0,0,.225.135.2.2,0,0,0,.225,0c.09-.18-.406-.857-.676-1.082a6.182,6.182,0,0,1-.721-.9c-.316-.451-.451-.947-.5-.947a27.928,27.928,0,0,1,.406-4.553A15.046,15.046,0,0,0,10.1,32.3a13.9,13.9,0,0,1,.09-2.479,33.274,33.274,0,0,0,.541-3.652,28.566,28.566,0,0,0-.451-4.779,19.96,19.96,0,0,1-.316-2.7c0-.225,0-.451-.045-1.443a13.065,13.065,0,0,1,.18-2.479c.045-.09.135-.406.18-.406a3.936,3.936,0,0,1,.451,1.938,21.4,21.4,0,0,0,.992,4.283,13.992,13.992,0,0,1,.811,2.57c-.09.135-.09,1.262-.225,1.533a.747.747,0,0,0,.09.721c.09.045.225-.09.27-.18.045-.135.09-.361.225-.406a1.744,1.744,0,0,1,.135.541,1.94,1.94,0,0,1,0,.721c.045.27-.045.18-.27.361s-.18.361-.09.406a2.527,2.527,0,0,0,.811-.045c.18-.045.316-.857.316-1.262A11.084,11.084,0,0,0,13.344,23.193Z" transform="translate(1085.133 388.693)"/>
      </g>
      <g id="Group_157" data-name="Group 157" transform="translate(-2 73)">
        <path id="Path_407-2" data-name="Path 407" class="cls-26" d="M41.752,21.51a12.348,12.348,0,0,1,5.659,9.809l-.126,43.261c0,3.647-2.515,5.03-5.659,3.27L5.659,57.1A12.348,12.348,0,0,1,0,47.291L.126,4.03C.126.383,2.641-1,5.785.76Z" transform="translate(1070.301 370.761)"/>
        <path id="Path_408-2" data-name="Path 408" class="cls-13" d="M13.344,23.193c-.09-.676-.541-4.193-.586-4.914a18.6,18.6,0,0,0-.5-2.254,11.571,11.571,0,0,0-.451-2.885,9.178,9.178,0,0,0-.18-2.3C11.5,9.8,10.278,8.632,9.287,7.866A3.258,3.258,0,0,1,8.115,6.243V5.116c.045-.09.135-.541.27-.5s.361-.676.361-.9a.248.248,0,0,0-.135-.225c-.09-.045-.225-.045-.225-.09A4.42,4.42,0,0,0,8.43,2.366,3.188,3.188,0,0,0,6.988.067C6.9.022,5.5-.61,5.545.7c0,.045,0,.676.045,1.082a1.233,1.233,0,0,0-.225-.18c-.09-.045-.135-.045-.135.045A3.7,3.7,0,0,0,5.59,3c.09.09.18.676.27.811V4.935c0,.045-.27.541-1.217.18C3.606,4.8,2.389,4.53,2.254,5.431A6.917,6.917,0,0,0,2.074,7.5a10.1,10.1,0,0,0-.451,2.389,5.269,5.269,0,0,0-.5,1.668c-.045.676-.5,3.652-.631,4.238-.09.541-.5,1.352-.5,1.713a4.725,4.725,0,0,0,.316,1.623c.18.225.721.9.811.992.045,0,.09-.135-.09-.541-.225-.406-.27-.451-.27-.676.045-.225-.045-.5,0-.676s.09-.406.18-.316a2.232,2.232,0,0,1,.18.586c.045.18.135.451.27.5.09.045.225-.18.09-.586a14.525,14.525,0,0,1-.18-1.758c-.09-.225.541-1.217.857-1.623A9.219,9.219,0,0,0,3.2,11.923c.045-1.037.361-1.443.451-1.4a2.106,2.106,0,0,1,.18.631,16.414,16.414,0,0,1,.18,2.66c-.045.9-.045,1.127-.045,1.352a18.823,18.823,0,0,1-.316,2.3A20.469,20.469,0,0,0,3.2,21.751a33.763,33.763,0,0,0,.451,4.283,16.321,16.321,0,0,1,.09,2.615,13.106,13.106,0,0,0-.135,3.471,47.035,47.035,0,0,1,.406,5,.952.952,0,0,1-.5.406,1.438,1.438,0,0,1-.721.09c-.225-.045-.766.045-.676.316a.462.462,0,0,0,.225.27c.045.045.135.045.27.09.135.09.361.225.406.27a4.5,4.5,0,0,0,.811.406.762.762,0,0,1,.225.09,5.626,5.626,0,0,1,.541.361,1.4,1.4,0,0,0,.27.18c.27.18.631.27.541-.5a7.628,7.628,0,0,1-.18-2.344c.09-.631.406-2.525.631-3.426a11.52,11.52,0,0,0-.135-3.02c0-.18.361-2.074.406-2.525s.451-3.516.5-4.328a7.079,7.079,0,0,1,.316-1.938,11.947,11.947,0,0,1,.316,2.3c.045.9.451,4.418.451,4.914.045.5.406,2.8.406,2.975A9.768,9.768,0,0,0,7.979,34.6c.225,1.127.5,3.381.586,4.1a5.8,5.8,0,0,1-.18,2.119A.91.91,0,0,0,8.926,41.9c.135.09.225.09.27.135a4.7,4.7,0,0,1,.541.225.45.45,0,0,1,.225.18,5.016,5.016,0,0,0,.811.541c.09.045.27.135.5.27a.986.986,0,0,0,.225.135.2.2,0,0,0,.225,0c.09-.18-.406-.857-.676-1.082a6.182,6.182,0,0,1-.721-.9c-.316-.451-.451-.947-.5-.947a27.928,27.928,0,0,1,.406-4.553A15.046,15.046,0,0,0,10.1,32.3a13.9,13.9,0,0,1,.09-2.479,33.274,33.274,0,0,0,.541-3.652,28.566,28.566,0,0,0-.451-4.779,19.96,19.96,0,0,1-.316-2.7c0-.225,0-.451-.045-1.443a13.065,13.065,0,0,1,.18-2.479c.045-.09.135-.406.18-.406a3.936,3.936,0,0,1,.451,1.938,21.4,21.4,0,0,0,.992,4.283,13.992,13.992,0,0,1,.811,2.57c-.09.135-.09,1.262-.225,1.533a.747.747,0,0,0,.09.721c.09.045.225-.09.27-.18.045-.135.09-.361.225-.406a1.744,1.744,0,0,1,.135.541,1.94,1.94,0,0,1,0,.721c.045.27-.045.18-.27.361s-.18.361-.09.406a2.527,2.527,0,0,0,.811-.045c.18-.045.316-.857.316-1.262A11.084,11.084,0,0,0,13.344,23.193Z" transform="translate(1085.133 388.693)"/>
      </g>
      <g id="Group_158" data-name="Group 158" transform="translate(-2 4)">
        <path id="Path_407-3" data-name="Path 407" class="cls-26" d="M41.752,21.51a12.348,12.348,0,0,1,5.659,9.809l-.126,43.261c0,3.647-2.515,5.03-5.659,3.27L5.659,57.1A12.348,12.348,0,0,1,0,47.291L.126,4.03C.126.383,2.641-1,5.785.76Z" transform="translate(1070.301 370.761)"/>
        <g id="Group_159" data-name="Group 159" transform="translate(1087.843 393.497) rotate(1)">
          <path id="Path_284-3" data-name="Path 284" class="cls-13" d="M23.739,13.744v2.5L0,2.749V0Z"/>
          <path id="Path_285-3" data-name="Path 285" class="cls-13" d="M23.739,16.243,0,2.749V0L23.739,13.744Z" transform="translate(0 5.498)"/>
          <path id="Path_286-3" data-name="Path 286" class="cls-13" d="M0,0,16.742,9.746v2.5L0,2.749Z" transform="translate(6.997 14.993)"/>
          <path id="Path_287-3" data-name="Path 287" class="cls-13" d="M23.739,16.243,0,2.5V0L23.739,13.494Z" transform="translate(0 21.99)"/>
          <path id="Path_288-3" data-name="Path 288" class="cls-13" d="M0,0,20.491,11.745v2.749L0,2.749Z" transform="translate(3.249 18.242)"/>
          <path id="Path_289-3" data-name="Path 289" class="cls-13" d="M14.244,11,0,2.749V0L14.244,8.246Z" transform="translate(9.496 32.735)"/>
        </g>
      </g>
    </g>
    <g id="Group_145" data-name="Group 145" transform="translate(1282 569.714)">
      <g id="Group_90" data-name="Group 90" transform="translate(3.925 0.023)">
        <g id="Group_89" data-name="Group 89" transform="translate(113.524 67.138)">
          <path id="Path_265" data-name="Path 265" class="cls-48" d="M43.209,34.888s-1.723,4.6-1.149,7.754a13.394,13.394,0,0,1-1.149,7.18c-.287.574,3.159,2.3,3.159,2.3l5.457-2.872,8.042-12.063s2.01-4.882,1.723-5.17c0-.287-8.329-8.616-8.329-8.616Z" transform="translate(-40.894 -23.4)"/>
          <path id="Path_266" data-name="Path 266" class="cls-43" d="M50.329,51.079s7.754-6.606,8.9-10.339,1.149-15.509,2.3-16.371c0,0-4.021-2.01-5.457,5.17-.574,1.436-1.149,3.159-1.723,4.6a18.312,18.312,0,0,1-2.3,4.021,10.851,10.851,0,0,1-3.446,2.585C44.872,43.324,43.723,47.345,42,51.079l6.031,3.159A30.917,30.917,0,0,0,50.329,51.079Z" transform="translate(-38.824 -22.071)"/>
        </g>
        <path id="Path_267" data-name="Path 267" class="cls-49" d="M85.336,30.771l-9.19-3.734.287-5.457L60.062,14.4,55.754,19l-6.031-2.872a3.448,3.448,0,0,0-4.882,2.3L23.3,81.318,59.775,99.7,87.059,35.366A3.243,3.243,0,0,0,85.336,30.771Z" transform="translate(39.693 26.89)"/>
        <path id="Path_268" data-name="Path 268" class="cls-50" d="M44.53,17,77.558,30.786,56.018,87.365,25,74.441Z" transform="translate(42.876 31.757)"/>
        <path id="Path_269" data-name="Path 269" class="cls-51" d="M13.238,25.4s-26.71,11.488,0,46.814Z" transform="translate(-1.367 47.482)"/>
        <path id="Path_270" data-name="Path 270" class="cls-41" d="M24.918,142.818s3.734,3.734,9.478,0a30.944,30.944,0,0,1,12.063-4.6,20.152,20.152,0,0,1,7.18.287c1.723.287,5.17,1.436,6.031,3.446,2.01,4.882-.574,9.19-4.021,12.35-9.765,8.616-21.827,14.935-35.039,16.083-5.744.574-12.637.574-17.807-1.723,0,0-.862-21.54,1.436-24.412Z" transform="translate(1.026 258.337)"/>
        <path id="Path_271" data-name="Path 271" class="cls-52" d="M14.537,66.5s-7.18,27.284-6.318,48.824L1.9,275.871s12.063,10.914,35.613,6.893l9.478-214.54Z" transform="translate(-0.368 124.423)"/>
        <path id="Path_272" data-name="Path 272" class="cls-53" d="M13.6,79.9l4.6,112.3,3.446-76.683Z" transform="translate(21.534 149.508)"/>
        <path id="Path_273" data-name="Path 273" class="cls-41" d="M41.718,147.418s3.734,3.734,9.478,0a30.944,30.944,0,0,1,12.063-4.6,20.152,20.152,0,0,1,7.18.287c1.723.287,5.17,1.436,6.031,3.446,2.01,4.882-.574,9.19-4.021,12.35-9.765,8.616-21.827,14.935-35.039,16.083-5.744.574-12.637.574-17.807-2.01,0,0-.862-21.54,1.436-24.412Z" transform="translate(32.476 266.948)"/>
        <path id="Path_274" data-name="Path 274" class="cls-54" d="M17.672,65.7s-8.042,26.423-2.01,51.7L28.873,294.6a51.464,51.464,0,0,0,35.9,0L56.158,80.347Z" transform="translate(21.196 122.925)"/>
        <path id="Path_275" data-name="Path 275" class="cls-23" d="M79.656,149.595c-2.01-3.734-2.01-32.741-2.01-32.741h0c.862-36.188-.574-72.375-.574-72.375L56.68,30.98,26.236,23.8l-11.2,2.872a10.4,10.4,0,0,0-9.765,8.616c-1.723,8.616-3.446,22.4-1.149,33.6,1.436,7.467,3.159,21.253,4.6,34.464,0,1.436,2.01,27.859,1.149,38.485,0,0-.287,2.3,2.3,4.308,20.1,18.668,63.185,12.35,63.185,12.35C80.518,158.5,81.667,153.328,79.656,149.595Z" transform="translate(1.718 44.487)"/>
        <path id="Path_276" data-name="Path 276" class="cls-55" d="M72.285,31,53.9,67.762s-3.159-17.519-4.6-24.412C48.16,36.744,36.959,31,36.959,31,20.014,39.616,25.184,53.115,25.184,53.115L38.97,99.929c2.01,6.606,9.765,8.329,16.083,5.457L84.348,46.8C82.05,33.01,72.285,31,72.285,31Z" transform="translate(41.83 57.966)"/>
        <path id="Path_277" data-name="Path 277" class="cls-43" d="M22.9,1.787C30.076.638,40.128.351,47.021,2.361,58.8,5.807,65.4,13.275,67.987,24.476c2.872,11.2,3.734,30.156-2.872,40.5-4.021,6.606-12.924,5.457-19.53,3.734-7.754-2.01-17.807-5.457-24.412-10.339C12.27,51.76,7.674,37.113,7.1,26.486,7.1,17.583,11.982,3.51,22.9,1.787Z" transform="translate(9.366 1.593)"/>
        <path id="Path_278" data-name="Path 278" class="cls-48" d="M11.2,20a15.053,15.053,0,0,0,3.159,2.872c6.318,4.882,16.658,8.042,24.412,10.339,1.149.287,2.585.574,4.021.862l-.862,4.308a38.849,38.849,0,0,1-21.54,0c-4.308-1.149-8.616-2.872-8.616-7.467L11.2,20Z" transform="translate(17.042 37.373)"/>
        <path id="Path_279" data-name="Path 279" class="cls-47" d="M25.334,15.4s2.872,14.36,7.754,16.945,7.754.574,7.754.574,1.149,4.021,0,6.893c-.862,2.585-4.882,8.329-7.18,8.616-2.3,0-10.914-3.446-10.914-8.329S21.6,17.985,21.6,17.985l1.149-2.01Z" transform="translate(36.511 28.762)"/>
        <path id="Path_280" data-name="Path 280" class="cls-47" d="M73.369,3.4s-9.19,4.308-23.551-1.723C42.639-1.193,22.534-.618,16.79,5.7h0C9.9,10.3,7.026,20.922,7.313,28.389a54.792,54.792,0,0,0,5.744,21.253c7.18,18.094,20.1,16.945,20.1,16.945,1.723-.862,11.488-8.329,11.488-8.329-3.734-2.3-6.606-14.647-2.585-16.658,4.021-2.3,6.606,5.457,6.606,5.457,2.3-.862,5.744-3.446,3.734-8.042s0-9.478,0-9.478c6.893,0,12.924-3.734,14.935-5.17C67.338,24.368,76.816,18.05,73.369,3.4Z" transform="translate(9.728 -0.023)"/>
        <path id="Path_281" data-name="Path 281" class="cls-13" d="M12.972,21.8,10.1,28.406s12.924,17.519,36.475,8.616L43.7,32.714C43.99,32.714,22.45,35.873,12.972,21.8Z" transform="translate(14.982 40.743)"/>
      </g>
      <path id="Path_282" data-name="Path 282" class="cls-23" d="M83.289,55.1,15.8,83.533S5.17,151.887,0,190.66c0,0,39.634,28.146,94.49,9.19Z" transform="translate(0 103.105)"/>
    </g>
    <g id="Group_166" data-name="Group 166" transform="translate(146 1)">
      <g id="Group_151" data-name="Group 151" transform="translate(-20 -9)">
        <g id="Group_116" data-name="Group 116" transform="translate(315 134)">
          <ellipse id="Ellipse_50" data-name="Ellipse 50" class="cls-56" cx="20" cy="46" rx="20" ry="46" transform="translate(431.385 707.473) rotate(70)"/>
          <g id="Group_115" data-name="Group 115" transform="translate(-4)">
            <path id="Path_190" data-name="Path 190" class="cls-57" d="M0,0A177.572,177.572,0,0,0,30.523,3.071,176.681,176.681,0,0,0,61,0a18.082,18.082,0,0,0-1.815,10.616C60.217,17.385,64.9,26.423,64.9,36.642c0,10.329-4.933,22.344-6.588,29.653-1.153,5.1.875,6.829.875,6.829s-14.54,5.435-29.79,5.435c-8.067,0-14.627-2.038-20.379-3.35C4.46,74.17,1.377,73.124,1.377,73.124S3.434,71.059,2.2,66.3C.453,59.6-4.881,47.775-4.881,36.642c0-9.8,4.9-18.726,6.258-26.026A18.387,18.387,0,0,0,0,0Z" transform="translate(382 657)"/>
            <ellipse id="Ellipse_31" data-name="Ellipse 31" class="cls-58" cx="30.5" cy="6.5" rx="30.5" ry="6.5" transform="translate(382 651)"/>
          </g>
          <g id="Group_114" data-name="Group 114">
            <path id="Path_338" data-name="Path 338" class="cls-54" d="M3767.39-417.062s7.543,1.155,9.87,4.925c.927,1.5,4.576,4.052,7.462,9.654,4.032,7.824,6,19.283,6,19.283a12.533,12.533,0,0,0,5.668,1.935c2.7,0,6.959-1.935,6.959-1.935.746-.475-1.385,6.789-1.847,13.956a135.553,135.553,0,0,0,0,14.713s-.369,7.547,1.847,10.578,7.031-.531,11.666,2.974,6.873,11.044,6.873,11.044,9.521,15.9,13.114,29.125,6.065,37.028,6.065,37.028l-1.793,6.618s-2.739-10.317-5.467-22.91-1.923-18.652-5.444-27.461-3.446-5.125-7.945-7.577a22.039,22.039,0,0,0-10.051-2.231l-10.669-2.73-7.427-2.765-4.484-2.9a9.28,9.28,0,0,1-5-5.79c-1.173-3.416-.365-5.513,0-11.857s1.108-10.045-1.674-18.574-6.566-9.423-9.453-15.541-2.1-9.3-2.1-9.3,2.1-2.217,2.1-7.461-2.1-13.515-2.1-13.515Z" transform="translate(-3432 915)"/>
            <path id="Path_345" data-name="Path 345" class="cls-59" d="M3835.053-417.062s-7.1,1.087-9.292,4.636c-.872,1.413-4.307,3.815-7.024,9.087-3.8,7.365-27.966,1.353-25.274,32.119,0,0,2.01,9.467-.076,12.321s1.2,10.158-3.161,13.457,6.611,75.563,6.611,75.563h0c-3.382,12.449.831,9.5.831,9.5l-.845,8.73,7.822-74.109,6.991-2.6,4.221-2.726a8.735,8.735,0,0,0,4.708-5.451c1.1-3.216.343-5.19,0-11.161s-1.042-9.456,1.576-17.484,6.181-8.87,8.9-14.629,1.973-8.754,1.973-8.754-1.973-2.087-1.973-7.023,1.973-12.722,1.973-12.722Z" transform="translate(-3361.253 1174.713) rotate(-4)"/>
            <path id="Path_339" data-name="Path 339" class="cls-60" d="M3767.39-417.062s7.543,1.155,9.87,4.925c.927,1.5,4.576,4.052,7.462,9.654,4.032,7.824,6,19.283,6,19.283a12.533,12.533,0,0,0,5.668,1.935c2.7,0,6.959-1.935,6.959-1.935.746-.475-1.385,6.789-1.847,13.956a135.553,135.553,0,0,0,0,14.713s-.369,7.547,1.847,10.578,7.031-.531,11.666,2.974,6.873,11.044,6.873,11.044a133.543,133.543,0,0,1,9.807,24.809,165.324,165.324,0,0,1,4.564,28.09l1.875,14.639s-1.6-5.086-4.327-17.678,7.271,26.1,3.75,17.295-7.176-28.1-13.973-41.745-13.216-12.818-13.216-12.818l-10.669-2.73-7.427-2.765-4.484-2.9a9.28,9.28,0,0,1-5-5.79c-1.173-3.416-.365-5.513,0-11.857s1.108-10.045-1.674-18.574-6.566-9.423-9.453-15.541-2.1-9.3-2.1-9.3,2.1-2.217,2.1-7.461-2.1-13.515-2.1-13.515Z" transform="translate(-3338.375 -211.716) rotate(17)"/>
            <path id="Path_340" data-name="Path 340" class="cls-60" d="M3804.415-417.062s-3.885.595-5.084,2.537c-.477.773-2.357,2.087-3.844,4.973a41.266,41.266,0,0,0-3.088,9.933,6.456,6.456,0,0,1-2.92,1,11.586,11.586,0,0,1-3.584-1c-.384-.245.713,3.5.951,7.189a69.825,69.825,0,0,1,0,7.579s.19,3.887-.951,5.449-3.622-.273-6.009,1.532-3.54,5.689-3.54,5.689a68.778,68.778,0,0,0-5.052,12.779,85.151,85.151,0,0,0-2.351,14.469L3767.39-334.7s1.411-5.314,2.816-11.8-3.745,13.446-1.932,8.909,3.7-14.477,7.2-21.5,6.808-6.6,6.808-6.6l5.5-1.406,3.826-1.424,2.31-1.492a4.78,4.78,0,0,0,2.576-2.983c.6-1.76.188-2.84,0-6.107s-.57-5.174.862-9.567,3.382-4.854,4.869-8,1.079-4.79,1.079-4.79a5.756,5.756,0,0,1-1.079-3.843,36.833,36.833,0,0,1,1.079-6.961Z" transform="matrix(1, 0, 0, 1, -3358.5, 994.688)"/>
            <path id="Path_341" data-name="Path 341" class="cls-60" d="M3835.053-417.062s-7.1,1.087-9.292,4.636c-.872,1.413-4.307,3.815-7.024,9.087-3.8,7.365-5.643,18.152-5.643,18.152a11.8,11.8,0,0,1-5.336,1.821c-2.537,0-6.551-1.821-6.551-1.821-.7-.448,1.3,6.39,1.738,13.137a127.605,127.605,0,0,1,0,13.85s.348,7.1-1.738,9.958-6.619-.5-10.981,2.8-6.469,10.4-6.469,10.4a125.691,125.691,0,0,0-9.231,23.354,155.611,155.611,0,0,0-4.3,26.442l-2.838,18.705s2.579-9.712,5.146-21.566-6.844,24.573-3.53,16.28,6.755-26.456,13.154-39.3,12.441-12.066,12.441-12.066l10.043-2.569,6.991-2.6,4.221-2.726a8.735,8.735,0,0,0,4.708-5.451c1.1-3.216.343-5.19,0-11.161s-1.042-9.456,1.576-17.484,6.181-8.87,8.9-14.629,1.973-8.754,1.973-8.754-1.973-2.087-1.973-7.023,1.973-12.722,1.973-12.722Z" transform="translate(-3369.486 595.086) rotate(5)"/>
            <path id="Path_342" data-name="Path 342" class="cls-59" d="M3835.053-417.062s-7.1,1.087-9.292,4.636c-.872,1.413-4.307,3.815-7.024,9.087-3.8,7.365-27.966,1.353-25.274,32.119,0,0,2.01,9.467-.076,12.321s1.2,10.158-3.161,13.457,6.611,75.563,6.611,75.563h0c-3.382,12.449.831,9.5.831,9.5l.367,4.19,6.61-69.57,6.991-2.6,4.221-2.726a8.735,8.735,0,0,0,4.708-5.451c1.1-3.216.343-5.19,0-11.161s-1.042-9.456,1.576-17.484,6.181-8.87,8.9-14.629,1.973-8.754,1.973-8.754-1.973-2.087-1.973-7.023,1.973-12.722,1.973-12.722Z" transform="translate(-3397.486 582.086) rotate(5)"/>
            <path id="Path_343" data-name="Path 343" class="cls-60" d="M3767.39-417.062s3.6.551,4.712,2.351c.442.716,2.184,1.934,3.562,4.608a38.237,38.237,0,0,1,2.861,9.2,5.983,5.983,0,0,0,2.706.924,10.738,10.738,0,0,0,3.322-.924c.356-.227-.661,3.24-.882,6.661a64.742,64.742,0,0,0,0,7.023s-.176,3.6.882,5.049,3.356-.253,5.568,1.419,3.28,5.271,3.28,5.271a63.726,63.726,0,0,1,4.681,11.842,78.922,78.922,0,0,1,2.178,13.408l1.439,9.485s-1.308-4.924-2.609-10.935,3.47,12.46,1.79,8.255-3.425-13.415-6.67-19.925-6.308-6.118-6.308-6.118l-5.092-1.3-3.545-1.32-2.14-1.382a4.429,4.429,0,0,1-2.387-2.764c-.56-1.631-.174-2.632,0-5.659s.529-4.795-.8-8.865-3.134-4.5-4.512-7.418-1-4.439-1-4.439a5.334,5.334,0,0,0,1-3.561,34.137,34.137,0,0,0-1-6.451Z" transform="matrix(1, 0, 0, 1, -3392.809, 997.709)"/>
            <path id="Path_344" data-name="Path 344" class="cls-60" d="M3767.39-417.062s3.6.551,4.712,2.351c.442.716,2.184,1.934,3.562,4.608a38.237,38.237,0,0,1,2.861,9.2,5.983,5.983,0,0,0,2.706.924,10.738,10.738,0,0,0,3.322-.924c.356-.227-.661,3.24-.882,6.661a64.742,64.742,0,0,0,0,7.023s-.176,3.6.882,5.049,3.356-.253,5.568,1.419,3.28,5.271,3.28,5.271a63.726,63.726,0,0,1,4.681,11.842,78.922,78.922,0,0,1,2.178,13.408l1.075,7.211a79.107,79.107,0,0,1-2.245-8.661c-1.3-6.011,3.47,12.46,1.79,8.255s-3.425-13.415-6.67-19.925-6.308-6.118-6.308-6.118l-5.092-1.3-3.545-1.32-2.14-1.382a4.429,4.429,0,0,1-2.387-2.764c-.56-1.631-.174-2.632,0-5.659s.529-4.795-.8-8.865-3.134-4.5-4.512-7.418-1-4.439-1-4.439a5.334,5.334,0,0,0,1-3.561,34.137,34.137,0,0,0-1-6.451Z" transform="matrix(0.985, -0.174, 0.174, 0.985, -3275.517, 1657.132)"/>
            <path id="Path_346" data-name="Path 346" class="cls-60" d="M3794.5-417.062s-2.844.435-3.722,1.857a18.186,18.186,0,0,0-2.814,3.641,30.208,30.208,0,0,0-2.26,7.272,4.727,4.727,0,0,1-2.138.73,8.484,8.484,0,0,1-2.624-.73c-.281-.179.522,2.56.7,5.263a51.125,51.125,0,0,1,0,5.548s.139,2.846-.7,3.989-2.651-.2-4.4,1.121a9.386,9.386,0,0,0-2.591,4.165,50.338,50.338,0,0,0-3.7,9.356,62.344,62.344,0,0,0-1.721,10.593l.226,5.615s-.33-2.012.7-6.761-2.742,9.844-1.414,6.522,2.706-10.6,5.27-15.742,4.984-4.834,4.984-4.834l4.023-1.029,2.8-1.043,1.691-1.092a3.5,3.5,0,0,0,1.886-2.184c.443-1.288.138-2.079,0-4.471a14.949,14.949,0,0,1,.631-7c1.049-3.216,2.476-3.554,3.565-5.86s.79-3.507.79-3.507a4.214,4.214,0,0,1-.79-2.813,26.972,26.972,0,0,1,.79-5.1Z" transform="matrix(0.978, 0.208, -0.208, 0.978, -3352.787, 225.83)"/>
            <path id="Path_347" data-name="Path 347" class="cls-12" d="M0,0H6L3.491,8.231l-.332-.236Z" transform="translate(405 653)"/>
          </g>
        </g>
      </g>
      <path id="Path_410" data-name="Path 410" class="cls-61" d="M6197.084,2651.955s-.221.567-1.779,1.27a44.5,44.5,0,0,1-4.455,1.543,40.454,40.454,0,0,1-8.663,1.5c-6.22.614-16.216.953-16.216.953l5.515,9.059a80.778,80.778,0,0,1,8.16,13.222c2.935,6.438,2.683,4.542,3.578,12.531s-3.147,11.6,0,19.425,12.59,11.869,12.59,11.869a14.38,14.38,0,0,1-.744-5.361c.168-2.967,2.382-7.206,2.382-7.206l.65-4.079,4.249-13.53v-6.741l-.9-6.908-1.069-6.534-3.294-10.22-1.271-4.275Z" transform="translate(-5464 -1868)"/>
    </g>
    <g id="Group_170" data-name="Group 170" transform="translate(979 174)">
      <g id="Group_151-2" data-name="Group 151" transform="translate(-20 -9)">
        <g id="Group_116-2" data-name="Group 116" transform="translate(315 134)">
          <ellipse id="Ellipse_50-2" data-name="Ellipse 50" class="cls-56" cx="20" cy="46" rx="20" ry="46" transform="translate(431.385 707.473) rotate(70)"/>
          <g id="Group_115-2" data-name="Group 115" transform="translate(-4)">
            <path id="Path_190-2" data-name="Path 190" class="cls-57" d="M0,0A177.572,177.572,0,0,0,30.523,3.071,176.681,176.681,0,0,0,61,0a18.082,18.082,0,0,0-1.815,10.616C60.217,17.385,64.9,26.423,64.9,36.642c0,10.329-4.933,22.344-6.588,29.653-1.153,5.1.875,6.829.875,6.829s-14.54,5.435-29.79,5.435c-8.067,0-14.627-2.038-20.379-3.35C4.46,74.17,1.377,73.124,1.377,73.124S3.434,71.059,2.2,66.3C.453,59.6-4.881,47.775-4.881,36.642c0-9.8,4.9-18.726,6.258-26.026A18.387,18.387,0,0,0,0,0Z" transform="translate(382 657)"/>
            <ellipse id="Ellipse_31-2" data-name="Ellipse 31" class="cls-58" cx="30.5" cy="6.5" rx="30.5" ry="6.5" transform="translate(382 651)"/>
          </g>
          <g id="Group_114-2" data-name="Group 114">
            <path id="Path_338-2" data-name="Path 338" class="cls-54" d="M3767.39-417.062s7.543,1.155,9.87,4.925c.927,1.5,4.576,4.052,7.462,9.654,4.032,7.824,6,19.283,6,19.283a12.533,12.533,0,0,0,5.668,1.935c2.7,0,6.959-1.935,6.959-1.935.746-.475-1.385,6.789-1.847,13.956a135.553,135.553,0,0,0,0,14.713s-.369,7.547,1.847,10.578,7.031-.531,11.666,2.974,6.873,11.044,6.873,11.044,9.521,15.9,13.114,29.125,6.065,37.028,6.065,37.028l-1.793,6.618s-2.739-10.317-5.467-22.91-1.923-18.652-5.444-27.461-3.446-5.125-7.945-7.577a22.039,22.039,0,0,0-10.051-2.231l-10.669-2.73-7.427-2.765-4.484-2.9a9.28,9.28,0,0,1-5-5.79c-1.173-3.416-.365-5.513,0-11.857s1.108-10.045-1.674-18.574-6.566-9.423-9.453-15.541-2.1-9.3-2.1-9.3,2.1-2.217,2.1-7.461-2.1-13.515-2.1-13.515Z" transform="translate(-3432 915)"/>
            <path id="Path_345-2" data-name="Path 345" class="cls-59" d="M3835.053-417.062s-7.1,1.087-9.292,4.636c-.872,1.413-4.307,3.815-7.024,9.087-3.8,7.365-27.966,1.353-25.274,32.119,0,0,2.01,9.467-.076,12.321s1.2,10.158-3.161,13.457,6.611,75.563,6.611,75.563h0c-3.382,12.449.831,9.5.831,9.5l-.845,8.73,7.822-74.109,6.991-2.6,4.221-2.726a8.735,8.735,0,0,0,4.708-5.451c1.1-3.216.343-5.19,0-11.161s-1.042-9.456,1.576-17.484,6.181-8.87,8.9-14.629,1.973-8.754,1.973-8.754-1.973-2.087-1.973-7.023,1.973-12.722,1.973-12.722Z" transform="translate(-3361.253 1174.713) rotate(-4)"/>
            <path id="Path_339-2" data-name="Path 339" class="cls-60" d="M3767.39-417.062s7.543,1.155,9.87,4.925c.927,1.5,4.576,4.052,7.462,9.654,4.032,7.824,6,19.283,6,19.283a12.533,12.533,0,0,0,5.668,1.935c2.7,0,6.959-1.935,6.959-1.935.746-.475-1.385,6.789-1.847,13.956a135.553,135.553,0,0,0,0,14.713s-.369,7.547,1.847,10.578,7.031-.531,11.666,2.974,6.873,11.044,6.873,11.044a133.543,133.543,0,0,1,9.807,24.809,165.324,165.324,0,0,1,4.564,28.09l1.875,14.639s-1.6-5.086-4.327-17.678,7.271,26.1,3.75,17.295-7.176-28.1-13.973-41.745-13.216-12.818-13.216-12.818l-10.669-2.73-7.427-2.765-4.484-2.9a9.28,9.28,0,0,1-5-5.79c-1.173-3.416-.365-5.513,0-11.857s1.108-10.045-1.674-18.574-6.566-9.423-9.453-15.541-2.1-9.3-2.1-9.3,2.1-2.217,2.1-7.461-2.1-13.515-2.1-13.515Z" transform="translate(-3338.375 -211.716) rotate(17)"/>
            <path id="Path_340-2" data-name="Path 340" class="cls-60" d="M3804.415-417.062s-3.885.595-5.084,2.537c-.477.773-2.357,2.087-3.844,4.973a41.266,41.266,0,0,0-3.088,9.933,6.456,6.456,0,0,1-2.92,1,11.586,11.586,0,0,1-3.584-1c-.384-.245.713,3.5.951,7.189a69.825,69.825,0,0,1,0,7.579s.19,3.887-.951,5.449-3.622-.273-6.009,1.532-3.54,5.689-3.54,5.689a68.778,68.778,0,0,0-5.052,12.779,85.151,85.151,0,0,0-2.351,14.469L3767.39-334.7s1.411-5.314,2.816-11.8-3.745,13.446-1.932,8.909,3.7-14.477,7.2-21.5,6.808-6.6,6.808-6.6l5.5-1.406,3.826-1.424,2.31-1.492a4.78,4.78,0,0,0,2.576-2.983c.6-1.76.188-2.84,0-6.107s-.57-5.174.862-9.567,3.382-4.854,4.869-8,1.079-4.79,1.079-4.79a5.756,5.756,0,0,1-1.079-3.843,36.833,36.833,0,0,1,1.079-6.961Z" transform="matrix(1, 0, 0, 1, -3358.5, 994.688)"/>
            <path id="Path_341-2" data-name="Path 341" class="cls-60" d="M3835.053-417.062s-7.1,1.087-9.292,4.636c-.872,1.413-4.307,3.815-7.024,9.087-3.8,7.365-5.643,18.152-5.643,18.152a11.8,11.8,0,0,1-5.336,1.821c-2.537,0-6.551-1.821-6.551-1.821-.7-.448,1.3,6.39,1.738,13.137a127.605,127.605,0,0,1,0,13.85s.348,7.1-1.738,9.958-6.619-.5-10.981,2.8-6.469,10.4-6.469,10.4a125.691,125.691,0,0,0-9.231,23.354,155.611,155.611,0,0,0-4.3,26.442l-2.838,18.705s2.579-9.712,5.146-21.566-6.844,24.573-3.53,16.28,6.755-26.456,13.154-39.3,12.441-12.066,12.441-12.066l10.043-2.569,6.991-2.6,4.221-2.726a8.735,8.735,0,0,0,4.708-5.451c1.1-3.216.343-5.19,0-11.161s-1.042-9.456,1.576-17.484,6.181-8.87,8.9-14.629,1.973-8.754,1.973-8.754-1.973-2.087-1.973-7.023,1.973-12.722,1.973-12.722Z" transform="translate(-3369.486 595.086) rotate(5)"/>
            <path id="Path_342-2" data-name="Path 342" class="cls-59" d="M3835.053-417.062s-7.1,1.087-9.292,4.636c-.872,1.413-4.307,3.815-7.024,9.087-3.8,7.365-27.966,1.353-25.274,32.119,0,0,2.01,9.467-.076,12.321s1.2,10.158-3.161,13.457,6.611,75.563,6.611,75.563h0c-3.382,12.449.831,9.5.831,9.5l.367,4.19,6.61-69.57,6.991-2.6,4.221-2.726a8.735,8.735,0,0,0,4.708-5.451c1.1-3.216.343-5.19,0-11.161s-1.042-9.456,1.576-17.484,6.181-8.87,8.9-14.629,1.973-8.754,1.973-8.754-1.973-2.087-1.973-7.023,1.973-12.722,1.973-12.722Z" transform="translate(-3397.486 582.086) rotate(5)"/>
            <path id="Path_343-2" data-name="Path 343" class="cls-60" d="M3767.39-417.062s3.6.551,4.712,2.351c.442.716,2.184,1.934,3.562,4.608a38.237,38.237,0,0,1,2.861,9.2,5.983,5.983,0,0,0,2.706.924,10.738,10.738,0,0,0,3.322-.924c.356-.227-.661,3.24-.882,6.661a64.742,64.742,0,0,0,0,7.023s-.176,3.6.882,5.049,3.356-.253,5.568,1.419,3.28,5.271,3.28,5.271a63.726,63.726,0,0,1,4.681,11.842,78.922,78.922,0,0,1,2.178,13.408l1.439,9.485s-1.308-4.924-2.609-10.935,3.47,12.46,1.79,8.255-3.425-13.415-6.67-19.925-6.308-6.118-6.308-6.118l-5.092-1.3-3.545-1.32-2.14-1.382a4.429,4.429,0,0,1-2.387-2.764c-.56-1.631-.174-2.632,0-5.659s.529-4.795-.8-8.865-3.134-4.5-4.512-7.418-1-4.439-1-4.439a5.334,5.334,0,0,0,1-3.561,34.137,34.137,0,0,0-1-6.451Z" transform="matrix(1, 0, 0, 1, -3392.809, 997.709)"/>
            <path id="Path_344-2" data-name="Path 344" class="cls-60" d="M3767.39-417.062s3.6.551,4.712,2.351c.442.716,2.184,1.934,3.562,4.608a38.237,38.237,0,0,1,2.861,9.2,5.983,5.983,0,0,0,2.706.924,10.738,10.738,0,0,0,3.322-.924c.356-.227-.661,3.24-.882,6.661a64.742,64.742,0,0,0,0,7.023s-.176,3.6.882,5.049,3.356-.253,5.568,1.419,3.28,5.271,3.28,5.271a63.726,63.726,0,0,1,4.681,11.842,78.922,78.922,0,0,1,2.178,13.408l1.075,7.211a79.107,79.107,0,0,1-2.245-8.661c-1.3-6.011,3.47,12.46,1.79,8.255s-3.425-13.415-6.67-19.925-6.308-6.118-6.308-6.118l-5.092-1.3-3.545-1.32-2.14-1.382a4.429,4.429,0,0,1-2.387-2.764c-.56-1.631-.174-2.632,0-5.659s.529-4.795-.8-8.865-3.134-4.5-4.512-7.418-1-4.439-1-4.439a5.334,5.334,0,0,0,1-3.561,34.137,34.137,0,0,0-1-6.451Z" transform="matrix(0.985, -0.174, 0.174, 0.985, -3275.517, 1657.132)"/>
            <path id="Path_346-2" data-name="Path 346" class="cls-60" d="M3794.5-417.062s-2.844.435-3.722,1.857a18.186,18.186,0,0,0-2.814,3.641,30.208,30.208,0,0,0-2.26,7.272,4.727,4.727,0,0,1-2.138.73,8.484,8.484,0,0,1-2.624-.73c-.281-.179.522,2.56.7,5.263a51.125,51.125,0,0,1,0,5.548s.139,2.846-.7,3.989-2.651-.2-4.4,1.121a9.386,9.386,0,0,0-2.591,4.165,50.338,50.338,0,0,0-3.7,9.356,62.344,62.344,0,0,0-1.721,10.593l.226,5.615s-.33-2.012.7-6.761-2.742,9.844-1.414,6.522,2.706-10.6,5.27-15.742,4.984-4.834,4.984-4.834l4.023-1.029,2.8-1.043,1.691-1.092a3.5,3.5,0,0,0,1.886-2.184c.443-1.288.138-2.079,0-4.471a14.949,14.949,0,0,1,.631-7c1.049-3.216,2.476-3.554,3.565-5.86s.79-3.507.79-3.507a4.214,4.214,0,0,1-.79-2.813,26.972,26.972,0,0,1,.79-5.1Z" transform="matrix(0.978, 0.208, -0.208, 0.978, -3352.787, 225.83)"/>
            <path id="Path_347-2" data-name="Path 347" class="cls-12" d="M0,0H6L3.491,8.231l-.332-.236Z" transform="translate(405 653)"/>
          </g>
        </g>
      </g>
      <path id="Path_410-2" data-name="Path 410" class="cls-61" d="M6197.084,2651.955s-.221.567-1.779,1.27a44.5,44.5,0,0,1-4.455,1.543,40.454,40.454,0,0,1-8.663,1.5c-6.22.614-16.216.953-16.216.953l5.515,9.059a80.778,80.778,0,0,1,8.16,13.222c2.935,6.438,2.683,4.542,3.578,12.531s-3.147,11.6,0,19.425,12.59,11.869,12.59,11.869a14.38,14.38,0,0,1-.744-5.361c.168-2.967,2.382-7.206,2.382-7.206l.65-4.079,4.249-13.53v-6.741l-.9-6.908-1.069-6.534-3.294-10.22-1.271-4.275Z" transform="translate(-5464 -1868)"/>
    </g>
    <g id="Group_173" data-name="Group 173" class="cls-62" transform="matrix(-0.921, 0.391, -0.391, -0.921, 2180.562, -63.537)">
      <g id="Ellipse_51" data-name="Ellipse 51" class="cls-63" transform="translate(1061 164)">
        <circle class="cls-65" cx="22" cy="22" r="22"/>
        <circle class="cls-66" cx="22" cy="22" r="19.5"/>
      </g>
      <g id="Ellipse_52" data-name="Ellipse 52" class="cls-63" transform="translate(1083 134)">
        <circle class="cls-65" cx="13" cy="13" r="13"/>
        <circle class="cls-66" cx="13" cy="13" r="10.5"/>
      </g>
    </g>
    <g id="Group_177" data-name="Group 177" transform="matrix(-0.985, 0.174, -0.174, -0.985, 3742.698, 1139.556)">
      <g id="Ellipse_53" data-name="Ellipse 53" class="cls-64" transform="translate(1790 729)">
        <circle class="cls-65" cx="22" cy="22" r="22"/>
        <circle class="cls-66" cx="22" cy="22" r="19.5"/>
      </g>
      <g id="Ellipse_54" data-name="Ellipse 54" class="cls-64" transform="translate(1835.692 713.81)">
        <circle class="cls-65" cx="13" cy="13" r="13"/>
        <circle class="cls-66" cx="13" cy="13" r="10.5"/>
      </g>
    </g>
    <g id="Group_172" data-name="Group 172" class="cls-62" transform="translate(3812.705 1210.665) rotate(166)">
      <g id="Ellipse_55" data-name="Ellipse 55" class="cls-63" transform="translate(1790 790)">
        <circle class="cls-65" cx="22" cy="22" r="22"/>
        <circle class="cls-66" cx="22" cy="22" r="19.5"/>
      </g>
      <g id="Ellipse_56" data-name="Ellipse 56" class="cls-63" transform="translate(1827 760)">
        <circle class="cls-65" cx="13" cy="13" r="13"/>
        <circle class="cls-66" cx="13" cy="13" r="10.5"/>
      </g>
    </g>
    <g id="Group_171" data-name="Group 171" class="cls-62" transform="matrix(-1, -0.017, 0.017, -1, 3335.813, 1745.668)">
      <g id="Ellipse_57" data-name="Ellipse 57" class="cls-63" transform="translate(1790 790)">
        <circle class="cls-65" cx="22" cy="22" r="22"/>
        <circle class="cls-66" cx="22" cy="22" r="19.5"/>
      </g>
      <g id="Ellipse_58" data-name="Ellipse 58" class="cls-63" transform="translate(1827 760)">
        <circle class="cls-65" cx="13" cy="13" r="13"/>
        <circle class="cls-66" cx="13" cy="13" r="10.5"/>
      </g>
    </g>
    <g id="Group_174" data-name="Group 174" class="cls-62" transform="matrix(-0.985, 0.174, -0.174, -0.985, 2951.21, 242.994)">
      <g id="Ellipse_51-2" data-name="Ellipse 51" class="cls-63" transform="translate(1061 164)">
        <circle class="cls-65" cx="22" cy="22" r="22"/>
        <circle class="cls-66" cx="22" cy="22" r="19.5"/>
      </g>
      <g id="Ellipse_52-2" data-name="Ellipse 52" class="cls-63" transform="translate(1083 134)">
        <circle class="cls-65" cx="13" cy="13" r="13"/>
        <circle class="cls-66" cx="13" cy="13" r="10.5"/>
      </g>
    </g>
    <g id="Group_175" data-name="Group 175" class="cls-62" transform="translate(2010.098 -320.241) rotate(149)">
      <g id="Ellipse_51-3" data-name="Ellipse 51" class="cls-63" transform="translate(1061 164)">
        <circle class="cls-65" cx="22" cy="22" r="22"/>
        <circle class="cls-66" cx="22" cy="22" r="19.5"/>
      </g>
      <g id="Ellipse_52-3" data-name="Ellipse 52" class="cls-63" transform="translate(1083 134)">
        <circle class="cls-65" cx="13" cy="13" r="13"/>
        <circle class="cls-66" cx="13" cy="13" r="10.5"/>
      </g>
    </g>
    <g id="Group_176" data-name="Group 176" class="cls-62" transform="matrix(-0.985, -0.174, 0.174, -0.985, 2281.823, 492.81)">
      <g id="Ellipse_51-4" data-name="Ellipse 51" class="cls-63" transform="translate(1061 164)">
        <circle class="cls-65" cx="22" cy="22" r="22"/>
        <circle class="cls-66" cx="22" cy="22" r="19.5"/>
      </g>
      <g id="Ellipse_52-4" data-name="Ellipse 52" class="cls-63" transform="translate(1083 134)">
        <circle class="cls-65" cx="13" cy="13" r="13"/>
        <circle class="cls-66" cx="13" cy="13" r="10.5"/>
      </g>
    </g>
    <circle id="Ellipse_59" data-name="Ellipse 59" class="cls-4" cx="39.5" cy="39.5" r="39.5" transform="translate(864 933)"/>
    <circle id="Ellipse_60" data-name="Ellipse 60" class="cls-4" cx="55.5" cy="55.5" r="55.5" transform="translate(578 136)"/>
    <circle id="Ellipse_61" data-name="Ellipse 61" class="cls-4" cx="55.5" cy="55.5" r="55.5" transform="translate(776 346)"/>
  </g>
</svg>
