<svg xmlns="http://www.w3.org/2000/svg" xmlns:xlink="http://www.w3.org/1999/xlink" viewBox="0 0 210 248">
  <defs>
    <style>
      .cls-1 {
        fill: url(#linear-gradient);
      }

      .cls-2 {
        fill: url(#linear-gradient-2);
      }

      .cls-3 {
        opacity: 0.229;
      }

      .cls-4 {
        fill: none;
      }

      .cls-5 {
        fill: url(#linear-gradient-3);
      }

      .cls-6 {
        fill: url(#linear-gradient-4);
      }

      .cls-7 {
        fill: #8de8d1;
      }

      .cls-7, .cls-8 {
        stroke: #8de8d1;
        stroke-linecap: round;
        stroke-linejoin: bevel;
        font-size: 34px;
        font-family: Kanit-Medium, Kanit;
        font-weight: 500;
      }

      .cls-10, .cls-8 {
        fill: #62e6c5;
      }

      .cls-8 {
        opacity: 0.44;
      }

      .cls-10, .cls-9 {
        stroke: none;
      }

      .cls-11 {
        filter: url(#OPD_BOOKS-2);
      }

      .cls-12 {
        filter: url(#OPD_BOOKS);
      }

      .cls-13 {
        filter: url(#Union_1);
      }

      .cls-14 {
        filter: url(#Subtraction_6);
      }
    </style>
    <linearGradient id="linear-gradient" x1="1.683" y1="1.489" x2="0.052" y2="0.042" gradientUnits="objectBoundingBox">
      <stop offset="0" stop-color="#568cdd"/>
      <stop offset="1" stop-color="#62e6c5"/>
    </linearGradient>
    <filter id="Subtraction_6" x="0" y="0" width="210" height="210" filterUnits="userSpaceOnUse">
      <feOffset dx="12" dy="10" input="SourceAlpha"/>
      <feGaussianBlur stdDeviation="12.5" result="blur"/>
      <feFlood flood-color="#53d5b2" flood-opacity="0.424"/>
      <feComposite operator="in" in2="blur"/>
      <feComposite in="SourceGraphic"/>
    </filter>
    <linearGradient id="linear-gradient-2" x1="1.015" y1="0.982" x2="-0.987" y2="-0.905" gradientUnits="objectBoundingBox">
      <stop offset="0" stop-color="#fff"/>
      <stop offset="1" stop-color="#62e6c5"/>
    </linearGradient>
    <linearGradient id="linear-gradient-3" x1="1.071" y1="1.187" x2="0.082" y2="0.083" xlink:href="#linear-gradient"/>
    <filter id="Union_1" x="155.276" y="1.277" width="54.223" height="54.223" filterUnits="userSpaceOnUse">
      <feOffset dx="4" dy="1" input="SourceAlpha"/>
      <feGaussianBlur stdDeviation="3" result="blur-2"/>
      <feFlood flood-color="#53d5b2" flood-opacity="0.361"/>
      <feComposite operator="in" in2="blur-2"/>
      <feComposite in="SourceGraphic"/>
    </filter>
    <linearGradient id="linear-gradient-4" x1="-0.64" y1="0.353" x2="-0.442" y2="1.386" gradientUnits="objectBoundingBox">
      <stop offset="0" stop-color="#defff7"/>
      <stop offset="1" stop-color="#3eebca"/>
    </linearGradient>
    <filter id="OPD_BOOKS" x="6" y="187" width="197" height="61" filterUnits="userSpaceOnUse">
      <feOffset dy="3" input="SourceAlpha"/>
      <feGaussianBlur stdDeviation="1.5" result="blur-3"/>
      <feFlood flood-opacity="0"/>
      <feComposite operator="in" in2="blur-3"/>
      <feComposite in="SourceGraphic"/>
    </filter>
    <filter id="OPD_BOOKS-2" x="9" y="187" width="197" height="61" filterUnits="userSpaceOnUse">
      <feOffset dy="3" input="SourceAlpha"/>
      <feGaussianBlur stdDeviation="1.5" result="blur-4"/>
      <feFlood flood-opacity="0"/>
      <feComposite operator="in" in2="blur-4"/>
      <feComposite in="SourceGraphic"/>
    </filter>
  </defs>
  <g id="Group_25" data-name="Group 25" transform="translate(-1111.5 -465.5)">
    <g class="cls-14" transform="matrix(1, 0, 0, 1, 1111.5, 465.5)">
      <path id="Subtraction_6-2" data-name="Subtraction 6" class="cls-1" d="M105,135H30A29.975,29.975,0,0,1,0,105V0H105a29.975,29.975,0,0,1,30,30v75a29.975,29.975,0,0,1-30,30ZM28.816,28V88.81a17.374,17.374,0,0,0,17.375,17.374H89.626A17.374,17.374,0,0,0,107,88.81V45.374A17.374,17.374,0,0,0,89.626,28Z" transform="translate(25.5 27.5)"/>
    </g>
    <path id="Subtraction_7" data-name="Subtraction 7" class="cls-2" d="M105,135H30A29.975,29.975,0,0,1,0,105V0H105a29.975,29.975,0,0,1,30,30v75a29.975,29.975,0,0,1-30,30ZM39.443,38.628V91.172a15.013,15.013,0,0,0,15.013,15.012H91.987A15.012,15.012,0,0,0,107,91.172V53.64A15.012,15.012,0,0,0,91.987,38.628Z" transform="translate(1150 501)"/>
    <g id="Group_22" data-name="Group 22" class="cls-3">
      <g id="Path_21" data-name="Path 21" class="cls-4" transform="translate(1177.957 528.149)">
        <path class="cls-9" d="M0,0H68.6A19.6,19.6,0,0,1,88.2,19.6v49A19.6,19.6,0,0,1,68.6,88.2h-49A19.6,19.6,0,0,1,0,68.6Z"/>
        <path class="cls-10" d="M 1.000007629394531 0.9999618530273438 L 1.000007629394531 68.59857177734375 C 1.000007629394531 71.10995483398438 1.49163818359375 73.54566955566406 2.46124267578125 75.83806610107422 C 3.397979736328125 78.05278778076172 4.739219665527344 80.04199981689453 6.447700500488281 81.75048065185547 C 8.156166076660156 83.45896148681641 10.14539337158203 84.80020141601562 12.36009979248047 85.7369384765625 C 14.65251159667969 86.70654296875 17.08822631835938 87.19817352294922 19.59959411621094 87.19817352294922 L 68.59859466552734 87.19817352294922 C 71.10997009277344 87.19817352294922 73.54568481445312 86.70654296875 75.83808898925781 85.7369384765625 C 78.05280303955078 84.80020141601562 80.04201507568359 83.45895385742188 81.75049591064453 81.75048065185547 C 83.45896911621094 80.04199981689453 84.80021667480469 78.05278778076172 85.73695373535156 75.83806610107422 C 86.70655822753906 73.54566955566406 87.19818878173828 71.10995483398438 87.19818878173828 68.59857177734375 L 87.19818878173828 19.59960174560547 C 87.19818878173828 17.08821868896484 86.70655822753906 14.65250396728516 85.73695373535156 12.36009216308594 C 84.80021667480469 10.1453857421875 83.45896911621094 8.156166076660156 81.75049591064453 6.44769287109375 C 80.04201507568359 4.739212036132812 78.05280303955078 3.397972106933594 75.83808898925781 2.461219787597656 C 73.54568481445312 1.491622924804688 71.10997009277344 0.9999847412109375 68.59859466552734 0.9999847412109375 L 1.000007629394531 0.9999618530273438 M 7.62939453125e-06 -3.814697265625e-05 L 7.62939453125e-06 -1.52587890625e-05 L 68.59859466552734 -1.52587890625e-05 C 79.42315673828125 -1.52587890625e-05 88.19818878173828 8.775032043457031 88.19818878173828 19.59960174560547 L 88.19818878173828 68.59857177734375 C 88.19818878173828 79.42314147949219 79.42315673828125 88.19817352294922 68.59859466552734 88.19817352294922 L 19.59959411621094 88.19817352294922 C 8.775039672851562 88.19817352294922 7.62939453125e-06 79.42314147949219 7.62939453125e-06 68.59857177734375 C 7.62939453125e-06 0.3108139038085938 7.62939453125e-06 -3.814697265625e-05 7.62939453125e-06 -3.814697265625e-05 Z"/>
      </g>
      <g id="Path_22" data-name="Path 22" class="cls-4" transform="translate(1164.064 515.807)">
        <path class="cls-9" d="M0,0H85.1a24.191,24.191,0,0,1,24.314,24.066V84.232A24.191,24.191,0,0,1,85.1,108.3H24.314A24.191,24.191,0,0,1,0,84.232Z"/>
        <path class="cls-10" d="M 0.9999923706054688 0.9999618530273438 L 0.9999923706054688 84.23249053955078 C 0.9999923706054688 87.34560394287109 1.615791320800781 90.36515808105469 2.830276489257812 93.20729064941406 C 4.003837585449219 95.95362854003906 5.684280395507812 98.42048645019531 7.824905395507812 100.5392990112305 C 9.96624755859375 102.6588287353516 12.45973968505859 104.3228912353516 15.23613739013672 105.4852294921875 C 18.11073303222656 106.6887054443359 21.16500854492188 107.2989196777344 24.31409454345703 107.2989196777344 L 85.09933471679688 107.2989196777344 C 88.24842071533203 107.2989196777344 91.30269622802734 106.6887054443359 94.17729187011719 105.4852294921875 C 96.95368957519531 104.3228912353516 99.44718170166016 102.6588287353516 101.5885238647461 100.5392990112305 C 103.7291488647461 98.42048645019531 105.4095916748047 95.95362854003906 106.5831527709961 93.20729064941406 C 107.7976379394531 90.36515808105469 108.4134368896484 87.34560394287109 108.4134368896484 84.23249053955078 L 108.4134368896484 24.06641387939453 C 108.4134368896484 20.95330047607422 107.7976379394531 17.93374633789062 106.5831527709961 15.09162902832031 C 105.4095916748047 12.34527587890625 103.7291488647461 9.878433227539062 101.5885238647461 7.759605407714844 C 99.44718170166016 5.64007568359375 96.95368957519531 3.97601318359375 94.17729187011719 2.813674926757812 C 91.30269622802734 1.610198974609375 88.24842071533203 0.9999847412109375 85.09933471679688 0.9999847412109375 L 0.9999923706054688 0.9999618530273438 M -7.62939453125e-06 -4.57763671875e-05 L -7.62939453125e-06 -1.52587890625e-05 L 85.09933471679688 -1.52587890625e-05 C 98.52763366699219 -1.52587890625e-05 109.4134368896484 10.77490234375 109.4134368896484 24.06641387939453 L 109.4134368896484 84.23249053955078 C 109.4134368896484 97.52401733398438 98.52763366699219 108.2989196777344 85.09933471679688 108.2989196777344 L 24.31409454345703 108.2989196777344 C 10.88579559326172 108.2989196777344 -7.62939453125e-06 97.52401733398438 -7.62939453125e-06 84.23249053955078 C -7.62939453125e-06 0.3816757202148438 -7.62939453125e-06 -4.57763671875e-05 -7.62939453125e-06 -4.57763671875e-05 Z"/>
      </g>
      <g id="Path_23" data-name="Path 23" class="cls-4" transform="translate(1155.745 506.974)">
        <path class="cls-9" d="M0,0H96.726a27.582,27.582,0,0,1,27.636,27.528v68.82a27.582,27.582,0,0,1-27.636,27.528H27.636A27.582,27.582,0,0,1,0,96.348Z"/>
        <path class="cls-10" d="M 0.9999923706054688 0.9999618530273438 L 0.9999923706054688 96.34759521484375 C 0.9999923706054688 99.92879486083984 1.703926086425781 103.4023742675781 3.092208862304688 106.6718444824219 C 4.4334716796875 109.8305435180664 6.353874206542969 112.6676254272461 8.800086975097656 115.1042633056641 C 11.24655914306641 117.5411758422852 14.09523773193359 119.4543609619141 17.26702117919922 120.7906646728516 C 20.55055999755859 122.1740646362305 24.03915405273438 122.8754959106445 27.63591003417969 122.8754959106445 L 96.72565460205078 122.8754959106445 C 100.3224029541016 122.8754959106445 103.8110046386719 122.1740646362305 107.0945434570312 120.7906646728516 C 110.2663040161133 119.4543609619141 113.1150054931641 117.5411758422852 115.5614700317383 115.1042633056641 C 118.0076904296875 112.6676254272461 119.928092956543 109.8305435180664 121.2693557739258 106.6718444824219 C 122.6576385498047 103.4023742675781 123.361572265625 99.92879486083984 123.361572265625 96.34759521484375 L 123.361572265625 27.52789306640625 C 123.361572265625 23.94669342041016 122.6576385498047 20.47311401367188 121.2693557739258 17.20364379882812 C 119.928092956543 14.04494476318359 118.0076904296875 11.20786285400391 115.5614700317383 8.771224975585938 C 113.1150054931641 6.334312438964844 110.2663040161133 4.421127319335938 107.0945434570312 3.084831237792969 C 103.8110046386719 1.701431274414062 100.3224029541016 0.9999923706054688 96.72565460205078 0.9999923706054688 L 0.9999923706054688 0.9999618530273438 M -7.62939453125e-06 -3.814697265625e-05 L -7.62939453125e-06 -7.62939453125e-06 L 96.72565460205078 -7.62939453125e-06 C 111.9885406494141 -7.62939453125e-06 124.361572265625 12.32466125488281 124.361572265625 27.52789306640625 L 124.361572265625 96.34759521484375 C 124.361572265625 111.5508270263672 111.9885406494141 123.8754959106445 96.72565460205078 123.8754959106445 L 27.63591003417969 123.8754959106445 C 12.37300872802734 123.8754959106445 -7.62939453125e-06 111.5508270263672 -7.62939453125e-06 96.34759521484375 C -7.62939453125e-06 0.4365692138671875 -7.62939453125e-06 -3.814697265625e-05 -7.62939453125e-06 -3.814697265625e-05 Z"/>
      </g>
    </g>
    <g id="Group_23" data-name="Group 23" transform="translate(132.724 17.777)">
      <g class="cls-13" transform="matrix(1, 0, 0, 1, 978.78, 447.72)">
        <path id="Union_1-2" data-name="Union 1" class="cls-5" d="M11.427,29.539V24.8H6.684a6.684,6.684,0,1,1,0-13.369h4.743V6.684a6.684,6.684,0,1,1,13.369,0v4.743h4.743a6.684,6.684,0,1,1,0,13.369H24.8v4.743a6.684,6.684,0,1,1-13.369,0Z" transform="translate(160.28 9.28)"/>
      </g>
      <path id="Union_2" data-name="Union 2" class="cls-6" d="M11.427,29.539V24.8H6.684a6.684,6.684,0,1,1,0-13.369h4.743V6.684a6.684,6.684,0,1,1,13.369,0v4.743h4.743a6.684,6.684,0,1,1,0,13.369H24.8v4.743a6.684,6.684,0,1,1-13.369,0Z" transform="translate(1142.052 458)"/>
    </g>
    <g id="Group_24" data-name="Group 24" transform="translate(-2 19)">
      <g class="cls-12" transform="matrix(1, 0, 0, 1, 1113.5, 446.5)">
        <text id="OPD_BOOKS-3" data-name="OPD BOOKS" class="cls-7" transform="translate(11.5 226.5)"><tspan x="0" y="0">OPD BOOKS</tspan></text>
      </g>
      <g class="cls-11" transform="matrix(1, 0, 0, 1, 1113.5, 446.5)">
        <text id="OPD_BOOKS-4" data-name="OPD BOOKS" class="cls-8" transform="translate(14.5 226.5)"><tspan x="0" y="0">OPD BOOKS</tspan></text>
      </g>
    </g>
  </g>
</svg>
