<svg xmlns="http://www.w3.org/2000/svg" xmlns:xlink="http://www.w3.org/1999/xlink" viewBox="0 0 1085.962 248.553">
  <defs>
    <style>
      .cls-1 {
        fill: url(#linear-gradient);
      }

      .cls-2 {
        fill: url(#linear-gradient-2);
      }

      .cls-3 {
        opacity: 0.229;
      }

      .cls-4 {
        fill: none;
      }

      .cls-5, .cls-8, .cls-9 {
        fill: #31a5ba;
      }

      .cls-6 {
        fill: url(#linear-gradient-3);
      }

      .cls-7 {
        fill: url(#linear-gradient-4);
      }

      .cls-8, .cls-9 {
        stroke: #fff;
        stroke-linecap: round;
        stroke-linejoin: bevel;
        font-size: 159px;
        font-family: Kanit-Medium, Kanit;
        font-weight: 500;
      }

      .cls-9 {
        opacity: 0.44;
      }
    </style>
    <linearGradient id="linear-gradient" x1="0.946" y1="1" x2="0.052" y2="0.042" gradientUnits="objectBoundingBox">
      <stop offset="0" stop-color="#568cdd"/>
      <stop offset="1" stop-color="#31a5ba"/>
    </linearGradient>
    <linearGradient id="linear-gradient-2" x2="2.062" y2="1.966" gradientUnits="objectBoundingBox">
      <stop offset="0" stop-color="#fff"/>
      <stop offset="1" stop-color="#31a5ba"/>
    </linearGradient>
    <linearGradient id="linear-gradient-3" x1="1.071" y1="1.187" x2="0.082" y2="0.083" xlink:href="#linear-gradient"/>
    <linearGradient id="linear-gradient-4" x1="-0.64" y1="0.353" x2="-0.442" y2="1.386" gradientUnits="objectBoundingBox">
      <stop offset="0" stop-color="#defff7"/>
      <stop offset="1" stop-color="#31a5ba"/>
    </linearGradient>
  </defs>
  <g id="Group_33" data-name="Group 33" transform="translate(-625.025 -399.634)">
    <g id="logoWeb" transform="translate(-900.975 -75.142)">
      <g id="Group_15" data-name="Group 15" transform="translate(1526 497.415)">
        <path id="Subtraction_4" data-name="Subtraction 4" class="cls-1" d="M130.438,167.109H37.268A37.171,37.171,0,0,1,0,129.973V0H130.438a37.171,37.171,0,0,1,37.268,37.135v92.838a37.171,37.171,0,0,1-37.268,37.135ZM35.8,34.66v75.273a21.545,21.545,0,0,0,21.584,21.506h53.958a21.545,21.545,0,0,0,21.583-21.506V56.166A21.545,21.545,0,0,0,111.339,34.66Z" transform="translate(0 0)"/>
      </g>
      <path id="Subtraction_5" data-name="Subtraction 5" class="cls-2" d="M130.438,167.706H37.268A37.237,37.237,0,0,1,0,130.438V0H130.438a37.237,37.237,0,0,1,37.268,37.268v93.17a37.237,37.237,0,0,1-37.268,37.268ZM49,47.986V113.26a18.65,18.65,0,0,0,18.649,18.649h46.625a18.649,18.649,0,0,0,18.65-18.65V66.635a18.649,18.649,0,0,0-18.65-18.649Z" transform="translate(1542.15 506.756)"/>
      <g id="Group_10" data-name="Group 10" class="cls-3" transform="translate(1549.286 514.177)">
        <g id="Path_21" data-name="Path 21" transform="translate(27.593 26.305)">
          <path id="Path_28" data-name="Path 28" class="cls-4" d="M0,0H85.22a24.348,24.348,0,0,1,24.348,24.348V85.22A24.348,24.348,0,0,1,85.22,109.568H24.348A24.348,24.348,0,0,1,0,85.22Z" transform="translate(0 0)"/>
          <path id="Path_29" data-name="Path 29" class="cls-5" d="M1.242,1.242V85.218a23.085,23.085,0,0,0,23.106,23.106h60.87a23.085,23.085,0,0,0,23.106-23.106V24.348A23.085,23.085,0,0,0,85.218,1.242H1.242M0,0H85.218a24.348,24.348,0,0,1,24.348,24.348v60.87a24.348,24.348,0,0,1-24.348,24.348H24.348A24.348,24.348,0,0,1,0,85.218Z" transform="translate(0 0)"/>
        </g>
        <g id="Path_22" data-name="Path 22" transform="translate(10.334 10.973)">
          <path id="Path_30" data-name="Path 30" class="cls-4" d="M0,0H105.717a30.052,30.052,0,0,1,30.2,29.9v74.742a30.052,30.052,0,0,1-30.2,29.9H30.2A30.052,30.052,0,0,1,0,104.639Z" transform="translate(0 0)"/>
          <path id="Path_31" data-name="Path 31" class="cls-5" d="M1.242,1.242v103.4a28.213,28.213,0,0,0,2.274,11.149,28.546,28.546,0,0,0,6.2,9.108,29.024,29.024,0,0,0,20.484,8.4h75.512a29.024,29.024,0,0,0,20.484-8.4,28.546,28.546,0,0,0,6.2-9.108,28.213,28.213,0,0,0,2.274-11.149V29.9A28.213,28.213,0,0,0,132.4,18.748a28.546,28.546,0,0,0-6.2-9.108,29.024,29.024,0,0,0-20.484-8.4H1.242M0,0H105.716a30.052,30.052,0,0,1,30.2,29.9v74.742a30.052,30.052,0,0,1-30.2,29.9H30.2A30.052,30.052,0,0,1,0,104.639Z" transform="translate(0 0)"/>
        </g>
        <g id="Path_23" data-name="Path 23" transform="translate(0 0)">
          <path id="Path_32" data-name="Path 32" class="cls-4" d="M0,0H120.16a34.264,34.264,0,0,1,34.331,34.2V119.69a34.264,34.264,0,0,1-34.331,34.2H34.331A34.264,34.264,0,0,1,0,119.69Z" transform="translate(0 0)"/>
          <path id="Path_33" data-name="Path 33" class="cls-5" d="M1.242,1.242V119.689a32.781,32.781,0,0,0,9.69,23.3,33.049,33.049,0,0,0,23.4,9.654h85.828a33.109,33.109,0,0,0,30.49-20.129,32.633,32.633,0,0,0,2.6-12.825V34.2a32.781,32.781,0,0,0-9.69-23.3,33.049,33.049,0,0,0-23.4-9.654H1.242M0,0H120.159A34.264,34.264,0,0,1,154.49,34.2v85.492a34.264,34.264,0,0,1-34.331,34.2H34.331A34.264,34.264,0,0,1,0,119.689Z" transform="translate(0 0)"/>
        </g>
      </g>
      <g id="Group_11" data-name="Group 11" transform="translate(1693.437 474.777)">
        <g id="Group_16" data-name="Group 16" transform="translate(0 0)">
          <path id="Union_1" data-name="Union 1" class="cls-6" d="M14.2,36.7V30.808H8.3A8.3,8.3,0,1,1,8.3,14.2H14.2V8.3A8.3,8.3,0,1,1,30.8,8.3V14.2H36.7a8.3,8.3,0,0,1,0,16.608H30.808V36.7a8.3,8.3,0,1,1-16.608,0Z" transform="translate(0.001 0.001)"/>
        </g>
        <path id="Union_2" data-name="Union 2" class="cls-7" d="M14.2,36.7V30.808H8.3A8.3,8.3,0,1,1,8.3,14.2H14.2V8.3A8.3,8.3,0,1,1,30.8,8.3V14.2H36.7a8.3,8.3,0,0,1,0,16.608H30.808V36.7a8.3,8.3,0,1,1-16.608,0Z" transform="translate(3.717 1.243)"/>
      </g>
    </g>
    <g id="Group_24" data-name="Group 24" transform="translate(-291.5 -226.813)">
      <g id="Group_30" data-name="Group 30" transform="translate(1125 636)">
        <text id="OPD_BOOKS" data-name="OPD BOOKS" class="cls-8" transform="translate(0 175)"><tspan x="0" y="0">OPD BOOKS</tspan></text>
      </g>
      <g id="Group_31" data-name="Group 31" transform="translate(1132.488 636)">
        <text id="OPD_BOOKS-2" data-name="OPD BOOKS" class="cls-9" transform="translate(0 175)"><tspan x="0" y="0">OPD BOOKS</tspan></text>
      </g>
    </g>
  </g>
</svg>
