<svg xmlns="http://www.w3.org/2000/svg" xmlns:xlink="http://www.w3.org/1999/xlink" viewBox="0 0 29.474 27.229">
  <defs>
    <style>
      .cls-1 {
        fill: url(#linear-gradient);
      }

      .cls-2 {
        fill: url(#linear-gradient-2);
      }

      .cls-3 {
        opacity: 0.229;
      }

      .cls-4 {
        fill: none;
      }

      .cls-5 {
        fill: #31a5ba;
      }

      .cls-6 {
        fill: url(#linear-gradient-3);
      }

      .cls-7 {
        fill: url(#linear-gradient-4);
      }
    </style>
    <linearGradient id="linear-gradient" x1="0.946" y1="1" x2="0.052" y2="0.042" gradientUnits="objectBoundingBox">
      <stop offset="0" stop-color="#568cdd"/>
      <stop offset="1" stop-color="#31a5ba"/>
    </linearGradient>
    <linearGradient id="linear-gradient-2" x2="2.062" y2="1.966" gradientUnits="objectBoundingBox">
      <stop offset="0" stop-color="#fff"/>
      <stop offset="1" stop-color="#31a5ba"/>
    </linearGradient>
    <linearGradient id="linear-gradient-3" x1="1.071" y1="1.187" x2="0.082" y2="0.083" xlink:href="#linear-gradient"/>
    <linearGradient id="linear-gradient-4" x1="-0.64" y1="0.353" x2="-0.442" y2="1.386" gradientUnits="objectBoundingBox">
      <stop offset="0" stop-color="#defff7"/>
      <stop offset="1" stop-color="#31a5ba"/>
    </linearGradient>
  </defs>
  <g id="logoWeb" transform="translate(-1526 -474.776)">
    <g id="Group_15" data-name="Group 15" transform="translate(1526 477.863)">
      <path id="Subtraction_4" data-name="Subtraction 4" class="cls-1" d="M17.786,22.787H5.082A5.069,5.069,0,0,1,0,17.723V0H17.786a5.069,5.069,0,0,1,5.082,5.064V17.723a5.069,5.069,0,0,1-5.082,5.064ZM4.881,4.726V14.99a2.938,2.938,0,0,0,2.943,2.933h7.358a2.938,2.938,0,0,0,2.943-2.933V7.659a2.938,2.938,0,0,0-2.943-2.933Z" transform="translate(0 0)"/>
    </g>
    <path id="Subtraction_5" data-name="Subtraction 5" class="cls-2" d="M17.786,22.868H5.082A5.078,5.078,0,0,1,0,17.786V0H17.786a5.078,5.078,0,0,1,5.082,5.082v12.7a5.078,5.078,0,0,1-5.082,5.082ZM6.681,6.543v8.9a2.543,2.543,0,0,0,2.543,2.543h6.358a2.543,2.543,0,0,0,2.543-2.543V9.086a2.543,2.543,0,0,0-2.543-2.543Z" transform="translate(1528.202 479.137)"/>
    <g id="Group_10" data-name="Group 10" class="cls-3" transform="translate(1529.175 480.149)">
      <g id="Path_21" data-name="Path 21" transform="translate(3.763 3.587)">
        <path id="Path_28" data-name="Path 28" class="cls-4" d="M0,0H11.621a3.32,3.32,0,0,1,3.32,3.32v8.3a3.32,3.32,0,0,1-3.32,3.32H3.32A3.32,3.32,0,0,1,0,11.621Z" transform="translate(0 0)"/>
        <path id="Path_29" data-name="Path 29" class="cls-5" d="M.169.169V11.62A3.148,3.148,0,0,0,3.32,14.771h8.3a3.148,3.148,0,0,0,3.151-3.151V3.32A3.148,3.148,0,0,0,11.62.169H.169M0,0H11.62a3.32,3.32,0,0,1,3.32,3.32v8.3a3.32,3.32,0,0,1-3.32,3.32H3.32A3.32,3.32,0,0,1,0,11.62Z" transform="translate(0 0)"/>
      </g>
      <g id="Path_22" data-name="Path 22" transform="translate(1.409 1.496)">
        <path id="Path_30" data-name="Path 30" class="cls-4" d="M0,0H14.416a4.1,4.1,0,0,1,4.119,4.077V14.268a4.1,4.1,0,0,1-4.119,4.077H4.119A4.1,4.1,0,0,1,0,14.268Z" transform="translate(0 0)"/>
        <path id="Path_31" data-name="Path 31" class="cls-5" d="M.169.169v14.1a3.847,3.847,0,0,0,.31,1.52,3.893,3.893,0,0,0,.846,1.242,3.958,3.958,0,0,0,2.793,1.145h10.3a3.958,3.958,0,0,0,2.793-1.145,3.893,3.893,0,0,0,.846-1.242,3.847,3.847,0,0,0,.31-1.52V4.077a3.847,3.847,0,0,0-.31-1.52,3.892,3.892,0,0,0-.846-1.242A3.958,3.958,0,0,0,14.415.169H.169M0,0H14.415a4.1,4.1,0,0,1,4.119,4.077V14.269a4.1,4.1,0,0,1-4.119,4.077H4.119A4.1,4.1,0,0,1,0,14.269Z" transform="translate(0 0)"/>
      </g>
      <g id="Path_23" data-name="Path 23" transform="translate(0 0)">
        <path id="Path_32" data-name="Path 32" class="cls-4" d="M0,0H16.385a4.672,4.672,0,0,1,4.681,4.663V16.321a4.672,4.672,0,0,1-4.681,4.663H4.681A4.672,4.672,0,0,1,0,16.321Z" transform="translate(0 0)"/>
        <path id="Path_33" data-name="Path 33" class="cls-5" d="M.169.169V16.321A4.47,4.47,0,0,0,1.491,19.5a4.507,4.507,0,0,0,3.191,1.316h11.7a4.515,4.515,0,0,0,4.158-2.745,4.45,4.45,0,0,0,.354-1.749V4.663a4.47,4.47,0,0,0-1.321-3.177A4.507,4.507,0,0,0,16.385.169H.169M0,0H16.385a4.672,4.672,0,0,1,4.681,4.663V16.321a4.672,4.672,0,0,1-4.681,4.663H4.681A4.672,4.672,0,0,1,0,16.321Z" transform="translate(0 0)"/>
      </g>
    </g>
    <g id="Group_11" data-name="Group 11" transform="translate(1548.832 474.777)">
      <g id="Group_16" data-name="Group 16" transform="translate(0 0)">
        <path id="Union_1" data-name="Union 1" class="cls-6" d="M1.935,5V4.2h-.8a1.132,1.132,0,1,1,0-2.265h.8v-.8a1.132,1.132,0,0,1,2.265,0v.8H5A1.132,1.132,0,1,1,5,4.2H4.2V5A1.132,1.132,0,1,1,1.936,5Z" transform="translate(0.001 0.001)"/>
      </g>
      <path id="Union_2" data-name="Union 2" class="cls-7" d="M1.935,5V4.2h-.8a1.132,1.132,0,1,1,0-2.265h.8v-.8a1.132,1.132,0,0,1,2.265,0v.8H5A1.132,1.132,0,1,1,5,4.2H4.2V5A1.132,1.132,0,1,1,1.936,5Z" transform="translate(0.507 0.17)"/>
    </g>
  </g>
</svg>
