<svg xmlns="http://www.w3.org/2000/svg" xmlns:xlink="http://www.w3.org/1999/xlink" viewBox="0 0 1080 980">
  <defs>
    <style>
      .cls-1 {
        clip-path: url(#clip-Custom_Size_16);
      }

      .cls-2, .cls-29, .cls-7 {
        fill: #69c9d9;
      }

      .cls-2 {
        opacity: 0.204;
      }

      .cls-3 {
        fill: url(#linear-gradient);
      }

      .cls-4 {
        fill: #fcfcfc;
        opacity: 0.085;
      }

      .cls-30, .cls-31, .cls-32, .cls-34, .cls-5 {
        fill: #fff;
      }

      .cls-25, .cls-28, .cls-6 {
        fill: #51b4c5;
      }

      .cls-6 {
        opacity: 0.066;
      }

      .cls-7 {
        opacity: 0.09;
      }

      .cls-13, .cls-23, .cls-27, .cls-35, .cls-8 {
        fill: none;
      }

      .cls-9 {
        fill: #31a5ba;
      }

      .cls-10, .cls-15, .cls-21, .cls-22 {
        fill: #f7f7f7;
      }

      .cls-11 {
        fill: #e0dcd3;
      }

      .cls-12 {
        fill: #e74424;
      }

      .cls-13 {
        stroke: #707070;
      }

      .cls-14 {
        fill: #e8be95;
      }

      .cls-15, .cls-22, .cls-23 {
        stroke: #f7f7f7;
      }

      .cls-15, .cls-18, .cls-21 {
        font-size: 14px;
      }

      .cls-15, .cls-18, .cls-19, .cls-20, .cls-21, .cls-22 {
        font-family: HelveticaNeue, Helvetica Neue;
      }

      .cls-15 {
        letter-spacing: 0.1em;
      }

      .cls-16 {
        fill: #e7eced;
      }

      .cls-17 {
        fill: #535353;
      }

      .cls-19, .cls-20 {
        font-size: 17px;
      }

      .cls-20 {
        fill: #0d0c0c;
      }

      .cls-22 {
        font-size: 18px;
      }

      .cls-23 {
        stroke-width: 2px;
      }

      .cls-24 {
        fill: #010002;
      }

      .cls-25 {
        opacity: 0.213;
      }

      .cls-26 {
        opacity: 0.775;
      }

      .cls-27 {
        stroke: #fff;
        stroke-width: 5px;
      }

      .cls-28 {
        opacity: 0.258;
      }

      .cls-30 {
        opacity: 0.089;
      }

      .cls-31 {
        opacity: 0.291;
      }

      .cls-32 {
        opacity: 0.105;
      }

      .cls-33, .cls-34 {
        stroke: none;
      }
    </style>
    <linearGradient id="linear-gradient" x1="1.165" x2="0.082" y2="1.057" gradientUnits="objectBoundingBox">
      <stop offset="0" stop-color="#d6f2f2"/>
      <stop offset="1" stop-color="#31a5ba"/>
    </linearGradient>
    <clipPath id="clip-Custom_Size_16">
      <rect width="1080" height="980"/>
    </clipPath>
  </defs>
  <g id="Custom_Size_16" data-name="Custom Size – 16" class="cls-1">
    <rect class="cls-5" width="1080" height="980"/>
    <circle id="Ellipse_7" data-name="Ellipse 7" class="cls-2" cx="33.554" cy="33.554" r="33.554" transform="translate(935.387 73)"/>
    <path id="Path_628" data-name="Path 628" class="cls-3" d="M372.943-18.709c168.882,7.349,337.394,152.159,418.37,198.84C935.071,263,957.543,326.6,975.5,473.075c9.445,77.043-4.215,148.85-29.887,209.618C922.5,737.4,889.635,783.149,855.153,815.646c-94.24,88.812-308.409,71-458.085,73.979-91.9,1.827-287.637-42.8-374.624-166.422C-32.447,645.194-81.389,371.217,40.9,221.326S204.062-26.058,372.943-18.709Z" transform="translate(63.914 62.075)"/>
    <path id="Path_630" data-name="Path 630" class="cls-4" d="M975.5,473.075c9.445,77.043-4.215,148.85-29.887,209.618C922.5,737.4,889.635,783.149,855.153,815.646c-94.24,88.812-308.409,71-458.085,73.979-91.9,1.827-287.637-42.8-374.624-166.422-54.891-78.009-135.424-359.952,102.84-422.484S969.879,427.228,975.5,473.075Z" transform="translate(63.914 62.075)"/>
    <g id="Group_165" data-name="Group 165" transform="translate(-6 45)">
      <g id="Group_178" data-name="Group 178">
        <path id="Path_640" data-name="Path 640" class="cls-5" d="M55.938-19.011C93.665-17.369,131.31,14.98,149.4,25.409c32.115,18.513,37.134,32.721,41.146,65.442a91.493,91.493,0,0,1-6.676,46.827,88.593,88.593,0,0,1-20.208,29.7c-21.052,19.84-68.9,15.862-102.333,16.526-20.53.408-64.256-9.561-83.688-37.177C-34.623,129.3-45.556,68.1-18.238,34.611S18.211-20.653,55.938-19.011Z" transform="translate(459.198 144.075)"/>
        <path id="Path_641" data-name="Path 641" class="cls-6" d="M75.746,31.669C71.369,37.82,51.559,53.6,25.911,55.815s-39.4-8.452-52.757-15.281c-8.5-4.345-19.614-12.146-27.053-21.15C-60.764,11.078-67.894-6.078-63.864.22s30.1,28.585,30.1,28.585,11.4,4.5,25.986,8.959S5.6,47.436,24.572,46.644,77.268,29.532,75.746,31.669Z" transform="translate(479.405 237.588) rotate(59)"/>
        <path id="Path_642" data-name="Path 642" class="cls-7" d="M-15.412-14.65c3-9.707,20.7,8.626,29.359,22.51,3.409,5.463,4.64,13.612,6.82,18.125,7.414,15.349,4.08,34.716,4.08,34.716S22.132,76.676,20.8,73.825,19.562,56.492,19.513,49.3C19.462,41.788,9.339,17.574,7.955,12.862,3.786-1.325-18.081-6.015-15.412-14.65Z" transform="translate(624.488 194.793) rotate(3)"/>
      </g>
      <g id="Group_179" data-name="Group 179" transform="translate(-211 453)">
        <path id="Path_640-2" data-name="Path 640" class="cls-5" d="M55.938-19.011C93.665-17.369,131.31,14.98,149.4,25.409c32.115,18.513,37.134,32.721,41.146,65.442a91.493,91.493,0,0,1-6.676,46.827,88.593,88.593,0,0,1-20.208,29.7c-21.052,19.84-68.9,15.862-102.333,16.526-20.53.408-64.256-9.561-83.688-37.177C-34.623,129.3-45.556,68.1-18.238,34.611S18.211-20.653,55.938-19.011Z" transform="translate(459.198 144.075)"/>
        <path id="Path_641-2" data-name="Path 641" class="cls-6" d="M75.746,31.669C71.369,37.82,51.559,53.6,25.911,55.815s-39.4-8.452-52.757-15.281c-8.5-4.345-19.614-12.146-27.053-21.15C-60.764,11.078-67.894-6.078-63.864.22s30.1,28.585,30.1,28.585,11.4,4.5,25.986,8.959S5.6,47.436,24.572,46.644,77.268,29.532,75.746,31.669Z" transform="translate(479.405 237.588) rotate(59)"/>
        <path id="Path_642-2" data-name="Path 642" class="cls-7" d="M-15.412-14.65c3-9.707,20.7,8.626,29.359,22.51,3.409,5.463,4.64,13.612,6.82,18.125,7.414,15.349,4.08,34.716,4.08,34.716S22.132,76.676,20.8,73.825,19.562,56.492,19.513,49.3C19.462,41.788,9.339,17.574,7.955,12.862,3.786-1.325-18.081-6.015-15.412-14.65Z" transform="translate(624.488 194.793) rotate(3)"/>
      </g>
      <g id="Group_180" data-name="Group 180" transform="matrix(0.899, -0.438, 0.438, 0.899, 186.027, 705.972)">
        <path id="Path_640-3" data-name="Path 640" class="cls-5" d="M55.938-19.011C93.665-17.369,131.31,14.98,149.4,25.409c32.115,18.513,37.134,32.721,41.146,65.442a91.493,91.493,0,0,1-6.676,46.827,88.593,88.593,0,0,1-20.208,29.7c-21.052,19.84-68.9,15.862-102.333,16.526-20.53.408-64.256-9.561-83.688-37.177C-34.623,129.3-45.556,68.1-18.238,34.611S18.211-20.653,55.938-19.011Z" transform="translate(459.198 144.075)"/>
        <path id="Path_641-3" data-name="Path 641" class="cls-6" d="M75.746,31.669C71.369,37.82,51.559,53.6,25.911,55.815s-39.4-8.452-52.757-15.281c-8.5-4.345-19.614-12.146-27.053-21.15C-60.764,11.078-67.894-6.078-63.864.22s30.1,28.585,30.1,28.585,11.4,4.5,25.986,8.959S5.6,47.436,24.572,46.644,77.268,29.532,75.746,31.669Z" transform="translate(479.405 237.588) rotate(59)"/>
        <path id="Path_642-3" data-name="Path 642" class="cls-7" d="M-15.412-14.65c3-9.707,20.7,8.626,29.359,22.51,3.409,5.463,4.64,13.612,6.82,18.125,7.414,15.349,4.08,34.716,4.08,34.716S22.132,76.676,20.8,73.825,19.562,56.492,19.513,49.3C19.462,41.788,9.339,17.574,7.955,12.862,3.786-1.325-18.081-6.015-15.412-14.65Z" transform="translate(624.488 194.793) rotate(3)"/>
      </g>
      <g id="Path_643" data-name="Path 643" class="cls-8" transform="translate(271.849 226.409)">
        <path class="cls-33" d="M265.511,0C412.148,0,531.021,118.873,531.021,265.511S412.148,531.022,265.511,531.022,0,412.148,0,265.511A264.84,264.84,0,0,1,21.415,160.872C61.927,66.332,155.973,0,265.511,0Z"/>
        <path class="cls-34" d="M 265.5107421875 4 C 239.0967407226562 4 213.0316772460938 7.923828125 188.0395202636719 15.66265869140625 C 163.8538818359375 23.15164184570312 140.8978271484375 34.13363647460938 119.8089599609375 48.3037109375 C 99.01602172851562 62.27484130859375 80.34616088867188 79.1326904296875 64.31781005859375 98.4090576171875 C 48.18295288085938 117.8135681152344 34.98532104492188 139.3590698242188 25.09161376953125 162.4471435546875 C 18.234619140625 178.4486389160156 12.970947265625 195.1787719726562 9.4468994140625 212.1727600097656 C 5.83258056640625 229.6019287109375 3.99993896484375 247.5474243164062 3.99993896484375 265.5107727050781 C 3.99993896484375 283.2565612792969 5.78753662109375 300.989990234375 9.31292724609375 318.2185668945312 C 12.74847412109375 335.0072021484375 17.87457275390625 351.5210571289062 24.54916381835938 367.3013305664062 C 31.10287475585938 382.7960510253906 39.21475219726562 397.7410583496094 48.65951538085938 411.7211303710938 C 58.01522827148438 425.5694885253906 68.75982666015625 438.5919189453125 80.59475708007812 450.4268493652344 C 92.42959594726562 462.26171875 105.4520874023438 473.0062866210938 119.3003845214844 482.3619995117188 C 133.2804565429688 491.8067626953125 148.2254638671875 499.918701171875 163.7201843261719 506.472412109375 C 179.5005187988281 513.1469116210938 196.0143127441406 518.2730712890625 212.8029479980469 521.7085571289062 C 230.0315246582031 525.2340087890625 247.7649536132812 527.0215454101562 265.5107421875 527.0215454101562 C 283.2565307617188 527.0215454101562 300.9899597167969 525.2340087890625 318.218505859375 521.7085571289062 C 335.0071716308594 518.2730712890625 351.5209350585938 513.1469116210938 367.3013305664062 506.472412109375 C 382.7960205078125 499.918701171875 397.740966796875 491.8067626953125 411.7210998535156 482.3619995117188 C 425.5693969726562 473.0062866210938 438.591796875 462.26171875 450.4267578125 450.4268493652344 C 462.2615966796875 438.5919189453125 473.0061645507812 425.5694885253906 482.3618774414062 411.7211303710938 C 491.8066711425781 397.7410583496094 499.9186096191406 382.7960510253906 506.4723205566406 367.3013305664062 C 513.1467895507812 351.5210571289062 518.27294921875 335.0072021484375 521.7084350585938 318.2185668945312 C 525.23388671875 300.989990234375 527.021484375 283.2565612792969 527.021484375 265.5107727050781 C 527.021484375 247.7649841308594 525.23388671875 230.0315551757812 521.7084350585938 212.802978515625 C 518.27294921875 196.0143432617188 513.1467895507812 179.50048828125 506.4723205566406 163.72021484375 C 499.9186096191406 148.2254943847656 491.8066711425781 133.2804870605469 482.3618774414062 119.3004150390625 C 473.0061645507812 105.4520568847656 462.2615966796875 92.42962646484375 450.4267578125 80.59469604492188 C 438.591796875 68.75985717773438 425.5693969726562 58.0152587890625 411.7210998535156 48.6595458984375 C 397.740966796875 39.21478271484375 382.7960205078125 31.10284423828125 367.3013305664062 24.54913330078125 C 351.5209350585938 17.8746337890625 335.0071716308594 12.74847412109375 318.218505859375 9.31298828125 C 300.9899597167969 5.78753662109375 283.2565307617188 4 265.5107421875 4 M 265.5107421875 0 C 412.1482543945312 0 531.021484375 118.8731994628906 531.021484375 265.5107727050781 C 531.021484375 412.1483459472656 412.1482543945312 531.0215454101562 265.5107421875 531.0215454101562 C 118.8732299804688 531.0215454101562 -6.103515625e-05 412.1483459472656 -6.103515625e-05 265.5107727050781 C -6.103515625e-05 228.4114074707031 7.60894775390625 193.0892639160156 21.41494750976562 160.8716430664062 C 61.92709350585938 66.332275390625 155.9725341796875 0 265.5107421875 0 Z"/>
      </g>
      <g id="hospital" transform="translate(497.054 160.222)">
        <g id="Layer_2_46_" transform="translate(0 0)">
          <g id="Group_1" data-name="Group 1" transform="translate(0)">
            <path id="Path_7" data-name="Path 7" class="cls-9" d="M106.454,43.62H85.613V57.714a2.4,2.4,0,0,1-2.059,2.634H63.687a2.4,2.4,0,0,1-2.059-2.634V43.62H41.245c-3.915,0-7.088,4.059-7.088,9.066v90.472c0,5.007,3.173,9.066,7.088,9.066H67.831V131.046a1.578,1.578,0,0,1,1.353-1.731h9.744a1.577,1.577,0,0,1,1.353,1.731v21.179h26.172c3.915,0,7.088-4.059,7.088-9.066V52.686C113.542,47.679,110.368,43.62,106.454,43.62Zm-45.3,78.443a1.578,1.578,0,0,1-1.353,1.731H50.061a1.577,1.577,0,0,1-1.353-1.731V109.6a1.578,1.578,0,0,1,1.353-1.731h9.744a1.577,1.577,0,0,1,1.353,1.731Zm0-21.254a1.578,1.578,0,0,1-1.353,1.731H50.061a1.577,1.577,0,0,1-1.353-1.731V88.345a1.578,1.578,0,0,1,1.353-1.731h9.744a1.577,1.577,0,0,1,1.353,1.731Zm0-21.447a1.578,1.578,0,0,1-1.353,1.731H50.061a1.577,1.577,0,0,1-1.353-1.731V66.9a1.578,1.578,0,0,1,1.353-1.731h9.744A1.577,1.577,0,0,1,61.158,66.9Zm19.123,42.7a1.578,1.578,0,0,1-1.353,1.731H69.184a1.577,1.577,0,0,1-1.353-1.731V109.6a1.578,1.578,0,0,1,1.353-1.731h9.744a1.577,1.577,0,0,1,1.353,1.731Zm0-21.254a1.578,1.578,0,0,1-1.353,1.731H69.184a1.577,1.577,0,0,1-1.353-1.731V88.345a1.578,1.578,0,0,1,1.353-1.731h9.744a1.577,1.577,0,0,1,1.353,1.731Zm0-21.447a1.578,1.578,0,0,1-1.353,1.731H69.184a1.577,1.577,0,0,1-1.353-1.731V66.9a1.578,1.578,0,0,1,1.353-1.731h9.744A1.577,1.577,0,0,1,80.282,66.9Zm19.123,42.7a1.578,1.578,0,0,1-1.353,1.731H88.307a1.577,1.577,0,0,1-1.353-1.731V109.6a1.578,1.578,0,0,1,1.353-1.731h9.744A1.577,1.577,0,0,1,99.4,109.6Zm0-21.254a1.578,1.578,0,0,1-1.353,1.731H88.307a1.577,1.577,0,0,1-1.353-1.731V88.345a1.578,1.578,0,0,1,1.353-1.731h9.744A1.577,1.577,0,0,1,99.4,88.345Zm0-21.447a1.578,1.578,0,0,1-1.353,1.731H88.307a1.577,1.577,0,0,1-1.353-1.731V66.9a1.578,1.578,0,0,1,1.353-1.731h9.744A1.577,1.577,0,0,1,99.4,66.9Z" transform="translate(-34.157 -37.289)"/>
            <path id="Path_8" data-name="Path 8" class="cls-10" d="M108.8,117.184H99.051a1.577,1.577,0,0,0-1.353,1.731v12.464a1.578,1.578,0,0,0,1.353,1.731H108.8a1.577,1.577,0,0,0,1.353-1.731V118.915A1.578,1.578,0,0,0,108.8,117.184Z" transform="translate(-83.147 -89.305)"/>
            <path id="Path_9" data-name="Path 9" class="cls-10" d="M192.3,117.184h-9.744a1.577,1.577,0,0,0-1.353,1.731v12.464a1.578,1.578,0,0,0,1.353,1.731H192.3a1.577,1.577,0,0,0,1.353-1.731V118.915A1.577,1.577,0,0,0,192.3,117.184Z" transform="translate(-147.533 -89.305)"/>
            <path id="Path_10" data-name="Path 10" class="cls-10" d="M275.814,117.184h-9.744a1.577,1.577,0,0,0-1.353,1.731v12.464a1.578,1.578,0,0,0,1.353,1.731h9.744a1.577,1.577,0,0,0,1.353-1.731V118.915A1.577,1.577,0,0,0,275.814,117.184Z" transform="translate(-211.919 -89.305)"/>
            <path id="Path_11" data-name="Path 11" class="cls-10" d="M108.8,190.4H99.051a1.577,1.577,0,0,0-1.353,1.731V204.6a1.578,1.578,0,0,0,1.353,1.731H108.8a1.577,1.577,0,0,0,1.353-1.731V192.134A1.578,1.578,0,0,0,108.8,190.4Z" transform="translate(-83.147 -141.077)"/>
            <path id="Path_12" data-name="Path 12" class="cls-10" d="M192.3,190.4h-9.744a1.577,1.577,0,0,0-1.353,1.731V204.6a1.578,1.578,0,0,0,1.353,1.731H192.3a1.577,1.577,0,0,0,1.353-1.731V192.134A1.577,1.577,0,0,0,192.3,190.4Z" transform="translate(-147.533 -141.077)"/>
            <path id="Path_13" data-name="Path 13" class="cls-10" d="M275.814,190.4h-9.744a1.577,1.577,0,0,0-1.353,1.731V204.6a1.578,1.578,0,0,0,1.353,1.731h9.744a1.577,1.577,0,0,0,1.353-1.731V192.134A1.577,1.577,0,0,0,275.814,190.4Z" transform="translate(-211.919 -141.077)"/>
            <path id="Path_14" data-name="Path 14" class="cls-10" d="M108.8,262.963H99.051a1.577,1.577,0,0,0-1.353,1.731v12.464a1.578,1.578,0,0,0,1.353,1.731H108.8a1.577,1.577,0,0,0,1.353-1.731V264.694A1.578,1.578,0,0,0,108.8,262.963Z" transform="translate(-83.147 -192.384)"/>
            <path id="Path_15" data-name="Path 15" class="cls-10" d="M192.3,262.963h-9.744a1.577,1.577,0,0,0-1.353,1.731v12.464a1.578,1.578,0,0,0,1.353,1.731H192.3a1.577,1.577,0,0,0,1.353-1.731V264.694A1.577,1.577,0,0,0,192.3,262.963Z" transform="translate(-147.533 -192.384)"/>
            <path id="Path_16" data-name="Path 16" class="cls-10" d="M275.814,262.963h-9.744a1.577,1.577,0,0,0-1.353,1.731v12.464a1.578,1.578,0,0,0,1.353,1.731h9.744a1.577,1.577,0,0,0,1.353-1.731V264.694A1.577,1.577,0,0,0,275.814,262.963Z" transform="translate(-211.919 -192.384)"/>
            <path id="Path_17" data-name="Path 17" class="cls-10" d="M192.3,336.181h-9.744a1.577,1.577,0,0,0-1.353,1.731v21.35h12.451v-21.35A1.577,1.577,0,0,0,192.3,336.181Z" transform="translate(-147.533 -244.155)"/>
            <path id="Path_18" data-name="Path 18" class="cls-11" d="M156.335,23.06H177.7A2.141,2.141,0,0,0,179.915,21V2.059A2.141,2.141,0,0,0,177.7,0H156.335a2.141,2.141,0,0,0-2.215,2.059V21A2.141,2.141,0,0,0,156.335,23.06Zm4.8-18.787h3.282a.733.733,0,0,1,.758.705V9.763h3.7V4.978a.733.733,0,0,1,.758-.705H172.9a.733.733,0,0,1,.759.705v13.1a.733.733,0,0,1-.759.705h-3.263a.733.733,0,0,1-.758-.705V13.513h-3.7v4.569a.733.733,0,0,1-.758.705h-3.282a.733.733,0,0,1-.758-.705V4.978A.733.733,0,0,1,161.136,4.273Z" transform="translate(-127.119)"/>
            <path id="Path_19" data-name="Path 19" class="cls-12" d="M179.527,32.473a.733.733,0,0,0,.759.705h3.282a.733.733,0,0,0,.759-.705V27.9h3.7v4.569a.733.733,0,0,0,.758.705h3.263a.733.733,0,0,0,.759-.705v-13.1a.733.733,0,0,0-.759-.705h-3.263a.733.733,0,0,0-.758.705v4.785h-3.7V19.369a.733.733,0,0,0-.759-.705h-3.282a.733.733,0,0,0-.759.705Z" transform="translate(-146.269 -14.391)"/>
          </g>
        </g>
      </g>
      <path id="Path_20" data-name="Path 20" class="cls-13" d="M0,284" transform="translate(321.113 347.393)"/>
      <g id="Group_9" data-name="Group 9" transform="translate(492.774 393.841)">
        <g id="Group_14" data-name="Group 14" transform="translate(-7 2)">
          <g id="Group_7" data-name="Group 7" transform="translate(0 4.964)">
            <g id="Group_4" data-name="Group 4" transform="translate(0 19.132)">
              <line id="Line_1" data-name="Line 1" class="cls-13" x1="84.405" transform="translate(12.942 12.942)"/>
              <rect id="Rectangle_16" data-name="Rectangle 16" class="cls-14" width="25.884" height="25.884" rx="4"/>
              <rect id="Rectangle_17" data-name="Rectangle 17" class="cls-14" width="25.884" height="25.884" rx="4" transform="translate(38.264)"/>
              <rect id="Rectangle_18" data-name="Rectangle 18" class="cls-14" width="25.884" height="25.884" rx="4" transform="translate(76.527)"/>
            </g>
            <circle id="Ellipse_19" data-name="Ellipse 19" class="cls-5" cx="7.315" cy="7.315" r="7.315" transform="translate(82.154 0)"/>
            <text id="Blockchain" class="cls-15" transform="translate(11.193 62.779)"><tspan x="0" y="0">Blockchain</tspan></text>
          </g>
          <g id="id-card_1_" data-name="id-card (1)" transform="translate(83.28 29.191)">
            <path id="Path_33" data-name="Path 33" class="cls-16" d="M21.358,5H11.1a.605.605,0,0,0-.6.6V20.684a.605.605,0,0,0,.6.6H21.358a.605.605,0,0,0,.6-.6V5.6A.6.6,0,0,0,21.358,5ZM16.231,7.715a.9.9,0,1,1,.9-.9A.9.9,0,0,1,16.231,7.715Z" transform="translate(-10.5 -5)"/>
            <path id="Path_34" data-name="Path 34" class="cls-17" d="M10.5,41v4.826a.6.6,0,0,0,.6.6H21.358a.6.6,0,0,0,.6-.6V41Z" transform="translate(-10.5 -30.142)"/>
            <g id="Group_8" data-name="Group 8" transform="translate(2.715 12.065)">
              <path id="Path_35" data-name="Path 35" class="cls-5" d="M19.8,49.6h5.429a.3.3,0,1,0,0-.6H19.8a.3.3,0,0,0,0,.6Z" transform="translate(-19.5 -47.794)"/>
              <path id="Path_36" data-name="Path 36" class="cls-5" d="M23.8,45.6h3.016a.3.3,0,1,0,0-.6H23.8a.3.3,0,0,0,0,.6Z" transform="translate(-22.294 -45)"/>
              <path id="Path_37" data-name="Path 37" class="cls-5" d="M20.1,53h-.3a.3.3,0,0,0,0,.6h.3a.3.3,0,1,0,0-.6Z" transform="translate(-19.5 -50.587)"/>
              <path id="Path_38" data-name="Path 38" class="cls-5" d="M25.4,53h-.6a.3.3,0,0,0,0,.6h.6a.3.3,0,0,0,0-.6Z" transform="translate(-22.992 -50.587)"/>
              <path id="Path_39" data-name="Path 39" class="cls-5" d="M31.1,53h-.3a.3.3,0,1,0,0,.6h.3a.3.3,0,1,0,0-.6Z" transform="translate(-27.182 -50.587)"/>
              <path id="Path_40" data-name="Path 40" class="cls-5" d="M36.4,53h-.6a.3.3,0,1,0,0,.6h.6a.3.3,0,0,0,0-.6Z" transform="translate(-30.674 -50.587)"/>
            </g>
            <path id="Path_41" data-name="Path 41" class="cls-17" d="M25.928,24.924a.989.989,0,0,0-.546-.863l-1.136-.58a.232.232,0,0,1-.126-.207v-.348a1.909,1.909,0,0,0,1.081-1.35A.6.6,0,0,0,25.627,21v-.3a.6.6,0,0,0-.325-.532c-.133-1.134-.883-1.593-2.088-1.593-.057,0-.113,0-.168.007a1.811,1.811,0,0,1-1.165-.274,1.511,1.511,0,0,1-.345-.3.06.06,0,0,0-.108.044c.012.106.03.229.057.363.1.5.04.428-.154.9a3.116,3.116,0,0,0-.208.858.6.6,0,0,0-.323.531V21a.6.6,0,0,0,.427.574,1.909,1.909,0,0,0,1.081,1.35v.345a.232.232,0,0,1-.129.208l-1.165.573a.99.99,0,0,0-.516.869v0Z" transform="translate(-17.484 -13.493)"/>
          </g>
          <text id="_" data-name="+" class="cls-18" transform="translate(85.405 16)"><tspan x="0" y="0">+</tspan></text>
        </g>
      </g>
      <text id="Clinic_B" data-name="Clinic B" class="cls-19" transform="translate(286.484 750.72)"><tspan x="0" y="0">Clinic B</tspan></text>
      <text id="Clinic_C" data-name="Clinic C" class="cls-19" transform="translate(733.258 756.72)"><tspan x="0" y="0">Clinic C</tspan></text>
      <text id="Clinic_A" data-name="Clinic A" class="cls-20" transform="translate(507.452 305.989)"><tspan x="0" y="0">Clinic A</tspan></text>
      <g id="Group_11" data-name="Group 11" transform="translate(390.592 339.966)">
        <text id="_Register_and_treatmentment_at_Clinic_A" data-name=" Register and treatmentment at Clinic A" class="cls-21" transform="translate(32.548 47.248)"><tspan x="0" y="0" xml:space="preserve"> Register and treatmentment at Clinic A</tspan></text>
        <text id="Scan_QR_Code_" data-name="Scan QR Code " class="cls-22" transform="translate(37.86 25.957)"><tspan x="0" y="0">Scan QR Code </tspan></text>
        <g id="qr-code-scan" transform="translate(171.656 -2.012)">
          <g id="Group_10" data-name="Group 10" transform="translate(0 0)">
            <path id="Path_42" data-name="Path 42" class="cls-10" d="M9.671.362H2.411A2.4,2.4,0,0,0,0,2.769v7.262a2.421,2.421,0,0,0,2.411,2.43H9.672a2.434,2.434,0,0,0,2.426-2.43V2.769A2.415,2.415,0,0,0,9.671.362Zm.243,9.629a.287.287,0,0,1-.288.287H2.379a.287.287,0,0,1-.287-.287V2.742a.287.287,0,0,1,.287-.287H9.627a.287.287,0,0,1,.288.287V9.991Z" transform="translate(0 -0.362)"/>
            <rect id="Rectangle_19" data-name="Rectangle 19" class="cls-10" width="4.64" height="4.639" transform="translate(3.729 3.73)"/>
            <path id="Path_43" data-name="Path 43" class="cls-10" d="M9.671,19.072H2.411A2.4,2.4,0,0,0,0,21.474v7.263a2.426,2.426,0,0,0,2.411,2.435H9.672A2.439,2.439,0,0,0,12.1,28.737V21.474A2.411,2.411,0,0,0,9.671,19.072Zm.243,9.66a.249.249,0,0,1-.272.257H2.4a.281.281,0,0,1-.308-.257V21.488a.338.338,0,0,1,.308-.324H9.643a.309.309,0,0,1,.272.324v7.244Z" transform="translate(0 -0.15)"/>
            <rect id="Rectangle_20" data-name="Rectangle 20" class="cls-10" width="4.64" height="4.64" transform="translate(3.729 22.652)"/>
            <path id="Path_44" data-name="Path 44" class="cls-10" d="M21.018,12.461H28.28a2.446,2.446,0,0,0,2.438-2.43V2.769A2.426,2.426,0,0,0,28.28.362H21.018a2.391,2.391,0,0,0-2.4,2.407v7.262A2.411,2.411,0,0,0,21.018,12.461Zm-.306-9.72A.287.287,0,0,1,21,2.454h7.249a.287.287,0,0,1,.286.287V9.991a.287.287,0,0,1-.286.287H21a.287.287,0,0,1-.287-.287Z" transform="translate(0.211 -0.362)"/>
            <rect id="Rectangle_21" data-name="Rectangle 21" class="cls-10" width="4.729" height="4.639" transform="translate(22.47 3.73)"/>
            <path id="Path_45" data-name="Path 45" class="cls-10" d="M4.324,13.675h-1.6a.659.659,0,0,0-.654.64v1.6a.685.685,0,0,0,.654.671H4.251v.02a.589.589,0,0,0,.6.616H8.436V17.3a.673.673,0,0,0,.658.652h1.6a.665.665,0,0,0,.651-.652V15.747a.636.636,0,0,0-.651-.617h-.8v-.815a.635.635,0,0,0-.628-.64H8.4a.616.616,0,0,0-.6.64v.816H4.979v-.816A.658.658,0,0,0,4.324,13.675Z" transform="translate(0.023 -0.211)"/>
            <path id="Path_46" data-name="Path 46" class="cls-10" d="M14.407,7.172V10.72a.6.6,0,0,0,.59.637H17.29a.667.667,0,0,0,.666-.637v-1.6a.7.7,0,0,0-.666-.674H16.5V3.533h.1a.62.62,0,0,0,.631-.618v-.86a.616.616,0,0,0-.631-.614H13.565a.6.6,0,0,0-.613.614v.86a.6.6,0,0,0,.613.618h.842V5.808h-.842a.625.625,0,0,0-.613.643V6.57a.59.59,0,0,0,.613.6Z" transform="translate(0.147 -0.35)"/>
            <path id="Path_47" data-name="Path 47" class="cls-10" d="M16.133,14.424V12.867a.632.632,0,0,0-.632-.632H13.944a.632.632,0,0,0-.632.632v1.556a.632.632,0,0,0,.632.632H15.5A.632.632,0,0,0,16.133,14.424Z" transform="translate(0.151 -0.228)"/>
            <path id="Path_48" data-name="Path 48" class="cls-10" d="M18.839,14.935a.681.681,0,0,0-.669.65v.625a14.6,14.6,0,0,1,1.735-1.275H18.839Z" transform="translate(0.206 -0.197)"/>
            <path id="Path_49" data-name="Path 49" class="cls-10" d="M18.046,16.374H15.323a.653.653,0,0,0-.661.627v3.646A16.144,16.144,0,0,1,17.358,17,8.28,8.28,0,0,1,18.046,16.374Z" transform="translate(0.166 -0.181)"/>
            <g id="Ellipse_22" data-name="Ellipse 22" class="cls-23" transform="translate(14.817 14.508)">
              <ellipse class="cls-33" cx="11.113" cy="11.113" rx="11.113" ry="11.113"/>
              <ellipse class="cls-35" cx="11.113" cy="11.113" rx="10.113" ry="10.113"/>
            </g>
          </g>
        </g>
      </g>
      <g id="Group_16" data-name="Group 16" transform="translate(-17)">
        <g id="Group_15" data-name="Group 15" transform="translate(412.774 531.841)">
          <g id="Group_14-2" data-name="Group 14" transform="translate(-7 2)">
            <g id="Group_7-2" data-name="Group 7" transform="translate(0 4.964)">
              <g id="Group_4-2" data-name="Group 4" transform="translate(0 19.132)">
                <line id="Line_1-2" data-name="Line 1" class="cls-13" x1="84.405" transform="translate(12.942 12.942)"/>
                <rect id="Rectangle_16-2" data-name="Rectangle 16" class="cls-14" width="25.884" height="25.884" rx="4"/>
                <rect id="Rectangle_17-2" data-name="Rectangle 17" class="cls-14" width="25.884" height="25.884" rx="4" transform="translate(38.264)"/>
                <rect id="Rectangle_18-2" data-name="Rectangle 18" class="cls-14" width="25.884" height="25.884" rx="4" transform="translate(76.527)"/>
              </g>
              <circle id="Ellipse_19-2" data-name="Ellipse 19" class="cls-5" cx="7.315" cy="7.315" r="7.315" transform="translate(82.154 0)"/>
              <text id="Blockchain-2" data-name="Blockchain" class="cls-15" transform="translate(11.193 62.779)"><tspan x="0" y="0">Blockchain</tspan></text>
            </g>
            <g id="id-card_1_2" data-name="id-card (1)" transform="translate(83.28 29.191)">
              <path id="Path_33-2" data-name="Path 33" class="cls-16" d="M21.358,5H11.1a.605.605,0,0,0-.6.6V20.684a.605.605,0,0,0,.6.6H21.358a.605.605,0,0,0,.6-.6V5.6A.6.6,0,0,0,21.358,5ZM16.231,7.715a.9.9,0,1,1,.9-.9A.9.9,0,0,1,16.231,7.715Z" transform="translate(-10.5 -5)"/>
              <path id="Path_34-2" data-name="Path 34" class="cls-17" d="M10.5,41v4.826a.6.6,0,0,0,.6.6H21.358a.6.6,0,0,0,.6-.6V41Z" transform="translate(-10.5 -30.142)"/>
              <g id="Group_8-2" data-name="Group 8" transform="translate(2.715 12.065)">
                <path id="Path_35-2" data-name="Path 35" class="cls-5" d="M19.8,49.6h5.429a.3.3,0,1,0,0-.6H19.8a.3.3,0,0,0,0,.6Z" transform="translate(-19.5 -47.794)"/>
                <path id="Path_36-2" data-name="Path 36" class="cls-5" d="M23.8,45.6h3.016a.3.3,0,1,0,0-.6H23.8a.3.3,0,0,0,0,.6Z" transform="translate(-22.294 -45)"/>
                <path id="Path_37-2" data-name="Path 37" class="cls-5" d="M20.1,53h-.3a.3.3,0,0,0,0,.6h.3a.3.3,0,1,0,0-.6Z" transform="translate(-19.5 -50.587)"/>
                <path id="Path_38-2" data-name="Path 38" class="cls-5" d="M25.4,53h-.6a.3.3,0,0,0,0,.6h.6a.3.3,0,0,0,0-.6Z" transform="translate(-22.992 -50.587)"/>
                <path id="Path_39-2" data-name="Path 39" class="cls-5" d="M31.1,53h-.3a.3.3,0,1,0,0,.6h.3a.3.3,0,1,0,0-.6Z" transform="translate(-27.182 -50.587)"/>
                <path id="Path_40-2" data-name="Path 40" class="cls-5" d="M36.4,53h-.6a.3.3,0,1,0,0,.6h.6a.3.3,0,0,0,0-.6Z" transform="translate(-30.674 -50.587)"/>
              </g>
              <path id="Path_41-2" data-name="Path 41" class="cls-17" d="M25.928,24.924a.989.989,0,0,0-.546-.863l-1.136-.58a.232.232,0,0,1-.126-.207v-.348a1.909,1.909,0,0,0,1.081-1.35A.6.6,0,0,0,25.627,21v-.3a.6.6,0,0,0-.325-.532c-.133-1.134-.883-1.593-2.088-1.593-.057,0-.113,0-.168.007a1.811,1.811,0,0,1-1.165-.274,1.511,1.511,0,0,1-.345-.3.06.06,0,0,0-.108.044c.012.106.03.229.057.363.1.5.04.428-.154.9a3.116,3.116,0,0,0-.208.858.6.6,0,0,0-.323.531V21a.6.6,0,0,0,.427.574,1.909,1.909,0,0,0,1.081,1.35v.345a.232.232,0,0,1-.129.208l-1.165.573a.99.99,0,0,0-.516.869v0Z" transform="translate(-17.484 -13.493)"/>
            </g>
          </g>
        </g>
        <g id="checked-symbol" transform="translate(491.742 544.129)">
          <path id="Path_50" data-name="Path 50" class="cls-24" d="M6.456,3.79,6.265,3.6a.541.541,0,0,0-.763,0L2.261,6.841,1.11,5.692a.541.541,0,0,0-.763,0l-.191.19a.542.542,0,0,0,0,.763L1.878,8.368a.542.542,0,0,0,.763,0L6.456,4.553A.542.542,0,0,0,6.456,3.79Z" transform="translate(0 -3.442)"/>
        </g>
      </g>
      <g id="hospital-2" data-name="hospital" transform="translate(281.054 608.222)">
        <g id="Layer_2_46_2" data-name="Layer_2_46_" transform="translate(0 0)">
          <g id="Group_1-2" data-name="Group 1" transform="translate(0)">
            <path id="Path_7-2" data-name="Path 7" class="cls-9" d="M106.454,43.62H85.613V57.714a2.4,2.4,0,0,1-2.059,2.634H63.687a2.4,2.4,0,0,1-2.059-2.634V43.62H41.245c-3.915,0-7.088,4.059-7.088,9.066v90.472c0,5.007,3.173,9.066,7.088,9.066H67.831V131.046a1.578,1.578,0,0,1,1.353-1.731h9.744a1.577,1.577,0,0,1,1.353,1.731v21.179h26.172c3.915,0,7.088-4.059,7.088-9.066V52.686C113.542,47.679,110.368,43.62,106.454,43.62Zm-45.3,78.443a1.578,1.578,0,0,1-1.353,1.731H50.061a1.577,1.577,0,0,1-1.353-1.731V109.6a1.578,1.578,0,0,1,1.353-1.731h9.744a1.577,1.577,0,0,1,1.353,1.731Zm0-21.254a1.578,1.578,0,0,1-1.353,1.731H50.061a1.577,1.577,0,0,1-1.353-1.731V88.345a1.578,1.578,0,0,1,1.353-1.731h9.744a1.577,1.577,0,0,1,1.353,1.731Zm0-21.447a1.578,1.578,0,0,1-1.353,1.731H50.061a1.577,1.577,0,0,1-1.353-1.731V66.9a1.578,1.578,0,0,1,1.353-1.731h9.744A1.577,1.577,0,0,1,61.158,66.9Zm19.123,42.7a1.578,1.578,0,0,1-1.353,1.731H69.184a1.577,1.577,0,0,1-1.353-1.731V109.6a1.578,1.578,0,0,1,1.353-1.731h9.744a1.577,1.577,0,0,1,1.353,1.731Zm0-21.254a1.578,1.578,0,0,1-1.353,1.731H69.184a1.577,1.577,0,0,1-1.353-1.731V88.345a1.578,1.578,0,0,1,1.353-1.731h9.744a1.577,1.577,0,0,1,1.353,1.731Zm0-21.447a1.578,1.578,0,0,1-1.353,1.731H69.184a1.577,1.577,0,0,1-1.353-1.731V66.9a1.578,1.578,0,0,1,1.353-1.731h9.744A1.577,1.577,0,0,1,80.282,66.9Zm19.123,42.7a1.578,1.578,0,0,1-1.353,1.731H88.307a1.577,1.577,0,0,1-1.353-1.731V109.6a1.578,1.578,0,0,1,1.353-1.731h9.744A1.577,1.577,0,0,1,99.4,109.6Zm0-21.254a1.578,1.578,0,0,1-1.353,1.731H88.307a1.577,1.577,0,0,1-1.353-1.731V88.345a1.578,1.578,0,0,1,1.353-1.731h9.744A1.577,1.577,0,0,1,99.4,88.345Zm0-21.447a1.578,1.578,0,0,1-1.353,1.731H88.307a1.577,1.577,0,0,1-1.353-1.731V66.9a1.578,1.578,0,0,1,1.353-1.731h9.744A1.577,1.577,0,0,1,99.4,66.9Z" transform="translate(-34.157 -37.289)"/>
            <path id="Path_8-2" data-name="Path 8" class="cls-10" d="M108.8,117.184H99.051a1.577,1.577,0,0,0-1.353,1.731v12.464a1.578,1.578,0,0,0,1.353,1.731H108.8a1.577,1.577,0,0,0,1.353-1.731V118.915A1.578,1.578,0,0,0,108.8,117.184Z" transform="translate(-83.147 -89.305)"/>
            <path id="Path_9-2" data-name="Path 9" class="cls-10" d="M192.3,117.184h-9.744a1.577,1.577,0,0,0-1.353,1.731v12.464a1.578,1.578,0,0,0,1.353,1.731H192.3a1.577,1.577,0,0,0,1.353-1.731V118.915A1.577,1.577,0,0,0,192.3,117.184Z" transform="translate(-147.533 -89.305)"/>
            <path id="Path_10-2" data-name="Path 10" class="cls-10" d="M275.814,117.184h-9.744a1.577,1.577,0,0,0-1.353,1.731v12.464a1.578,1.578,0,0,0,1.353,1.731h9.744a1.577,1.577,0,0,0,1.353-1.731V118.915A1.577,1.577,0,0,0,275.814,117.184Z" transform="translate(-211.919 -89.305)"/>
            <path id="Path_11-2" data-name="Path 11" class="cls-10" d="M108.8,190.4H99.051a1.577,1.577,0,0,0-1.353,1.731V204.6a1.578,1.578,0,0,0,1.353,1.731H108.8a1.577,1.577,0,0,0,1.353-1.731V192.134A1.578,1.578,0,0,0,108.8,190.4Z" transform="translate(-83.147 -141.077)"/>
            <path id="Path_12-2" data-name="Path 12" class="cls-10" d="M192.3,190.4h-9.744a1.577,1.577,0,0,0-1.353,1.731V204.6a1.578,1.578,0,0,0,1.353,1.731H192.3a1.577,1.577,0,0,0,1.353-1.731V192.134A1.577,1.577,0,0,0,192.3,190.4Z" transform="translate(-147.533 -141.077)"/>
            <path id="Path_13-2" data-name="Path 13" class="cls-10" d="M275.814,190.4h-9.744a1.577,1.577,0,0,0-1.353,1.731V204.6a1.578,1.578,0,0,0,1.353,1.731h9.744a1.577,1.577,0,0,0,1.353-1.731V192.134A1.577,1.577,0,0,0,275.814,190.4Z" transform="translate(-211.919 -141.077)"/>
            <path id="Path_14-2" data-name="Path 14" class="cls-10" d="M108.8,262.963H99.051a1.577,1.577,0,0,0-1.353,1.731v12.464a1.578,1.578,0,0,0,1.353,1.731H108.8a1.577,1.577,0,0,0,1.353-1.731V264.694A1.578,1.578,0,0,0,108.8,262.963Z" transform="translate(-83.147 -192.384)"/>
            <path id="Path_15-2" data-name="Path 15" class="cls-10" d="M192.3,262.963h-9.744a1.577,1.577,0,0,0-1.353,1.731v12.464a1.578,1.578,0,0,0,1.353,1.731H192.3a1.577,1.577,0,0,0,1.353-1.731V264.694A1.577,1.577,0,0,0,192.3,262.963Z" transform="translate(-147.533 -192.384)"/>
            <path id="Path_16-2" data-name="Path 16" class="cls-10" d="M275.814,262.963h-9.744a1.577,1.577,0,0,0-1.353,1.731v12.464a1.578,1.578,0,0,0,1.353,1.731h9.744a1.577,1.577,0,0,0,1.353-1.731V264.694A1.577,1.577,0,0,0,275.814,262.963Z" transform="translate(-211.919 -192.384)"/>
            <path id="Path_17-2" data-name="Path 17" class="cls-10" d="M192.3,336.181h-9.744a1.577,1.577,0,0,0-1.353,1.731v21.35h12.451v-21.35A1.577,1.577,0,0,0,192.3,336.181Z" transform="translate(-147.533 -244.155)"/>
            <path id="Path_18-2" data-name="Path 18" class="cls-11" d="M156.335,23.06H177.7A2.141,2.141,0,0,0,179.915,21V2.059A2.141,2.141,0,0,0,177.7,0H156.335a2.141,2.141,0,0,0-2.215,2.059V21A2.141,2.141,0,0,0,156.335,23.06Zm4.8-18.787h3.282a.733.733,0,0,1,.758.705V9.763h3.7V4.978a.733.733,0,0,1,.758-.705H172.9a.733.733,0,0,1,.759.705v13.1a.733.733,0,0,1-.759.705h-3.263a.733.733,0,0,1-.758-.705V13.513h-3.7v4.569a.733.733,0,0,1-.758.705h-3.282a.733.733,0,0,1-.758-.705V4.978A.733.733,0,0,1,161.136,4.273Z" transform="translate(-127.119)"/>
            <path id="Path_19-2" data-name="Path 19" class="cls-12" d="M179.527,32.473a.733.733,0,0,0,.759.705h3.282a.733.733,0,0,0,.759-.705V27.9h3.7v4.569a.733.733,0,0,0,.758.705h3.263a.733.733,0,0,0,.759-.705v-13.1a.733.733,0,0,0-.759-.705h-3.263a.733.733,0,0,0-.758.705v4.785h-3.7V19.369a.733.733,0,0,0-.759-.705h-3.282a.733.733,0,0,0-.759.705Z" transform="translate(-146.269 -14.391)"/>
          </g>
        </g>
      </g>
      <g id="hospital-3" data-name="hospital" transform="translate(727.054 614.222)">
        <g id="Layer_2_46_3" data-name="Layer_2_46_" transform="translate(0 0)">
          <g id="Group_1-3" data-name="Group 1" transform="translate(0)">
            <path id="Path_7-3" data-name="Path 7" class="cls-9" d="M106.454,43.62H85.613V57.714a2.4,2.4,0,0,1-2.059,2.634H63.687a2.4,2.4,0,0,1-2.059-2.634V43.62H41.245c-3.915,0-7.088,4.059-7.088,9.066v90.472c0,5.007,3.173,9.066,7.088,9.066H67.831V131.046a1.578,1.578,0,0,1,1.353-1.731h9.744a1.577,1.577,0,0,1,1.353,1.731v21.179h26.172c3.915,0,7.088-4.059,7.088-9.066V52.686C113.542,47.679,110.368,43.62,106.454,43.62Zm-45.3,78.443a1.578,1.578,0,0,1-1.353,1.731H50.061a1.577,1.577,0,0,1-1.353-1.731V109.6a1.578,1.578,0,0,1,1.353-1.731h9.744a1.577,1.577,0,0,1,1.353,1.731Zm0-21.254a1.578,1.578,0,0,1-1.353,1.731H50.061a1.577,1.577,0,0,1-1.353-1.731V88.345a1.578,1.578,0,0,1,1.353-1.731h9.744a1.577,1.577,0,0,1,1.353,1.731Zm0-21.447a1.578,1.578,0,0,1-1.353,1.731H50.061a1.577,1.577,0,0,1-1.353-1.731V66.9a1.578,1.578,0,0,1,1.353-1.731h9.744A1.577,1.577,0,0,1,61.158,66.9Zm19.123,42.7a1.578,1.578,0,0,1-1.353,1.731H69.184a1.577,1.577,0,0,1-1.353-1.731V109.6a1.578,1.578,0,0,1,1.353-1.731h9.744a1.577,1.577,0,0,1,1.353,1.731Zm0-21.254a1.578,1.578,0,0,1-1.353,1.731H69.184a1.577,1.577,0,0,1-1.353-1.731V88.345a1.578,1.578,0,0,1,1.353-1.731h9.744a1.577,1.577,0,0,1,1.353,1.731Zm0-21.447a1.578,1.578,0,0,1-1.353,1.731H69.184a1.577,1.577,0,0,1-1.353-1.731V66.9a1.578,1.578,0,0,1,1.353-1.731h9.744A1.577,1.577,0,0,1,80.282,66.9Zm19.123,42.7a1.578,1.578,0,0,1-1.353,1.731H88.307a1.577,1.577,0,0,1-1.353-1.731V109.6a1.578,1.578,0,0,1,1.353-1.731h9.744A1.577,1.577,0,0,1,99.4,109.6Zm0-21.254a1.578,1.578,0,0,1-1.353,1.731H88.307a1.577,1.577,0,0,1-1.353-1.731V88.345a1.578,1.578,0,0,1,1.353-1.731h9.744A1.577,1.577,0,0,1,99.4,88.345Zm0-21.447a1.578,1.578,0,0,1-1.353,1.731H88.307a1.577,1.577,0,0,1-1.353-1.731V66.9a1.578,1.578,0,0,1,1.353-1.731h9.744A1.577,1.577,0,0,1,99.4,66.9Z" transform="translate(-34.157 -37.289)"/>
            <path id="Path_8-3" data-name="Path 8" class="cls-10" d="M108.8,117.184H99.051a1.577,1.577,0,0,0-1.353,1.731v12.464a1.578,1.578,0,0,0,1.353,1.731H108.8a1.577,1.577,0,0,0,1.353-1.731V118.915A1.578,1.578,0,0,0,108.8,117.184Z" transform="translate(-83.147 -89.305)"/>
            <path id="Path_9-3" data-name="Path 9" class="cls-10" d="M192.3,117.184h-9.744a1.577,1.577,0,0,0-1.353,1.731v12.464a1.578,1.578,0,0,0,1.353,1.731H192.3a1.577,1.577,0,0,0,1.353-1.731V118.915A1.577,1.577,0,0,0,192.3,117.184Z" transform="translate(-147.533 -89.305)"/>
            <path id="Path_10-3" data-name="Path 10" class="cls-10" d="M275.814,117.184h-9.744a1.577,1.577,0,0,0-1.353,1.731v12.464a1.578,1.578,0,0,0,1.353,1.731h9.744a1.577,1.577,0,0,0,1.353-1.731V118.915A1.577,1.577,0,0,0,275.814,117.184Z" transform="translate(-211.919 -89.305)"/>
            <path id="Path_11-3" data-name="Path 11" class="cls-10" d="M108.8,190.4H99.051a1.577,1.577,0,0,0-1.353,1.731V204.6a1.578,1.578,0,0,0,1.353,1.731H108.8a1.577,1.577,0,0,0,1.353-1.731V192.134A1.578,1.578,0,0,0,108.8,190.4Z" transform="translate(-83.147 -141.077)"/>
            <path id="Path_12-3" data-name="Path 12" class="cls-10" d="M192.3,190.4h-9.744a1.577,1.577,0,0,0-1.353,1.731V204.6a1.578,1.578,0,0,0,1.353,1.731H192.3a1.577,1.577,0,0,0,1.353-1.731V192.134A1.577,1.577,0,0,0,192.3,190.4Z" transform="translate(-147.533 -141.077)"/>
            <path id="Path_13-3" data-name="Path 13" class="cls-10" d="M275.814,190.4h-9.744a1.577,1.577,0,0,0-1.353,1.731V204.6a1.578,1.578,0,0,0,1.353,1.731h9.744a1.577,1.577,0,0,0,1.353-1.731V192.134A1.577,1.577,0,0,0,275.814,190.4Z" transform="translate(-211.919 -141.077)"/>
            <path id="Path_14-3" data-name="Path 14" class="cls-10" d="M108.8,262.963H99.051a1.577,1.577,0,0,0-1.353,1.731v12.464a1.578,1.578,0,0,0,1.353,1.731H108.8a1.577,1.577,0,0,0,1.353-1.731V264.694A1.578,1.578,0,0,0,108.8,262.963Z" transform="translate(-83.147 -192.384)"/>
            <path id="Path_15-3" data-name="Path 15" class="cls-10" d="M192.3,262.963h-9.744a1.577,1.577,0,0,0-1.353,1.731v12.464a1.578,1.578,0,0,0,1.353,1.731H192.3a1.577,1.577,0,0,0,1.353-1.731V264.694A1.577,1.577,0,0,0,192.3,262.963Z" transform="translate(-147.533 -192.384)"/>
            <path id="Path_16-3" data-name="Path 16" class="cls-10" d="M275.814,262.963h-9.744a1.577,1.577,0,0,0-1.353,1.731v12.464a1.578,1.578,0,0,0,1.353,1.731h9.744a1.577,1.577,0,0,0,1.353-1.731V264.694A1.577,1.577,0,0,0,275.814,262.963Z" transform="translate(-211.919 -192.384)"/>
            <path id="Path_17-3" data-name="Path 17" class="cls-10" d="M192.3,336.181h-9.744a1.577,1.577,0,0,0-1.353,1.731v21.35h12.451v-21.35A1.577,1.577,0,0,0,192.3,336.181Z" transform="translate(-147.533 -244.155)"/>
            <path id="Path_18-3" data-name="Path 18" class="cls-11" d="M156.335,23.06H177.7A2.141,2.141,0,0,0,179.915,21V2.059A2.141,2.141,0,0,0,177.7,0H156.335a2.141,2.141,0,0,0-2.215,2.059V21A2.141,2.141,0,0,0,156.335,23.06Zm4.8-18.787h3.282a.733.733,0,0,1,.758.705V9.763h3.7V4.978a.733.733,0,0,1,.758-.705H172.9a.733.733,0,0,1,.759.705v13.1a.733.733,0,0,1-.759.705h-3.263a.733.733,0,0,1-.758-.705V13.513h-3.7v4.569a.733.733,0,0,1-.758.705h-3.282a.733.733,0,0,1-.758-.705V4.978A.733.733,0,0,1,161.136,4.273Z" transform="translate(-127.119)"/>
            <path id="Path_19-3" data-name="Path 19" class="cls-12" d="M179.527,32.473a.733.733,0,0,0,.759.705h3.282a.733.733,0,0,0,.759-.705V27.9h3.7v4.569a.733.733,0,0,0,.758.705h3.263a.733.733,0,0,0,.759-.705v-13.1a.733.733,0,0,0-.759-.705h-3.263a.733.733,0,0,0-.758.705v4.785h-3.7V19.369a.733.733,0,0,0-.759-.705h-3.282a.733.733,0,0,0-.759.705Z" transform="translate(-146.269 -14.391)"/>
          </g>
        </g>
      </g>
      <g id="Group_164" data-name="Group 164" transform="translate(171)">
        <g id="Group_15-2" data-name="Group 15" transform="translate(412.774 531.841)">
          <g id="Group_14-3" data-name="Group 14" transform="translate(-7 2)">
            <g id="Group_7-3" data-name="Group 7" transform="translate(0 4.964)">
              <g id="Group_4-3" data-name="Group 4" transform="translate(0 19.132)">
                <line id="Line_1-3" data-name="Line 1" class="cls-13" x1="84.405" transform="translate(12.942 12.942)"/>
                <rect id="Rectangle_16-3" data-name="Rectangle 16" class="cls-14" width="25.884" height="25.884" rx="4"/>
                <rect id="Rectangle_17-3" data-name="Rectangle 17" class="cls-14" width="25.884" height="25.884" rx="4" transform="translate(38.264)"/>
                <rect id="Rectangle_18-3" data-name="Rectangle 18" class="cls-14" width="25.884" height="25.884" rx="4" transform="translate(76.527)"/>
              </g>
              <circle id="Ellipse_19-3" data-name="Ellipse 19" class="cls-5" cx="7.315" cy="7.315" r="7.315" transform="translate(82.154 0)"/>
              <text id="Blockchain-3" data-name="Blockchain" class="cls-15" transform="translate(11.193 62.779)"><tspan x="0" y="0">Blockchain</tspan></text>
            </g>
            <g id="id-card_1_3" data-name="id-card (1)" transform="translate(83.28 29.191)">
              <path id="Path_33-3" data-name="Path 33" class="cls-16" d="M21.358,5H11.1a.605.605,0,0,0-.6.6V20.684a.605.605,0,0,0,.6.6H21.358a.605.605,0,0,0,.6-.6V5.6A.6.6,0,0,0,21.358,5ZM16.231,7.715a.9.9,0,1,1,.9-.9A.9.9,0,0,1,16.231,7.715Z" transform="translate(-10.5 -5)"/>
              <path id="Path_34-3" data-name="Path 34" class="cls-17" d="M10.5,41v4.826a.6.6,0,0,0,.6.6H21.358a.6.6,0,0,0,.6-.6V41Z" transform="translate(-10.5 -30.142)"/>
              <g id="Group_8-3" data-name="Group 8" transform="translate(2.715 12.065)">
                <path id="Path_35-3" data-name="Path 35" class="cls-5" d="M19.8,49.6h5.429a.3.3,0,1,0,0-.6H19.8a.3.3,0,0,0,0,.6Z" transform="translate(-19.5 -47.794)"/>
                <path id="Path_36-3" data-name="Path 36" class="cls-5" d="M23.8,45.6h3.016a.3.3,0,1,0,0-.6H23.8a.3.3,0,0,0,0,.6Z" transform="translate(-22.294 -45)"/>
                <path id="Path_37-3" data-name="Path 37" class="cls-5" d="M20.1,53h-.3a.3.3,0,0,0,0,.6h.3a.3.3,0,1,0,0-.6Z" transform="translate(-19.5 -50.587)"/>
                <path id="Path_38-3" data-name="Path 38" class="cls-5" d="M25.4,53h-.6a.3.3,0,0,0,0,.6h.6a.3.3,0,0,0,0-.6Z" transform="translate(-22.992 -50.587)"/>
                <path id="Path_39-3" data-name="Path 39" class="cls-5" d="M31.1,53h-.3a.3.3,0,1,0,0,.6h.3a.3.3,0,1,0,0-.6Z" transform="translate(-27.182 -50.587)"/>
                <path id="Path_40-3" data-name="Path 40" class="cls-5" d="M36.4,53h-.6a.3.3,0,1,0,0,.6h.6a.3.3,0,0,0,0-.6Z" transform="translate(-30.674 -50.587)"/>
              </g>
              <path id="Path_41-3" data-name="Path 41" class="cls-17" d="M25.928,24.924a.989.989,0,0,0-.546-.863l-1.136-.58a.232.232,0,0,1-.126-.207v-.348a1.909,1.909,0,0,0,1.081-1.35A.6.6,0,0,0,25.627,21v-.3a.6.6,0,0,0-.325-.532c-.133-1.134-.883-1.593-2.088-1.593-.057,0-.113,0-.168.007a1.811,1.811,0,0,1-1.165-.274,1.511,1.511,0,0,1-.345-.3.06.06,0,0,0-.108.044c.012.106.03.229.057.363.1.5.04.428-.154.9a3.116,3.116,0,0,0-.208.858.6.6,0,0,0-.323.531V21a.6.6,0,0,0,.427.574,1.909,1.909,0,0,0,1.081,1.35v.345a.232.232,0,0,1-.129.208l-1.165.573a.99.99,0,0,0-.516.869v0Z" transform="translate(-17.484 -13.493)"/>
            </g>
          </g>
        </g>
        <g id="checked-symbol-2" data-name="checked-symbol" transform="translate(491.742 544.129)">
          <path id="Path_50-2" data-name="Path 50" class="cls-24" d="M6.456,3.79,6.265,3.6a.541.541,0,0,0-.763,0L2.261,6.841,1.11,5.692a.541.541,0,0,0-.763,0l-.191.19a.542.542,0,0,0,0,.763L1.878,8.368a.542.542,0,0,0,.763,0L6.456,4.553A.542.542,0,0,0,6.456,3.79Z" transform="translate(0 -3.442)"/>
        </g>
      </g>
    </g>
    <path id="Path_631" data-name="Path 631" class="cls-25" d="M91.293,39.079c45.167,0,104.045-30.176,104.045,14.991a81.782,81.782,0,0,1-81.782,81.782c-45.167,0-135.347-51.605-135.347-96.772S46.126,39.079,91.293,39.079Z" transform="translate(467.132 129.408) rotate(138)"/>
    <g id="Group_173" data-name="Group 173" class="cls-26" transform="matrix(-0.94, -0.342, 0.342, -0.94, 1248.081, 699.78)">
      <g id="Ellipse_51" data-name="Ellipse 51" class="cls-27" transform="translate(1061 164)">
        <circle class="cls-33" cx="22" cy="22" r="22"/>
        <circle class="cls-35" cx="22" cy="22" r="19.5"/>
      </g>
      <g id="Ellipse_52" data-name="Ellipse 52" class="cls-27" transform="translate(1083 134)">
        <circle class="cls-33" cx="13" cy="13" r="13"/>
        <circle class="cls-35" cx="13" cy="13" r="10.5"/>
      </g>
    </g>
    <g id="Group_174" data-name="Group 174" class="cls-26" transform="translate(1990.891 1070.627) rotate(-171)">
      <g id="Ellipse_51-2" data-name="Ellipse 51" class="cls-27" transform="translate(1061 164)">
        <circle class="cls-33" cx="22" cy="22" r="22"/>
        <circle class="cls-35" cx="22" cy="22" r="19.5"/>
      </g>
      <g id="Ellipse_52-2" data-name="Ellipse 52" class="cls-27" transform="translate(1083 134)">
        <circle class="cls-33" cx="13" cy="13" r="13"/>
        <circle class="cls-35" cx="13" cy="13" r="10.5"/>
      </g>
    </g>
    <g id="Group_175" data-name="Group 175" class="cls-26" transform="translate(1966 532) rotate(180)">
      <g id="Ellipse_51-3" data-name="Ellipse 51" class="cls-27" transform="translate(1061 164)">
        <circle class="cls-33" cx="22" cy="22" r="22"/>
        <circle class="cls-35" cx="22" cy="22" r="19.5"/>
      </g>
      <g id="Ellipse_52-3" data-name="Ellipse 52" class="cls-27" transform="translate(1083 134)">
        <circle class="cls-33" cx="13" cy="13" r="13"/>
        <circle class="cls-35" cx="13" cy="13" r="10.5"/>
      </g>
    </g>
    <g id="Group_176" data-name="Group 176" class="cls-26" transform="translate(1078.722 998.623) rotate(-159)">
      <g id="Ellipse_51-4" data-name="Ellipse 51" class="cls-27" transform="translate(1061 153.201)">
        <circle class="cls-33" cx="14.081" cy="14.081" r="14.081"/>
        <circle class="cls-35" cx="14.081" cy="14.081" r="11.581"/>
      </g>
      <g id="Ellipse_52-4" data-name="Ellipse 52" class="cls-27" transform="translate(1075.081 134)">
        <circle class="cls-33" cx="8.32" cy="8.32" r="8.32"/>
        <circle class="cls-35" cx="8.32" cy="8.32" r="5.82"/>
      </g>
    </g>
    <g id="Group_177" data-name="Group 177" class="cls-26" transform="translate(1395.722 1416.623) rotate(-159)">
      <g id="Ellipse_51-5" data-name="Ellipse 51" class="cls-27" transform="translate(1061 153.201)">
        <circle class="cls-33" cx="14.081" cy="14.081" r="14.081"/>
        <circle class="cls-35" cx="14.081" cy="14.081" r="11.581"/>
      </g>
      <g id="Ellipse_52-5" data-name="Ellipse 52" class="cls-27" transform="translate(1075.081 134)">
        <circle class="cls-33" cx="8.32" cy="8.32" r="8.32"/>
        <circle class="cls-35" cx="8.32" cy="8.32" r="5.82"/>
      </g>
    </g>
    <path id="Path_632" data-name="Path 632" class="cls-28" d="M33.013,25.64c30.53,1.032,67.318-12.715,67.318,5.658S56.154,68.13,37.78,68.13s-59.57-22.586-59.57-40.96S2.483,24.608,33.013,25.64Z" transform="matrix(-0.545, -0.839, 0.839, -0.545, 987.292, 358.045)"/>
    <path id="Path_633" data-name="Path 633" class="cls-29" d="M33.013,25.64c30.53,1.032,67.318-12.715,67.318,5.658S56.154,68.13,37.78,68.13s-59.57-22.586-59.57-40.96S2.483,24.608,33.013,25.64Z" transform="matrix(-0.695, -0.719, 0.719, -0.695, 998.342, 352.845)"/>
    <path id="Path_634" data-name="Path 634" class="cls-25" d="M105.143,101.118s39.514,48.7,4.555,48.7c-30.4,0-39.566-31.4-37.04-52.833C73.844,86.916,105.143,101.118,105.143,101.118Z" transform="translate(694.912 124.04) rotate(137)"/>
    <path id="Path_635" data-name="Path 635" class="cls-30" d="M103.918,92.113c27.466,5.832,85.08,37.627,139.79,32.318,69.647-6.759,130.11-46.526,130.11-21.142,0,25.926-72.739,48.89-143.625,50.49-52.178,1.177-103.511-16.406-122.753-16.406-45.167,0-136.641-82.76-140.345-92.857C-35.464,37.538,1.824,66.529,45.35,83.4,64.643,90.875,84.541,88,103.918,92.113Z" transform="translate(109.343 537.645) rotate(49)"/>
    <circle id="Ellipse_75" data-name="Ellipse 75" class="cls-2" cx="22.054" cy="22.054" r="22.054" transform="translate(748.387 89)"/>
    <circle id="Ellipse_76" data-name="Ellipse 76" class="cls-2" cx="22.054" cy="22.054" r="22.054" transform="translate(40.387 140)"/>
    <circle id="Ellipse_77" data-name="Ellipse 77" class="cls-2" cx="22.054" cy="22.054" r="22.054" transform="translate(980.387 884)"/>
    <circle id="Ellipse_78" data-name="Ellipse 78" class="cls-2" cx="33.554" cy="33.554" r="33.554" transform="translate(25.387 856)"/>
    <circle id="Ellipse_79" data-name="Ellipse 79" class="cls-2" cx="17.554" cy="17.554" r="17.554" transform="translate(146.387 894)"/>
    <circle id="Ellipse_80" data-name="Ellipse 80" class="cls-2" cx="22.054" cy="22.054" r="22.054" transform="translate(155.387 73)"/>
    <path id="Path_637" data-name="Path 637" class="cls-31" d="M-12.656-6.394c4.25-13.75,23.547,17.287,30.96,32.636S20.4,57.852,20.4,57.852,15.373,69,14.253,65.917,15.969,52.7,15.92,45.506a78.856,78.856,0,0,0-3-20.074C8.748,11.245-15.325,2.241-12.656-6.394Z" transform="translate(1014 281)"/>
    <path id="Path_638" data-name="Path 638" class="cls-32" d="M-17.385-56.254C-13.135-70,15.848-26.3,33.074,24.7s18.445,123.05,18.445,123.05,2.21,129.062-18.445,154.918c-6.63,8.3-14.965,38.035-20.23,48.668C2.812,371.589-1.514,372.2-1.514,372.2S21.7,280.7,33.074,230.3,23.064,106.682,15.92,60.946-20.054-47.619-17.385-56.254Z" transform="translate(976 408)"/>
  </g>
</svg>
