<svg xmlns="http://www.w3.org/2000/svg" xmlns:xlink="http://www.w3.org/1999/xlink" viewBox="0 0 1080 980">
  <defs>
    <style>
      .cls-1 {
        clip-path: url(#clip-Custom_Size_17);
      }

      .cls-2 {
        fill: #71a1e1;
        opacity: 0.248;
      }

      .cls-3 {
        fill: url(#linear-gradient);
      }

      .cls-4 {
        fill: #92bce6;
      }

      .cls-18, .cls-19, .cls-4, .cls-5, .cls-6 {
        opacity: 0.204;
      }

      .cls-5 {
        fill: #9ceadf;
      }

      .cls-6 {
        fill: #6fa0e1;
      }

      .cls-7 {
        fill: #c1e1ee;
      }

      .cls-8 {
        fill: #bddeed;
      }

      .cls-9 {
        fill: #73a3e1;
      }

      .cls-10, .cls-12, .cls-28, .cls-29, .cls-32, .cls-36 {
        fill: #fff;
      }

      .cls-11, .cls-17, .cls-30, .cls-39 {
        fill: none;
      }

      .cls-11, .cls-29, .cls-32, .cls-36 {
        stroke: #fff;
      }

      .cls-11 {
        stroke-width: 4px;
      }

      .cls-12 {
        opacity: 0.91;
      }

      .cls-13 {
        fill: #c3e3ee;
      }

      .cls-14 {
        fill: #f7f7f7;
      }

      .cls-15 {
        fill: #e0dcd3;
      }

      .cls-16 {
        fill: #e74424;
      }

      .cls-17 {
        stroke: #707070;
      }

      .cls-18 {
        fill: #82afe4;
      }

      .cls-19 {
        fill: #70a1e1;
      }

      .cls-20, .cls-21 {
        font-size: 17px;
      }

      .cls-20, .cls-21, .cls-28, .cls-29, .cls-32, .cls-35, .cls-36 {
        font-family: HelveticaNeue, Helvetica Neue;
      }

      .cls-21 {
        fill: #0d0c0c;
      }

      .cls-22 {
        fill: #f0beb4;
      }

      .cls-23 {
        fill: #fa4138;
      }

      .cls-24 {
        fill: #fb6760;
      }

      .cls-25 {
        fill: #fc807a;
      }

      .cls-26 {
        fill: #fb4239;
      }

      .cls-27 {
        fill: #e3e7e9;
      }

      .cls-28, .cls-35, .cls-36 {
        font-size: 14px;
      }

      .cls-29 {
        font-size: 18px;
      }

      .cls-30 {
        stroke: #f7f7f7;
        stroke-width: 2px;
      }

      .cls-31 {
        fill: #e8be95;
      }

      .cls-32 {
        font-size: 12px;
      }

      .cls-33 {
        fill: #e7eced;
      }

      .cls-34 {
        fill: #535353;
      }

      .cls-37 {
        fill: #010002;
      }

      .cls-38 {
        stroke: none;
      }
    </style>
    <linearGradient id="linear-gradient" x1="0.5" y1="-0.074" x2="0.5" y2="1.135" gradientUnits="objectBoundingBox">
      <stop offset="0" stop-color="#d6f2f2"/>
      <stop offset="1" stop-color="#568cdd"/>
    </linearGradient>
    <clipPath id="clip-Custom_Size_17">
      <rect width="1080" height="980"/>
    </clipPath>
  </defs>
  <g id="Custom_Size_17" data-name="Custom Size – 17" class="cls-1">
    <rect class="cls-10" width="1080" height="980"/>
    <ellipse id="Ellipse_5" data-name="Ellipse 5" class="cls-2" cx="47.984" cy="47.984" rx="47.984" ry="47.984" transform="translate(884.764 859.796)"/>
    <ellipse id="Ellipse_1" data-name="Ellipse 1" class="cls-3" cx="468.962" cy="468.962" rx="468.962" ry="468.962" transform="translate(79.914 28.075)"/>
    <ellipse id="Ellipse_6" data-name="Ellipse 6" class="cls-4" cx="33.269" cy="33.269" rx="33.269" ry="33.269" transform="translate(914.193 47.269)"/>
    <ellipse id="Ellipse_7" data-name="Ellipse 7" class="cls-5" cx="18.554" cy="18.554" rx="18.554" ry="18.554" transform="translate(814.387 14)"/>
    <ellipse id="Ellipse_8" data-name="Ellipse 8" class="cls-4" cx="18.554" cy="18.554" rx="18.554" ry="18.554" transform="translate(980.731 166.269)"/>
    <ellipse id="Ellipse_9" data-name="Ellipse 9" class="cls-6" cx="18.554" cy="18.554" rx="18.554" ry="18.554" transform="translate(79.914 76.699)"/>
    <ellipse id="Ellipse_10" data-name="Ellipse 10" class="cls-6" cx="33.269" cy="33.269" rx="33.269" ry="33.269" transform="translate(197.635 43.43)"/>
    <ellipse id="Ellipse_11" data-name="Ellipse 11" class="cls-6" cx="18.554" cy="18.554" rx="18.554" ry="18.554" transform="translate(62 203.376)"/>
    <rect id="Rectangle_9" data-name="Rectangle 9" class="cls-7" width="131.44" height="29.787" rx="14.894" transform="translate(124.147 145.588)"/>
    <rect id="Rectangle_11" data-name="Rectangle 11" class="cls-8" width="88.44" height="20.83" rx="10.415" transform="translate(145.9 180.136)"/>
    <rect id="Rectangle_12" data-name="Rectangle 12" class="cls-9" width="115.494" height="29.787" rx="14.894" transform="translate(835.588 799.448)"/>
    <rect id="Rectangle_13" data-name="Rectangle 13" class="cls-9" width="93.741" height="20.83" rx="10.415" transform="translate(829.19 833.997)"/>
    <ellipse id="Ellipse_12" data-name="Ellipse 12" class="cls-4" cx="18.554" cy="18.554" rx="18.554" ry="18.554" transform="translate(814.387 14)"/>
    <rect id="Rectangle_14" data-name="Rectangle 14" class="cls-10" width="115.494" height="18.271" rx="9.136" transform="translate(747.298 90.567)"/>
    <rect id="Rectangle_15" data-name="Rectangle 15" class="cls-10" width="93.741" height="13.153" rx="6.577" transform="translate(781.847 117.438)"/>
    <g id="Ellipse_13" data-name="Ellipse 13" class="cls-11" transform="translate(271.849 226.409)">
      <ellipse class="cls-38" cx="265.511" cy="265.511" rx="265.511" ry="265.511"/>
      <ellipse class="cls-39" cx="265.511" cy="265.511" rx="263.511" ry="263.511"/>
    </g>
    <circle id="Ellipse_16" data-name="Ellipse 16" class="cls-12" cx="101.726" cy="101.726" r="101.726" transform="translate(435.634 120.204)"/>
    <circle id="Ellipse_20" data-name="Ellipse 20" class="cls-12" cx="101.726" cy="101.726" r="101.726" transform="translate(220.667 565.495)"/>
    <circle id="Ellipse_21" data-name="Ellipse 21" class="cls-12" cx="101.726" cy="101.726" r="101.726" transform="translate(654.441 565.495)"/>
    <g id="hospital" transform="translate(497.054 160.222)">
      <g id="Layer_2_46_" transform="translate(0 0)">
        <g id="Group_1" data-name="Group 1" transform="translate(0)">
          <path id="Path_7" data-name="Path 7" class="cls-13" d="M106.454,43.62H85.613V57.714a2.4,2.4,0,0,1-2.059,2.634H63.687a2.4,2.4,0,0,1-2.059-2.634V43.62H41.245c-3.915,0-7.088,4.059-7.088,9.066v90.472c0,5.007,3.173,9.066,7.088,9.066H67.831V131.046a1.578,1.578,0,0,1,1.353-1.731h9.744a1.577,1.577,0,0,1,1.353,1.731v21.179h26.172c3.915,0,7.088-4.059,7.088-9.066V52.686C113.542,47.679,110.368,43.62,106.454,43.62Zm-45.3,78.443a1.578,1.578,0,0,1-1.353,1.731H50.061a1.577,1.577,0,0,1-1.353-1.731V109.6a1.578,1.578,0,0,1,1.353-1.731h9.744a1.577,1.577,0,0,1,1.353,1.731Zm0-21.254a1.578,1.578,0,0,1-1.353,1.731H50.061a1.577,1.577,0,0,1-1.353-1.731V88.345a1.578,1.578,0,0,1,1.353-1.731h9.744a1.577,1.577,0,0,1,1.353,1.731Zm0-21.447a1.578,1.578,0,0,1-1.353,1.731H50.061a1.577,1.577,0,0,1-1.353-1.731V66.9a1.578,1.578,0,0,1,1.353-1.731h9.744A1.577,1.577,0,0,1,61.158,66.9Zm19.123,42.7a1.578,1.578,0,0,1-1.353,1.731H69.184a1.577,1.577,0,0,1-1.353-1.731V109.6a1.578,1.578,0,0,1,1.353-1.731h9.744a1.577,1.577,0,0,1,1.353,1.731Zm0-21.254a1.578,1.578,0,0,1-1.353,1.731H69.184a1.577,1.577,0,0,1-1.353-1.731V88.345a1.578,1.578,0,0,1,1.353-1.731h9.744a1.577,1.577,0,0,1,1.353,1.731Zm0-21.447a1.578,1.578,0,0,1-1.353,1.731H69.184a1.577,1.577,0,0,1-1.353-1.731V66.9a1.578,1.578,0,0,1,1.353-1.731h9.744A1.577,1.577,0,0,1,80.282,66.9Zm19.123,42.7a1.578,1.578,0,0,1-1.353,1.731H88.307a1.577,1.577,0,0,1-1.353-1.731V109.6a1.578,1.578,0,0,1,1.353-1.731h9.744A1.577,1.577,0,0,1,99.4,109.6Zm0-21.254a1.578,1.578,0,0,1-1.353,1.731H88.307a1.577,1.577,0,0,1-1.353-1.731V88.345a1.578,1.578,0,0,1,1.353-1.731h9.744A1.577,1.577,0,0,1,99.4,88.345Zm0-21.447a1.578,1.578,0,0,1-1.353,1.731H88.307a1.577,1.577,0,0,1-1.353-1.731V66.9a1.578,1.578,0,0,1,1.353-1.731h9.744A1.577,1.577,0,0,1,99.4,66.9Z" transform="translate(-34.157 -37.289)"/>
          <path id="Path_8" data-name="Path 8" class="cls-14" d="M108.8,117.184H99.051a1.577,1.577,0,0,0-1.353,1.731v12.464a1.578,1.578,0,0,0,1.353,1.731H108.8a1.577,1.577,0,0,0,1.353-1.731V118.915A1.578,1.578,0,0,0,108.8,117.184Z" transform="translate(-83.147 -89.305)"/>
          <path id="Path_9" data-name="Path 9" class="cls-14" d="M192.3,117.184h-9.744a1.577,1.577,0,0,0-1.353,1.731v12.464a1.578,1.578,0,0,0,1.353,1.731H192.3a1.577,1.577,0,0,0,1.353-1.731V118.915A1.577,1.577,0,0,0,192.3,117.184Z" transform="translate(-147.533 -89.305)"/>
          <path id="Path_10" data-name="Path 10" class="cls-14" d="M275.814,117.184h-9.744a1.577,1.577,0,0,0-1.353,1.731v12.464a1.578,1.578,0,0,0,1.353,1.731h9.744a1.577,1.577,0,0,0,1.353-1.731V118.915A1.577,1.577,0,0,0,275.814,117.184Z" transform="translate(-211.919 -89.305)"/>
          <path id="Path_11" data-name="Path 11" class="cls-14" d="M108.8,190.4H99.051a1.577,1.577,0,0,0-1.353,1.731V204.6a1.578,1.578,0,0,0,1.353,1.731H108.8a1.577,1.577,0,0,0,1.353-1.731V192.134A1.578,1.578,0,0,0,108.8,190.4Z" transform="translate(-83.147 -141.077)"/>
          <path id="Path_12" data-name="Path 12" class="cls-14" d="M192.3,190.4h-9.744a1.577,1.577,0,0,0-1.353,1.731V204.6a1.578,1.578,0,0,0,1.353,1.731H192.3a1.577,1.577,0,0,0,1.353-1.731V192.134A1.577,1.577,0,0,0,192.3,190.4Z" transform="translate(-147.533 -141.077)"/>
          <path id="Path_13" data-name="Path 13" class="cls-14" d="M275.814,190.4h-9.744a1.577,1.577,0,0,0-1.353,1.731V204.6a1.578,1.578,0,0,0,1.353,1.731h9.744a1.577,1.577,0,0,0,1.353-1.731V192.134A1.577,1.577,0,0,0,275.814,190.4Z" transform="translate(-211.919 -141.077)"/>
          <path id="Path_14" data-name="Path 14" class="cls-14" d="M108.8,262.963H99.051a1.577,1.577,0,0,0-1.353,1.731v12.464a1.578,1.578,0,0,0,1.353,1.731H108.8a1.577,1.577,0,0,0,1.353-1.731V264.694A1.578,1.578,0,0,0,108.8,262.963Z" transform="translate(-83.147 -192.384)"/>
          <path id="Path_15" data-name="Path 15" class="cls-14" d="M192.3,262.963h-9.744a1.577,1.577,0,0,0-1.353,1.731v12.464a1.578,1.578,0,0,0,1.353,1.731H192.3a1.577,1.577,0,0,0,1.353-1.731V264.694A1.577,1.577,0,0,0,192.3,262.963Z" transform="translate(-147.533 -192.384)"/>
          <path id="Path_16" data-name="Path 16" class="cls-14" d="M275.814,262.963h-9.744a1.577,1.577,0,0,0-1.353,1.731v12.464a1.578,1.578,0,0,0,1.353,1.731h9.744a1.577,1.577,0,0,0,1.353-1.731V264.694A1.577,1.577,0,0,0,275.814,262.963Z" transform="translate(-211.919 -192.384)"/>
          <path id="Path_17" data-name="Path 17" class="cls-14" d="M192.3,336.181h-9.744a1.577,1.577,0,0,0-1.353,1.731v21.35h12.451v-21.35A1.577,1.577,0,0,0,192.3,336.181Z" transform="translate(-147.533 -244.155)"/>
          <path id="Path_18" data-name="Path 18" class="cls-15" d="M156.335,23.06H177.7A2.141,2.141,0,0,0,179.915,21V2.059A2.141,2.141,0,0,0,177.7,0H156.335a2.141,2.141,0,0,0-2.215,2.059V21A2.141,2.141,0,0,0,156.335,23.06Zm4.8-18.787h3.282a.733.733,0,0,1,.758.705V9.763h3.7V4.978a.733.733,0,0,1,.758-.705H172.9a.733.733,0,0,1,.759.705v13.1a.733.733,0,0,1-.759.705h-3.263a.733.733,0,0,1-.758-.705V13.513h-3.7v4.569a.733.733,0,0,1-.758.705h-3.282a.733.733,0,0,1-.758-.705V4.978A.733.733,0,0,1,161.136,4.273Z" transform="translate(-127.119)"/>
          <path id="Path_19" data-name="Path 19" class="cls-16" d="M179.527,32.473a.733.733,0,0,0,.759.705h3.282a.733.733,0,0,0,.759-.705V27.9h3.7v4.569a.733.733,0,0,0,.758.705h3.263a.733.733,0,0,0,.759-.705v-13.1a.733.733,0,0,0-.759-.705h-3.263a.733.733,0,0,0-.758.705v4.785h-3.7V19.369a.733.733,0,0,0-.759-.705h-3.282a.733.733,0,0,0-.759.705Z" transform="translate(-146.269 -14.391)"/>
        </g>
      </g>
    </g>
    <path id="Path_20" data-name="Path 20" class="cls-17" d="M0,284" transform="translate(321.113 347.393)"/>
    <ellipse id="Ellipse_14" data-name="Ellipse 14" class="cls-18" cx="18.554" cy="18.554" rx="18.554" ry="18.554" transform="translate(62 776.624)"/>
    <ellipse id="Ellipse_15" data-name="Ellipse 15" class="cls-19" cx="31.349" cy="31.349" rx="31.349" ry="31.349" transform="translate(134.936 871.312)"/>
    <text id="Clinic_B" data-name="Clinic B" class="cls-20" transform="translate(288.484 742.72)"><tspan x="0" y="0">Clinic B</tspan></text>
    <text id="Clinic_C" data-name="Clinic C" class="cls-20" transform="translate(722.258 742.72)"><tspan x="0" y="0">Clinic C</tspan></text>
    <text id="Clinic_A" data-name="Clinic A" class="cls-21" transform="translate(503.452 299.989)"><tspan x="0" y="0">Clinic A</tspan></text>
    <g id="hospital-2" data-name="hospital" transform="translate(283.054 600.222)">
      <g id="Layer_2_46_2" data-name="Layer_2_46_" transform="translate(0 0)">
        <g id="Group_1-2" data-name="Group 1" transform="translate(0)">
          <path id="Path_7-2" data-name="Path 7" class="cls-13" d="M106.454,43.62H85.613V57.714a2.4,2.4,0,0,1-2.059,2.634H63.687a2.4,2.4,0,0,1-2.059-2.634V43.62H41.245c-3.915,0-7.088,4.059-7.088,9.066v90.472c0,5.007,3.173,9.066,7.088,9.066H67.831V131.046a1.578,1.578,0,0,1,1.353-1.731h9.744a1.577,1.577,0,0,1,1.353,1.731v21.179h26.172c3.915,0,7.088-4.059,7.088-9.066V52.686C113.542,47.679,110.368,43.62,106.454,43.62Zm-45.3,78.443a1.578,1.578,0,0,1-1.353,1.731H50.061a1.577,1.577,0,0,1-1.353-1.731V109.6a1.578,1.578,0,0,1,1.353-1.731h9.744a1.577,1.577,0,0,1,1.353,1.731Zm0-21.254a1.578,1.578,0,0,1-1.353,1.731H50.061a1.577,1.577,0,0,1-1.353-1.731V88.345a1.578,1.578,0,0,1,1.353-1.731h9.744a1.577,1.577,0,0,1,1.353,1.731Zm0-21.447a1.578,1.578,0,0,1-1.353,1.731H50.061a1.577,1.577,0,0,1-1.353-1.731V66.9a1.578,1.578,0,0,1,1.353-1.731h9.744A1.577,1.577,0,0,1,61.158,66.9Zm19.123,42.7a1.578,1.578,0,0,1-1.353,1.731H69.184a1.577,1.577,0,0,1-1.353-1.731V109.6a1.578,1.578,0,0,1,1.353-1.731h9.744a1.577,1.577,0,0,1,1.353,1.731Zm0-21.254a1.578,1.578,0,0,1-1.353,1.731H69.184a1.577,1.577,0,0,1-1.353-1.731V88.345a1.578,1.578,0,0,1,1.353-1.731h9.744a1.577,1.577,0,0,1,1.353,1.731Zm0-21.447a1.578,1.578,0,0,1-1.353,1.731H69.184a1.577,1.577,0,0,1-1.353-1.731V66.9a1.578,1.578,0,0,1,1.353-1.731h9.744A1.577,1.577,0,0,1,80.282,66.9Zm19.123,42.7a1.578,1.578,0,0,1-1.353,1.731H88.307a1.577,1.577,0,0,1-1.353-1.731V109.6a1.578,1.578,0,0,1,1.353-1.731h9.744A1.577,1.577,0,0,1,99.4,109.6Zm0-21.254a1.578,1.578,0,0,1-1.353,1.731H88.307a1.577,1.577,0,0,1-1.353-1.731V88.345a1.578,1.578,0,0,1,1.353-1.731h9.744A1.577,1.577,0,0,1,99.4,88.345Zm0-21.447a1.578,1.578,0,0,1-1.353,1.731H88.307a1.577,1.577,0,0,1-1.353-1.731V66.9a1.578,1.578,0,0,1,1.353-1.731h9.744A1.577,1.577,0,0,1,99.4,66.9Z" transform="translate(-34.157 -37.289)"/>
          <path id="Path_8-2" data-name="Path 8" class="cls-14" d="M108.8,117.184H99.051a1.577,1.577,0,0,0-1.353,1.731v12.464a1.578,1.578,0,0,0,1.353,1.731H108.8a1.577,1.577,0,0,0,1.353-1.731V118.915A1.578,1.578,0,0,0,108.8,117.184Z" transform="translate(-83.147 -89.305)"/>
          <path id="Path_9-2" data-name="Path 9" class="cls-14" d="M192.3,117.184h-9.744a1.577,1.577,0,0,0-1.353,1.731v12.464a1.578,1.578,0,0,0,1.353,1.731H192.3a1.577,1.577,0,0,0,1.353-1.731V118.915A1.577,1.577,0,0,0,192.3,117.184Z" transform="translate(-147.533 -89.305)"/>
          <path id="Path_10-2" data-name="Path 10" class="cls-14" d="M275.814,117.184h-9.744a1.577,1.577,0,0,0-1.353,1.731v12.464a1.578,1.578,0,0,0,1.353,1.731h9.744a1.577,1.577,0,0,0,1.353-1.731V118.915A1.577,1.577,0,0,0,275.814,117.184Z" transform="translate(-211.919 -89.305)"/>
          <path id="Path_11-2" data-name="Path 11" class="cls-14" d="M108.8,190.4H99.051a1.577,1.577,0,0,0-1.353,1.731V204.6a1.578,1.578,0,0,0,1.353,1.731H108.8a1.577,1.577,0,0,0,1.353-1.731V192.134A1.578,1.578,0,0,0,108.8,190.4Z" transform="translate(-83.147 -141.077)"/>
          <path id="Path_12-2" data-name="Path 12" class="cls-14" d="M192.3,190.4h-9.744a1.577,1.577,0,0,0-1.353,1.731V204.6a1.578,1.578,0,0,0,1.353,1.731H192.3a1.577,1.577,0,0,0,1.353-1.731V192.134A1.577,1.577,0,0,0,192.3,190.4Z" transform="translate(-147.533 -141.077)"/>
          <path id="Path_13-2" data-name="Path 13" class="cls-14" d="M275.814,190.4h-9.744a1.577,1.577,0,0,0-1.353,1.731V204.6a1.578,1.578,0,0,0,1.353,1.731h9.744a1.577,1.577,0,0,0,1.353-1.731V192.134A1.577,1.577,0,0,0,275.814,190.4Z" transform="translate(-211.919 -141.077)"/>
          <path id="Path_14-2" data-name="Path 14" class="cls-14" d="M108.8,262.963H99.051a1.577,1.577,0,0,0-1.353,1.731v12.464a1.578,1.578,0,0,0,1.353,1.731H108.8a1.577,1.577,0,0,0,1.353-1.731V264.694A1.578,1.578,0,0,0,108.8,262.963Z" transform="translate(-83.147 -192.384)"/>
          <path id="Path_15-2" data-name="Path 15" class="cls-14" d="M192.3,262.963h-9.744a1.577,1.577,0,0,0-1.353,1.731v12.464a1.578,1.578,0,0,0,1.353,1.731H192.3a1.577,1.577,0,0,0,1.353-1.731V264.694A1.577,1.577,0,0,0,192.3,262.963Z" transform="translate(-147.533 -192.384)"/>
          <path id="Path_16-2" data-name="Path 16" class="cls-14" d="M275.814,262.963h-9.744a1.577,1.577,0,0,0-1.353,1.731v12.464a1.578,1.578,0,0,0,1.353,1.731h9.744a1.577,1.577,0,0,0,1.353-1.731V264.694A1.577,1.577,0,0,0,275.814,262.963Z" transform="translate(-211.919 -192.384)"/>
          <path id="Path_17-2" data-name="Path 17" class="cls-14" d="M192.3,336.181h-9.744a1.577,1.577,0,0,0-1.353,1.731v21.35h12.451v-21.35A1.577,1.577,0,0,0,192.3,336.181Z" transform="translate(-147.533 -244.155)"/>
          <path id="Path_18-2" data-name="Path 18" class="cls-15" d="M156.335,23.06H177.7A2.141,2.141,0,0,0,179.915,21V2.059A2.141,2.141,0,0,0,177.7,0H156.335a2.141,2.141,0,0,0-2.215,2.059V21A2.141,2.141,0,0,0,156.335,23.06Zm4.8-18.787h3.282a.733.733,0,0,1,.758.705V9.763h3.7V4.978a.733.733,0,0,1,.758-.705H172.9a.733.733,0,0,1,.759.705v13.1a.733.733,0,0,1-.759.705h-3.263a.733.733,0,0,1-.758-.705V13.513h-3.7v4.569a.733.733,0,0,1-.758.705h-3.282a.733.733,0,0,1-.758-.705V4.978A.733.733,0,0,1,161.136,4.273Z" transform="translate(-127.119)"/>
          <path id="Path_19-2" data-name="Path 19" class="cls-16" d="M179.527,32.473a.733.733,0,0,0,.759.705h3.282a.733.733,0,0,0,.759-.705V27.9h3.7v4.569a.733.733,0,0,0,.758.705h3.263a.733.733,0,0,0,.759-.705v-13.1a.733.733,0,0,0-.759-.705h-3.263a.733.733,0,0,0-.758.705v4.785h-3.7V19.369a.733.733,0,0,0-.759-.705h-3.282a.733.733,0,0,0-.759.705Z" transform="translate(-146.269 -14.391)"/>
        </g>
      </g>
    </g>
    <g id="hospital-3" data-name="hospital" transform="translate(716.054 600.222)">
      <g id="Layer_2_46_3" data-name="Layer_2_46_" transform="translate(0 0)">
        <g id="Group_1-3" data-name="Group 1" transform="translate(0)">
          <path id="Path_7-3" data-name="Path 7" class="cls-13" d="M106.454,43.62H85.613V57.714a2.4,2.4,0,0,1-2.059,2.634H63.687a2.4,2.4,0,0,1-2.059-2.634V43.62H41.245c-3.915,0-7.088,4.059-7.088,9.066v90.472c0,5.007,3.173,9.066,7.088,9.066H67.831V131.046a1.578,1.578,0,0,1,1.353-1.731h9.744a1.577,1.577,0,0,1,1.353,1.731v21.179h26.172c3.915,0,7.088-4.059,7.088-9.066V52.686C113.542,47.679,110.368,43.62,106.454,43.62Zm-45.3,78.443a1.578,1.578,0,0,1-1.353,1.731H50.061a1.577,1.577,0,0,1-1.353-1.731V109.6a1.578,1.578,0,0,1,1.353-1.731h9.744a1.577,1.577,0,0,1,1.353,1.731Zm0-21.254a1.578,1.578,0,0,1-1.353,1.731H50.061a1.577,1.577,0,0,1-1.353-1.731V88.345a1.578,1.578,0,0,1,1.353-1.731h9.744a1.577,1.577,0,0,1,1.353,1.731Zm0-21.447a1.578,1.578,0,0,1-1.353,1.731H50.061a1.577,1.577,0,0,1-1.353-1.731V66.9a1.578,1.578,0,0,1,1.353-1.731h9.744A1.577,1.577,0,0,1,61.158,66.9Zm19.123,42.7a1.578,1.578,0,0,1-1.353,1.731H69.184a1.577,1.577,0,0,1-1.353-1.731V109.6a1.578,1.578,0,0,1,1.353-1.731h9.744a1.577,1.577,0,0,1,1.353,1.731Zm0-21.254a1.578,1.578,0,0,1-1.353,1.731H69.184a1.577,1.577,0,0,1-1.353-1.731V88.345a1.578,1.578,0,0,1,1.353-1.731h9.744a1.577,1.577,0,0,1,1.353,1.731Zm0-21.447a1.578,1.578,0,0,1-1.353,1.731H69.184a1.577,1.577,0,0,1-1.353-1.731V66.9a1.578,1.578,0,0,1,1.353-1.731h9.744A1.577,1.577,0,0,1,80.282,66.9Zm19.123,42.7a1.578,1.578,0,0,1-1.353,1.731H88.307a1.577,1.577,0,0,1-1.353-1.731V109.6a1.578,1.578,0,0,1,1.353-1.731h9.744A1.577,1.577,0,0,1,99.4,109.6Zm0-21.254a1.578,1.578,0,0,1-1.353,1.731H88.307a1.577,1.577,0,0,1-1.353-1.731V88.345a1.578,1.578,0,0,1,1.353-1.731h9.744A1.577,1.577,0,0,1,99.4,88.345Zm0-21.447a1.578,1.578,0,0,1-1.353,1.731H88.307a1.577,1.577,0,0,1-1.353-1.731V66.9a1.578,1.578,0,0,1,1.353-1.731h9.744A1.577,1.577,0,0,1,99.4,66.9Z" transform="translate(-34.157 -37.289)"/>
          <path id="Path_8-3" data-name="Path 8" class="cls-14" d="M108.8,117.184H99.051a1.577,1.577,0,0,0-1.353,1.731v12.464a1.578,1.578,0,0,0,1.353,1.731H108.8a1.577,1.577,0,0,0,1.353-1.731V118.915A1.578,1.578,0,0,0,108.8,117.184Z" transform="translate(-83.147 -89.305)"/>
          <path id="Path_9-3" data-name="Path 9" class="cls-14" d="M192.3,117.184h-9.744a1.577,1.577,0,0,0-1.353,1.731v12.464a1.578,1.578,0,0,0,1.353,1.731H192.3a1.577,1.577,0,0,0,1.353-1.731V118.915A1.577,1.577,0,0,0,192.3,117.184Z" transform="translate(-147.533 -89.305)"/>
          <path id="Path_10-3" data-name="Path 10" class="cls-14" d="M275.814,117.184h-9.744a1.577,1.577,0,0,0-1.353,1.731v12.464a1.578,1.578,0,0,0,1.353,1.731h9.744a1.577,1.577,0,0,0,1.353-1.731V118.915A1.577,1.577,0,0,0,275.814,117.184Z" transform="translate(-211.919 -89.305)"/>
          <path id="Path_11-3" data-name="Path 11" class="cls-14" d="M108.8,190.4H99.051a1.577,1.577,0,0,0-1.353,1.731V204.6a1.578,1.578,0,0,0,1.353,1.731H108.8a1.577,1.577,0,0,0,1.353-1.731V192.134A1.578,1.578,0,0,0,108.8,190.4Z" transform="translate(-83.147 -141.077)"/>
          <path id="Path_12-3" data-name="Path 12" class="cls-14" d="M192.3,190.4h-9.744a1.577,1.577,0,0,0-1.353,1.731V204.6a1.578,1.578,0,0,0,1.353,1.731H192.3a1.577,1.577,0,0,0,1.353-1.731V192.134A1.577,1.577,0,0,0,192.3,190.4Z" transform="translate(-147.533 -141.077)"/>
          <path id="Path_13-3" data-name="Path 13" class="cls-14" d="M275.814,190.4h-9.744a1.577,1.577,0,0,0-1.353,1.731V204.6a1.578,1.578,0,0,0,1.353,1.731h9.744a1.577,1.577,0,0,0,1.353-1.731V192.134A1.577,1.577,0,0,0,275.814,190.4Z" transform="translate(-211.919 -141.077)"/>
          <path id="Path_14-3" data-name="Path 14" class="cls-14" d="M108.8,262.963H99.051a1.577,1.577,0,0,0-1.353,1.731v12.464a1.578,1.578,0,0,0,1.353,1.731H108.8a1.577,1.577,0,0,0,1.353-1.731V264.694A1.578,1.578,0,0,0,108.8,262.963Z" transform="translate(-83.147 -192.384)"/>
          <path id="Path_15-3" data-name="Path 15" class="cls-14" d="M192.3,262.963h-9.744a1.577,1.577,0,0,0-1.353,1.731v12.464a1.578,1.578,0,0,0,1.353,1.731H192.3a1.577,1.577,0,0,0,1.353-1.731V264.694A1.577,1.577,0,0,0,192.3,262.963Z" transform="translate(-147.533 -192.384)"/>
          <path id="Path_16-3" data-name="Path 16" class="cls-14" d="M275.814,262.963h-9.744a1.577,1.577,0,0,0-1.353,1.731v12.464a1.578,1.578,0,0,0,1.353,1.731h9.744a1.577,1.577,0,0,0,1.353-1.731V264.694A1.577,1.577,0,0,0,275.814,262.963Z" transform="translate(-211.919 -192.384)"/>
          <path id="Path_17-3" data-name="Path 17" class="cls-14" d="M192.3,336.181h-9.744a1.577,1.577,0,0,0-1.353,1.731v21.35h12.451v-21.35A1.577,1.577,0,0,0,192.3,336.181Z" transform="translate(-147.533 -244.155)"/>
          <path id="Path_18-3" data-name="Path 18" class="cls-15" d="M156.335,23.06H177.7A2.141,2.141,0,0,0,179.915,21V2.059A2.141,2.141,0,0,0,177.7,0H156.335a2.141,2.141,0,0,0-2.215,2.059V21A2.141,2.141,0,0,0,156.335,23.06Zm4.8-18.787h3.282a.733.733,0,0,1,.758.705V9.763h3.7V4.978a.733.733,0,0,1,.758-.705H172.9a.733.733,0,0,1,.759.705v13.1a.733.733,0,0,1-.759.705h-3.263a.733.733,0,0,1-.758-.705V13.513h-3.7v4.569a.733.733,0,0,1-.758.705h-3.282a.733.733,0,0,1-.758-.705V4.978A.733.733,0,0,1,161.136,4.273Z" transform="translate(-127.119)"/>
          <path id="Path_19-3" data-name="Path 19" class="cls-16" d="M179.527,32.473a.733.733,0,0,0,.759.705h3.282a.733.733,0,0,0,.759-.705V27.9h3.7v4.569a.733.733,0,0,0,.758.705h3.263a.733.733,0,0,0,.759-.705v-13.1a.733.733,0,0,0-.759-.705h-3.263a.733.733,0,0,0-.758.705v4.785h-3.7V19.369a.733.733,0,0,0-.759-.705h-3.282a.733.733,0,0,0-.759.705Z" transform="translate(-146.269 -14.391)"/>
        </g>
      </g>
    </g>
    <g id="Group_160" data-name="Group 160" transform="translate(294.592 491.966)">
      <g id="patient" transform="translate(-6 16.249)">
        <path id="Path_21" data-name="Path 21" class="cls-22" d="M112.382,243.167H107.56a1.607,1.607,0,0,1-1.607-1.607v-3.214h-4.822v3.214a1.607,1.607,0,0,1-1.607,1.607H94.7a6.429,6.429,0,0,0-6.429,6.429v10.447a3.214,3.214,0,0,0,3.214,3.214H118.81V249.6A6.429,6.429,0,0,0,112.382,243.167Z" transform="translate(-88.274 -216.648)"/>
        <path id="Path_22" data-name="Path 22" class="cls-23" d="M164.069,0a10.447,10.447,0,0,0-9.207,5.51l14.779-3.889A10.384,10.384,0,0,0,164.069,0Z" transform="translate(-148.8)"/>
        <path id="Path_23" data-name="Path 23" class="cls-24" d="M301.182,43.171a10.4,10.4,0,0,0-2.743-6.254l-4.179,1.637Z" transform="translate(-275.509 -33.556)"/>
        <path id="Path_24" data-name="Path 24" class="cls-25" d="M154.9,21.006l.264.176,4.179-1.637a10.474,10.474,0,0,0-2.089-1.74l-14.775,3.889a10.4,10.4,0,0,0-1.24,4.936l13.925-5.449Z" transform="translate(-136.419 -16.184)"/>
        <path id="Path_25" data-name="Path 25" class="cls-22" d="M155.167,54.9l-13.925,5.449v2.411a10.447,10.447,0,1,0,20.893,0V60.348c0-.28-.02-.556-.042-.832Z" transform="translate(-136.42 -49.901)"/>
        <path id="Path_26" data-name="Path 26" class="cls-23" d="M231.928,188.593h0a2.411,2.411,0,0,0,2.411-2.411v-.8h-4.822v.8A2.411,2.411,0,0,0,231.928,188.593Z" transform="translate(-216.659 -168.504)"/>
        <g id="Group_2" data-name="Group 2" transform="translate(8.84 11.25)">
          <path id="Path_27" data-name="Path 27" class="cls-26" d="M187.79,126.8a2.411,2.411,0,0,1-2.411-2.411v-.8h1.607v.8a.8.8,0,0,0,1.607,0v-.8H190.2v.8A2.411,2.411,0,0,1,187.79,126.8Z" transform="translate(-185.379 -123.586)"/>
          <path id="Path_28" data-name="Path 28" class="cls-26" d="M276.066,126.8a2.411,2.411,0,0,1-2.411-2.411v-.8h1.607v.8a.8.8,0,1,0,1.607,0v-.8h1.607v.8A2.411,2.411,0,0,1,276.066,126.8Z" transform="translate(-265.619 -123.586)"/>
        </g>
        <path id="Path_29" data-name="Path 29" class="cls-25" d="M167.724,441.379h14.465a3.215,3.215,0,0,1,3.214,3.214h0a3.214,3.214,0,0,1-3.214,3.214H167.724Z" transform="translate(-160.491 -401.199)"/>
        <g id="Group_3" data-name="Group 3" transform="translate(4.822 26.518)">
          <path id="Path_30" data-name="Path 30" class="cls-27" d="M147.67,291.31l3.214,20.09h-9.643l3.214-20.09Z" transform="translate(-141.241 -291.31)"/>
          <path id="Path_31" data-name="Path 31" class="cls-27" d="M273.655,304.971l3.214-13.661h3.214l-3.214,13.661Z" transform="translate(-261.601 -291.31)"/>
        </g>
      </g>
      <text id="_Register_and_treatmentment_at_Clinic_A" data-name=" Register and treatmentment 
 at Clinic A" class="cls-28" transform="translate(32.548 47.248)"><tspan x="0" y="0" xml:space="preserve"> Register and treatmentment </tspan><tspan x="0" y="16" xml:space="preserve"> at Clinic A</tspan></text>
      <text id="Scan_QR_Code_" data-name="Scan QR Code " class="cls-29" transform="translate(37.86 25.957)"><tspan x="0" y="0">Scan QR Code </tspan></text>
      <g id="qr-code-scan" transform="translate(171.656 -2.012)">
        <g id="Group_10" data-name="Group 10" transform="translate(0 0)">
          <path id="Path_42" data-name="Path 42" class="cls-14" d="M9.671.362H2.411A2.4,2.4,0,0,0,0,2.769v7.262a2.421,2.421,0,0,0,2.411,2.43H9.672a2.434,2.434,0,0,0,2.426-2.43V2.769A2.415,2.415,0,0,0,9.671.362Zm.243,9.629a.287.287,0,0,1-.288.287H2.379a.287.287,0,0,1-.287-.287V2.742a.287.287,0,0,1,.287-.287H9.627a.287.287,0,0,1,.288.287V9.991Z" transform="translate(0 -0.362)"/>
          <rect id="Rectangle_19" data-name="Rectangle 19" class="cls-14" width="4.64" height="4.639" transform="translate(3.729 3.73)"/>
          <path id="Path_43" data-name="Path 43" class="cls-14" d="M9.671,19.072H2.411A2.4,2.4,0,0,0,0,21.474v7.263a2.426,2.426,0,0,0,2.411,2.435H9.672A2.439,2.439,0,0,0,12.1,28.737V21.474A2.411,2.411,0,0,0,9.671,19.072Zm.243,9.66a.249.249,0,0,1-.272.257H2.4a.281.281,0,0,1-.308-.257V21.488a.338.338,0,0,1,.308-.324H9.643a.309.309,0,0,1,.272.324v7.244Z" transform="translate(0 -0.15)"/>
          <rect id="Rectangle_20" data-name="Rectangle 20" class="cls-14" width="4.64" height="4.64" transform="translate(3.729 22.652)"/>
          <path id="Path_44" data-name="Path 44" class="cls-14" d="M21.018,12.461H28.28a2.446,2.446,0,0,0,2.438-2.43V2.769A2.426,2.426,0,0,0,28.28.362H21.018a2.391,2.391,0,0,0-2.4,2.407v7.262A2.411,2.411,0,0,0,21.018,12.461Zm-.306-9.72A.287.287,0,0,1,21,2.454h7.249a.287.287,0,0,1,.286.287V9.991a.287.287,0,0,1-.286.287H21a.287.287,0,0,1-.287-.287Z" transform="translate(0.211 -0.362)"/>
          <rect id="Rectangle_21" data-name="Rectangle 21" class="cls-14" width="4.729" height="4.639" transform="translate(22.47 3.73)"/>
          <path id="Path_45" data-name="Path 45" class="cls-14" d="M4.324,13.675h-1.6a.659.659,0,0,0-.654.64v1.6a.685.685,0,0,0,.654.671H4.251v.02a.589.589,0,0,0,.6.616H8.436V17.3a.673.673,0,0,0,.658.652h1.6a.665.665,0,0,0,.651-.652V15.747a.636.636,0,0,0-.651-.617h-.8v-.815a.635.635,0,0,0-.628-.64H8.4a.616.616,0,0,0-.6.64v.816H4.979v-.816A.658.658,0,0,0,4.324,13.675Z" transform="translate(0.023 -0.211)"/>
          <path id="Path_46" data-name="Path 46" class="cls-14" d="M14.407,7.172V10.72a.6.6,0,0,0,.59.637H17.29a.667.667,0,0,0,.666-.637v-1.6a.7.7,0,0,0-.666-.674H16.5V3.533h.1a.62.62,0,0,0,.631-.618v-.86a.616.616,0,0,0-.631-.614H13.565a.6.6,0,0,0-.613.614v.86a.6.6,0,0,0,.613.618h.842V5.808h-.842a.625.625,0,0,0-.613.643V6.57a.59.59,0,0,0,.613.6Z" transform="translate(0.147 -0.35)"/>
          <path id="Path_47" data-name="Path 47" class="cls-14" d="M16.133,14.424V12.867a.632.632,0,0,0-.632-.632H13.944a.632.632,0,0,0-.632.632v1.556a.632.632,0,0,0,.632.632H15.5A.632.632,0,0,0,16.133,14.424Z" transform="translate(0.151 -0.228)"/>
          <path id="Path_48" data-name="Path 48" class="cls-14" d="M18.839,14.935a.681.681,0,0,0-.669.65v.625a14.6,14.6,0,0,1,1.735-1.275H18.839Z" transform="translate(0.206 -0.197)"/>
          <path id="Path_49" data-name="Path 49" class="cls-14" d="M18.046,16.374H15.323a.653.653,0,0,0-.661.627v3.646A16.144,16.144,0,0,1,17.358,17,8.28,8.28,0,0,1,18.046,16.374Z" transform="translate(0.166 -0.181)"/>
          <g id="Ellipse_22" data-name="Ellipse 22" class="cls-30" transform="translate(14.817 14.508)">
            <ellipse class="cls-38" cx="11.113" cy="11.113" rx="11.113" ry="11.113"/>
            <ellipse class="cls-39" cx="11.113" cy="11.113" rx="10.113" ry="10.113"/>
          </g>
        </g>
      </g>
    </g>
    <g id="Group_161" data-name="Group 161" transform="translate(20)">
      <g id="Group_15" data-name="Group 15" transform="translate(412.774 531.841)">
        <g id="Group_14" data-name="Group 14" transform="translate(-7 2)">
          <g id="Group_7" data-name="Group 7" transform="translate(0 4.964)">
            <g id="Group_4" data-name="Group 4" transform="translate(0 19.132)">
              <line id="Line_1" data-name="Line 1" class="cls-17" x1="116.621" y1="0.379" transform="translate(-19.274 12.563)"/>
              <rect id="Rectangle_16" data-name="Rectangle 16" class="cls-31" width="25.884" height="25.884" rx="4"/>
              <rect id="Rectangle_17" data-name="Rectangle 17" class="cls-31" width="25.884" height="25.884" rx="4" transform="translate(38.264)"/>
              <rect id="Rectangle_18" data-name="Rectangle 18" class="cls-31" width="25.884" height="25.884" rx="4" transform="translate(76.527)"/>
              <rect id="Rectangle_22" data-name="Rectangle 22" class="cls-31" width="25.884" height="25.884" rx="4" transform="translate(-38 0)"/>
            </g>
            <circle id="Ellipse_19" data-name="Ellipse 19" class="cls-10" cx="7.315" cy="7.315" r="7.315" transform="translate(82.154 0)"/>
            <text id="Query_Data_in_Blockchain" data-name="Query Data in Blockchain" class="cls-32" transform="translate(-18.807 62.779)"><tspan x="0" y="0">Query Data in Blockchain</tspan></text>
          </g>
          <g id="id-card_1_" data-name="id-card (1)" transform="translate(45.28 30.191)">
            <path id="Path_33" data-name="Path 33" class="cls-33" d="M21.358,5H11.1a.605.605,0,0,0-.6.6V20.684a.605.605,0,0,0,.6.6H21.358a.605.605,0,0,0,.6-.6V5.6A.6.6,0,0,0,21.358,5ZM16.231,7.715a.9.9,0,1,1,.9-.9A.9.9,0,0,1,16.231,7.715Z" transform="translate(-10.5 -5)"/>
            <path id="Path_34" data-name="Path 34" class="cls-34" d="M10.5,41v4.826a.6.6,0,0,0,.6.6H21.358a.6.6,0,0,0,.6-.6V41Z" transform="translate(-10.5 -30.142)"/>
            <g id="Group_8" data-name="Group 8" transform="translate(2.715 12.065)">
              <path id="Path_35" data-name="Path 35" class="cls-10" d="M19.8,49.6h5.429a.3.3,0,1,0,0-.6H19.8a.3.3,0,0,0,0,.6Z" transform="translate(-19.5 -47.794)"/>
              <path id="Path_36" data-name="Path 36" class="cls-10" d="M23.8,45.6h3.016a.3.3,0,1,0,0-.6H23.8a.3.3,0,0,0,0,.6Z" transform="translate(-22.294 -45)"/>
              <path id="Path_37" data-name="Path 37" class="cls-10" d="M20.1,53h-.3a.3.3,0,0,0,0,.6h.3a.3.3,0,1,0,0-.6Z" transform="translate(-19.5 -50.587)"/>
              <path id="Path_38" data-name="Path 38" class="cls-10" d="M25.4,53h-.6a.3.3,0,0,0,0,.6h.6a.3.3,0,0,0,0-.6Z" transform="translate(-22.992 -50.587)"/>
              <path id="Path_39" data-name="Path 39" class="cls-10" d="M31.1,53h-.3a.3.3,0,1,0,0,.6h.3a.3.3,0,1,0,0-.6Z" transform="translate(-27.182 -50.587)"/>
              <path id="Path_40" data-name="Path 40" class="cls-10" d="M36.4,53h-.6a.3.3,0,1,0,0,.6h.6a.3.3,0,0,0,0-.6Z" transform="translate(-30.674 -50.587)"/>
            </g>
            <path id="Path_41" data-name="Path 41" class="cls-34" d="M25.928,24.924a.989.989,0,0,0-.546-.863l-1.136-.58a.232.232,0,0,1-.126-.207v-.348a1.909,1.909,0,0,0,1.081-1.35A.6.6,0,0,0,25.627,21v-.3a.6.6,0,0,0-.325-.532c-.133-1.134-.883-1.593-2.088-1.593-.057,0-.113,0-.168.007a1.811,1.811,0,0,1-1.165-.274,1.511,1.511,0,0,1-.345-.3.06.06,0,0,0-.108.044c.012.106.03.229.057.363.1.5.04.428-.154.9a3.116,3.116,0,0,0-.208.858.6.6,0,0,0-.323.531V21a.6.6,0,0,0,.427.574,1.909,1.909,0,0,0,1.081,1.35v.345a.232.232,0,0,1-.129.208l-1.165.573a.99.99,0,0,0-.516.869v0Z" transform="translate(-17.484 -13.493)"/>
          </g>
        </g>
      </g>
      <text id="_" data-name="+" class="cls-35" transform="translate(491.179 549.841)"><tspan x="0" y="0">+</tspan></text>
    </g>
    <g id="Group_162" data-name="Group 162" transform="translate(186)">
      <g id="Group_15-2" data-name="Group 15" transform="translate(412.774 531.841)">
        <g id="Group_14-2" data-name="Group 14" transform="translate(-7 2)">
          <g id="Group_7-2" data-name="Group 7" transform="translate(0 4.964)">
            <g id="Group_4-2" data-name="Group 4" transform="translate(0 19.132)">
              <line id="Line_1-2" data-name="Line 1" class="cls-17" x1="116.621" y1="0.379" transform="translate(-19.274 12.563)"/>
              <rect id="Rectangle_16-2" data-name="Rectangle 16" class="cls-31" width="25.884" height="25.884" rx="4"/>
              <rect id="Rectangle_17-2" data-name="Rectangle 17" class="cls-31" width="25.884" height="25.884" rx="4" transform="translate(38.264)"/>
              <rect id="Rectangle_18-2" data-name="Rectangle 18" class="cls-31" width="25.884" height="25.884" rx="4" transform="translate(76.527)"/>
              <rect id="Rectangle_22-2" data-name="Rectangle 22" class="cls-31" width="25.884" height="25.884" rx="4" transform="translate(-38 0)"/>
            </g>
            <circle id="Ellipse_19-2" data-name="Ellipse 19" class="cls-10" cx="7.315" cy="7.315" r="7.315" transform="translate(82.154 0)"/>
            <text id="Blockchain" class="cls-36" transform="translate(11.193 62.779)"><tspan x="0" y="0">Blockchain</tspan></text>
          </g>
          <g id="id-card_1_2" data-name="id-card (1)" transform="translate(83.28 29.191)">
            <path id="Path_33-2" data-name="Path 33" class="cls-33" d="M21.358,5H11.1a.605.605,0,0,0-.6.6V20.684a.605.605,0,0,0,.6.6H21.358a.605.605,0,0,0,.6-.6V5.6A.6.6,0,0,0,21.358,5ZM16.231,7.715a.9.9,0,1,1,.9-.9A.9.9,0,0,1,16.231,7.715Z" transform="translate(-10.5 -5)"/>
            <path id="Path_34-2" data-name="Path 34" class="cls-34" d="M10.5,41v4.826a.6.6,0,0,0,.6.6H21.358a.6.6,0,0,0,.6-.6V41Z" transform="translate(-10.5 -30.142)"/>
            <g id="Group_8-2" data-name="Group 8" transform="translate(2.715 12.065)">
              <path id="Path_35-2" data-name="Path 35" class="cls-10" d="M19.8,49.6h5.429a.3.3,0,1,0,0-.6H19.8a.3.3,0,0,0,0,.6Z" transform="translate(-19.5 -47.794)"/>
              <path id="Path_36-2" data-name="Path 36" class="cls-10" d="M23.8,45.6h3.016a.3.3,0,1,0,0-.6H23.8a.3.3,0,0,0,0,.6Z" transform="translate(-22.294 -45)"/>
              <path id="Path_37-2" data-name="Path 37" class="cls-10" d="M20.1,53h-.3a.3.3,0,0,0,0,.6h.3a.3.3,0,1,0,0-.6Z" transform="translate(-19.5 -50.587)"/>
              <path id="Path_38-2" data-name="Path 38" class="cls-10" d="M25.4,53h-.6a.3.3,0,0,0,0,.6h.6a.3.3,0,0,0,0-.6Z" transform="translate(-22.992 -50.587)"/>
              <path id="Path_39-2" data-name="Path 39" class="cls-10" d="M31.1,53h-.3a.3.3,0,1,0,0,.6h.3a.3.3,0,1,0,0-.6Z" transform="translate(-27.182 -50.587)"/>
              <path id="Path_40-2" data-name="Path 40" class="cls-10" d="M36.4,53h-.6a.3.3,0,1,0,0,.6h.6a.3.3,0,0,0,0-.6Z" transform="translate(-30.674 -50.587)"/>
            </g>
            <path id="Path_41-2" data-name="Path 41" class="cls-34" d="M25.928,24.924a.989.989,0,0,0-.546-.863l-1.136-.58a.232.232,0,0,1-.126-.207v-.348a1.909,1.909,0,0,0,1.081-1.35A.6.6,0,0,0,25.627,21v-.3a.6.6,0,0,0-.325-.532c-.133-1.134-.883-1.593-2.088-1.593-.057,0-.113,0-.168.007a1.811,1.811,0,0,1-1.165-.274,1.511,1.511,0,0,1-.345-.3.06.06,0,0,0-.108.044c.012.106.03.229.057.363.1.5.04.428-.154.9a3.116,3.116,0,0,0-.208.858.6.6,0,0,0-.323.531V21a.6.6,0,0,0,.427.574,1.909,1.909,0,0,0,1.081,1.35v.345a.232.232,0,0,1-.129.208l-1.165.573a.99.99,0,0,0-.516.869v0Z" transform="translate(-17.484 -13.493)"/>
          </g>
        </g>
      </g>
      <g id="checked-symbol" transform="translate(491.742 544.129)">
        <path id="Path_50" data-name="Path 50" class="cls-37" d="M6.456,3.79,6.265,3.6a.541.541,0,0,0-.763,0L2.261,6.841,1.11,5.692a.541.541,0,0,0-.763,0l-.191.19a.542.542,0,0,0,0,.763L1.878,8.368a.542.542,0,0,0,.763,0L6.456,4.553A.542.542,0,0,0,6.456,3.79Z" transform="translate(0 -3.442)"/>
      </g>
    </g>
    <g id="Group_163" data-name="Group 163" transform="translate(102 -215)">
      <g id="Group_15-3" data-name="Group 15" transform="translate(412.774 531.841)">
        <g id="Group_14-3" data-name="Group 14" transform="translate(-7 2)">
          <g id="Group_7-3" data-name="Group 7" transform="translate(0 4.964)">
            <g id="Group_4-3" data-name="Group 4" transform="translate(0 19.132)">
              <line id="Line_1-3" data-name="Line 1" class="cls-17" x1="116.621" y1="0.379" transform="translate(-19.274 12.563)"/>
              <rect id="Rectangle_16-3" data-name="Rectangle 16" class="cls-31" width="25.884" height="25.884" rx="4"/>
              <rect id="Rectangle_17-3" data-name="Rectangle 17" class="cls-31" width="25.884" height="25.884" rx="4" transform="translate(38.264)"/>
              <rect id="Rectangle_18-3" data-name="Rectangle 18" class="cls-31" width="25.884" height="25.884" rx="4" transform="translate(76.527)"/>
              <rect id="Rectangle_22-3" data-name="Rectangle 22" class="cls-31" width="25.884" height="25.884" rx="4" transform="translate(-38 0)"/>
            </g>
            <circle id="Ellipse_19-3" data-name="Ellipse 19" class="cls-10" cx="7.315" cy="7.315" r="7.315" transform="translate(82.154 0)"/>
            <text id="Blockchain-2" data-name="Blockchain" class="cls-36" transform="translate(11.193 62.779)"><tspan x="0" y="0">Blockchain</tspan></text>
          </g>
          <g id="id-card_1_3" data-name="id-card (1)" transform="translate(83.28 29.191)">
            <path id="Path_33-3" data-name="Path 33" class="cls-33" d="M21.358,5H11.1a.605.605,0,0,0-.6.6V20.684a.605.605,0,0,0,.6.6H21.358a.605.605,0,0,0,.6-.6V5.6A.6.6,0,0,0,21.358,5ZM16.231,7.715a.9.9,0,1,1,.9-.9A.9.9,0,0,1,16.231,7.715Z" transform="translate(-10.5 -5)"/>
            <path id="Path_34-3" data-name="Path 34" class="cls-34" d="M10.5,41v4.826a.6.6,0,0,0,.6.6H21.358a.6.6,0,0,0,.6-.6V41Z" transform="translate(-10.5 -30.142)"/>
            <g id="Group_8-3" data-name="Group 8" transform="translate(2.715 12.065)">
              <path id="Path_35-3" data-name="Path 35" class="cls-10" d="M19.8,49.6h5.429a.3.3,0,1,0,0-.6H19.8a.3.3,0,0,0,0,.6Z" transform="translate(-19.5 -47.794)"/>
              <path id="Path_36-3" data-name="Path 36" class="cls-10" d="M23.8,45.6h3.016a.3.3,0,1,0,0-.6H23.8a.3.3,0,0,0,0,.6Z" transform="translate(-22.294 -45)"/>
              <path id="Path_37-3" data-name="Path 37" class="cls-10" d="M20.1,53h-.3a.3.3,0,0,0,0,.6h.3a.3.3,0,1,0,0-.6Z" transform="translate(-19.5 -50.587)"/>
              <path id="Path_38-3" data-name="Path 38" class="cls-10" d="M25.4,53h-.6a.3.3,0,0,0,0,.6h.6a.3.3,0,0,0,0-.6Z" transform="translate(-22.992 -50.587)"/>
              <path id="Path_39-3" data-name="Path 39" class="cls-10" d="M31.1,53h-.3a.3.3,0,1,0,0,.6h.3a.3.3,0,1,0,0-.6Z" transform="translate(-27.182 -50.587)"/>
              <path id="Path_40-3" data-name="Path 40" class="cls-10" d="M36.4,53h-.6a.3.3,0,1,0,0,.6h.6a.3.3,0,0,0,0-.6Z" transform="translate(-30.674 -50.587)"/>
            </g>
            <path id="Path_41-3" data-name="Path 41" class="cls-34" d="M25.928,24.924a.989.989,0,0,0-.546-.863l-1.136-.58a.232.232,0,0,1-.126-.207v-.348a1.909,1.909,0,0,0,1.081-1.35A.6.6,0,0,0,25.627,21v-.3a.6.6,0,0,0-.325-.532c-.133-1.134-.883-1.593-2.088-1.593-.057,0-.113,0-.168.007a1.811,1.811,0,0,1-1.165-.274,1.511,1.511,0,0,1-.345-.3.06.06,0,0,0-.108.044c.012.106.03.229.057.363.1.5.04.428-.154.9a3.116,3.116,0,0,0-.208.858.6.6,0,0,0-.323.531V21a.6.6,0,0,0,.427.574,1.909,1.909,0,0,0,1.081,1.35v.345a.232.232,0,0,1-.129.208l-1.165.573a.99.99,0,0,0-.516.869v0Z" transform="translate(-17.484 -13.493)"/>
          </g>
        </g>
      </g>
      <g id="checked-symbol-2" data-name="checked-symbol" transform="translate(491.742 544.129)">
        <path id="Path_50-2" data-name="Path 50" class="cls-37" d="M6.456,3.79,6.265,3.6a.541.541,0,0,0-.763,0L2.261,6.841,1.11,5.692a.541.541,0,0,0-.763,0l-.191.19a.542.542,0,0,0,0,.763L1.878,8.368a.542.542,0,0,0,.763,0L6.456,4.553A.542.542,0,0,0,6.456,3.79Z" transform="translate(0 -3.442)"/>
      </g>
    </g>
  </g>
</svg>
